<svg xmlns="http://www.w3.org/2000/svg" viewBox="0 0 292 149"><defs><style>.a{fill:#fff;stroke:#333;stroke-miterlimit:10;stroke-width:4px;}.b{fill:#333;}</style></defs><title>ch-cloud</title><path class="a" d="M540,260c0-39.76-36.26-72-81-72-30.43,0-56.93,14.92-70.77,37A54,54,0,0,0,327,260.14c-1-.08-2-0.14-3-0.14-19.88,0-36,16.62-36,36.5S304.12,333,324,333H540c19.88,0,36-16.62,36-36.5S559.88,260,540,260Z" transform="translate(-286 -186)"/><path class="b" d="M365.33,292.54a6.92,6.92,0,0,0-5.7,2.57,11,11,0,0,0-2.07,7.08q0,4.73,2,7.15a7,7,0,0,0,5.77,2.43,15.17,15.17,0,0,0,3.16-.33q1.53-.33,3.18-0.83v3.6a19.29,19.29,0,0,1-6.86,1.14q-5.64,0-8.67-3.42t-3-9.78a15.81,15.81,0,0,1,1.47-7,10.48,10.48,0,0,1,4.25-4.61,12.84,12.84,0,0,1,6.52-1.6,16.18,16.18,0,0,1,7.28,1.65l-1.51,3.5a22.57,22.57,0,0,0-2.75-1.08A9.91,9.91,0,0,0,365.33,292.54Z" transform="translate(-286 -186)"/><path class="b" d="M391.31,305.24q0,4.76-2.44,7.44a8.75,8.75,0,0,1-6.8,2.67,9.32,9.32,0,0,1-4.82-1.23,8.12,8.12,0,0,1-3.22-3.53,12,12,0,0,1-1.12-5.34q0-4.73,2.43-7.38a8.8,8.8,0,0,1,6.84-2.65,8.56,8.56,0,0,1,6.68,2.72A10.49,10.49,0,0,1,391.31,305.24Zm-14.15,0q0,6.73,5,6.73t4.92-6.73q0-6.66-5-6.66a4.23,4.23,0,0,0-3.77,1.72A8.77,8.77,0,0,0,377.16,305.24Z" transform="translate(-286 -186)"/><path class="b" d="M410.46,315h-4.15V303a5.23,5.23,0,0,0-.91-3.36,3.5,3.5,0,0,0-2.87-1.11,4.57,4.57,0,0,0-3.83,1.55q-1.21,1.55-1.21,5.19V315h-4.13V295.56h3.23l0.58,2.55h0.21a5.75,5.75,0,0,1,2.5-2.14,8.36,8.36,0,0,1,3.59-.76q7,0,7,7.12V315Z" transform="translate(-286 -186)"/><path class="b" d="M423.27,298.69h-4.75V315h-4.15V298.69h-3.2v-1.93l3.2-1.27v-1.27q0-3.45,1.62-5.11a6.61,6.61,0,0,1,4.94-1.66,13.18,13.18,0,0,1,4.29.72l-1.09,3.13a9.52,9.52,0,0,0-2.92-.49,2.37,2.37,0,0,0-2,.87,4.38,4.38,0,0,0-.64,2.61v1.27h4.75v3.13Zm3.06-8.28a2.29,2.29,0,0,1,.61-1.71,2.36,2.36,0,0,1,1.73-.6,2.31,2.31,0,0,1,1.7.6,2.29,2.29,0,0,1,.61,1.71,2.24,2.24,0,0,1-.61,1.66,2.29,2.29,0,0,1-1.7.61,2.34,2.34,0,0,1-1.73-.61A2.24,2.24,0,0,1,426.33,290.41ZM430.7,315h-4.13V295.56h4.13V315Z" transform="translate(-286 -186)"/><path class="b" d="M450.34,295.56v2.27l-3.32.62a5.36,5.36,0,0,1,.76,1.51,6,6,0,0,1,.3,1.9,5.82,5.82,0,0,1-2.07,4.73,8.68,8.68,0,0,1-5.71,1.72,9.26,9.26,0,0,1-1.69-.14,2.33,2.33,0,0,0-1.34,1.93,1.07,1.07,0,0,0,.62,1,5.4,5.4,0,0,0,2.29.33h3.39a7.54,7.54,0,0,1,4.89,1.37,4.82,4.82,0,0,1,1.67,4,5.75,5.75,0,0,1-2.72,5.1q-2.72,1.79-7.87,1.79a10.87,10.87,0,0,1-6.06-1.41,4.55,4.55,0,0,1-2.09-4,4.27,4.27,0,0,1,1.13-3,6.08,6.08,0,0,1,3.17-1.7,3.1,3.1,0,0,1-1.36-1.13,2.86,2.86,0,0,1-.54-1.64,2.83,2.83,0,0,1,.62-1.85,7.1,7.1,0,0,1,1.83-1.49,5.41,5.41,0,0,1-2.45-2.12,6.23,6.23,0,0,1-.94-3.44,6.16,6.16,0,0,1,2-4.9,8.39,8.39,0,0,1,5.69-1.74,13.84,13.84,0,0,1,1.73.11,10.9,10.9,0,0,1,1.36.24h6.73ZM435.07,318a2.27,2.27,0,0,0,1.2,2.06,6.62,6.62,0,0,0,3.38.72,10.22,10.22,0,0,0,5-1,2.9,2.9,0,0,0,1.65-2.57,1.93,1.93,0,0,0-.91-1.8,7.27,7.27,0,0,0-3.37-.54h-3.13a4.4,4.4,0,0,0-2.82.83A2.74,2.74,0,0,0,435.07,318Zm1.78-16.17a3.91,3.91,0,0,0,.94,2.81,3.56,3.56,0,0,0,2.7,1q3.59,0,3.59-3.83a4.35,4.35,0,0,0-.89-2.93,3.37,3.37,0,0,0-2.7-1,3.48,3.48,0,0,0-2.72,1A4.29,4.29,0,0,0,436.84,301.85Z" transform="translate(-286 -186)"/><path class="b" d="M472,315h-4.22V303.42H455.89V315h-4.2V289.3h4.2v10.51h11.85V289.3H472V315Z" transform="translate(-286 -186)"/><path class="b" d="M489.29,315l-0.58-2.55H488.5a5.86,5.86,0,0,1-2.45,2.13,8.2,8.2,0,0,1-3.63.77,7.13,7.13,0,0,1-5.27-1.76,7.29,7.29,0,0,1-1.74-5.33V295.56h4.17v12a5.2,5.2,0,0,0,.91,3.35,3.49,3.49,0,0,0,2.87,1.12,4.56,4.56,0,0,0,3.82-1.56q1.22-1.56,1.22-5.21v-9.69h4.15V315h-3.25Z" transform="translate(-286 -186)"/><path class="b" d="M505.67,295.21a6.75,6.75,0,0,1,5.67,2.64q2,2.64,2,7.4t-2.06,7.44a7.49,7.49,0,0,1-11.44,0h-0.28l-0.76,2.3h-3.09V287.65h4.13v6.5q0,0.72-.07,2.14t-0.11,1.81h0.18A6.56,6.56,0,0,1,505.67,295.21Zm-1.07,3.38A4.2,4.2,0,0,0,501,300q-1.1,1.47-1.13,4.91v0.28q0,3.55,1.13,5.14a4.18,4.18,0,0,0,3.67,1.59,3.73,3.73,0,0,0,3.33-1.74,9.23,9.23,0,0,0,1.13-5Q509.13,298.58,504.59,298.58Z" transform="translate(-286 -186)"/></svg>