<svg xmlns="http://www.w3.org/2000/svg" viewBox="0 0 292 210"><defs><style>.a{fill:#fff;stroke-width:4px;}.a,.b{stroke:#333;stroke-miterlimit:10;}.b{fill:none;stroke-width:3px;}.c{fill:#009245;}.d{fill:#f15a24;}</style></defs><title>iaas</title><path class="a" d="M540,260c0-39.76-36.26-72-81-72-30.43,0-56.93,14.92-70.77,37A54,54,0,0,0,327,260.14c-1-.08-2-0.14-3-0.14-19.88,0-36,16.62-36,36.5S304.12,333,324,333H540c19.88,0,36-16.62,36-36.5S559.88,260,540,260Z" transform="translate(-286 -186)"/><polyline class="b" points="29 174 47 174 83 174 83 147"/><polyline class="b" points="263 174 245 174 209 174 209 147"/><polyline class="b" points="29 201 110 201 110 147"/><polyline class="b" points="263 201 182 201 182 147"/><circle class="c" cx="29" cy="174" r="9"/><circle class="d" cx="29" cy="201" r="9"/><circle class="c" cx="263" cy="174" r="9"/><circle class="d" cx="263" cy="201" r="9"/></svg>