<svg xmlns="http://www.w3.org/2000/svg" viewBox="0 0 299.83 36.19"><defs><style>.a{fill:#333;}</style></defs><title>ConfigHub Managed</title><path class="a" d="M269.59,204.06a6.92,6.92,0,0,0-5.7,2.57,11,11,0,0,0-2.07,7.08q0,4.73,2,7.15a7,7,0,0,0,5.77,2.43,15.17,15.17,0,0,0,3.16-.33q1.53-.33,3.18-0.83v3.6a19.29,19.29,0,0,1-6.86,1.14q-5.64,0-8.67-3.42t-3-9.78a15.81,15.81,0,0,1,1.47-7,10.48,10.48,0,0,1,4.25-4.61,12.84,12.84,0,0,1,6.52-1.6,16.18,16.18,0,0,1,7.28,1.65l-1.51,3.5a22.57,22.57,0,0,0-2.75-1.08A9.91,9.91,0,0,0,269.59,204.06Z" transform="translate(-257.39 -198.98)"/><path class="a" d="M295.57,216.77q0,4.76-2.44,7.44a8.75,8.75,0,0,1-6.8,2.67,9.32,9.32,0,0,1-4.82-1.23,8.12,8.12,0,0,1-3.22-3.53,12,12,0,0,1-1.12-5.34q0-4.73,2.43-7.38a8.8,8.8,0,0,1,6.84-2.65,8.56,8.56,0,0,1,6.68,2.72A10.49,10.49,0,0,1,295.57,216.77Zm-14.15,0q0,6.73,5,6.73t4.92-6.73q0-6.66-5-6.66a4.23,4.23,0,0,0-3.77,1.72A8.77,8.77,0,0,0,281.42,216.77Z" transform="translate(-257.39 -198.98)"/><path class="a" d="M314.72,226.52h-4.15v-12a5.23,5.23,0,0,0-.91-3.36,3.5,3.5,0,0,0-2.87-1.11,4.57,4.57,0,0,0-3.83,1.55q-1.21,1.55-1.21,5.19v9.69h-4.13V207.08h3.23l0.58,2.55h0.21a5.75,5.75,0,0,1,2.5-2.14,8.36,8.36,0,0,1,3.59-.76q7,0,7,7.12v12.67Z" transform="translate(-257.39 -198.98)"/><path class="a" d="M327.53,210.21h-4.75v16.31h-4.15V210.21h-3.2v-1.93l3.2-1.27v-1.27q0-3.45,1.62-5.11a6.61,6.61,0,0,1,4.94-1.66,13.18,13.18,0,0,1,4.29.72l-1.09,3.13a9.52,9.52,0,0,0-2.92-.49,2.37,2.37,0,0,0-2,.87,4.38,4.38,0,0,0-.64,2.61v1.27h4.75v3.13Zm3.06-8.28a2.29,2.29,0,0,1,.61-1.71,2.36,2.36,0,0,1,1.73-.6,2.31,2.31,0,0,1,1.7.6,2.29,2.29,0,0,1,.61,1.71,2.24,2.24,0,0,1-.61,1.66,2.29,2.29,0,0,1-1.7.61,2.34,2.34,0,0,1-1.73-.61A2.24,2.24,0,0,1,330.58,201.93ZM335,226.52h-4.13V207.08H335v19.44Z" transform="translate(-257.39 -198.98)"/><path class="a" d="M354.6,207.08v2.27l-3.32.62a5.36,5.36,0,0,1,.76,1.51,6,6,0,0,1,.3,1.9,5.82,5.82,0,0,1-2.07,4.73,8.68,8.68,0,0,1-5.71,1.72,9.26,9.26,0,0,1-1.69-.14,2.33,2.33,0,0,0-1.34,1.93,1.07,1.07,0,0,0,.62,1,5.4,5.4,0,0,0,2.29.33h3.39a7.54,7.54,0,0,1,4.89,1.37,4.82,4.82,0,0,1,1.67,4,5.75,5.75,0,0,1-2.72,5.1q-2.72,1.79-7.87,1.79a10.87,10.87,0,0,1-6.06-1.41,4.55,4.55,0,0,1-2.09-4,4.27,4.27,0,0,1,1.13-3,6.08,6.08,0,0,1,3.17-1.7,3.1,3.1,0,0,1-1.36-1.13,2.86,2.86,0,0,1-.54-1.64,2.83,2.83,0,0,1,.62-1.85,7.1,7.1,0,0,1,1.83-1.49,5.41,5.41,0,0,1-2.45-2.12,6.23,6.23,0,0,1-.94-3.44,6.16,6.16,0,0,1,2-4.9,8.39,8.39,0,0,1,5.69-1.74,13.84,13.84,0,0,1,1.73.11,10.9,10.9,0,0,1,1.36.24h6.73Zm-15.28,22.46a2.27,2.27,0,0,0,1.2,2.06,6.62,6.62,0,0,0,3.38.72,10.22,10.22,0,0,0,5-1,2.9,2.9,0,0,0,1.65-2.57,1.93,1.93,0,0,0-.91-1.8,7.27,7.27,0,0,0-3.37-.54H343.2a4.4,4.4,0,0,0-2.82.83A2.74,2.74,0,0,0,339.33,229.55Zm1.78-16.17a3.91,3.91,0,0,0,.94,2.81,3.56,3.56,0,0,0,2.7,1q3.59,0,3.59-3.83a4.35,4.35,0,0,0-.89-2.93,3.37,3.37,0,0,0-2.7-1,3.48,3.48,0,0,0-2.72,1A4.29,4.29,0,0,0,341.1,213.37Z" transform="translate(-257.39 -198.98)"/><path class="a" d="M376.21,226.52H372V214.94H360.15v11.58h-4.2v-25.7h4.2v10.51H372V200.82h4.22v25.7Z" transform="translate(-257.39 -198.98)"/><path class="a" d="M393.55,226.52L393,224h-0.21a5.86,5.86,0,0,1-2.45,2.13,8.2,8.2,0,0,1-3.63.77,7.13,7.13,0,0,1-5.27-1.76,7.29,7.29,0,0,1-1.74-5.33V207.08h4.17v12a5.2,5.2,0,0,0,.91,3.35,3.49,3.49,0,0,0,2.87,1.12,4.56,4.56,0,0,0,3.82-1.56q1.22-1.56,1.22-5.21v-9.69h4.15v19.44h-3.25Z" transform="translate(-257.39 -198.98)"/><path class="a" d="M409.93,206.73a6.75,6.75,0,0,1,5.67,2.64q2,2.64,2,7.4t-2.06,7.44a7.49,7.49,0,0,1-11.44,0h-0.28l-0.76,2.3H400V199.17h4.13v6.5q0,0.72-.07,2.14t-0.11,1.81h0.18A6.56,6.56,0,0,1,409.93,206.73Zm-1.07,3.38a4.2,4.2,0,0,0-3.59,1.47q-1.1,1.47-1.13,4.91v0.28q0,3.55,1.13,5.14a4.18,4.18,0,0,0,3.67,1.59,3.72,3.72,0,0,0,3.33-1.74,9.23,9.23,0,0,0,1.13-5Q413.39,210.1,408.85,210.1Z" transform="translate(-257.39 -198.98)"/><path d="M437,222.92l12.88-22.1h2.64l-5.29,25.7h-1.78l3.36-15.84q1.39-6.49,1.76-7.86h-0.11l-13.71,23.7h-0.9l-3.9-23.7h-0.11q-0.35,2.71-1.37,7.49L427,226.52h-1.69l5.43-25.7h2.51l3.6,22.1H437Z" transform="translate(-257.39 -198.98)"/><path d="M462.47,207.12q4.08,0,4.9,3.85h0.11l1-3.55h1.41l-4,19.11h-1.44l0.79-4.82h-0.11a12.71,12.71,0,0,1-3.29,3.83,6.83,6.83,0,0,1-4.17,1.34q-4.94,0-4.94-6.57a16.93,16.93,0,0,1,1.32-6.61,11.72,11.72,0,0,1,3.52-4.86A7.77,7.77,0,0,1,462.47,207.12Zm-4.38,18.18a5.41,5.41,0,0,0,3.12-1.09,11.12,11.12,0,0,0,2.79-2.92,14.37,14.37,0,0,0,1.89-4,13.71,13.71,0,0,0,.65-3.74,6.42,6.42,0,0,0-.46-2.49,4,4,0,0,0-1.35-1.74,3.74,3.74,0,0,0-2.23-.64,6.05,6.05,0,0,0-3.94,1.44,10.29,10.29,0,0,0-2.88,4.32,15.6,15.6,0,0,0-1.12,5.72,7,7,0,0,0,.88,3.93A3,3,0,0,0,458.1,225.29Z" transform="translate(-257.39 -198.98)"/><path d="M482.51,226.52l2.62-12.16a12.67,12.67,0,0,0,.37-2.74,3,3,0,0,0-.76-2.2,3.16,3.16,0,0,0-2.36-.79,6.46,6.46,0,0,0-3.7,1.18,9.51,9.51,0,0,0-2.92,3.3,18.14,18.14,0,0,0-1.82,5l-1.79,8.38h-1.72l4.06-19.11h1.44l-0.65,3.88h0.11q2.88-4.18,7.31-4.18a4.7,4.7,0,0,1,3.43,1.13,4.34,4.34,0,0,1,1.14,3.23,16,16,0,0,1-.42,3.2l-2.6,11.85h-1.72Z" transform="translate(-257.39 -198.98)"/><path d="M498.88,207.12q4.08,0,4.9,3.85h0.11l1-3.55h1.41l-4,19.11h-1.44l0.79-4.82h-0.11a12.71,12.71,0,0,1-3.29,3.83,6.83,6.83,0,0,1-4.17,1.34q-4.94,0-4.94-6.57a16.93,16.93,0,0,1,1.32-6.61,11.72,11.72,0,0,1,3.52-4.86A7.77,7.77,0,0,1,498.88,207.12Zm-4.38,18.18a5.41,5.41,0,0,0,3.12-1.09,11.12,11.12,0,0,0,2.79-2.92,14.37,14.37,0,0,0,1.89-4,13.71,13.71,0,0,0,.65-3.74,6.42,6.42,0,0,0-.46-2.49,4,4,0,0,0-1.35-1.74,3.74,3.74,0,0,0-2.23-.64,6.05,6.05,0,0,0-3.94,1.44,10.29,10.29,0,0,0-2.88,4.32,15.6,15.6,0,0,0-1.12,5.72,7,7,0,0,0,.88,3.93A3,3,0,0,0,494.5,225.29Z" transform="translate(-257.39 -198.98)"/><path d="M524.82,207.42l-0.3,1.39-4.27.19a3.85,3.85,0,0,1,.76,1.48,6.68,6.68,0,0,1,.31,2,7.33,7.33,0,0,1-1,3.63,6.18,6.18,0,0,1-2.6,2.56,8.1,8.1,0,0,1-3.75.84,3.31,3.31,0,0,1-1.35-.16,7.48,7.48,0,0,0-2.18,1.28,2,2,0,0,0-.77,1.42,1.34,1.34,0,0,0,.55,1.13,4.2,4.2,0,0,0,2,.55l2.13,0.19q6.08,0.54,6.08,4.64a5.58,5.58,0,0,1-1.14,3.47,7.18,7.18,0,0,1-3.29,2.31,14.51,14.51,0,0,1-5.12.81,9,9,0,0,1-5.12-1.27,4.07,4.07,0,0,1-1.85-3.57q0-4.15,5.43-5.87A2.34,2.34,0,0,1,508,222.3q0-2.16,3.36-3.55a4.56,4.56,0,0,1-1.94-1.85,5.5,5.5,0,0,1-.69-2.77,7.06,7.06,0,0,1,.94-3.59,6.76,6.76,0,0,1,2.6-2.57,7.3,7.3,0,0,1,3.63-.93,10,10,0,0,1,2.58.37h6.35Zm-19.09,22.75a2.87,2.87,0,0,0,1.42,2.64,7.61,7.61,0,0,0,3.94.86,10.13,10.13,0,0,0,5.57-1.31,4.08,4.08,0,0,0,2-3.59,2.67,2.67,0,0,0-1.1-2.29,7.85,7.85,0,0,0-3.84-1l-2.81-.26a9.13,9.13,0,0,0-4,2A4,4,0,0,0,505.73,230.16ZM510.49,214a4,4,0,0,0,1,3,3.93,3.93,0,0,0,2.89,1,5.44,5.44,0,0,0,2.71-.65,4.35,4.35,0,0,0,1.8-2,6.85,6.85,0,0,0,.64-3,3.9,3.9,0,0,0-1-2.84,3.67,3.67,0,0,0-2.76-1,5.18,5.18,0,0,0-2.83.76,5.09,5.09,0,0,0-1.85,2A5.84,5.84,0,0,0,510.49,214Z" transform="translate(-257.39 -198.98)"/><path d="M530.21,226.87a6,6,0,0,1-4.75-1.92,7.82,7.82,0,0,1-1.71-5.37,15.35,15.35,0,0,1,1.25-6.1,11.53,11.53,0,0,1,3.44-4.64,7.62,7.62,0,0,1,4.83-1.72,4.61,4.61,0,0,1,3.2,1.07,3.72,3.72,0,0,1,1.2,2.92,5.31,5.31,0,0,1-2.87,4.85q-2.87,1.67-8.53,1.67h-0.58a12.82,12.82,0,0,0-.11,1.72,6.62,6.62,0,0,0,1.3,4.42,4.66,4.66,0,0,0,3.74,1.52,10.73,10.73,0,0,0,4.85-1.28v1.65A11.73,11.73,0,0,1,530.21,226.87Zm2.85-18.25a5.91,5.91,0,0,0-4.28,2,11.85,11.85,0,0,0-2.86,5.42h0.86q9.09,0,9.09-4.75a2.63,2.63,0,0,0-.76-1.94A2.77,2.77,0,0,0,533.06,208.63Z" transform="translate(-257.39 -198.98)"/><path d="M548,207.12a4.52,4.52,0,0,1,4.9,3.85H553q0.21-1.16,2.51-11.79h1.74l-5.8,27.35H550l0.79-4.82h-0.11q-3,5.17-7.45,5.17-4.94,0-4.94-6.57a17.2,17.2,0,0,1,1.26-6.5,11.8,11.8,0,0,1,3.47-4.9A7.75,7.75,0,0,1,548,207.12Zm-4.38,18.18a5.46,5.46,0,0,0,3.14-1.1,11,11,0,0,0,2.81-3,14.41,14.41,0,0,0,1.87-4.06,13.85,13.85,0,0,0,.63-3.68A5.44,5.44,0,0,0,551,210a3.61,3.61,0,0,0-3-1.33,6,6,0,0,0-3.94,1.46,10.47,10.47,0,0,0-2.88,4.26,15.33,15.33,0,0,0-1.12,5.76Q540.08,225.29,543.61,225.29Z" transform="translate(-257.39 -198.98)"/></svg>