<svg xmlns="http://www.w3.org/2000/svg" viewBox="0 0 181.64 43.09"><defs><style>.a{fill:#fff;}</style></defs><title>lw_beta</title><path class="a" d="M269.59,204.06a6.92,6.92,0,0,0-5.7,2.57,11,11,0,0,0-2.07,7.08q0,4.73,2,7.15a7,7,0,0,0,5.77,2.43,15.17,15.17,0,0,0,3.16-.33q1.53-.33,3.18-0.83v3.6a19.29,19.29,0,0,1-6.86,1.14q-5.64,0-8.67-3.42t-3-9.78a15.81,15.81,0,0,1,1.47-7,10.48,10.48,0,0,1,4.25-4.61,12.84,12.84,0,0,1,6.52-1.6,16.18,16.18,0,0,1,7.28,1.65l-1.51,3.5a22.57,22.57,0,0,0-2.75-1.08A9.91,9.91,0,0,0,269.59,204.06Z" transform="translate(-257.39 -192.08)"/><path class="a" d="M295.57,216.77q0,4.76-2.44,7.44a8.75,8.75,0,0,1-6.8,2.67,9.32,9.32,0,0,1-4.82-1.23,8.12,8.12,0,0,1-3.22-3.53,12,12,0,0,1-1.12-5.34q0-4.73,2.43-7.38a8.8,8.8,0,0,1,6.84-2.65,8.56,8.56,0,0,1,6.68,2.72A10.49,10.49,0,0,1,295.57,216.77Zm-14.15,0q0,6.73,5,6.73t4.92-6.73q0-6.66-5-6.66a4.23,4.23,0,0,0-3.77,1.72A8.77,8.77,0,0,0,281.42,216.77Z" transform="translate(-257.39 -192.08)"/><path class="a" d="M314.72,226.52h-4.15v-12a5.23,5.23,0,0,0-.91-3.36,3.5,3.5,0,0,0-2.87-1.11,4.57,4.57,0,0,0-3.83,1.55q-1.21,1.55-1.21,5.19v9.69h-4.13V207.08h3.23l0.58,2.55h0.21a5.75,5.75,0,0,1,2.5-2.14,8.36,8.36,0,0,1,3.59-.76q7,0,7,7.12v12.67Z" transform="translate(-257.39 -192.08)"/><path class="a" d="M327.53,210.21h-4.75v16.31h-4.15V210.21h-3.2v-1.93l3.2-1.27v-1.27q0-3.45,1.62-5.11a6.61,6.61,0,0,1,4.94-1.66,13.18,13.18,0,0,1,4.29.72l-1.09,3.13a9.52,9.52,0,0,0-2.92-.49,2.37,2.37,0,0,0-2,.87,4.38,4.38,0,0,0-.64,2.61v1.27h4.75v3.13Zm3.06-8.28a2.29,2.29,0,0,1,.61-1.71,2.36,2.36,0,0,1,1.73-.6,2.31,2.31,0,0,1,1.7.6,2.29,2.29,0,0,1,.61,1.71,2.24,2.24,0,0,1-.61,1.66,2.29,2.29,0,0,1-1.7.61,2.34,2.34,0,0,1-1.73-.61A2.24,2.24,0,0,1,330.58,201.93ZM335,226.52h-4.13V207.08H335v19.44Z" transform="translate(-257.39 -192.08)"/><path class="a" d="M354.6,207.08v2.27l-3.32.62a5.36,5.36,0,0,1,.76,1.51,6,6,0,0,1,.3,1.9,5.82,5.82,0,0,1-2.07,4.73,8.68,8.68,0,0,1-5.71,1.72,9.26,9.26,0,0,1-1.69-.14,2.33,2.33,0,0,0-1.34,1.93,1.07,1.07,0,0,0,.62,1,5.4,5.4,0,0,0,2.29.33h3.39a7.54,7.54,0,0,1,4.89,1.37,4.82,4.82,0,0,1,1.67,4,5.75,5.75,0,0,1-2.72,5.1q-2.72,1.79-7.87,1.79a10.87,10.87,0,0,1-6.06-1.41,4.55,4.55,0,0,1-2.09-4,4.27,4.27,0,0,1,1.13-3,6.08,6.08,0,0,1,3.17-1.7,3.1,3.1,0,0,1-1.36-1.13,2.86,2.86,0,0,1-.54-1.64,2.83,2.83,0,0,1,.62-1.85,7.1,7.1,0,0,1,1.83-1.49,5.41,5.41,0,0,1-2.45-2.12,6.23,6.23,0,0,1-.94-3.44,6.16,6.16,0,0,1,2-4.9,8.39,8.39,0,0,1,5.69-1.74,13.84,13.84,0,0,1,1.73.11,10.9,10.9,0,0,1,1.36.24h6.73Zm-15.28,22.46a2.27,2.27,0,0,0,1.2,2.06,6.62,6.62,0,0,0,3.38.72,10.22,10.22,0,0,0,5-1,2.9,2.9,0,0,0,1.65-2.57,1.93,1.93,0,0,0-.91-1.8,7.27,7.27,0,0,0-3.37-.54H343.2a4.4,4.4,0,0,0-2.82.83A2.74,2.74,0,0,0,339.33,229.55Zm1.78-16.17a3.91,3.91,0,0,0,.94,2.81,3.56,3.56,0,0,0,2.7,1q3.59,0,3.59-3.83a4.35,4.35,0,0,0-.89-2.93,3.37,3.37,0,0,0-2.7-1,3.48,3.48,0,0,0-2.72,1A4.29,4.29,0,0,0,341.1,213.37Z" transform="translate(-257.39 -192.08)"/><path class="a" d="M376.21,226.52H372V214.94H360.15v11.58h-4.2v-25.7h4.2v10.51H372V200.82h4.22v25.7Z" transform="translate(-257.39 -192.08)"/><path class="a" d="M393.55,226.52L393,224h-0.21a5.86,5.86,0,0,1-2.45,2.13,8.2,8.2,0,0,1-3.63.77,7.13,7.13,0,0,1-5.27-1.76,7.29,7.29,0,0,1-1.74-5.33V207.08h4.17v12a5.2,5.2,0,0,0,.91,3.35,3.49,3.49,0,0,0,2.87,1.12,4.56,4.56,0,0,0,3.82-1.56q1.22-1.56,1.22-5.21v-9.69h4.15v19.44h-3.25Z" transform="translate(-257.39 -192.08)"/><path class="a" d="M409.93,206.73a6.75,6.75,0,0,1,5.67,2.64q2,2.64,2,7.4t-2.06,7.44a7.49,7.49,0,0,1-11.44,0h-0.28l-0.76,2.3H400V199.17h4.13v6.5q0,0.72-.07,2.14t-0.11,1.81h0.18A6.56,6.56,0,0,1,409.93,206.73Zm-1.07,3.38a4.2,4.2,0,0,0-3.59,1.47q-1.1,1.47-1.13,4.91v0.28q0,3.55,1.13,5.14a4.18,4.18,0,0,0,3.67,1.59,3.72,3.72,0,0,0,3.33-1.74,9.23,9.23,0,0,0,1.13-5Q413.39,210.1,408.85,210.1Z" transform="translate(-257.39 -192.08)"/><path class="a" d="M411.57,205.94a2.56,2.56,0,0,1-1.5-.45,2.74,2.74,0,0,1-1-1.22H409l-0.62,1.49h-1.1l2.9-13.68h1.48L411,195.34q-0.24,1.13-.66,2.64h0.08a6.38,6.38,0,0,1,1.61-1.52,3.08,3.08,0,0,1,1.64-.49,2.34,2.34,0,0,1,1.93.87,3.73,3.73,0,0,1,.69,2.39,9.36,9.36,0,0,1-.6,3.4,5.69,5.69,0,0,1-1.68,2.43A3.75,3.75,0,0,1,411.57,205.94Zm1.63-8.75a2.54,2.54,0,0,0-1.72.83,5.94,5.94,0,0,0-1.39,2.1,6.83,6.83,0,0,0-.51,2.59,2.07,2.07,0,0,0,.49,1.48,1.85,1.85,0,0,0,1.41.51,2.33,2.33,0,0,0,1.62-.71,5,5,0,0,0,1.21-2,8.44,8.44,0,0,0,.46-2.79Q414.77,197.19,413.2,197.19Z" transform="translate(-257.39 -192.08)"/><path class="a" d="M420.59,205.94a3.36,3.36,0,0,1-2.54-1,3.67,3.67,0,0,1-.92-2.65,7.91,7.91,0,0,1,.65-3.17,5.87,5.87,0,0,1,1.74-2.36,3.78,3.78,0,0,1,2.38-.84,3,3,0,0,1,2,.58,2,2,0,0,1,.68,1.63,2.78,2.78,0,0,1-1.46,2.48,8,8,0,0,1-4.17.9h-0.29l0,0.7a2.72,2.72,0,0,0,.54,1.8,2.06,2.06,0,0,0,1.67.65,4.36,4.36,0,0,0,1.14-.16,8.74,8.74,0,0,0,1.45-.58v1.28a7.89,7.89,0,0,1-1.46.54A5.92,5.92,0,0,1,420.59,205.94Zm1.22-8.73a2.35,2.35,0,0,0-1.7.83,5.39,5.39,0,0,0-1.22,2.29H419a7.15,7.15,0,0,0,3.07-.52,1.64,1.64,0,0,0,1.07-1.52,1,1,0,0,0-.32-0.77A1.42,1.42,0,0,0,421.81,197.21Z" transform="translate(-257.39 -192.08)"/><path class="a" d="M427.72,204.73a4.75,4.75,0,0,0,1.27-.23v1.13a4.05,4.05,0,0,1-.74.21,3.78,3.78,0,0,1-.7.09,2.44,2.44,0,0,1-1.68-.52,2,2,0,0,1-.58-1.56,6.37,6.37,0,0,1,.16-1.32l1.12-5.29H425l0.12-.64,1.63-.69,1.1-2h0.86l-0.48,2.21h2.41l-0.23,1.12H428l-1.13,5.31a6.25,6.25,0,0,0-.16,1.16,1,1,0,0,0,.25.76A0.94,0.94,0,0,0,427.72,204.73Z" transform="translate(-257.39 -192.08)"/><path class="a" d="M434.8,196a2.48,2.48,0,0,1,1.44.44,2.82,2.82,0,0,1,1,1.25h0.1l0.59-1.51H439l-2,9.63h-1.17l0.23-1.84H436a4.33,4.33,0,0,1-3.31,2,2.32,2.32,0,0,1-1.92-.87,3.72,3.72,0,0,1-.69-2.38,9.07,9.07,0,0,1,.62-3.39,5.86,5.86,0,0,1,1.72-2.45A3.75,3.75,0,0,1,434.8,196Zm-1.67,8.76a2.47,2.47,0,0,0,1.7-.81,6,6,0,0,0,1.37-2.12,6.94,6.94,0,0,0,.53-2.62,2,2,0,0,0-.49-1.44,1.67,1.67,0,0,0-1.29-.54,2.42,2.42,0,0,0-1.7.76,5.09,5.09,0,0,0-1.24,2,8.25,8.25,0,0,0-.45,2.72,2.3,2.3,0,0,0,.41,1.5A1.42,1.42,0,0,0,433.13,204.71Z" transform="translate(-257.39 -192.08)"/></svg>