<svg xmlns="http://www.w3.org/2000/svg" viewBox="0 0 141.24 141.85"><defs><style>.a{fill:#fff;}.a,.b{stroke:#000;stroke-width:3px;}.a,.b,.c{stroke-miterlimit:10;}.b{fill:none;}.c{fill:#4d4d4d;stroke:#b3b3b3;stroke-width:4px;}.d{fill:#39b54a;}</style></defs><title>server</title><rect class="a" x="1.5" y="1.5" width="138.24" height="40.2"/><line class="b" x1="125.5" y1="9.77" x2="125.5" y2="33.43"/><line class="b" x1="117.5" y1="9.77" x2="117.5" y2="33.43"/><line class="b" x1="109.83" y1="9.77" x2="109.83" y2="33.43"/><line class="b" x1="102.17" y1="9.77" x2="102.17" y2="33.43"/><line class="b" x1="94.17" y1="9.77" x2="94.17" y2="33.43"/><line class="b" x1="86.5" y1="9.77" x2="86.5" y2="33.43"/><line class="c" x1="7.63" y1="45.45" x2="134.13" y2="45.45"/><circle class="d" cx="12.44" cy="14.58" r="4.81"/><rect class="a" x="1.5" y="48.7" width="138.24" height="40.2"/><line class="b" x1="125.5" y1="56.97" x2="125.5" y2="80.63"/><line class="b" x1="117.5" y1="56.97" x2="117.5" y2="80.63"/><line class="b" x1="109.83" y1="56.97" x2="109.83" y2="80.63"/><line class="b" x1="102.17" y1="56.97" x2="102.17" y2="80.63"/><line class="b" x1="94.17" y1="56.97" x2="94.17" y2="80.63"/><line class="b" x1="86.5" y1="56.97" x2="86.5" y2="80.63"/><line class="c" x1="7.63" y1="92.65" x2="134.13" y2="92.65"/><circle class="d" cx="12.44" cy="61.78" r="4.81"/><rect class="a" x="1.5" y="95.9" width="138.24" height="40.2"/><line class="b" x1="125.5" y1="104.16" x2="125.5" y2="127.83"/><line class="b" x1="117.5" y1="104.16" x2="117.5" y2="127.83"/><line class="b" x1="109.83" y1="104.16" x2="109.83" y2="127.83"/><line class="b" x1="102.17" y1="104.16" x2="102.17" y2="127.83"/><line class="b" x1="94.17" y1="104.16" x2="94.17" y2="127.83"/><line class="b" x1="86.5" y1="104.16" x2="86.5" y2="127.83"/><line class="c" x1="7.63" y1="139.85" x2="134.13" y2="139.85"/><circle class="d" cx="12.44" cy="108.98" r="4.81"/></svg>