<svg xmlns="http://www.w3.org/2000/svg" viewBox="0 0 312.87 266.63"><defs><style>.a{fill:#f3f4f4;stroke:#e2e2e2;}.a,.e,.f,.g,.h,.i,.k,.l,.o{stroke-miterlimit:10;}.b{fill:#02203c;}.c{fill:#fff;}.d{fill:#e3f4fc;}.e,.f,.g,.l,.o{fill:none;}.e,.f,.g{stroke:#cadce5;}.f{stroke-dasharray:5.95 2.98;}.g{stroke-dasharray:4.65 2.32;}.h{fill:#f7f7f7;}.h,.l{stroke:#cdcdcd;}.i{fill:#bdefc4;}.i,.o{stroke:#0ac40f;}.j{fill:#333;}.k{fill:#efd8a3;stroke:#c19f49;}.m{fill:#cdcdcd;}.n{fill:#666;}.p{fill:#0ac40f;}</style></defs><title>cache</title><rect class="a" x="51.49" y="190.52" width="212.24" height="75.61" rx="7.48" ry="7.48"/><rect class="b" x="65.64" y="211.28" width="183.45" height="38.49"/><path class="c" d="M472.82,665.77a6.19,6.19,0,0,1-2.59.45,4.72,4.72,0,0,1-5.11-5,5,5,0,0,1,5.35-5.3,5.62,5.62,0,0,1,2.44.45l-.4,1.45a5,5,0,0,0-2-.38,3.35,3.35,0,0,0-3.52,3.69,3.29,3.29,0,0,0,3.5,3.61,5.16,5.16,0,0,0,2-.37Z" transform="translate(-342.84 -431.26)"/><path class="c" d="M481,662.38a3.59,3.59,0,0,1-3.72,3.85,3.5,3.5,0,0,1-3.63-3.73,3.58,3.58,0,0,1,3.75-3.84A3.48,3.48,0,0,1,481,662.38Zm-5.46.08c0,1.39.68,2.45,1.8,2.45s1.77-1,1.77-2.49c0-1.13-.51-2.42-1.76-2.42S475.5,661.25,475.5,662.46Z" transform="translate(-342.84 -431.26)"/><path class="c" d="M482.46,661c0-.83,0-1.53-.06-2.15H484l.09,1.08h.05a2.62,2.62,0,0,1,2.3-1.25c1.27,0,2.58.82,2.58,3.11v4.3h-1.83V662c0-1-.39-1.83-1.39-1.83a1.53,1.53,0,0,0-1.42,1.07,1.86,1.86,0,0,0-.08.6v4.25h-1.84Z" transform="translate(-342.84 -431.26)"/><path class="c" d="M491.17,666.07v-5.88h-1v-1.36h1v-.35c0-2,1.36-3.14,3.51-3.14a4.41,4.41,0,0,1,2,.46l-.41,1.39a3.33,3.33,0,0,0-1.59-.39,1.53,1.53,0,0,0-1.69,1.73v.3h4.33v7.24h-1.85v-5.88H493v5.88Z" transform="translate(-342.84 -431.26)"/><path class="c" d="M505.9,658.83c0,.49-.06,1.08-.06,2.08V665a3.49,3.49,0,0,1-3.87,4.17,5.12,5.12,0,0,1-2.53-.58l.4-1.38a4.48,4.48,0,0,0,2.12.55,1.93,1.93,0,0,0,2.08-2.19V665h0A2.45,2.45,0,0,1,501.9,666c-1.8,0-3.08-1.49-3.08-3.55,0-2.38,1.54-3.82,3.28-3.82a2.28,2.28,0,0,1,2.1,1.13h0l.08-1Zm-1.89,2.9a1.88,1.88,0,0,0-.06-.49,1.52,1.52,0,0,0-1.49-1.18c-1,0-1.78.89-1.78,2.36,0,1.24.62,2.24,1.77,2.24a1.55,1.55,0,0,0,1.48-1.1,2.91,2.91,0,0,0,.08-.66Z" transform="translate(-342.84 -431.26)"/><path class="c" d="M509.7,656v4h4.24v-4h1.83v10h-1.83v-4.42H509.7v4.42h-1.83V656Z" transform="translate(-342.84 -431.26)"/><path class="c" d="M524.28,663.9c0,.86,0,1.57.06,2.17h-1.61l-.09-1.1h0a2.61,2.61,0,0,1-2.32,1.26c-1.32,0-2.53-.78-2.53-3.15v-4.25h1.83v3.94c0,1.2.39,2,1.36,2a1.54,1.54,0,0,0,1.4-1,1.6,1.6,0,0,0,.1-.56v-4.37h1.83Z" transform="translate(-342.84 -431.26)"/><path class="c" d="M526.2,666.07c0-.49.06-1.29.06-2v-8.52h1.83v4.31h0a2.61,2.61,0,0,1,2.32-1.16c1.77,0,3,1.47,3,3.68,0,2.6-1.65,3.89-3.29,3.89a2.47,2.47,0,0,1-2.29-1.25h0l-.09,1.09Zm1.89-3a2,2,0,0,0,0,.43,1.68,1.68,0,0,0,1.62,1.28c1.15,0,1.85-.92,1.85-2.38,0-1.28-.61-2.32-1.83-2.32a1.69,1.69,0,0,0-1.62,1.34,2.15,2.15,0,0,0-.06.47Z" transform="translate(-342.84 -431.26)"/><rect class="d" x="75.06" y="179.39" width="53.62" height="22.27"/><polyline class="e" points="128.68 198.66 128.68 201.66 125.68 201.66"/><line class="f" x1="122.71" y1="201.66" x2="79.55" y2="201.66"/><polyline class="e" points="78.06 201.66 75.06 201.66 75.06 198.66"/><line class="g" x1="75.06" y1="196.33" x2="75.06" y2="183.55"/><polyline class="e" points="75.06 182.38 75.06 179.38 78.06 179.38"/><line class="f" x1="81.04" y1="179.39" x2="124.19" y2="179.39"/><polyline class="e" points="125.68 179.38 128.68 179.38 128.68 182.38"/><line class="g" x1="128.68" y1="184.71" x2="128.68" y2="197.49"/><path d="M436.16,625.49h-1.28l-1.23-4.32c-.06-.19-.12-.46-.2-.81a6.43,6.43,0,0,1-.14-.74c0,.21-.09.48-.17.82s-.13.59-.18.75l-1.2,4.3h-1.29l-.93-3.63-1-3.61h1.2l1,4.22c.16.68.28,1.27.35,1.79,0-.28.09-.59.16-.94s.14-.63.2-.84l1.18-4.23h1.17l1.21,4.25a15.35,15.35,0,0,1,.36,1.76,12.86,12.86,0,0,1,.36-1.8l1-4.21h1.2Z" transform="translate(-342.84 -431.26)"/><path d="M441.34,625.59a2.65,2.65,0,0,1-2-.75,2.82,2.82,0,0,1-.72-2.05,3.14,3.14,0,0,1,.67-2.11,2.33,2.33,0,0,1,1.84-.77,2.25,2.25,0,0,1,1.71.66,2.52,2.52,0,0,1,.63,1.81V623h-3.65a1.84,1.84,0,0,0,.43,1.23,1.52,1.52,0,0,0,1.15.43,4.29,4.29,0,0,0,.9-.09,5.68,5.68,0,0,0,.9-.31v1a3.6,3.6,0,0,1-.86.28A5,5,0,0,1,441.34,625.59Zm-.21-4.8a1.15,1.15,0,0,0-.89.36,1.65,1.65,0,0,0-.4,1h2.49a1.57,1.57,0,0,0-.33-1A1.12,1.12,0,0,0,441.13,620.79Z" transform="translate(-342.84 -431.26)"/><path d="M447.59,619.91a1.9,1.9,0,0,1,1.6.75,4.09,4.09,0,0,1,0,4.18,2.1,2.1,0,0,1-3.22,0h-.08l-.22.65h-.87v-7.7H446v1.83c0,.13,0,.33,0,.6s0,.44,0,.51h0A1.85,1.85,0,0,1,447.59,619.91Zm-.3,1a1.16,1.16,0,0,0-1,.42,2.29,2.29,0,0,0-.32,1.38v.08a2.58,2.58,0,0,0,.31,1.45,1.18,1.18,0,0,0,1,.45,1.08,1.08,0,0,0,.94-.49,2.65,2.65,0,0,0,.31-1.42C448.56,621.49,448.14,620.86,447.29,620.86Z" transform="translate(-342.84 -431.26)"/><path d="M456.91,618.25v4.68a2.78,2.78,0,0,1-.35,1.41,2.26,2.26,0,0,1-1,.92,3.42,3.42,0,0,1-1.56.33,2.92,2.92,0,0,1-2.09-.71,2.59,2.59,0,0,1-.75-2v-4.66h1.19v4.58a1.85,1.85,0,0,0,.41,1.32,1.71,1.71,0,0,0,1.28.43c1.12,0,1.67-.59,1.67-1.76v-4.57Z" transform="translate(-342.84 -431.26)"/><path d="M458.76,625.49v-7.24h1.18v7.24Z" transform="translate(-342.84 -431.26)"/><rect class="d" x="180.29" y="179.39" width="53.62" height="22.27"/><polyline class="e" points="233.9 198.66 233.9 201.66 230.9 201.66"/><line class="f" x1="227.93" y1="201.66" x2="184.77" y2="201.66"/><polyline class="e" points="183.29 201.66 180.29 201.66 180.29 198.66"/><line class="g" x1="180.29" y1="196.33" x2="180.29" y2="183.55"/><polyline class="e" points="180.29 182.38 180.29 179.38 183.29 179.38"/><line class="f" x1="186.26" y1="179.39" x2="229.42" y2="179.39"/><polyline class="e" points="230.9 179.38 233.9 179.38 233.9 182.38"/><line class="g" x1="233.9" y1="184.71" x2="233.9" y2="197.49"/><path d="M531,622.6v2.89h-1.18v-7.24h2a3.3,3.3,0,0,1,2.08.53,1.85,1.85,0,0,1,.67,1.58,2,2,0,0,1-1.41,1.93l2,3.2h-1.35l-1.73-2.89Zm0-1h.82a1.92,1.92,0,0,0,1.2-.31,1.1,1.1,0,0,0,.37-.91,1,1,0,0,0-.4-.88,2.19,2.19,0,0,0-1.21-.27H531Z" transform="translate(-342.84 -431.26)"/><path d="M540.4,625.49h-4.09v-7.24h4.09v1h-2.91v2h2.73v1h-2.73v2.27h2.91Z" transform="translate(-342.84 -431.26)"/><path d="M546.14,623.52a1.84,1.84,0,0,1-.69,1.52,3,3,0,0,1-1.93.55,4.65,4.65,0,0,1-2-.38v-1.12a5.2,5.2,0,0,0,1,.36,4.45,4.45,0,0,0,1,.14,1.66,1.66,0,0,0,1-.27.88.88,0,0,0,.33-.72.89.89,0,0,0-.31-.69,4.49,4.49,0,0,0-1.27-.66,3.38,3.38,0,0,1-1.39-.92,2,2,0,0,1-.41-1.24,1.72,1.72,0,0,1,.65-1.42,2.63,2.63,0,0,1,1.72-.52,5.08,5.08,0,0,1,2.07.45l-.37,1a4.58,4.58,0,0,0-1.73-.41,1.37,1.37,0,0,0-.87.25.85.85,0,0,0-.29.66,1,1,0,0,0,.11.48,1.05,1.05,0,0,0,.4.38,5.67,5.67,0,0,0,1,.47,5.13,5.13,0,0,1,1.16.62,1.86,1.86,0,0,1,.55.65A2,2,0,0,1,546.14,623.52Z" transform="translate(-342.84 -431.26)"/><path d="M550,625.49h-1.18v-6.22h-2.13v-1h5.44v1H550Z" transform="translate(-342.84 -431.26)"/><path d="M560.41,625.49l-.73-2h-2.76l-.71,2H555l2.71-7.27H559l2.71,7.27Zm-1-3-.68-2c-.05-.13-.11-.34-.2-.63s-.15-.49-.18-.62a11.2,11.2,0,0,1-.39,1.33l-.66,1.89Z" transform="translate(-342.84 -431.26)"/><path d="M567.41,620.44a2.12,2.12,0,0,1-.74,1.74,3.27,3.27,0,0,1-2.11.6h-.76v2.71h-1.18v-7.24h2.09a3.21,3.21,0,0,1,2,.55A2,2,0,0,1,567.41,620.44Zm-3.61,1.35h.63a2.26,2.26,0,0,0,1.34-.32,1.16,1.16,0,0,0,.43-1,1.1,1.1,0,0,0-.39-.93,1.83,1.83,0,0,0-1.18-.31h-.83Z" transform="translate(-342.84 -431.26)"/><path d="M568.86,625.49v-7.24H570v7.24Z" transform="translate(-342.84 -431.26)"/><rect class="h" x="0.5" y="8.97" width="136.15" height="103.12" rx="5.15" ry="5.15"/><rect class="i" x="6.03" y="84.64" width="125.09" height="20.89"/><path class="j" d="M367.48,529.18a4.26,4.26,0,0,1-1.74.3,3.17,3.17,0,0,1-3.43-3.38,3.39,3.39,0,0,1,3.59-3.56,3.87,3.87,0,0,1,1.64.3l-.27,1a3.27,3.27,0,0,0-1.32-.26A2.24,2.24,0,0,0,363.6,526a2.21,2.21,0,0,0,2.34,2.42,3.44,3.44,0,0,0,1.34-.25Z" transform="translate(-342.84 -431.26)"/><path class="j" d="M372.55,526.91a2.41,2.41,0,0,1-2.49,2.58,2.35,2.35,0,0,1-2.44-2.5,2.4,2.4,0,0,1,2.52-2.58A2.33,2.33,0,0,1,372.55,526.91Zm-3.66.05c0,.93.46,1.64,1.21,1.64s1.18-.68,1.18-1.66c0-.76-.34-1.63-1.18-1.63S368.89,526.15,368.89,527Z" transform="translate(-342.84 -431.26)"/><path class="j" d="M373,526c0-.56,0-1,0-1.45H374l.06.73h0a1.76,1.76,0,0,1,1.55-.84c.84,0,1.72.55,1.72,2.09v2.88h-1.23v-2.74c0-.7-.26-1.23-.93-1.23a1,1,0,0,0-.95.72,1.25,1.25,0,0,0-.05.4v2.85H373Z" transform="translate(-342.84 -431.26)"/><path class="j" d="M378.83,529.38v-3.94h-.66v-.92h.66v-.23a2.08,2.08,0,0,1,2.36-2.11,2.84,2.84,0,0,1,1.33.31l-.27.93a2.19,2.19,0,0,0-1.06-.26,1,1,0,0,0-1.14,1.16v.2H383v4.86h-1.24v-3.94h-1.65v3.94Z" transform="translate(-342.84 -431.26)"/><path class="j" d="M388.72,524.52c0,.33,0,.73,0,1.4v2.75a2.82,2.82,0,0,1-.72,2.21,2.79,2.79,0,0,1-1.87.59,3.45,3.45,0,0,1-1.7-.39l.27-.93a2.94,2.94,0,0,0,1.42.37,1.29,1.29,0,0,0,1.39-1.47v-.42h0a1.64,1.64,0,0,1-1.41.72A2.16,2.16,0,0,1,384,527a2.33,2.33,0,0,1,2.21-2.57,1.52,1.52,0,0,1,1.4.76h0l0-.65Zm-1.27,2a1.19,1.19,0,0,0,0-.33,1,1,0,0,0-1-.79c-.69,0-1.2.6-1.2,1.59,0,.82.42,1.49,1.19,1.49a1.05,1.05,0,0,0,1-.73,2.14,2.14,0,0,0,.05-.45Z" transform="translate(-342.84 -431.26)"/><path class="j" d="M390.89,522.65v2.7h2.84v-2.7H395v6.73h-1.23v-3h-2.84v3h-1.23v-6.73Z" transform="translate(-342.84 -431.26)"/><path class="j" d="M400.08,527.92c0,.58,0,1.06,0,1.46H399l-.06-.74h0a1.76,1.76,0,0,1-1.55.85c-.89,0-1.7-.53-1.7-2.11v-2.86h1.23v2.65c0,.8.26,1.32.9,1.32a1,1,0,0,0,.94-.66,1.11,1.11,0,0,0,.07-.37v-2.94h1.23Z" transform="translate(-342.84 -431.26)"/><path class="j" d="M400.78,529.38c0-.33,0-.87,0-1.37v-5.72h1.23v2.9h0a1.74,1.74,0,0,1,1.55-.78c1.19,0,2,1,2,2.47a2.33,2.33,0,0,1-2.21,2.61,1.65,1.65,0,0,1-1.53-.84h0l-.06.73Zm1.27-2a1.43,1.43,0,0,0,0,.29,1.13,1.13,0,0,0,1.08.85c.77,0,1.24-.61,1.24-1.59s-.41-1.56-1.23-1.56a1.16,1.16,0,0,0-1.09.9,2.69,2.69,0,0,0,0,.32Z" transform="translate(-342.84 -431.26)"/><path class="j" d="M408.79,522.74a10.62,10.62,0,0,1,1.87-.14,3,3,0,0,1,2,.55,1.9,1.9,0,0,1,.66,1.49,2,2,0,0,1-.58,1.53,3,3,0,0,1-2.13.72,3.62,3.62,0,0,1-.6,0v2.53h-1.21Zm1.21,3.14a2.48,2.48,0,0,0,.6,0c.92,0,1.48-.45,1.48-1.24s-.52-1.15-1.37-1.15a3.55,3.55,0,0,0-.71.06Z" transform="translate(-342.84 -431.26)"/><path class="j" d="M414.21,526.09c0-.66,0-1.13,0-1.57h1.06l0,.93h0a1.45,1.45,0,0,1,1.33-1,1.29,1.29,0,0,1,.29,0v1.16a1.71,1.71,0,0,0-.36,0,1.08,1.08,0,0,0-1.1.93c0,.11,0,.24,0,.38v2.51h-1.23Z" transform="translate(-342.84 -431.26)"/><path class="j" d="M422.3,526.91a2.41,2.41,0,0,1-2.5,2.58,2.35,2.35,0,0,1-2.43-2.5,2.4,2.4,0,0,1,2.51-2.58A2.34,2.34,0,0,1,422.3,526.91Zm-3.66.05c0,.93.46,1.64,1.2,1.64s1.19-.68,1.19-1.66c0-.76-.34-1.63-1.18-1.63S418.64,526.15,418.64,527Z" transform="translate(-342.84 -431.26)"/><path class="j" d="M423.94,524.52l.58.92c.16.26.3.5.44.75h0c.14-.27.28-.52.42-.77l.54-.9h1.34l-1.63,2.34,1.66,2.52h-1.39l-.6-1c-.16-.27-.3-.53-.44-.8h0c-.14.29-.28.52-.44.8l-.55,1h-1.36l1.69-2.47-1.63-2.39Z" transform="translate(-342.84 -431.26)"/><path class="j" d="M429,524.52l.88,2.6c.1.3.2.67.27,1h0c.08-.29.17-.64.26-1l.76-2.6h1.32l-1.22,3.31a7.3,7.3,0,0,1-1.7,3.13,2.49,2.49,0,0,1-1.28.63l-.28-1a2,2,0,0,0,.71-.34,2.15,2.15,0,0,0,.67-.77.49.49,0,0,0,.08-.22.52.52,0,0,0-.07-.24l-1.77-4.46Z" transform="translate(-342.84 -431.26)"/><path class="j" d="M440.18,529.18a4.26,4.26,0,0,1-1.74.3A3.17,3.17,0,0,1,435,526.1a3.38,3.38,0,0,1,3.59-3.56,3.87,3.87,0,0,1,1.64.3l-.27,1a3.27,3.27,0,0,0-1.32-.26,2.24,2.24,0,0,0-2.36,2.48,2.21,2.21,0,0,0,2.35,2.42,3.44,3.44,0,0,0,1.34-.25Z" transform="translate(-342.84 -431.26)"/><path class="j" d="M443.83,529.38l-.08-.54h0a1.8,1.8,0,0,1-1.43.65,1.45,1.45,0,0,1-1.53-1.45c0-1.22,1.09-1.84,2.88-1.83v-.08c0-.32-.13-.85-1-.85a2.57,2.57,0,0,0-1.3.36l-.24-.8a3.49,3.49,0,0,1,1.75-.43,1.82,1.82,0,0,1,2,2.05v1.75a7.81,7.81,0,0,0,.07,1.17Zm-.16-2.38c-.87,0-1.69.17-1.69.92a.64.64,0,0,0,.69.69,1,1,0,0,0,1-.67.88.88,0,0,0,0-.27Z" transform="translate(-342.84 -431.26)"/><path class="j" d="M449.75,529.23a3.56,3.56,0,0,1-1.38.25,2.33,2.33,0,0,1-2.5-2.48,2.51,2.51,0,0,1,2.7-2.59,3.07,3.07,0,0,1,1.19.23l-.22.92a2.17,2.17,0,0,0-.93-.19,1.57,1.57,0,0,0,0,3.14,2.41,2.41,0,0,0,1-.19Z" transform="translate(-342.84 -431.26)"/><path class="j" d="M450.67,522.29h1.23v2.9h0a1.65,1.65,0,0,1,.61-.56,1.67,1.67,0,0,1,.84-.22c.83,0,1.7.55,1.7,2.11v2.86h-1.23v-2.72c0-.71-.26-1.24-.94-1.24a1,1,0,0,0-.95.69,1.32,1.32,0,0,0-.05.37v2.9h-1.23Z" transform="translate(-342.84 -431.26)"/><path class="j" d="M457.25,527.29a1.32,1.32,0,0,0,1.5,1.26,3.66,3.66,0,0,0,1.35-.22l.18.85a4.59,4.59,0,0,1-1.7.3,2.29,2.29,0,0,1-2.5-2.45,2.41,2.41,0,0,1,2.37-2.62,2.12,2.12,0,0,1,2.1,2.37,2.89,2.89,0,0,1,0,.51Zm2.14-.85a1,1,0,0,0-1-1.19,1.2,1.2,0,0,0-1.13,1.19Z" transform="translate(-342.84 -431.26)"/><rect class="k" x="6.03" y="49.98" width="45.91" height="17.2"/><path class="j" d="M364.88,491.06,364.3,493H363l2.16-6.73h1.57l2.18,6.73h-1.32l-.6-1.91Zm1.93-.93-.53-1.66c-.13-.41-.24-.87-.34-1.26h0c-.1.39-.2.86-.32,1.26l-.52,1.66Z" transform="translate(-342.84 -431.26)"/><path class="j" d="M369.79,489.72c0-.64,0-1.16,0-1.62h1.08l.06.75h0a1.9,1.9,0,0,1,1.67-.86,2.21,2.21,0,0,1,2,2.48,2.31,2.31,0,0,1-2.21,2.61,1.6,1.6,0,0,1-1.37-.65h0V495h-1.23Zm1.23,1.21a1.27,1.27,0,0,0,0,.34,1.11,1.11,0,0,0,1.08.86c.78,0,1.24-.65,1.24-1.61S373,489,372.17,489a1.15,1.15,0,0,0-1.1.91,1.12,1.12,0,0,0-.05.31Z" transform="translate(-342.84 -431.26)"/><path class="j" d="M375.64,489.72c0-.64,0-1.16,0-1.62h1.08l.06.75h0a1.9,1.9,0,0,1,1.67-.86,2.21,2.21,0,0,1,2,2.48,2.32,2.32,0,0,1-2.21,2.61,1.6,1.6,0,0,1-1.37-.65h0V495h-1.23Zm1.23,1.21a1.27,1.27,0,0,0,0,.34,1.11,1.11,0,0,0,1.08.86c.78,0,1.23-.65,1.23-1.61S378.81,489,378,489a1.15,1.15,0,0,0-1.1.91,1.12,1.12,0,0,0-.05.31Z" transform="translate(-342.84 -431.26)"/><rect class="k" x="85.22" y="49.98" width="45.91" height="17.2"/><path class="j" d="M444.06,491.06l-.58,1.91h-1.26l2.15-6.73h1.57l2.19,6.73h-1.32l-.61-1.91Zm1.93-.93-.53-1.66c-.13-.41-.24-.87-.34-1.26h0c-.1.39-.2.86-.32,1.26l-.52,1.66Z" transform="translate(-342.84 -431.26)"/><path class="j" d="M449,489.72c0-.64,0-1.16,0-1.62H450l.06.75h0a1.9,1.9,0,0,1,1.67-.86,2.21,2.21,0,0,1,2.05,2.48,2.32,2.32,0,0,1-2.22,2.61,1.6,1.6,0,0,1-1.37-.65h0V495H449Zm1.22,1.21a1.27,1.27,0,0,0,0,.34,1.11,1.11,0,0,0,1.08.86c.78,0,1.24-.65,1.24-1.61s-.42-1.56-1.21-1.56a1.15,1.15,0,0,0-1.1.91,1.12,1.12,0,0,0-.05.31Z" transform="translate(-342.84 -431.26)"/><path class="j" d="M454.82,489.72c0-.64,0-1.16,0-1.62h1.08l.06.75h0a1.9,1.9,0,0,1,1.67-.86,2.21,2.21,0,0,1,2.05,2.48,2.32,2.32,0,0,1-2.22,2.61,1.6,1.6,0,0,1-1.37-.65h0V495h-1.23Zm1.23,1.21a1.27,1.27,0,0,0,0,.34,1.11,1.11,0,0,0,1.08.86c.78,0,1.24-.65,1.24-1.61S458,489,457.2,489a1.15,1.15,0,0,0-1.1.91,1.12,1.12,0,0,0-.05.31Z" transform="translate(-342.84 -431.26)"/><rect class="k" x="6.03" y="15.32" width="45.91" height="17.2"/><path class="j" d="M364.88,456.4l-.58,1.91H363l2.16-6.73h1.57l2.18,6.73h-1.32l-.6-1.91Zm1.93-.93-.53-1.66c-.13-.41-.24-.87-.34-1.26h0c-.1.39-.2.86-.32,1.26l-.52,1.66Z" transform="translate(-342.84 -431.26)"/><path class="j" d="M369.79,455.06c0-.64,0-1.16,0-1.62h1.08l.06.75h0a1.9,1.9,0,0,1,1.67-.86,2.21,2.21,0,0,1,2,2.48,2.31,2.31,0,0,1-2.21,2.61,1.6,1.6,0,0,1-1.37-.65h0v2.52h-1.23Zm1.23,1.21a1.27,1.27,0,0,0,0,.34,1.11,1.11,0,0,0,1.08.86c.78,0,1.24-.65,1.24-1.61s-.42-1.56-1.21-1.56a1.15,1.15,0,0,0-1.1.91,1.12,1.12,0,0,0-.05.31Z" transform="translate(-342.84 -431.26)"/><path class="j" d="M375.64,455.06c0-.64,0-1.16,0-1.62h1.08l.06.75h0a1.9,1.9,0,0,1,1.67-.86,2.21,2.21,0,0,1,2,2.48,2.32,2.32,0,0,1-2.21,2.61,1.6,1.6,0,0,1-1.37-.65h0v2.52h-1.23Zm1.23,1.21a1.27,1.27,0,0,0,0,.34,1.11,1.11,0,0,0,1.08.86c.78,0,1.23-.65,1.23-1.61s-.41-1.56-1.2-1.56a1.15,1.15,0,0,0-1.1.91,1.12,1.12,0,0,0-.05.31Z" transform="translate(-342.84 -431.26)"/><rect class="k" x="85.22" y="15.32" width="45.91" height="17.2"/><path class="j" d="M444.06,456.4l-.58,1.91h-1.26l2.15-6.73h1.57l2.19,6.73h-1.32l-.61-1.91Zm1.93-.93-.53-1.66c-.13-.41-.24-.87-.34-1.26h0c-.1.39-.2.86-.32,1.26l-.52,1.66Z" transform="translate(-342.84 -431.26)"/><path class="j" d="M449,455.06c0-.64,0-1.16,0-1.62H450l.06.75h0a1.9,1.9,0,0,1,1.67-.86,2.21,2.21,0,0,1,2.05,2.48,2.32,2.32,0,0,1-2.22,2.61,1.6,1.6,0,0,1-1.37-.65h0v2.52H449Zm1.22,1.21a1.27,1.27,0,0,0,0,.34,1.11,1.11,0,0,0,1.08.86c.78,0,1.24-.65,1.24-1.61s-.42-1.56-1.21-1.56a1.15,1.15,0,0,0-1.1.91,1.12,1.12,0,0,0-.05.31Z" transform="translate(-342.84 -431.26)"/><path class="j" d="M454.82,455.06c0-.64,0-1.16,0-1.62h1.08l.06.75h0a1.9,1.9,0,0,1,1.67-.86,2.21,2.21,0,0,1,2.05,2.48,2.32,2.32,0,0,1-2.22,2.61,1.6,1.6,0,0,1-1.37-.65h0v2.52h-1.23Zm1.23,1.21a1.27,1.27,0,0,0,0,.34,1.11,1.11,0,0,0,1.08.86c.78,0,1.24-.65,1.24-1.61s-.42-1.56-1.21-1.56a1.15,1.15,0,0,0-1.1.91,1.12,1.12,0,0,0-.05.31Z" transform="translate(-342.84 -431.26)"/><polyline class="l" points="60.97 83.01 60.97 58.16 53.65 58.16"/><path class="c" d="M404.94,514.2a1.13,1.13,0,1,1-1.13-1.13A1.13,1.13,0,0,1,404.94,514.2Z" transform="translate(-342.84 -431.26)"/><path class="m" d="M405.09,514.2a1.28,1.28,0,1,0-1.28,1.28,1.28,1.28,0,0,0,1.28-1.28Zm-2.25,0a1,1,0,1,1,1,1,1,1,0,0,1-1-1Z" transform="translate(-342.84 -431.26)"/><path class="c" d="M396.55,488.29a1.13,1.13,0,1,0,1.13,1.13A1.14,1.14,0,0,0,396.55,488.29Z" transform="translate(-342.84 -431.26)"/><path class="m" d="M396.55,488.14a1.28,1.28,0,0,1,0,2.56,1.28,1.28,0,0,1,0-2.56Zm0,2.26a1,1,0,1,0-1-1,1,1,0,0,0,1,1Z" transform="translate(-342.84 -431.26)"/><polyline class="l" points="76.23 83.01 76.23 58.16 83.56 58.16"/><path class="c" d="M420.2,514.2a1.13,1.13,0,1,1-1.13-1.13A1.13,1.13,0,0,1,420.2,514.2Z" transform="translate(-342.84 -431.26)"/><path class="m" d="M420.35,514.2a1.28,1.28,0,1,0-1.28,1.28,1.28,1.28,0,0,0,1.28-1.28Zm-2.26,0a1,1,0,1,1,1,1,1,1,0,0,1-1-1Z" transform="translate(-342.84 -431.26)"/><path class="c" d="M426.34,490.55a1.13,1.13,0,1,0-1.13-1.13A1.13,1.13,0,0,0,426.34,490.55Z" transform="translate(-342.84 -431.26)"/><path class="m" d="M426.34,490.7a1.28,1.28,0,1,1,1.27-1.28,1.28,1.28,0,0,1-1.27,1.28Zm0-2.26a1,1,0,1,0,1,1,1,1,0,0,0-1-1Z" transform="translate(-342.84 -431.26)"/><polyline class="l" points="66.1 83.01 66.1 23.91 53.65 23.91"/><path class="c" d="M410.07,514.2a1.13,1.13,0,1,1-1.13-1.13A1.14,1.14,0,0,1,410.07,514.2Z" transform="translate(-342.84 -431.26)"/><path class="m" d="M410.22,514.2a1.28,1.28,0,1,0-2.56,0,1.28,1.28,0,0,0,2.56,0Zm-2.26,0a1,1,0,1,1,1,1,1,1,0,0,1-1-1Z" transform="translate(-342.84 -431.26)"/><circle class="c" cx="53.71" cy="23.92" r="1.13"/><path class="m" d="M396.55,453.89a1.28,1.28,0,1,1-1.28,1.28,1.28,1.28,0,0,1,1.28-1.28Zm0,2.26a1,1,0,1,0-1-1,1,1,0,0,0,1,1Z" transform="translate(-342.84 -431.26)"/><polyline class="l" points="70.97 83.01 70.97 23.91 83.42 23.91"/><path class="c" d="M414.94,514.2a1.13,1.13,0,1,1-1.13-1.13A1.13,1.13,0,0,1,414.94,514.2Z" transform="translate(-342.84 -431.26)"/><path class="m" d="M415.09,514.2a1.28,1.28,0,1,0-1.28,1.28,1.28,1.28,0,0,0,1.28-1.28Zm-2.25,0a1,1,0,1,1,1,1,1,1,0,0,1-1-1Z" transform="translate(-342.84 -431.26)"/><circle class="c" cx="83.36" cy="23.92" r="1.13"/><path class="m" d="M426.2,456.45a1.28,1.28,0,1,1,1.28-1.28,1.28,1.28,0,0,1-1.28,1.28Zm0-2.26a1,1,0,1,0,1,1,1,1,0,0,0-1-1Z" transform="translate(-342.84 -431.26)"/><path class="n" d="M347.54,437a3.41,3.41,0,0,0,1.63.43c.78,0,1.22-.37,1.22-.92s-.34-.81-1.19-1.12c-1.11-.4-1.82-1-1.82-2s.92-1.93,2.37-1.93a3.56,3.56,0,0,1,1.62.34l-.3,1a3,3,0,0,0-1.34-.31c-.77,0-1.11.42-1.11.8s.39.76,1.28,1.11c1.17.44,1.74,1,1.74,2s-.82,2-2.55,2a4,4,0,0,1-1.82-.42Z" transform="translate(-342.84 -431.26)"/><path class="n" d="M353.64,436.26a1.31,1.31,0,0,0,1.49,1.26,3.66,3.66,0,0,0,1.35-.22l.18.85a4.59,4.59,0,0,1-1.7.3,2.3,2.3,0,0,1-2.5-2.46,2.4,2.4,0,0,1,2.37-2.61,2.11,2.11,0,0,1,2.1,2.36,3,3,0,0,1,0,.52Zm2.13-.86a1,1,0,0,0-1-1.19,1.2,1.2,0,0,0-1.13,1.19Z" transform="translate(-342.84 -431.26)"/><path class="n" d="M357.93,435.05c0-.66,0-1.13,0-1.57H359l0,.93h0a1.42,1.42,0,0,1,1.32-1,1.32,1.32,0,0,1,.29,0v1.16a1.71,1.71,0,0,0-.36,0,1.09,1.09,0,0,0-1.1.93c0,.11,0,.24,0,.38v2.52h-1.23Z" transform="translate(-342.84 -431.26)"/><path class="n" d="M362.48,433.48l.79,2.47c.14.43.24.82.33,1.22h0c.09-.4.2-.78.33-1.22l.77-2.47H366l-1.86,4.87H363l-1.8-4.87Z" transform="translate(-342.84 -431.26)"/><path class="n" d="M367.53,436.26a1.31,1.31,0,0,0,1.49,1.26,3.66,3.66,0,0,0,1.35-.22l.18.85a4.59,4.59,0,0,1-1.7.3,2.3,2.3,0,0,1-2.5-2.46,2.4,2.4,0,0,1,2.37-2.61,2.11,2.11,0,0,1,2.1,2.36,3,3,0,0,1,0,.52Zm2.13-.86a1,1,0,0,0-1-1.19,1.2,1.2,0,0,0-1.12,1.19Z" transform="translate(-342.84 -431.26)"/><path class="n" d="M371.82,435.05c0-.66,0-1.13,0-1.57h1.07l0,.93h0a1.43,1.43,0,0,1,1.32-1,1.32,1.32,0,0,1,.29,0v1.16a1.71,1.71,0,0,0-.36,0,1.09,1.09,0,0,0-1.1.93c0,.11,0,.24,0,.38v2.52h-1.23Z" transform="translate(-342.84 -431.26)"/><path class="n" d="M376.87,438.75l2.43-7.24h.86l-2.43,7.24Z" transform="translate(-342.84 -431.26)"/><path class="n" d="M387.76,438.15a4.26,4.26,0,0,1-1.74.3,3.17,3.17,0,0,1-3.43-3.39,3.38,3.38,0,0,1,3.59-3.55,3.87,3.87,0,0,1,1.64.3l-.27,1a3.27,3.27,0,0,0-1.32-.26,2.24,2.24,0,0,0-2.36,2.47,2.21,2.21,0,0,0,2.35,2.43,3.44,3.44,0,0,0,1.34-.25Z" transform="translate(-342.84 -431.26)"/><path class="n" d="M388.74,431.26H390v7.09h-1.23Z" transform="translate(-342.84 -431.26)"/><path class="n" d="M395.66,436.89c0,.58,0,1.06,0,1.46h-1.08l-.06-.74h0a1.76,1.76,0,0,1-1.56.85c-.89,0-1.69-.53-1.69-2.12v-2.86h1.22v2.65c0,.81.26,1.33.91,1.33a1,1,0,0,0,.94-.66,1.12,1.12,0,0,0,.07-.38v-2.94h1.23Z" transform="translate(-342.84 -431.26)"/><path class="n" d="M396.94,437.22a2.67,2.67,0,0,0,1.24.35c.54,0,.78-.22.78-.54s-.2-.5-.8-.71c-1-.33-1.35-.85-1.33-1.42,0-.86.7-1.52,1.83-1.52a2.87,2.87,0,0,1,1.29.28l-.24.87a2.19,2.19,0,0,0-1-.28c-.44,0-.68.21-.68.51s.23.46.85.68c.88.32,1.29.77,1.3,1.49,0,.88-.69,1.52-2,1.52a3.1,3.1,0,0,1-1.47-.34Z" transform="translate(-342.84 -431.26)"/><path class="n" d="M402.57,432.1v1.38h1.17v.92h-1.17v2.15c0,.59.16.9.63.9a1.82,1.82,0,0,0,.48-.06l0,.94a2.7,2.7,0,0,1-.89.12,1.42,1.42,0,0,1-1.06-.4,1.94,1.94,0,0,1-.37-1.36V434.4h-.7v-.92h.7v-1.09Z" transform="translate(-342.84 -431.26)"/><path class="n" d="M405.48,436.26a1.32,1.32,0,0,0,1.5,1.26,3.66,3.66,0,0,0,1.35-.22l.18.85a4.59,4.59,0,0,1-1.7.3A2.3,2.3,0,0,1,404.3,436a2.4,2.4,0,0,1,2.38-2.61,2.11,2.11,0,0,1,2.1,2.36,3,3,0,0,1,0,.52Zm2.14-.86a1,1,0,0,0-1-1.19,1.2,1.2,0,0,0-1.13,1.19Z" transform="translate(-342.84 -431.26)"/><path class="n" d="M409.77,435.05c0-.66,0-1.13,0-1.57h1.07l0,.93h0a1.44,1.44,0,0,1,1.33-1,1.32,1.32,0,0,1,.29,0v1.16a1.71,1.71,0,0,0-.36,0,1.08,1.08,0,0,0-1.1.93,2.11,2.11,0,0,0,0,.38v2.52h-1.23Z" transform="translate(-342.84 -431.26)"/><rect class="h" x="176.22" y="8.97" width="136.15" height="103.12" rx="5.15" ry="5.15"/><rect class="i" x="181.75" y="84.64" width="125.09" height="20.89"/><path class="j" d="M543.21,529.18a4.26,4.26,0,0,1-1.74.3A3.18,3.18,0,0,1,538,526.1a3.39,3.39,0,0,1,3.6-3.56,3.78,3.78,0,0,1,1.63.3l-.26,1a3.27,3.27,0,0,0-1.32-.26,2.24,2.24,0,0,0-2.36,2.48,2.21,2.21,0,0,0,2.35,2.42,3.35,3.35,0,0,0,1.33-.25Z" transform="translate(-342.84 -431.26)"/><path class="j" d="M548.28,526.91a2.41,2.41,0,0,1-2.5,2.58,2.35,2.35,0,0,1-2.44-2.5,2.4,2.4,0,0,1,2.52-2.58A2.34,2.34,0,0,1,548.28,526.91Zm-3.67.05c0,.93.46,1.64,1.21,1.64s1.19-.68,1.19-1.66c0-.76-.34-1.63-1.18-1.63S544.61,526.15,544.61,527Z" transform="translate(-342.84 -431.26)"/><path class="j" d="M548.69,526c0-.56,0-1,0-1.45h1.08l.06.73h0a1.76,1.76,0,0,1,1.55-.84c.85,0,1.73.55,1.73,2.09v2.88h-1.23v-2.74c0-.7-.26-1.23-.93-1.23a1,1,0,0,0-1,.72,1.25,1.25,0,0,0-.05.4v2.85h-1.24Z" transform="translate(-342.84 -431.26)"/><path class="j" d="M554.55,529.38v-3.94h-.66v-.92h.66v-.23a2.08,2.08,0,0,1,2.36-2.11,2.88,2.88,0,0,1,1.34.31l-.27.93a2.23,2.23,0,0,0-1.07-.26,1,1,0,0,0-1.14,1.16v.2h2.91v4.86h-1.24v-3.94h-1.66v3.94Z" transform="translate(-342.84 -431.26)"/><path class="j" d="M564.45,524.52c0,.33,0,.73,0,1.4v2.75a2.35,2.35,0,0,1-2.6,2.8,3.45,3.45,0,0,1-1.7-.39l.27-.93a2.94,2.94,0,0,0,1.42.37,1.29,1.29,0,0,0,1.4-1.47v-.42h0a1.64,1.64,0,0,1-1.42.72,2.16,2.16,0,0,1-2.07-2.37,2.33,2.33,0,0,1,2.21-2.57,1.53,1.53,0,0,1,1.41.76h0l0-.65Zm-1.27,2a1.19,1.19,0,0,0,0-.33,1,1,0,0,0-1-.79c-.69,0-1.2.6-1.2,1.59,0,.82.42,1.49,1.19,1.49a1.05,1.05,0,0,0,1-.73,2.14,2.14,0,0,0,0-.45Z" transform="translate(-342.84 -431.26)"/><path class="j" d="M566.61,522.65v2.7h2.85v-2.7h1.22v6.73h-1.22v-3h-2.85v3h-1.23v-6.73Z" transform="translate(-342.84 -431.26)"/><path class="j" d="M575.8,527.92c0,.58,0,1.06,0,1.46h-1.07l-.06-.74h0a1.76,1.76,0,0,1-1.56.85c-.89,0-1.7-.53-1.7-2.11v-2.86h1.23v2.65c0,.8.26,1.32.91,1.32a1,1,0,0,0,.94-.66,1.11,1.11,0,0,0,.07-.37v-2.94h1.22Z" transform="translate(-342.84 -431.26)"/><path class="j" d="M576.5,529.38c0-.33,0-.87,0-1.37v-5.72h1.23v2.9h0a1.76,1.76,0,0,1,1.56-.78c1.19,0,2,1,2,2.47a2.33,2.33,0,0,1-2.21,2.61,1.68,1.68,0,0,1-1.54-.84h0l-.06.73Zm1.27-2a1.43,1.43,0,0,0,0,.29,1.14,1.14,0,0,0,1.09.85c.77,0,1.23-.61,1.23-1.59s-.4-1.56-1.22-1.56a1.15,1.15,0,0,0-1.09.9,1.47,1.47,0,0,0,0,.32Z" transform="translate(-342.84 -431.26)"/><path class="j" d="M584.51,522.74a10.66,10.66,0,0,1,1.88-.14,3,3,0,0,1,2,.55,1.94,1.94,0,0,1,.66,1.49,2.08,2.08,0,0,1-.58,1.53,3,3,0,0,1-2.13.72,3.47,3.47,0,0,1-.6,0v2.53h-1.22Zm1.22,3.14a2.48,2.48,0,0,0,.6,0c.92,0,1.48-.45,1.48-1.24s-.52-1.15-1.37-1.15a3.4,3.4,0,0,0-.71.06Z" transform="translate(-342.84 -431.26)"/><path class="j" d="M589.93,526.09c0-.66,0-1.13,0-1.57H591l0,.93h0a1.45,1.45,0,0,1,1.33-1,1.29,1.29,0,0,1,.29,0v1.16a1.71,1.71,0,0,0-.36,0,1.08,1.08,0,0,0-1.1.93,2.11,2.11,0,0,0,0,.38v2.51h-1.23Z" transform="translate(-342.84 -431.26)"/><path class="j" d="M598,526.91a2.4,2.4,0,0,1-2.49,2.58,2.35,2.35,0,0,1-2.44-2.5,2.4,2.4,0,0,1,2.52-2.58A2.33,2.33,0,0,1,598,526.91Zm-3.66.05c0,.93.46,1.64,1.21,1.64s1.18-.68,1.18-1.66c0-.76-.33-1.63-1.17-1.63S594.36,526.15,594.36,527Z" transform="translate(-342.84 -431.26)"/><path class="j" d="M599.67,524.52l.58.92c.16.26.3.5.44.75h0c.14-.27.28-.52.42-.77l.54-.9H603l-1.62,2.34,1.65,2.52h-1.38l-.6-1c-.16-.27-.3-.53-.44-.8h0c-.14.29-.28.52-.44.8l-.56,1h-1.36l1.69-2.47-1.63-2.39Z" transform="translate(-342.84 -431.26)"/><path class="j" d="M604.73,524.52l.88,2.6c.1.3.2.67.27,1h0c.08-.29.17-.64.26-1l.75-2.6h1.32L607,527.83a7.3,7.3,0,0,1-1.7,3.13,2.47,2.47,0,0,1-1.29.63l-.28-1a2.11,2.11,0,0,0,.72-.34,2.15,2.15,0,0,0,.67-.77.49.49,0,0,0,.08-.22.52.52,0,0,0-.07-.24l-1.78-4.46Z" transform="translate(-342.84 -431.26)"/><path class="j" d="M615.9,529.18a4.24,4.24,0,0,1-1.73.3,3.18,3.18,0,0,1-3.44-3.38,3.39,3.39,0,0,1,3.6-3.56,3.85,3.85,0,0,1,1.63.3l-.27,1a3.22,3.22,0,0,0-1.31-.26A2.24,2.24,0,0,0,612,526a2.21,2.21,0,0,0,2.35,2.42,3.39,3.39,0,0,0,1.33-.25Z" transform="translate(-342.84 -431.26)"/><path class="j" d="M619.56,529.38l-.08-.54h0a1.81,1.81,0,0,1-1.44.65,1.45,1.45,0,0,1-1.53-1.45c0-1.22,1.09-1.84,2.89-1.83v-.08c0-.32-.13-.85-1-.85a2.58,2.58,0,0,0-1.31.36l-.24-.8a3.51,3.51,0,0,1,1.76-.43,1.81,1.81,0,0,1,2,2.05v1.75a7.67,7.67,0,0,0,.08,1.17ZM619.4,527c-.87,0-1.7.17-1.7.92a.64.64,0,0,0,.7.69,1,1,0,0,0,1-.67.88.88,0,0,0,0-.27Z" transform="translate(-342.84 -431.26)"/><path class="j" d="M625.47,529.23a3.5,3.5,0,0,1-1.37.25,2.34,2.34,0,0,1-2.51-2.48,2.51,2.51,0,0,1,2.7-2.59,3,3,0,0,1,1.19.23l-.22.92a2.1,2.1,0,0,0-.93-.19,1.57,1.57,0,0,0,0,3.14,2.37,2.37,0,0,0,1-.19Z" transform="translate(-342.84 -431.26)"/><path class="j" d="M626.39,522.29h1.24v2.9h0a1.65,1.65,0,0,1,.61-.56,1.67,1.67,0,0,1,.84-.22c.82,0,1.69.55,1.69,2.11v2.86h-1.22v-2.72c0-.71-.26-1.24-.94-1.24a1,1,0,0,0-1,.69,1,1,0,0,0,0,.37v2.9h-1.24Z" transform="translate(-342.84 -431.26)"/><path class="j" d="M633,527.29a1.32,1.32,0,0,0,1.5,1.26,3.6,3.6,0,0,0,1.34-.22l.18.85a4.57,4.57,0,0,1-1.69.3A2.3,2.3,0,0,1,631.8,527a2.41,2.41,0,0,1,2.38-2.62,2.12,2.12,0,0,1,2.09,2.37,2.89,2.89,0,0,1,0,.51Zm2.14-.85a1.06,1.06,0,0,0-1-1.19,1.2,1.2,0,0,0-1.13,1.19Z" transform="translate(-342.84 -431.26)"/><rect class="k" x="181.75" y="49.98" width="45.91" height="17.2"/><path class="j" d="M540.6,491.06,540,493h-1.27l2.16-6.73h1.57l2.19,6.73h-1.32l-.61-1.91Zm1.93-.93-.53-1.66c-.13-.41-.24-.87-.34-1.26h0c-.1.39-.2.86-.32,1.26l-.52,1.66Z" transform="translate(-342.84 -431.26)"/><path class="j" d="M545.51,489.72c0-.64,0-1.16,0-1.62h1.08l.06.75h0a1.9,1.9,0,0,1,1.67-.86,2.21,2.21,0,0,1,2.05,2.48,2.32,2.32,0,0,1-2.22,2.61,1.6,1.6,0,0,1-1.37-.65h0V495h-1.23Zm1.23,1.21a1.27,1.27,0,0,0,0,.34,1.11,1.11,0,0,0,1.08.86c.78,0,1.24-.65,1.24-1.61s-.42-1.56-1.21-1.56a1.15,1.15,0,0,0-1.1.91,1.12,1.12,0,0,0,0,.31Z" transform="translate(-342.84 -431.26)"/><path class="j" d="M551.36,489.72c0-.64,0-1.16,0-1.62h1.08l.06.75h0a1.9,1.9,0,0,1,1.67-.86,2.21,2.21,0,0,1,2.05,2.48,2.32,2.32,0,0,1-2.22,2.61,1.6,1.6,0,0,1-1.37-.65h0V495h-1.23Zm1.23,1.21a1.27,1.27,0,0,0,0,.34,1.11,1.11,0,0,0,1.08.86c.78,0,1.24-.65,1.24-1.61s-.42-1.56-1.21-1.56a1.15,1.15,0,0,0-1.1.91,1.12,1.12,0,0,0,0,.31Z" transform="translate(-342.84 -431.26)"/><rect class="k" x="260.94" y="49.98" width="45.91" height="17.2"/><path class="j" d="M619.79,491.06l-.58,1.91h-1.27l2.16-6.73h1.57l2.18,6.73h-1.32l-.61-1.91Zm1.92-.93-.53-1.66c-.13-.41-.23-.87-.34-1.26h0c-.1.39-.21.86-.33,1.26l-.51,1.66Z" transform="translate(-342.84 -431.26)"/><path class="j" d="M624.7,489.72c0-.64,0-1.16,0-1.62h1.08l.06.75h0a1.9,1.9,0,0,1,1.67-.86,2.21,2.21,0,0,1,2,2.48,2.32,2.32,0,0,1-2.21,2.61,1.6,1.6,0,0,1-1.37-.65h0V495H624.7Zm1.23,1.21a1.27,1.27,0,0,0,0,.34,1.11,1.11,0,0,0,1.07.86c.79,0,1.24-.65,1.24-1.61s-.41-1.56-1.2-1.56a1.15,1.15,0,0,0-1.1.91,1.12,1.12,0,0,0-.05.31Z" transform="translate(-342.84 -431.26)"/><path class="j" d="M630.55,489.72c0-.64,0-1.16,0-1.62h1.08l.06.75h0a1.88,1.88,0,0,1,1.66-.86,2.21,2.21,0,0,1,2,2.48,2.32,2.32,0,0,1-2.21,2.61,1.57,1.57,0,0,1-1.37-.65h0V495h-1.23Zm1.23,1.21a1.27,1.27,0,0,0,0,.34,1.11,1.11,0,0,0,1.07.86c.78,0,1.24-.65,1.24-1.61s-.42-1.56-1.21-1.56a1.14,1.14,0,0,0-1.09.91,1.12,1.12,0,0,0-.05.31Z" transform="translate(-342.84 -431.26)"/><rect class="k" x="181.75" y="15.32" width="45.91" height="17.2"/><path class="j" d="M540.6,456.4l-.58,1.91h-1.27l2.16-6.73h1.57l2.19,6.73h-1.32l-.61-1.91Zm1.93-.93-.53-1.66c-.13-.41-.24-.87-.34-1.26h0c-.1.39-.2.86-.32,1.26l-.52,1.66Z" transform="translate(-342.84 -431.26)"/><path class="j" d="M545.51,455.06c0-.64,0-1.16,0-1.62h1.08l.06.75h0a1.9,1.9,0,0,1,1.67-.86,2.21,2.21,0,0,1,2.05,2.48,2.32,2.32,0,0,1-2.22,2.61,1.6,1.6,0,0,1-1.37-.65h0v2.52h-1.23Zm1.23,1.21a1.27,1.27,0,0,0,0,.34,1.11,1.11,0,0,0,1.08.86c.78,0,1.24-.65,1.24-1.61s-.42-1.56-1.21-1.56a1.15,1.15,0,0,0-1.1.91,1.12,1.12,0,0,0,0,.31Z" transform="translate(-342.84 -431.26)"/><path class="j" d="M551.36,455.06c0-.64,0-1.16,0-1.62h1.08l.06.75h0a1.9,1.9,0,0,1,1.67-.86,2.21,2.21,0,0,1,2.05,2.48,2.32,2.32,0,0,1-2.22,2.61,1.6,1.6,0,0,1-1.37-.65h0v2.52h-1.23Zm1.23,1.21a1.27,1.27,0,0,0,0,.34,1.11,1.11,0,0,0,1.08.86c.78,0,1.24-.65,1.24-1.61s-.42-1.56-1.21-1.56a1.15,1.15,0,0,0-1.1.91,1.12,1.12,0,0,0,0,.31Z" transform="translate(-342.84 -431.26)"/><rect class="k" x="260.94" y="15.32" width="45.91" height="17.2"/><path class="j" d="M619.79,456.4l-.58,1.91h-1.27l2.16-6.73h1.57l2.18,6.73h-1.32l-.61-1.91Zm1.92-.93-.53-1.66c-.13-.41-.23-.87-.34-1.26h0c-.1.39-.21.86-.33,1.26l-.51,1.66Z" transform="translate(-342.84 -431.26)"/><path class="j" d="M624.7,455.06c0-.64,0-1.16,0-1.62h1.08l.06.75h0a1.9,1.9,0,0,1,1.67-.86,2.21,2.21,0,0,1,2,2.48,2.32,2.32,0,0,1-2.21,2.61,1.6,1.6,0,0,1-1.37-.65h0v2.52H624.7Zm1.23,1.21a1.27,1.27,0,0,0,0,.34,1.11,1.11,0,0,0,1.07.86c.79,0,1.24-.65,1.24-1.61s-.41-1.56-1.2-1.56a1.15,1.15,0,0,0-1.1.91,1.12,1.12,0,0,0-.05.31Z" transform="translate(-342.84 -431.26)"/><path class="j" d="M630.55,455.06c0-.64,0-1.16,0-1.62h1.08l.06.75h0a1.88,1.88,0,0,1,1.66-.86,2.21,2.21,0,0,1,2,2.48,2.32,2.32,0,0,1-2.21,2.61,1.57,1.57,0,0,1-1.37-.65h0v2.52h-1.23Zm1.23,1.21a1.27,1.27,0,0,0,0,.34,1.11,1.11,0,0,0,1.07.86c.78,0,1.24-.65,1.24-1.61s-.42-1.56-1.21-1.56a1.14,1.14,0,0,0-1.09.91,1.12,1.12,0,0,0-.05.31Z" transform="translate(-342.84 -431.26)"/><polyline class="l" points="236.7 83.01 236.7 58.16 229.37 58.16"/><path class="c" d="M580.66,514.2a1.13,1.13,0,1,1-1.12-1.13A1.13,1.13,0,0,1,580.66,514.2Z" transform="translate(-342.84 -431.26)"/><path class="m" d="M580.81,514.2a1.28,1.28,0,1,0-1.27,1.28,1.28,1.28,0,0,0,1.27-1.28Zm-2.25,0a1,1,0,1,1,1,1,1,1,0,0,1-1-1Z" transform="translate(-342.84 -431.26)"/><path class="c" d="M572.27,488.29a1.13,1.13,0,1,0,1.13,1.13A1.13,1.13,0,0,0,572.27,488.29Z" transform="translate(-342.84 -431.26)"/><path class="m" d="M572.27,488.14a1.28,1.28,0,1,1-1.27,1.28,1.28,1.28,0,0,1,1.27-1.28Zm0,2.26a1,1,0,1,0-1-1,1,1,0,0,0,1,1Z" transform="translate(-342.84 -431.26)"/><polyline class="l" points="251.95 83.01 251.95 58.16 259.28 58.16"/><path class="c" d="M595.92,514.2a1.13,1.13,0,1,1-1.13-1.13A1.13,1.13,0,0,1,595.92,514.2Z" transform="translate(-342.84 -431.26)"/><path class="m" d="M596.07,514.2a1.28,1.28,0,1,0-1.28,1.28,1.28,1.28,0,0,0,1.28-1.28Zm-2.25,0a1,1,0,1,1,1,1,1,1,0,0,1-1-1Z" transform="translate(-342.84 -431.26)"/><path class="c" d="M602.06,490.55a1.13,1.13,0,1,0-1.13-1.13A1.13,1.13,0,0,0,602.06,490.55Z" transform="translate(-342.84 -431.26)"/><path class="m" d="M602.06,490.7a1.28,1.28,0,1,1,1.28-1.28,1.28,1.28,0,0,1-1.28,1.28Zm0-2.26a1,1,0,1,0,1,1,1,1,0,0,0-1-1Z" transform="translate(-342.84 -431.26)"/><polyline class="l" points="241.82 83.01 241.82 23.91 229.37 23.91"/><path class="c" d="M585.79,514.2a1.13,1.13,0,1,1-1.13-1.13A1.14,1.14,0,0,1,585.79,514.2Z" transform="translate(-342.84 -431.26)"/><path class="m" d="M585.94,514.2a1.28,1.28,0,1,0-1.28,1.28,1.29,1.29,0,0,0,1.28-1.28Zm-2.26,0a1,1,0,1,1,1,1,1,1,0,0,1-1-1Z" transform="translate(-342.84 -431.26)"/><circle class="c" cx="229.43" cy="23.92" r="1.13"/><path class="m" d="M572.27,453.89a1.28,1.28,0,1,1-1.27,1.28,1.28,1.28,0,0,1,1.27-1.28Zm0,2.26a1,1,0,1,0-1-1,1,1,0,0,0,1,1Z" transform="translate(-342.84 -431.26)"/><polyline class="l" points="246.7 83.01 246.7 23.91 259.15 23.91"/><path class="c" d="M590.66,514.2a1.13,1.13,0,1,1-1.12-1.13A1.13,1.13,0,0,1,590.66,514.2Z" transform="translate(-342.84 -431.26)"/><path class="m" d="M590.81,514.2a1.28,1.28,0,1,0-1.27,1.28,1.28,1.28,0,0,0,1.27-1.28Zm-2.25,0a1,1,0,1,1,1,1,1,1,0,0,1-1-1Z" transform="translate(-342.84 -431.26)"/><circle class="c" cx="259.08" cy="23.92" r="1.13"/><path class="m" d="M601.92,456.45a1.28,1.28,0,1,1,1.28-1.28,1.27,1.27,0,0,1-1.28,1.28Zm0-2.26a1,1,0,1,0,1,1,1,1,0,0,0-1-1Z" transform="translate(-342.84 -431.26)"/><path class="n" d="M523.26,437a3.41,3.41,0,0,0,1.63.43c.79,0,1.23-.37,1.23-.92s-.34-.81-1.2-1.12c-1.11-.4-1.82-1-1.82-2s.92-1.93,2.38-1.93a3.56,3.56,0,0,1,1.62.34l-.3,1a3,3,0,0,0-1.34-.31c-.78,0-1.12.42-1.12.8s.39.76,1.29,1.11c1.17.44,1.74,1,1.74,2s-.82,2-2.56,2A4,4,0,0,1,523,438Z" transform="translate(-342.84 -431.26)"/><path class="n" d="M529.36,436.26a1.32,1.32,0,0,0,1.5,1.26,3.66,3.66,0,0,0,1.35-.22l.18.85a4.59,4.59,0,0,1-1.7.3,2.3,2.3,0,0,1-2.51-2.46,2.4,2.4,0,0,1,2.38-2.61,2.11,2.11,0,0,1,2.1,2.36,4.59,4.59,0,0,1,0,.52Zm2.14-.86a1,1,0,0,0-1-1.19,1.2,1.2,0,0,0-1.13,1.19Z" transform="translate(-342.84 -431.26)"/><path class="n" d="M533.65,435.05c0-.66,0-1.13,0-1.57h1.07l0,.93h0a1.44,1.44,0,0,1,1.33-1,1.32,1.32,0,0,1,.29,0v1.16a1.71,1.71,0,0,0-.36,0,1.08,1.08,0,0,0-1.1.93,2.11,2.11,0,0,0,0,.38v2.52h-1.23Z" transform="translate(-342.84 -431.26)"/><path class="n" d="M538.21,433.48,539,436c.14.43.24.82.33,1.22h0c.09-.4.2-.78.33-1.22l.77-2.47h1.29l-1.85,4.87h-1.21l-1.81-4.87Z" transform="translate(-342.84 -431.26)"/><path class="n" d="M543.25,436.26a1.32,1.32,0,0,0,1.5,1.26,3.57,3.57,0,0,0,1.34-.22l.19.85a4.59,4.59,0,0,1-1.7.3,2.3,2.3,0,0,1-2.51-2.46,2.4,2.4,0,0,1,2.38-2.61,2.1,2.1,0,0,1,2.09,2.36,3,3,0,0,1,0,.52Zm2.14-.86a1,1,0,0,0-1-1.19,1.2,1.2,0,0,0-1.13,1.19Z" transform="translate(-342.84 -431.26)"/><path class="n" d="M547.54,435.05c0-.66,0-1.13,0-1.57h1.07l0,.93h0a1.44,1.44,0,0,1,1.33-1,1.32,1.32,0,0,1,.29,0v1.16a1.71,1.71,0,0,0-.36,0,1.08,1.08,0,0,0-1.1.93,2.11,2.11,0,0,0,0,.38v2.52h-1.23Z" transform="translate(-342.84 -431.26)"/><path class="n" d="M552.59,438.75l2.44-7.24h.85l-2.43,7.24Z" transform="translate(-342.84 -431.26)"/><path class="n" d="M563.48,438.15a4.24,4.24,0,0,1-1.73.3,3.18,3.18,0,0,1-3.44-3.39,3.39,3.39,0,0,1,3.6-3.55,3.85,3.85,0,0,1,1.63.3l-.27,1a3.26,3.26,0,0,0-1.31-.26A2.24,2.24,0,0,0,559.6,435a2.21,2.21,0,0,0,2.34,2.43,3.44,3.44,0,0,0,1.34-.25Z" transform="translate(-342.84 -431.26)"/><path class="n" d="M564.46,431.26h1.24v7.09h-1.24Z" transform="translate(-342.84 -431.26)"/><path class="n" d="M571.38,436.89c0,.58,0,1.06,0,1.46h-1.08l-.05-.74h0a1.74,1.74,0,0,1-1.55.85c-.89,0-1.7-.53-1.7-2.12v-2.86h1.23v2.65c0,.81.26,1.33.91,1.33a1,1,0,0,0,.93-.66,1.12,1.12,0,0,0,.08-.38v-2.94h1.22Z" transform="translate(-342.84 -431.26)"/><path class="n" d="M572.66,437.22a2.74,2.74,0,0,0,1.25.35c.54,0,.78-.22.78-.54s-.2-.5-.8-.71c-.95-.33-1.35-.85-1.34-1.42,0-.86.71-1.52,1.84-1.52a2.79,2.79,0,0,1,1.28.28l-.24.87a2.14,2.14,0,0,0-1-.28c-.44,0-.68.21-.68.51s.23.46.85.68c.88.32,1.29.77,1.3,1.49,0,.88-.69,1.52-2,1.52a3.14,3.14,0,0,1-1.48-.34Z" transform="translate(-342.84 -431.26)"/><path class="n" d="M578.3,432.1v1.38h1.16v.92H578.3v2.15c0,.59.16.9.63.9a2,2,0,0,0,.48-.06v.94a2.59,2.59,0,0,1-.88.12,1.42,1.42,0,0,1-1.06-.4,1.94,1.94,0,0,1-.38-1.36V434.4h-.7v-.92h.7v-1.09Z" transform="translate(-342.84 -431.26)"/><path class="n" d="M581.21,436.26a1.32,1.32,0,0,0,1.5,1.26,3.64,3.64,0,0,0,1.34-.22l.18.85a4.57,4.57,0,0,1-1.69.3A2.3,2.3,0,0,1,580,436a2.4,2.4,0,0,1,2.38-2.61,2.11,2.11,0,0,1,2.09,2.36,3,3,0,0,1,0,.52Zm2.13-.86a1,1,0,0,0-1-1.19,1.2,1.2,0,0,0-1.12,1.19Z" transform="translate(-342.84 -431.26)"/><path class="n" d="M585.5,435.05c0-.66,0-1.13,0-1.57h1.07l0,.93h0a1.44,1.44,0,0,1,1.32-1,1.32,1.32,0,0,1,.29,0v1.16a1.69,1.69,0,0,0-.35,0,1.08,1.08,0,0,0-1.1.93,2.11,2.11,0,0,0,0,.38v2.52H585.5Z" transform="translate(-342.84 -431.26)"/><polyline class="o" points="189.21 176.91 189.21 141.86 68.58 141.86 68.58 108.05"/><circle class="c" cx="189.21" cy="176.81" r="1.88"/><path class="p" d="M534.18,608.06a2.13,2.13,0,1,0-2.13,2.13,2.14,2.14,0,0,0,2.13-2.13Zm-3.76,0a1.63,1.63,0,1,1,1.63,1.63,1.63,1.63,0,0,1-1.63-1.63Z" transform="translate(-342.84 -431.26)"/><path class="c" d="M413.3,539.42a1.88,1.88,0,1,0-1.88,1.88A1.88,1.88,0,0,0,413.3,539.42Z" transform="translate(-342.84 -431.26)"/><path class="p" d="M413.55,539.42a2.13,2.13,0,1,1-2.13-2.13,2.14,2.14,0,0,1,2.13,2.13Zm-3.76,0a1.63,1.63,0,1,0,1.63-1.63,1.63,1.63,0,0,0-1.63,1.63Z" transform="translate(-342.84 -431.26)"/><polyline class="o" points="225.04 176.91 225.04 141.3 244.3 141.3 244.3 108.05"/><circle class="c" cx="225.05" cy="176.81" r="1.88"/><path class="p" d="M570,608.06a2.13,2.13,0,1,0-2.13,2.13,2.14,2.14,0,0,0,2.13-2.13Zm-3.76,0a1.63,1.63,0,1,1,1.63,1.63,1.63,1.63,0,0,1-1.63-1.63Z" transform="translate(-342.84 -431.26)"/><path class="c" d="M589,539.42a1.88,1.88,0,1,0-1.88,1.88A1.88,1.88,0,0,0,589,539.42Z" transform="translate(-342.84 -431.26)"/><path class="p" d="M589.27,539.42a2.13,2.13,0,1,1-2.13-2.13,2.14,2.14,0,0,1,2.13,2.13Zm-3.76,0a1.63,1.63,0,1,0,1.63-1.63,1.63,1.63,0,0,0-1.63,1.63Z" transform="translate(-342.84 -431.26)"/></svg>