<svg xmlns="http://www.w3.org/2000/svg" viewBox="0 0 485.91 374.47"><defs><style>.a{fill:#f3f4f4;stroke:#e2e2e2;}.a,.d,.g,.h,.i,.j,.k,.l,.n,.o,.p,.q{stroke-miterlimit:10;}.b{fill:#02203c;}.c{fill:#fff;}.d,.g,.h,.i,.j,.k,.l,.o,.p,.q{fill:none;}.d{stroke:#02203c;}.d,.j,.k,.l,.n,.o,.p,.q{stroke-width:2px;}.e{fill:red;}.f{fill:#e3f4fc;}.g,.h,.i{stroke:#cadce5;}.h{stroke-dasharray:5.95 2.98;}.i{stroke-dasharray:4.65 2.32;}.j,.k{stroke:red;}.k{stroke-dasharray:5.91 2.95;}.l{stroke:#0ac40f;}.m{fill:#0ac40f;}.n{fill:#ffffb6;stroke:#eade4e;}.o,.p,.q{stroke:#cdcdcd;}.p{stroke-dasharray:7.3 3.65;}.q{stroke-dasharray:6 3;}</style></defs><title>failover</title><rect class="a" x="0.5" y="197.98" width="212.24" height="175.98" rx="11.42" ry="11.42"/><rect class="b" x="14.65" y="218.74" width="183.45" height="38.49"/><path class="c" d="M302.6,648.33a2.84,2.84,0,0,0-2.35,1.06,5.54,5.54,0,0,0,0,5.88,2.9,2.9,0,0,0,2.38,1,6.26,6.26,0,0,0,1.31-.14c.42-.09.86-.2,1.31-.34v1.49a8,8,0,0,1-2.83.47,4.51,4.51,0,0,1-3.58-1.42,5.9,5.9,0,0,1-1.25-4,6.41,6.41,0,0,1,.61-2.89,4.33,4.33,0,0,1,1.75-1.91,5.35,5.35,0,0,1,2.7-.66,6.74,6.74,0,0,1,3,.68L305,649a9.66,9.66,0,0,0-1.14-.45A4.37,4.37,0,0,0,302.6,648.33Z" transform="translate(-226.83 -415.33)"/><path class="c" d="M313.56,653.58a4.34,4.34,0,0,1-1,3.07,3.6,3.6,0,0,1-2.81,1.11,3.85,3.85,0,0,1-2-.51,3.43,3.43,0,0,1-1.33-1.46,5,5,0,0,1-.46-2.21,4.35,4.35,0,0,1,1-3.05,3.65,3.65,0,0,1,2.83-1.1,3.51,3.51,0,0,1,2.75,1.13A4.3,4.3,0,0,1,313.56,653.58Zm-5.84,0c0,1.86.68,2.78,2,2.78s2-.92,2-2.78-.68-2.75-2-2.75a1.75,1.75,0,0,0-1.56.71A3.64,3.64,0,0,0,307.72,653.58Z" transform="translate(-226.83 -415.33)"/><path class="c" d="M321.7,657.61H320v-4.94a2.13,2.13,0,0,0-.37-1.38,1.44,1.44,0,0,0-1.19-.46,1.87,1.87,0,0,0-1.58.64,3.47,3.47,0,0,0-.5,2.14v4h-1.71v-8H316l.24,1h.08a2.47,2.47,0,0,1,1-.88,3.46,3.46,0,0,1,1.49-.32c1.92,0,2.89,1,2.89,3Z" transform="translate(-226.83 -415.33)"/><path class="c" d="M327.51,650.87h-2v6.74h-1.71v-6.74h-1.32v-.8l1.32-.52V649a2.91,2.91,0,0,1,.67-2.11,2.71,2.71,0,0,1,2-.69,5.39,5.39,0,0,1,1.77.3l-.45,1.29a4.07,4.07,0,0,0-1.2-.2,1,1,0,0,0-.85.36,1.79,1.79,0,0,0-.27,1.08v.52h2Zm1.26-3.42a.92.92,0,0,1,.25-.7,1,1,0,0,1,.72-.25.94.94,0,0,1,.7.25,1.09,1.09,0,0,1,0,1.39.94.94,0,0,1-.7.25,1,1,0,0,1-.72-.25A.93.93,0,0,1,328.77,647.45Zm1.81,10.16h-1.71v-8h1.71Z" transform="translate(-226.83 -415.33)"/><path class="c" d="M339.81,649.58v.94l-1.37.25a2.31,2.31,0,0,1,.31.63,2.45,2.45,0,0,1,.12.78,2.36,2.36,0,0,1-.86,2,3.54,3.54,0,0,1-2.36.71,3.73,3.73,0,0,1-.69-.05,1,1,0,0,0-.56.8.45.45,0,0,0,.26.41,2.26,2.26,0,0,0,.95.14H337a3.16,3.16,0,0,1,2,.56,2,2,0,0,1,.69,1.64,2.36,2.36,0,0,1-1.12,2.1,5.92,5.92,0,0,1-3.26.74,4.44,4.44,0,0,1-2.5-.58A1.86,1.86,0,0,1,332,659a1.78,1.78,0,0,1,.47-1.25,2.54,2.54,0,0,1,1.31-.7,1.27,1.27,0,0,1-.56-.47,1.22,1.22,0,0,1,0-1.44,3,3,0,0,1,.76-.62,2.26,2.26,0,0,1-1-.87,2.85,2.85,0,0,1,.44-3.45,3.46,3.46,0,0,1,2.35-.72,5.92,5.92,0,0,1,.71.05,5.26,5.26,0,0,1,.57.1Zm-6.31,9.28a.93.93,0,0,0,.49.85,2.75,2.75,0,0,0,1.4.3,4.21,4.21,0,0,0,2.08-.4,1.21,1.21,0,0,0,.68-1.06.8.8,0,0,0-.37-.75,3.11,3.11,0,0,0-1.39-.22h-1.3a1.82,1.82,0,0,0-1.16.35A1.12,1.12,0,0,0,333.5,658.86Zm.73-6.68a1.61,1.61,0,0,0,.39,1.16,1.47,1.47,0,0,0,1.11.41c1,0,1.49-.53,1.49-1.58a1.8,1.8,0,0,0-.37-1.21,1.39,1.39,0,0,0-1.12-.43,1.45,1.45,0,0,0-1.12.42A1.79,1.79,0,0,0,334.23,652.18Z" transform="translate(-226.83 -415.33)"/><path class="c" d="M349.85,657.61h-1.74v-4.78h-4.9v4.78h-1.73V647h1.73v4.34h4.9V647h1.74Z" transform="translate(-226.83 -415.33)"/><path class="c" d="M356.94,657.61l-.24-1.05h-.09a2.43,2.43,0,0,1-1,.88,3.44,3.44,0,0,1-1.5.32,3,3,0,0,1-2.18-.73,3,3,0,0,1-.72-2.2v-5.25h1.72v4.95a2.17,2.17,0,0,0,.38,1.39,1.46,1.46,0,0,0,1.18.46,1.87,1.87,0,0,0,1.58-.65,3.48,3.48,0,0,0,.51-2.15v-4h1.71v8Z" transform="translate(-226.83 -415.33)"/><path class="c" d="M363.93,649.43a2.8,2.8,0,0,1,2.34,1.09,4.93,4.93,0,0,1,.84,3.06,5,5,0,0,1-.85,3.08,3.09,3.09,0,0,1-4.73,0h-.12l-.31,1h-1.28v-11.3h1.71V649c0,.2,0,.49,0,.88s0,.65,0,.75h.07A2.71,2.71,0,0,1,363.93,649.43Zm-.45,1.4a1.72,1.72,0,0,0-1.48.61,3.52,3.52,0,0,0-.47,2v.12a3.87,3.87,0,0,0,.46,2.13,1.75,1.75,0,0,0,1.52.65,1.54,1.54,0,0,0,1.38-.72,3.82,3.82,0,0,0,.47-2.07C365.36,651.74,364.73,650.83,363.48,650.83Z" transform="translate(-226.83 -415.33)"/><path class="b" d="M349.5,724.5a6.25,6.25,0,0,0,.36-2l0-5.74a5.69,5.69,0,0,1-.07.83,7,7,0,0,0-.33-2.71,6,6,0,0,0,.38-2.08l0-5.4V707c0,.05,0,.09,0,.13-.08-2.72-1.81-5.43-5.18-7.38-6.9-4-18-4-24.89,0-3.33,1.93-5,4.61-5.11,7.31,0-.05,0-.1,0-.15v5.73a6.3,6.3,0,0,0,.38,2.13,7,7,0,0,0-.36,2c0-.06,0-.12,0-.18v5.73a6.21,6.21,0,0,0,.37,2.11,7,7,0,0,0-.36,2.89v4.7c0,2.63,1.72,5.26,5.19,7.26,6.9,4,18,4,24.89,0,3.4-2,5.11-4.57,5.11-7.16l0-4.79A6.93,6.93,0,0,0,349.5,724.5Zm-5.44,7.87a26,26,0,0,1-23.48,0c-2.86-1.65-4.45-3.77-4.48-6a12.07,12.07,0,0,0,3.76,3.22c6.9,4,18,4,24.89,0a11.88,11.88,0,0,0,3.72-3.22C348.47,728.6,346.9,730.72,344.06,732.37Zm0-9.7a26,26,0,0,1-23.48,0c-2.86-1.65-4.45-3.77-4.48-5.95a12.18,12.18,0,0,0,3.76,3.21c6.9,4,18,4,24.89,0a12,12,0,0,0,3.72-3.21C348.47,718.9,346.9,721,344.06,722.67Zm0-9.7a23.69,23.69,0,0,1-11.73,2.8A24,24,0,0,1,320.58,713c-2.89-1.68-4.48-3.81-4.49-6s1.57-4.31,4.42-6A26,26,0,0,1,344,701c2.89,1.67,4.49,3.8,4.49,6S346.91,711.32,344.06,713Z" transform="translate(-226.83 -415.33)"/><line class="d" x1="105.45" y1="257.23" x2="105.45" y2="282.87"/><path d="M311.9,750.4a4.65,4.65,0,0,1-1.28,3.52,5.11,5.11,0,0,1-3.67,1.21h-2.6v-9.28h2.87a4.77,4.77,0,0,1,3.45,1.19A4.48,4.48,0,0,1,311.9,750.4Zm-1.6.05q0-3.33-3.12-3.33h-1.31v6.74H307Q310.3,753.86,310.3,750.45Z" transform="translate(-226.83 -415.33)"/><path d="M318.13,755.13l-.3-1h-.05a3,3,0,0,1-1,.88,3.36,3.36,0,0,1-1.32.23,2.26,2.26,0,0,1-1.62-.56,2.08,2.08,0,0,1-.58-1.58,1.88,1.88,0,0,1,.8-1.64,4.62,4.62,0,0,1,2.46-.6l1.21,0v-.37a1.42,1.42,0,0,0-.31-1,1.28,1.28,0,0,0-1-.33,3.28,3.28,0,0,0-1,.16,7.2,7.2,0,0,0-.95.37l-.48-1.07a4.87,4.87,0,0,1,1.25-.45,6,6,0,0,1,1.28-.16,3,3,0,0,1,2,.59,2.26,2.26,0,0,1,.68,1.83v4.73Zm-2.23-1a1.87,1.87,0,0,0,1.31-.46,1.62,1.62,0,0,0,.49-1.27v-.61l-.9,0a3,3,0,0,0-1.53.35,1.07,1.07,0,0,0-.48,1,.92.92,0,0,0,.28.73A1.18,1.18,0,0,0,315.9,754.12Z" transform="translate(-226.83 -415.33)"/><path d="M323.89,754.05a3.44,3.44,0,0,0,1.09-.17V755a2.58,2.58,0,0,1-.64.19,5.31,5.31,0,0,1-.81.07c-1.41,0-2.12-.75-2.12-2.24v-3.78h-1v-.66l1-.54.51-1.49h.92v1.56h2v1.13h-2V753a1.07,1.07,0,0,0,.27.8A1,1,0,0,0,323.89,754.05Z" transform="translate(-226.83 -415.33)"/><path d="M330.78,755.13l-.3-1h-.05a3,3,0,0,1-1,.88,3.36,3.36,0,0,1-1.32.23,2.26,2.26,0,0,1-1.62-.56,2.08,2.08,0,0,1-.58-1.58,1.86,1.86,0,0,1,.81-1.64,4.55,4.55,0,0,1,2.45-.6l1.21,0v-.37a1.42,1.42,0,0,0-.31-1,1.28,1.28,0,0,0-1-.33,3.28,3.28,0,0,0-1,.16,7.2,7.2,0,0,0-1,.37l-.48-1.07a4.87,4.87,0,0,1,1.25-.45,6,6,0,0,1,1.28-.16,3,3,0,0,1,2,.59,2.26,2.26,0,0,1,.68,1.83v4.73Zm-2.22-1a1.86,1.86,0,0,0,1.3-.46,1.62,1.62,0,0,0,.49-1.27v-.61l-.9,0a3,3,0,0,0-1.53.35,1.07,1.07,0,0,0-.48,1,.92.92,0,0,0,.28.73A1.19,1.19,0,0,0,328.56,754.12Z" transform="translate(-226.83 -415.33)"/><path d="M337.51,748a2.43,2.43,0,0,1,2.05,1,4.26,4.26,0,0,1,.73,2.67,4.35,4.35,0,0,1-.74,2.69,2.7,2.7,0,0,1-4.13,0h-.1l-.28.83h-1.11v-9.88h1.49v2.35q0,.27,0,.78c0,.34,0,.56,0,.65h.07A2.36,2.36,0,0,1,337.51,748Zm-.39,1.22a1.5,1.5,0,0,0-1.29.53,3.09,3.09,0,0,0-.41,1.78v.1a3.34,3.34,0,0,0,.4,1.86,1.53,1.53,0,0,0,1.33.57,1.33,1.33,0,0,0,1.2-.63,3.26,3.26,0,0,0,.41-1.81C338.76,750,338.22,749.2,337.12,749.2Z" transform="translate(-226.83 -415.33)"/><path d="M346.42,755.13l-.3-1h-.05a3,3,0,0,1-1,.88,3.36,3.36,0,0,1-1.32.23,2.26,2.26,0,0,1-1.62-.56,2.08,2.08,0,0,1-.58-1.58,1.86,1.86,0,0,1,.81-1.64,4.55,4.55,0,0,1,2.45-.6l1.22,0v-.37a1.42,1.42,0,0,0-.32-1,1.28,1.28,0,0,0-1-.33,3.28,3.28,0,0,0-1,.16,7.2,7.2,0,0,0-.95.37l-.48-1.07a5,5,0,0,1,1.25-.45,6,6,0,0,1,1.28-.16,3,3,0,0,1,2,.59,2.26,2.26,0,0,1,.68,1.83v4.73Zm-2.22-1a1.86,1.86,0,0,0,1.3-.46,1.62,1.62,0,0,0,.49-1.27v-.61l-.9,0a3,3,0,0,0-1.53.35,1.07,1.07,0,0,0-.48,1,.92.92,0,0,0,.28.73A1.19,1.19,0,0,0,344.2,754.12Z" transform="translate(-226.83 -415.33)"/><path d="M354.28,753.13a1.84,1.84,0,0,1-.75,1.58,3.54,3.54,0,0,1-2.14.55,5,5,0,0,1-2.26-.43v-1.29a5.46,5.46,0,0,0,2.31.58q1.38,0,1.38-.84a.63.63,0,0,0-.16-.44,1.69,1.69,0,0,0-.5-.37,7.45,7.45,0,0,0-1-.43,4.51,4.51,0,0,1-1.64-.94,1.72,1.72,0,0,1-.43-1.22,1.59,1.59,0,0,1,.73-1.4,3.45,3.45,0,0,1,2-.5,5.54,5.54,0,0,1,2.34.51l-.48,1.12a5.31,5.31,0,0,0-1.91-.47c-.79,0-1.19.22-1.19.67a.69.69,0,0,0,.31.56,7.4,7.4,0,0,0,1.35.63,5.86,5.86,0,0,1,1.26.62,1.75,1.75,0,0,1,.58.64A1.8,1.8,0,0,1,354.28,753.13Z" transform="translate(-226.83 -415.33)"/><path d="M359,755.26a3.39,3.39,0,0,1-2.56-1,3.59,3.59,0,0,1-.92-2.63,4,4,0,0,1,.85-2.7,3,3,0,0,1,2.36-1,2.89,2.89,0,0,1,2.19.85,3.21,3.21,0,0,1,.81,2.32V752H357a2.34,2.34,0,0,0,.55,1.57,1.92,1.92,0,0,0,1.47.55,5.3,5.3,0,0,0,1.16-.12,6.25,6.25,0,0,0,1.15-.39v1.21a4.2,4.2,0,0,1-1.1.37A7,7,0,0,1,359,755.26Zm-.27-6.15a1.46,1.46,0,0,0-1.14.46,2.07,2.07,0,0,0-.51,1.31h3.18a1.91,1.91,0,0,0-.41-1.32A1.45,1.45,0,0,0,358.69,749.11Z" transform="translate(-226.83 -415.33)"/><path class="e" d="M308.22,770.73,306,763.45h-.06q.12,2.22.12,3v4.31h-1.76v-9.28H307l2.2,7.1h0l2.33-7.1h2.68v9.28h-1.84v-4.39c0-.21,0-.45,0-.72s0-1,.09-2.16h-.06L310,770.73Z" transform="translate(-226.83 -415.33)"/><path class="e" d="M322.23,770.73l-.67-2.21h-3.38l-.68,2.21h-2.12l3.28-9.32h2.41l3.28,9.32Zm-1.14-3.86-1-3.39c-.08-.27-.13-.47-.17-.63q-.21.82-1.2,4Z" transform="translate(-226.83 -415.33)"/><path class="e" d="M331,768.15a2.38,2.38,0,0,1-.91,2,3.87,3.87,0,0,1-2.51.73,6,6,0,0,1-2.63-.56v-1.83a10.57,10.57,0,0,0,1.59.59,4.43,4.43,0,0,0,1.19.17,1.72,1.72,0,0,0,1-.24.93.93,0,0,0,.2-1.23,1.83,1.83,0,0,0-.45-.41,11.42,11.42,0,0,0-1.2-.62A5.93,5.93,0,0,1,326,766a3,3,0,0,1-.68-.86,2.7,2.7,0,0,1,.58-3.08,3.48,3.48,0,0,1,2.31-.7,5.67,5.67,0,0,1,1.38.17A8.76,8.76,0,0,1,331,762l-.64,1.53a9,9,0,0,0-1.23-.42,3.93,3.93,0,0,0-.95-.12,1.23,1.23,0,0,0-.86.26.85.85,0,0,0-.3.68.84.84,0,0,0,.12.45,1.27,1.27,0,0,0,.39.37,11.08,11.08,0,0,0,1.24.65,5,5,0,0,1,1.79,1.25A2.45,2.45,0,0,1,331,768.15Z" transform="translate(-226.83 -415.33)"/><path class="e" d="M336.26,770.73h-2v-7.64h-2.52v-1.64h7v1.64h-2.52Z" transform="translate(-226.83 -415.33)"/><path class="e" d="M345.55,770.73h-5.34v-9.28h5.34v1.61h-3.37v2h3.14v1.61h-3.14v2.4h3.37Z" transform="translate(-226.83 -415.33)"/><path class="e" d="M349.46,767.17v3.56h-2v-9.28h2.7a4.6,4.6,0,0,1,2.8.69,2.45,2.45,0,0,1,.91,2.09,2.48,2.48,0,0,1-.45,1.46,3,3,0,0,1-1.27,1q2.08,3.12,2.72,4h-2.18l-2.21-3.56Zm0-1.6h.63a2.41,2.41,0,0,0,1.38-.31,1.11,1.11,0,0,0,.45-1,1,1,0,0,0-.46-.94,2.8,2.8,0,0,0-1.4-.28h-.6Z" transform="translate(-226.83 -415.33)"/><rect class="f" x="24.08" y="186.85" width="53.62" height="22.27"/><polyline class="g" points="77.69 206.12 77.69 209.12 74.69 209.12"/><line class="h" x1="71.72" y1="209.12" x2="28.56" y2="209.12"/><polyline class="g" points="27.08 209.12 24.08 209.12 24.08 206.12"/><line class="i" x1="24.08" y1="203.8" x2="24.08" y2="191.01"/><polyline class="g" points="24.08 189.85 24.08 186.85 27.08 186.85"/><line class="h" x1="30.05" y1="186.85" x2="73.2" y2="186.85"/><polyline class="g" points="74.69 186.85 77.69 186.85 77.69 189.85"/><line class="i" x1="77.69" y1="192.17" x2="77.69" y2="204.96"/><path d="M269.16,617h-1.28l-1.23-4.32c-.06-.19-.12-.46-.2-.81a6.43,6.43,0,0,1-.14-.74c0,.21-.09.48-.17.82s-.13.59-.18.75l-1.2,4.3h-1.29l-.93-3.62-1-3.62h1.2l1,4.22c.16.68.28,1.27.35,1.79,0-.28.09-.59.16-.94s.14-.63.2-.84l1.18-4.23h1.17L268.1,614a15.35,15.35,0,0,1,.36,1.76,12.86,12.86,0,0,1,.36-1.8l1-4.21h1.2Z" transform="translate(-226.83 -415.33)"/><path d="M274.34,617.13a2.65,2.65,0,0,1-2-.75,2.82,2.82,0,0,1-.72-2,3.14,3.14,0,0,1,.67-2.11,2.32,2.32,0,0,1,1.84-.76,2.25,2.25,0,0,1,1.71.65,2.53,2.53,0,0,1,.63,1.82v.62h-3.65a1.8,1.8,0,0,0,.43,1.23,1.49,1.49,0,0,0,1.15.43,4.29,4.29,0,0,0,.9-.09,4.82,4.82,0,0,0,.9-.31v1a3.6,3.6,0,0,1-.86.28A5,5,0,0,1,274.34,617.13Zm-.21-4.79a1.15,1.15,0,0,0-.89.35,1.65,1.65,0,0,0-.4,1h2.49a1.52,1.52,0,0,0-.33-1A1.09,1.09,0,0,0,274.13,612.34Z" transform="translate(-226.83 -415.33)"/><path d="M280.59,611.46a1.89,1.89,0,0,1,1.6.74,4.09,4.09,0,0,1,0,4.18,2.1,2.1,0,0,1-3.22,0h-.08l-.22.65h-.87v-7.7H279v1.83c0,.13,0,.34,0,.6s0,.44,0,.51h0A1.85,1.85,0,0,1,280.59,611.46Zm-.3.95a1.16,1.16,0,0,0-1,.41,2.31,2.31,0,0,0-.32,1.38v.08a2.58,2.58,0,0,0,.31,1.45,1.18,1.18,0,0,0,1,.45,1.06,1.06,0,0,0,.94-.49,2.65,2.65,0,0,0,.31-1.42C281.56,613,281.14,612.41,280.29,612.41Z" transform="translate(-226.83 -415.33)"/><path d="M289.91,609.79v4.69a2.77,2.77,0,0,1-.35,1.4,2.34,2.34,0,0,1-1,.93,3.56,3.56,0,0,1-1.56.32,2.92,2.92,0,0,1-2.09-.71,2.58,2.58,0,0,1-.75-2v-4.67h1.19v4.58a1.85,1.85,0,0,0,.41,1.32,1.71,1.71,0,0,0,1.28.43c1.12,0,1.67-.59,1.67-1.76v-4.57Z" transform="translate(-226.83 -415.33)"/><path d="M291.76,617v-7.24h1.18V617Z" transform="translate(-226.83 -415.33)"/><rect class="f" x="129.3" y="186.85" width="53.62" height="22.27"/><polyline class="g" points="182.91 206.12 182.91 209.12 179.91 209.12"/><line class="h" x1="176.94" y1="209.12" x2="133.79" y2="209.12"/><polyline class="g" points="132.3 209.12 129.3 209.12 129.3 206.12"/><line class="i" x1="129.3" y1="203.8" x2="129.3" y2="191.01"/><polyline class="g" points="129.3 189.85 129.3 186.85 132.3 186.85"/><line class="h" x1="135.27" y1="186.85" x2="178.43" y2="186.85"/><polyline class="g" points="179.91 186.85 182.91 186.85 182.91 189.85"/><line class="i" x1="182.91" y1="192.17" x2="182.91" y2="204.96"/><path d="M364,614.14V617h-1.18v-7.24h2a3.37,3.37,0,0,1,2.08.53,1.87,1.87,0,0,1,.67,1.58,2,2,0,0,1-1.41,1.93l2.05,3.2h-1.35l-1.73-2.89Zm0-1h.82a1.86,1.86,0,0,0,1.2-.31,1.1,1.1,0,0,0,.37-.91,1,1,0,0,0-.4-.88,2.19,2.19,0,0,0-1.21-.27H364Z" transform="translate(-226.83 -415.33)"/><path d="M373.4,617h-4.09v-7.24h4.09v1h-2.91v2h2.73v1h-2.73V616h2.91Z" transform="translate(-226.83 -415.33)"/><path d="M379.14,615.06a1.82,1.82,0,0,1-.7,1.52,3,3,0,0,1-1.92.55,4.65,4.65,0,0,1-2-.38v-1.12a5.92,5.92,0,0,0,1.05.37,5,5,0,0,0,1,.13,1.66,1.66,0,0,0,1-.27.88.88,0,0,0,.33-.72.86.86,0,0,0-.31-.68,4.2,4.2,0,0,0-1.27-.67,3.38,3.38,0,0,1-1.39-.92,1.93,1.93,0,0,1-.41-1.24,1.72,1.72,0,0,1,.65-1.42,2.63,2.63,0,0,1,1.72-.52,5.08,5.08,0,0,1,2.07.45l-.37,1a4.58,4.58,0,0,0-1.73-.41,1.37,1.37,0,0,0-.87.25.82.82,0,0,0-.29.66,1.07,1.07,0,0,0,.11.49,1.23,1.23,0,0,0,.4.38,7.75,7.75,0,0,0,1,.47,5.18,5.18,0,0,1,1.16.61,2,2,0,0,1,.55.65A2,2,0,0,1,379.14,615.06Z" transform="translate(-226.83 -415.33)"/><path d="M383,617h-1.18v-6.22h-2.13v-1h5.44v1H383Z" transform="translate(-226.83 -415.33)"/><path d="M393.41,617l-.73-2h-2.76l-.71,2H388l2.71-7.27H392l2.71,7.27Zm-1-3-.68-2c-.05-.13-.11-.34-.2-.62s-.15-.5-.18-.63a11.2,11.2,0,0,1-.39,1.33l-.66,1.89Z" transform="translate(-226.83 -415.33)"/><path d="M400.41,612a2.09,2.09,0,0,1-.74,1.74,3.27,3.27,0,0,1-2.11.6h-.76V617h-1.18v-7.24h2.09a3.15,3.15,0,0,1,2,.56A2,2,0,0,1,400.41,612Zm-3.61,1.35h.63a2.26,2.26,0,0,0,1.34-.32,1.16,1.16,0,0,0,.43-1,1.1,1.1,0,0,0-.39-.93,1.83,1.83,0,0,0-1.18-.31h-.83Z" transform="translate(-226.83 -415.33)"/><path d="M401.86,617v-7.24H403V617Z" transform="translate(-226.83 -415.33)"/><rect class="a" x="273.17" y="197.98" width="212.24" height="175.98" rx="11.42" ry="11.42"/><rect class="b" x="287.32" y="218.74" width="183.45" height="38.49"/><path class="c" d="M575.27,648.33a2.85,2.85,0,0,0-2.35,1.06,5.54,5.54,0,0,0,0,5.88,2.9,2.9,0,0,0,2.38,1,6.26,6.26,0,0,0,1.31-.14c.42-.09.86-.2,1.31-.34v1.49a8,8,0,0,1-2.83.47,4.52,4.52,0,0,1-3.58-1.42,5.9,5.9,0,0,1-1.25-4,6.54,6.54,0,0,1,.61-2.89,4.33,4.33,0,0,1,1.75-1.91,5.35,5.35,0,0,1,2.7-.66,6.74,6.74,0,0,1,3,.68l-.62,1.45a9.66,9.66,0,0,0-1.14-.45A4.37,4.37,0,0,0,575.27,648.33Z" transform="translate(-226.83 -415.33)"/><path class="c" d="M586.23,653.58a4.34,4.34,0,0,1-1,3.07,3.6,3.6,0,0,1-2.81,1.11,3.85,3.85,0,0,1-2-.51,3.43,3.43,0,0,1-1.33-1.46,5,5,0,0,1-.46-2.21,4.35,4.35,0,0,1,1-3.05,3.65,3.65,0,0,1,2.83-1.1,3.54,3.54,0,0,1,2.76,1.13A4.34,4.34,0,0,1,586.23,653.58Zm-5.84,0c0,1.86.68,2.78,2.05,2.78s2-.92,2-2.78-.68-2.75-2-2.75a1.75,1.75,0,0,0-1.56.71A3.64,3.64,0,0,0,580.39,653.58Z" transform="translate(-226.83 -415.33)"/><path class="c" d="M594.37,657.61h-1.72v-4.94a2.13,2.13,0,0,0-.37-1.38,1.44,1.44,0,0,0-1.19-.46,1.87,1.87,0,0,0-1.58.64,3.47,3.47,0,0,0-.5,2.14v4H587.3v-8h1.34l.24,1H589a2.44,2.44,0,0,1,1-.88,3.38,3.38,0,0,1,1.48-.32c1.92,0,2.89,1,2.89,3Z" transform="translate(-226.83 -415.33)"/><path class="c" d="M600.18,650.87h-2v6.74H596.5v-6.74h-1.32v-.8l1.32-.52V649a2.91,2.91,0,0,1,.67-2.11,2.74,2.74,0,0,1,2-.69,5.39,5.39,0,0,1,1.77.3l-.45,1.29a4.07,4.07,0,0,0-1.2-.2,1,1,0,0,0-.85.36,1.79,1.79,0,0,0-.26,1.08v.52h2Zm1.26-3.42a.92.92,0,0,1,.25-.7,1,1,0,0,1,.72-.25.94.94,0,0,1,.7.25,1.09,1.09,0,0,1,0,1.39.94.94,0,0,1-.7.25,1,1,0,0,1-.72-.25A.93.93,0,0,1,601.44,647.45Zm1.81,10.16h-1.71v-8h1.71Z" transform="translate(-226.83 -415.33)"/><path class="c" d="M612.48,649.58v.94l-1.37.25a2.31,2.31,0,0,1,.31.63,2.45,2.45,0,0,1,.12.78,2.36,2.36,0,0,1-.86,2,3.54,3.54,0,0,1-2.36.71,3.73,3.73,0,0,1-.69-.05.94.94,0,0,0-.55.8.44.44,0,0,0,.25.41,2.26,2.26,0,0,0,.95.14h1.4a3.16,3.16,0,0,1,2,.56,2,2,0,0,1,.69,1.64,2.36,2.36,0,0,1-1.12,2.1,5.89,5.89,0,0,1-3.26.74,4.44,4.44,0,0,1-2.5-.58,1.86,1.86,0,0,1-.87-1.65,1.78,1.78,0,0,1,.47-1.25,2.54,2.54,0,0,1,1.31-.7,1.27,1.27,0,0,1-.56-.47,1.22,1.22,0,0,1,0-1.44,3,3,0,0,1,.76-.62,2.26,2.26,0,0,1-1-.87,2.64,2.64,0,0,1-.38-1.42,2.55,2.55,0,0,1,.82-2,3.46,3.46,0,0,1,2.35-.72,5.92,5.92,0,0,1,.71.05,5.26,5.26,0,0,1,.57.1Zm-6.31,9.28a.93.93,0,0,0,.5.85,2.68,2.68,0,0,0,1.39.3,4.21,4.21,0,0,0,2.08-.4,1.21,1.21,0,0,0,.68-1.06.8.8,0,0,0-.37-.75,3.11,3.11,0,0,0-1.39-.22h-1.29a1.83,1.83,0,0,0-1.17.35A1.12,1.12,0,0,0,606.17,658.86Zm.73-6.68a1.61,1.61,0,0,0,.39,1.16,1.47,1.47,0,0,0,1.11.41c1,0,1.49-.53,1.49-1.58a1.8,1.8,0,0,0-.37-1.21,1.39,1.39,0,0,0-1.12-.43,1.45,1.45,0,0,0-1.12.42A1.79,1.79,0,0,0,606.9,652.18Z" transform="translate(-226.83 -415.33)"/><path class="c" d="M622.52,657.61h-1.74v-4.78h-4.9v4.78h-1.73V647h1.73v4.34h4.9V647h1.74Z" transform="translate(-226.83 -415.33)"/><path class="c" d="M629.61,657.61l-.24-1.05h-.09a2.43,2.43,0,0,1-1,.88,3.44,3.44,0,0,1-1.5.32,3,3,0,0,1-2.18-.73,3,3,0,0,1-.72-2.2v-5.25h1.72v4.95a2.17,2.17,0,0,0,.38,1.39,1.47,1.47,0,0,0,1.19.46,1.9,1.9,0,0,0,1.58-.65,3.56,3.56,0,0,0,.5-2.15v-4H631v8Z" transform="translate(-226.83 -415.33)"/><path class="c" d="M636.6,649.43a2.8,2.8,0,0,1,2.34,1.09,6,6,0,0,1,0,6.14,3.09,3.09,0,0,1-4.73,0h-.12l-.31,1h-1.28v-11.3h1.71V649c0,.2,0,.49,0,.88s0,.65,0,.75h.07A2.71,2.71,0,0,1,636.6,649.43Zm-.45,1.4a1.72,1.72,0,0,0-1.48.61,3.52,3.52,0,0,0-.47,2v.12a3.77,3.77,0,0,0,.47,2.13,1.73,1.73,0,0,0,1.51.65,1.54,1.54,0,0,0,1.38-.72,3.82,3.82,0,0,0,.47-2.07C638,651.74,637.4,650.83,636.15,650.83Z" transform="translate(-226.83 -415.33)"/><path class="b" d="M622.17,724.5a6,6,0,0,0,.36-2l0-5.74a5.69,5.69,0,0,1-.07.83,7,7,0,0,0-.33-2.71,6,6,0,0,0,.38-2.08l0-5.4V707c0,.05,0,.09,0,.13-.08-2.72-1.81-5.43-5.18-7.38-6.9-4-18-4-24.89,0-3.32,1.93-5,4.61-5.11,7.31,0-.05,0-.1,0-.15v5.73a6.3,6.3,0,0,0,.38,2.13,7,7,0,0,0-.36,2c0-.06,0-.12,0-.19v5.74a6.21,6.21,0,0,0,.37,2.11,7,7,0,0,0-.36,2.89v4.7c0,2.63,1.72,5.26,5.19,7.26,6.9,4,18,4,24.89,0,3.4-2,5.11-4.57,5.11-7.16l0-4.79A6.93,6.93,0,0,0,622.17,724.5Zm-5.44,7.87a26,26,0,0,1-23.48,0c-2.86-1.65-4.45-3.77-4.48-6a12.07,12.07,0,0,0,3.76,3.22c6.9,4,18,4,24.89,0a11.88,11.88,0,0,0,3.72-3.22C621.14,728.6,619.57,730.72,616.73,732.37Zm0-9.7a26,26,0,0,1-23.48,0c-2.86-1.65-4.45-3.77-4.48-5.95a12.18,12.18,0,0,0,3.76,3.21c6.9,4,18,4,24.89,0a12,12,0,0,0,3.72-3.21C621.14,718.9,619.57,721,616.73,722.67Zm0-9.7a23.68,23.68,0,0,1-11.72,2.8A24,24,0,0,1,593.25,713c-2.89-1.68-4.48-3.81-4.49-6s1.57-4.31,4.42-6a26,26,0,0,1,23.47,0c2.9,1.67,4.49,3.8,4.49,6S619.58,711.32,616.73,713Z" transform="translate(-226.83 -415.33)"/><line class="d" x1="378.12" y1="257.23" x2="378.12" y2="282.87"/><path d="M585.6,750.4a4.66,4.66,0,0,1-1.28,3.52,5.14,5.14,0,0,1-3.68,1.21h-2.59v-9.28h2.87a4.76,4.76,0,0,1,3.44,1.19A4.48,4.48,0,0,1,585.6,750.4Zm-1.6.05q0-3.33-3.12-3.33h-1.31v6.74h1.07Q584,753.86,584,750.45Z" transform="translate(-226.83 -415.33)"/><path d="M591.82,755.13l-.3-1h0a3,3,0,0,1-1,.88,3.29,3.29,0,0,1-1.32.23,2.22,2.22,0,0,1-1.61-.56,2.08,2.08,0,0,1-.59-1.58,1.85,1.85,0,0,1,.81-1.64,4.62,4.62,0,0,1,2.46-.6l1.21,0v-.38a1.46,1.46,0,0,0-.31-1,1.3,1.3,0,0,0-1-.33,3.22,3.22,0,0,0-1,.16,7.93,7.93,0,0,0-1,.37l-.48-1.07a5,5,0,0,1,1.25-.45,6,6,0,0,1,1.28-.16,3.05,3.05,0,0,1,2,.59,2.3,2.3,0,0,1,.68,1.83v4.73Zm-2.22-1a1.88,1.88,0,0,0,1.31-.46,1.67,1.67,0,0,0,.49-1.27v-.61l-.9,0a3,3,0,0,0-1.54.35,1.07,1.07,0,0,0-.48,1,1,1,0,0,0,.28.73A1.22,1.22,0,0,0,589.6,754.12Z" transform="translate(-226.83 -415.33)"/><path d="M597.59,754.05a3.8,3.8,0,0,0,1.09-.17V755a2.34,2.34,0,0,1-.64.18,4.28,4.28,0,0,1-.81.08c-1.41,0-2.12-.75-2.12-2.24v-3.78h-1v-.66l1-.55.51-1.48h.92v1.56h2v1.13h-2V753a1,1,0,0,0,.27.79A.94.94,0,0,0,597.59,754.05Z" transform="translate(-226.83 -415.33)"/><path d="M604.47,755.13l-.3-1h0a2.8,2.8,0,0,1-1,.88,3.29,3.29,0,0,1-1.32.23,2.22,2.22,0,0,1-1.61-.56,2.08,2.08,0,0,1-.58-1.58,1.84,1.84,0,0,1,.8-1.64,4.62,4.62,0,0,1,2.46-.6l1.21,0v-.38a1.41,1.41,0,0,0-.31-1,1.3,1.3,0,0,0-1-.33,3.22,3.22,0,0,0-1,.16,7.2,7.2,0,0,0-1,.37l-.49-1.07a5,5,0,0,1,1.25-.45,6.06,6.06,0,0,1,1.29-.16,3,3,0,0,1,2,.59,2.3,2.3,0,0,1,.68,1.83v4.73Zm-2.22-1a1.88,1.88,0,0,0,1.31-.46,1.67,1.67,0,0,0,.49-1.27v-.61l-.9,0a3,3,0,0,0-1.54.35,1.07,1.07,0,0,0-.48,1,1,1,0,0,0,.28.73A1.22,1.22,0,0,0,602.25,754.12Z" transform="translate(-226.83 -415.33)"/><path d="M611.21,748a2.44,2.44,0,0,1,2,1,5.25,5.25,0,0,1,0,5.36,2.48,2.48,0,0,1-2.07,1,2.46,2.46,0,0,1-2.07-1H609l-.27.83h-1.12v-9.88h1.49v2.35c0,.18,0,.43,0,.78s0,.56,0,.65h.06A2.39,2.39,0,0,1,611.21,748Zm-.39,1.22a1.54,1.54,0,0,0-1.3.53,3.17,3.17,0,0,0-.41,1.78v.1a3.27,3.27,0,0,0,.41,1.85,1.5,1.5,0,0,0,1.33.58,1.33,1.33,0,0,0,1.2-.63,3.34,3.34,0,0,0,.41-1.81C612.46,750,611.91,749.2,610.82,749.2Z" transform="translate(-226.83 -415.33)"/><path d="M620.11,755.13l-.29-1h-.06a2.8,2.8,0,0,1-1,.88,3.29,3.29,0,0,1-1.32.23,2.22,2.22,0,0,1-1.61-.56,2.08,2.08,0,0,1-.58-1.58,1.87,1.87,0,0,1,.8-1.64,4.62,4.62,0,0,1,2.46-.6l1.21,0v-.38a1.41,1.41,0,0,0-.31-1,1.3,1.3,0,0,0-1-.33,3.22,3.22,0,0,0-1,.16,7.2,7.2,0,0,0-1,.37l-.49-1.07a5,5,0,0,1,1.25-.45,6.06,6.06,0,0,1,1.29-.16,3,3,0,0,1,2,.59,2.3,2.3,0,0,1,.68,1.83v4.73Zm-2.22-1a1.88,1.88,0,0,0,1.31-.46,1.67,1.67,0,0,0,.49-1.27v-.61l-.9,0a3,3,0,0,0-1.54.35,1.06,1.06,0,0,0-.47,1,1,1,0,0,0,.27.73A1.22,1.22,0,0,0,617.89,754.12Z" transform="translate(-226.83 -415.33)"/><path d="M628,753.13a1.84,1.84,0,0,1-.75,1.58,3.56,3.56,0,0,1-2.15.55,5,5,0,0,1-2.25-.43v-1.29a5.57,5.57,0,0,0,2.3.58q1.38,0,1.38-.84a.67.67,0,0,0-.15-.44,1.84,1.84,0,0,0-.5-.37,8.12,8.12,0,0,0-1-.43,4.42,4.42,0,0,1-1.64-.94,1.72,1.72,0,0,1-.43-1.22,1.6,1.6,0,0,1,.72-1.4,3.5,3.5,0,0,1,2-.5,5.62,5.62,0,0,1,2.34.5l-.48,1.13a5.07,5.07,0,0,0-1.91-.47c-.79,0-1.18.22-1.18.67a.67.67,0,0,0,.31.56,6.88,6.88,0,0,0,1.34.63,6.17,6.17,0,0,1,1.26.61,1.89,1.89,0,0,1,.59.65A1.8,1.8,0,0,1,628,753.13Z" transform="translate(-226.83 -415.33)"/><path d="M632.66,755.26a3.38,3.38,0,0,1-2.56-1,3.59,3.59,0,0,1-.93-2.63A4,4,0,0,1,630,749a3,3,0,0,1,2.35-1,2.88,2.88,0,0,1,2.2.85,3.21,3.21,0,0,1,.81,2.32V752h-4.68a2.29,2.29,0,0,0,.55,1.57,2,2,0,0,0,1.47.55,5.2,5.2,0,0,0,1.15-.12,6.33,6.33,0,0,0,1.16-.39v1.21a4.26,4.26,0,0,1-1.11.37A6.91,6.91,0,0,1,632.66,755.26Zm-.28-6.15a1.51,1.51,0,0,0-1.14.45,2.22,2.22,0,0,0-.51,1.32h3.19a2,2,0,0,0-.42-1.32A1.43,1.43,0,0,0,632.38,749.11Z" transform="translate(-226.83 -415.33)"/><path class="e" d="M583.47,768.15a2.38,2.38,0,0,1-.91,2,3.87,3.87,0,0,1-2.51.73,6,6,0,0,1-2.63-.56v-1.83a10.57,10.57,0,0,0,1.59.59,4.43,4.43,0,0,0,1.19.17,1.65,1.65,0,0,0,1-.25.91.91,0,0,0,.2-1.22,1.66,1.66,0,0,0-.45-.41,13.06,13.06,0,0,0-1.2-.63,5.57,5.57,0,0,1-1.28-.76,3,3,0,0,1-.68-.86,2.45,2.45,0,0,1-.25-1.14,2.42,2.42,0,0,1,.83-1.94,3.48,3.48,0,0,1,2.31-.7,5.22,5.22,0,0,1,1.38.17,8.32,8.32,0,0,1,1.37.48l-.63,1.53a9.49,9.49,0,0,0-1.23-.42,3.93,3.93,0,0,0-.95-.12,1.28,1.28,0,0,0-.86.25.88.88,0,0,0-.3.68.85.85,0,0,0,.12.46,1.27,1.27,0,0,0,.39.37,11.08,11.08,0,0,0,1.24.65,5,5,0,0,1,1.79,1.25A2.45,2.45,0,0,1,583.47,768.15Z" transform="translate(-226.83 -415.33)"/><path class="e" d="M585.15,770.73v-9.28h2v7.66h3.76v1.62Z" transform="translate(-226.83 -415.33)"/><path class="e" d="M598.18,770.73l-.68-2.21h-3.38l-.67,2.21h-2.12l3.27-9.32H597l3.29,9.32ZM597,766.87c-.62-2-1-3.13-1-3.4s-.13-.46-.16-.62q-.21.81-1.2,4Z" transform="translate(-226.83 -415.33)"/><path class="e" d="M606.76,761.45h2l-3.16,9.28h-2.14l-3.15-9.28h2L604,767q.15.49.3,1.14c.1.44.17.74.19.91a17.64,17.64,0,0,1,.48-2Z" transform="translate(-226.83 -415.33)"/><path class="e" d="M615.26,770.73h-5.35v-9.28h5.35v1.61h-3.38v2H615v1.61h-3.14v2.4h3.38Z" transform="translate(-226.83 -415.33)"/><rect class="f" x="296.75" y="186.85" width="53.62" height="22.27"/><polyline class="g" points="350.36 206.12 350.36 209.12 347.36 209.12"/><line class="h" x1="344.39" y1="209.12" x2="301.23" y2="209.12"/><polyline class="g" points="299.75 209.12 296.75 209.12 296.75 206.12"/><line class="i" x1="296.75" y1="203.8" x2="296.75" y2="191.01"/><polyline class="g" points="296.75 189.85 296.75 186.85 299.75 186.85"/><line class="h" x1="302.72" y1="186.85" x2="345.88" y2="186.85"/><polyline class="g" points="347.36 186.85 350.36 186.85 350.36 189.85"/><line class="i" x1="350.36" y1="192.17" x2="350.36" y2="204.96"/><path d="M541.83,617h-1.28l-1.23-4.32c-.06-.19-.12-.46-.2-.81a6.43,6.43,0,0,1-.14-.74c0,.21-.09.48-.16.82s-.14.59-.19.75l-1.2,4.3h-1.29l-.93-3.62-1-3.62h1.21l1,4.22c.16.68.28,1.27.35,1.79,0-.28.09-.59.16-.94s.14-.63.2-.84l1.18-4.23h1.17l1.21,4.25a15.35,15.35,0,0,1,.36,1.76,12.86,12.86,0,0,1,.36-1.8l1-4.21h1.2Z" transform="translate(-226.83 -415.33)"/><path d="M547,617.13a2.65,2.65,0,0,1-2-.75,2.82,2.82,0,0,1-.72-2,3.14,3.14,0,0,1,.67-2.11,2.32,2.32,0,0,1,1.84-.76,2.25,2.25,0,0,1,1.71.65,2.53,2.53,0,0,1,.63,1.82v.62h-3.65a1.8,1.8,0,0,0,.43,1.23,1.49,1.49,0,0,0,1.15.43,4.29,4.29,0,0,0,.9-.09,4.82,4.82,0,0,0,.9-.31v1a3.6,3.6,0,0,1-.86.28A5,5,0,0,1,547,617.13Zm-.21-4.79a1.15,1.15,0,0,0-.89.35,1.65,1.65,0,0,0-.4,1H548a1.52,1.52,0,0,0-.33-1A1.09,1.09,0,0,0,546.8,612.34Z" transform="translate(-226.83 -415.33)"/><path d="M553.26,611.46a1.89,1.89,0,0,1,1.6.74,4.09,4.09,0,0,1,0,4.18,2.1,2.1,0,0,1-3.22,0h-.08l-.22.65h-.87v-7.7h1.17v1.83c0,.13,0,.34,0,.6s0,.44,0,.51h0A1.85,1.85,0,0,1,553.26,611.46Zm-.3.95a1.16,1.16,0,0,0-1,.41,2.31,2.31,0,0,0-.32,1.38v.08a2.58,2.58,0,0,0,.31,1.45,1.18,1.18,0,0,0,1,.45,1.06,1.06,0,0,0,.94-.49,2.64,2.64,0,0,0,.32-1.42C554.24,613,553.81,612.41,553,612.41Z" transform="translate(-226.83 -415.33)"/><path d="M562.58,609.79v4.69a2.77,2.77,0,0,1-.35,1.4,2.34,2.34,0,0,1-1,.93,3.53,3.53,0,0,1-1.56.32,2.92,2.92,0,0,1-2.09-.71,2.58,2.58,0,0,1-.75-2v-4.67H558v4.58a1.85,1.85,0,0,0,.41,1.32,1.71,1.71,0,0,0,1.28.43c1.12,0,1.68-.59,1.68-1.76v-4.57Z" transform="translate(-226.83 -415.33)"/><path d="M564.43,617v-7.24h1.18V617Z" transform="translate(-226.83 -415.33)"/><rect class="f" x="401.97" y="186.85" width="53.62" height="22.27"/><polyline class="g" points="455.58 206.12 455.58 209.12 452.58 209.12"/><line class="h" x1="449.61" y1="209.12" x2="406.46" y2="209.12"/><polyline class="g" points="404.97 209.12 401.97 209.12 401.97 206.12"/><line class="i" x1="401.97" y1="203.8" x2="401.97" y2="191.01"/><polyline class="g" points="401.97 189.85 401.97 186.85 404.97 186.85"/><line class="h" x1="407.94" y1="186.85" x2="451.1" y2="186.85"/><polyline class="g" points="452.58 186.85 455.58 186.85 455.58 189.85"/><line class="i" x1="455.59" y1="192.17" x2="455.59" y2="204.96"/><path d="M636.68,614.14V617H635.5v-7.24h2a3.37,3.37,0,0,1,2.08.53,1.87,1.87,0,0,1,.67,1.58,2,2,0,0,1-1.4,1.93l2,3.2h-1.35l-1.73-2.89Zm0-1h.82a1.82,1.82,0,0,0,1.2-.31,1.1,1.1,0,0,0,.37-.91,1,1,0,0,0-.4-.88,2.17,2.17,0,0,0-1.21-.27h-.78Z" transform="translate(-226.83 -415.33)"/><path d="M646.08,617H642v-7.24h4.1v1h-2.92v2h2.73v1h-2.73V616h2.92Z" transform="translate(-226.83 -415.33)"/><path d="M651.81,615.06a1.84,1.84,0,0,1-.69,1.52,3,3,0,0,1-1.93.55,4.65,4.65,0,0,1-2-.38v-1.12a5.92,5.92,0,0,0,1.05.37,5,5,0,0,0,1,.13,1.66,1.66,0,0,0,1-.27.88.88,0,0,0,.33-.72.86.86,0,0,0-.31-.68,4.24,4.24,0,0,0-1.26-.67,3.43,3.43,0,0,1-1.4-.92,1.93,1.93,0,0,1-.41-1.24,1.72,1.72,0,0,1,.65-1.42,2.63,2.63,0,0,1,1.72-.52,5.08,5.08,0,0,1,2.07.45l-.37,1a4.58,4.58,0,0,0-1.72-.41,1.38,1.38,0,0,0-.88.25.85.85,0,0,0-.29.66,1,1,0,0,0,.12.49,1.09,1.09,0,0,0,.39.38,8.52,8.52,0,0,0,1,.47,5.54,5.54,0,0,1,1.17.61,2,2,0,0,1,.54.65A1.9,1.9,0,0,1,651.81,615.06Z" transform="translate(-226.83 -415.33)"/><path d="M655.71,617h-1.18v-6.22H652.4v-1h5.44v1h-2.13Z" transform="translate(-226.83 -415.33)"/><path d="M666.08,617l-.72-2h-2.77l-.71,2h-1.25l2.71-7.27h1.29l2.71,7.27Zm-1-3-.67-2c0-.13-.12-.34-.21-.62s-.15-.5-.18-.63a11.2,11.2,0,0,1-.39,1.33l-.66,1.89Z" transform="translate(-226.83 -415.33)"/><path d="M673.08,612a2.09,2.09,0,0,1-.74,1.74,3.27,3.27,0,0,1-2.11.6h-.76V617h-1.18v-7.24h2.09a3.15,3.15,0,0,1,2,.56A2,2,0,0,1,673.08,612Zm-3.61,1.35h.63a2.26,2.26,0,0,0,1.34-.32,1.16,1.16,0,0,0,.43-1,1.12,1.12,0,0,0-.38-.93,1.88,1.88,0,0,0-1.19-.31h-.83Z" transform="translate(-226.83 -415.33)"/><path d="M674.53,617v-7.24h1.18V617Z" transform="translate(-226.83 -415.33)"/><line class="j" x1="104.99" y1="291.79" x2="107.99" y2="291.79"/><line class="k" x1="110.94" y1="291.79" x2="366.46" y2="291.79"/><line class="j" x1="367.94" y1="291.79" x2="370.94" y2="291.79"/><path class="c" d="M332,710.88a3.76,3.76,0,1,1,3.76-3.76A3.76,3.76,0,0,1,332,710.88Z" transform="translate(-226.83 -415.33)"/><path class="e" d="M332,711.38a4.26,4.26,0,1,0-4.26-4.26,4.26,4.26,0,0,0,4.26,4.26Zm0-7.52a3.26,3.26,0,1,1-3.26,3.26,3.27,3.27,0,0,1,3.26-3.26Z" transform="translate(-226.83 -415.33)"/><polygon class="e" points="369.48 296.78 378.12 291.79 369.48 286.8 369.48 296.78"/><path d="M496.23,426l-1-2.77h-3.82l-1,2.77h-1.72l3.73-10h1.78L498,426Zm-1.43-4.18-.94-2.72c-.07-.19-.16-.47-.28-.86s-.21-.68-.25-.87a18.05,18.05,0,0,1-.54,1.84l-.91,2.61Z" transform="translate(-226.83 -415.33)"/><path d="M503,426.11a2.67,2.67,0,0,1-2.23-1h-.1c.06.63.1,1,.1,1.16v3.09h-1.61V418.41h1.3c0,.14.11.48.22,1h.09a2.52,2.52,0,0,1,2.25-1.15,2.64,2.64,0,0,1,2.21,1,4.65,4.65,0,0,1,.79,2.88,4.6,4.6,0,0,1-.81,2.89A2.64,2.64,0,0,1,503,426.11Zm-.39-6.52a1.65,1.65,0,0,0-1.4.56,2.86,2.86,0,0,0-.44,1.79v.24a3.58,3.58,0,0,0,.43,2,1.64,1.64,0,0,0,1.43.61,1.44,1.44,0,0,0,1.29-.68,3.52,3.52,0,0,0,.45-1.95,3.38,3.38,0,0,0-.45-1.92A1.48,1.48,0,0,0,502.56,419.59Z" transform="translate(-226.83 -415.33)"/><path d="M511.67,426.11a2.67,2.67,0,0,1-2.23-1h-.1c.07.63.1,1,.1,1.16v3.09h-1.61V418.41h1.3c0,.14.11.48.23,1h.08a2.53,2.53,0,0,1,2.26-1.15,2.64,2.64,0,0,1,2.2,1,4.59,4.59,0,0,1,.79,2.88,4.66,4.66,0,0,1-.8,2.89A2.67,2.67,0,0,1,511.67,426.11Zm-.39-6.52a1.65,1.65,0,0,0-1.4.56,2.92,2.92,0,0,0-.44,1.79v.24a3.49,3.49,0,0,0,.44,2,1.62,1.62,0,0,0,1.43.61,1.44,1.44,0,0,0,1.28-.68,3.52,3.52,0,0,0,.45-1.95,3.38,3.38,0,0,0-.45-1.92A1.46,1.46,0,0,0,511.28,419.59Z" transform="translate(-226.83 -415.33)"/><path d="M518.16,426h-1.6V415.33h1.6Z" transform="translate(-226.83 -415.33)"/><path d="M520.36,416.41a.9.9,0,0,1,.24-.67,1.08,1.08,0,0,1,1.33,0,.9.9,0,0,1,.24.67.84.84,0,0,1-.24.64,1,1,0,0,1-1.33,0A.84.84,0,0,1,520.36,416.41Zm1.71,9.56h-1.61v-7.56h1.61Z" transform="translate(-226.83 -415.33)"/><path d="M527.41,426.11a3.35,3.35,0,0,1-2.61-1,5.09,5.09,0,0,1,0-5.81,3.5,3.5,0,0,1,2.7-1,5,5,0,0,1,2.15.45l-.48,1.29a5,5,0,0,0-1.68-.4c-1.31,0-2,.87-2,2.61a3.16,3.16,0,0,0,.48,1.91,1.73,1.73,0,0,0,1.44.64,4.09,4.09,0,0,0,2-.54v1.41a3.45,3.45,0,0,1-.92.36A5.74,5.74,0,0,1,527.41,426.11Z" transform="translate(-226.83 -415.33)"/><path d="M536,426l-.32-1.05h-.05a3.18,3.18,0,0,1-1.1.94,3.61,3.61,0,0,1-1.42.25,2.39,2.39,0,0,1-1.74-.6,2.26,2.26,0,0,1-.63-1.71,2,2,0,0,1,.87-1.76,5,5,0,0,1,2.64-.65l1.31,0V421a1.52,1.52,0,0,0-.34-1.09,1.36,1.36,0,0,0-1-.36,3.68,3.68,0,0,0-1.11.17,8.5,8.5,0,0,0-1,.41l-.52-1.15a5.69,5.69,0,0,1,1.35-.49,6.34,6.34,0,0,1,1.38-.17,3.28,3.28,0,0,1,2.18.63,2.47,2.47,0,0,1,.73,2V426Zm-2.39-1.09a2,2,0,0,0,1.41-.49,1.78,1.78,0,0,0,.53-1.37v-.66l-1,0a3.46,3.46,0,0,0-1.66.38,1.16,1.16,0,0,0-.51,1,1,1,0,0,0,.3.78A1.31,1.31,0,0,0,533.63,424.88Z" transform="translate(-226.83 -415.33)"/><path d="M542.23,424.81a3.78,3.78,0,0,0,1.18-.19v1.21a3,3,0,0,1-.69.2,4.94,4.94,0,0,1-.87.08c-1.52,0-2.28-.8-2.28-2.41v-4.07h-1v-.71l1.11-.59.55-1.6h1v1.68h2.15v1.22h-2.15v4a1.14,1.14,0,0,0,.29.86A1,1,0,0,0,542.23,424.81Z" transform="translate(-226.83 -415.33)"/><path d="M544.82,416.41a.9.9,0,0,1,.24-.67,1.08,1.08,0,0,1,1.33,0,.9.9,0,0,1,.24.67.84.84,0,0,1-.24.64,1,1,0,0,1-1.33,0A.84.84,0,0,1,544.82,416.41Zm1.7,9.56h-1.6v-7.56h1.6Z" transform="translate(-226.83 -415.33)"/><path d="M555.53,422.18a4.14,4.14,0,0,1-.95,2.89,3.43,3.43,0,0,1-2.65,1,3.59,3.59,0,0,1-1.87-.48,3.17,3.17,0,0,1-1.25-1.38,4.64,4.64,0,0,1-.44-2.07,4.07,4.07,0,0,1,.94-2.87,3.43,3.43,0,0,1,2.66-1,3.35,3.35,0,0,1,2.6,1.06A4.06,4.06,0,0,1,555.53,422.18Zm-5.51,0c0,1.74.65,2.61,1.94,2.61s1.91-.87,1.91-2.61-.64-2.59-1.92-2.59a1.63,1.63,0,0,0-1.47.67A3.4,3.4,0,0,0,550,422.18Z" transform="translate(-226.83 -415.33)"/><path d="M564,426h-1.61v-4.65a2,2,0,0,0-.35-1.3,1.36,1.36,0,0,0-1.12-.43,1.78,1.78,0,0,0-1.49.6,3.34,3.34,0,0,0-.47,2V426h-1.61v-7.56h1.26l.23,1h.08a2.2,2.2,0,0,1,1-.83,3.18,3.18,0,0,1,1.39-.3c1.82,0,2.72.93,2.72,2.77Z" transform="translate(-226.83 -415.33)"/><path d="M571.34,423.82a2,2,0,0,1-.81,1.7,3.9,3.9,0,0,1-2.31.59,5.57,5.57,0,0,1-2.43-.46v-1.39a6,6,0,0,0,2.49.62c1,0,1.48-.3,1.48-.9a.71.71,0,0,0-.16-.48,2,2,0,0,0-.54-.39,8.66,8.66,0,0,0-1-.47,4.88,4.88,0,0,1-1.77-1,1.87,1.87,0,0,1-.46-1.31,1.73,1.73,0,0,1,.78-1.51,3.71,3.71,0,0,1,2.13-.54,6.08,6.08,0,0,1,2.53.54L570.7,420a5.79,5.79,0,0,0-2.06-.5c-.85,0-1.27.24-1.27.72a.72.72,0,0,0,.33.6,7,7,0,0,0,1.44.68,6.37,6.37,0,0,1,1.36.66,1.88,1.88,0,0,1,.63.7A2,2,0,0,1,571.34,423.82Z" transform="translate(-226.83 -415.33)"/><path d="M574.74,424.5a23.61,23.61,0,0,1-1.2,3.28h-1.18a33.93,33.93,0,0,0,.7-3.44h1.58Z" transform="translate(-226.83 -415.33)"/><path d="M480,434a2.72,2.72,0,0,0-2.22,1,4.34,4.34,0,0,0-.8,2.76,4.29,4.29,0,0,0,.77,2.78,2.75,2.75,0,0,0,2.25.94,6.26,6.26,0,0,0,1.23-.12c.39-.09.81-.2,1.24-.33v1.4a7.48,7.48,0,0,1-2.67.45,4.28,4.28,0,0,1-3.37-1.33,5.6,5.6,0,0,1-1.18-3.81,6.12,6.12,0,0,1,.57-2.72,4.08,4.08,0,0,1,1.66-1.8,5,5,0,0,1,2.53-.62,6.26,6.26,0,0,1,2.83.65l-.59,1.36a7.94,7.94,0,0,0-1.07-.42A3.56,3.56,0,0,0,480,434Z" transform="translate(-226.83 -415.33)"/><path d="M491.17,439a4.1,4.1,0,0,1-.95,2.89,3.4,3.4,0,0,1-2.64,1,3.59,3.59,0,0,1-1.87-.48,3.19,3.19,0,0,1-1.26-1.38A4.64,4.64,0,0,1,484,439a4.07,4.07,0,0,1,.94-2.87,3.43,3.43,0,0,1,2.66-1,3.36,3.36,0,0,1,2.6,1.06A4.1,4.1,0,0,1,491.17,439Zm-5.5,0c0,1.74.65,2.61,1.94,2.61s1.91-.87,1.91-2.61-.64-2.59-1.93-2.59a1.63,1.63,0,0,0-1.46.67A3.32,3.32,0,0,0,485.67,439Z" transform="translate(-226.83 -415.33)"/><path d="M499.67,442.77h-1.61v-4.65a2,2,0,0,0-.35-1.3,1.36,1.36,0,0,0-1.12-.43,1.77,1.77,0,0,0-1.49.6,3.27,3.27,0,0,0-.47,2v3.77H493v-7.56h1.26l.22,1h.08a2.22,2.22,0,0,1,1-.83,3.18,3.18,0,0,1,1.39-.3,2.43,2.43,0,0,1,2.72,2.77Z" transform="translate(-226.83 -415.33)"/><path d="M504.72,441.61a3.69,3.69,0,0,0,1.18-.19v1.21a3,3,0,0,1-.69.2,4.94,4.94,0,0,1-.87.08c-1.52,0-2.28-.81-2.28-2.41v-4.07h-1v-.71l1.11-.59.55-1.6h1v1.68h2.15v1.22h-2.15v4a1.14,1.14,0,0,0,.29.86A1,1,0,0,0,504.72,441.61Z" transform="translate(-226.83 -415.33)"/><path d="M507.17,441.92a1.07,1.07,0,0,1,.26-.77,1,1,0,0,1,.75-.27,1,1,0,0,1,.76.28,1.09,1.09,0,0,1,.26.76,1.12,1.12,0,0,1-.26.77,1,1,0,0,1-.76.28,1,1,0,0,1-.75-.28A1.12,1.12,0,0,1,507.17,441.92Z" transform="translate(-226.83 -415.33)"/><path d="M515.07,442.77v-10h1.63v10Z" transform="translate(-226.83 -415.33)"/><path d="M525.82,442.77h-1.61v-4.65a2,2,0,0,0-.36-1.3,1.33,1.33,0,0,0-1.11-.43,1.77,1.77,0,0,0-1.49.6,3.26,3.26,0,0,0-.48,2v3.77h-1.6v-7.56h1.25l.23,1h.08a2.2,2.2,0,0,1,1-.83,3.23,3.23,0,0,1,1.4-.3,2.43,2.43,0,0,1,2.72,2.77Z" transform="translate(-226.83 -415.33)"/><path d="M530.87,441.61a3.78,3.78,0,0,0,1.18-.19v1.21a3,3,0,0,1-.69.2,4.94,4.94,0,0,1-.87.08c-1.52,0-2.29-.81-2.29-2.41v-4.07h-1v-.71l1.11-.59.55-1.6h1v1.68H532v1.22h-2.15v4a1.11,1.11,0,0,0,.29.86A1,1,0,0,0,530.87,441.61Z" transform="translate(-226.83 -415.33)"/><path d="M536.86,442.91a3.67,3.67,0,0,1-2.76-1,3.93,3.93,0,0,1-1-2.84,4.27,4.27,0,0,1,.92-2.91,3.2,3.2,0,0,1,2.53-1.06,3.15,3.15,0,0,1,2.37.91,3.47,3.47,0,0,1,.87,2.5v.87h-5a2.46,2.46,0,0,0,.59,1.69,2.07,2.07,0,0,0,1.58.6,6.07,6.07,0,0,0,1.25-.13,7.26,7.26,0,0,0,1.24-.42v1.3a4.91,4.91,0,0,1-1.19.4A7.06,7.06,0,0,1,536.86,442.91Zm-.3-6.62a1.58,1.58,0,0,0-1.22.49,2.28,2.28,0,0,0-.55,1.41h3.43a2.12,2.12,0,0,0-.45-1.42A1.55,1.55,0,0,0,536.56,436.29Z" transform="translate(-226.83 -415.33)"/><path d="M548,435.21v.88l-1.29.24a2.5,2.5,0,0,1,.29.59,2.45,2.45,0,0,1-.69,2.58,3.42,3.42,0,0,1-2.22.67,3.37,3.37,0,0,1-.66-.06.93.93,0,0,0-.52.75.4.4,0,0,0,.25.39,2,2,0,0,0,.89.13h1.32a2.93,2.93,0,0,1,1.9.54,1.86,1.86,0,0,1,.65,1.53,2.27,2.27,0,0,1-1.06,2,5.65,5.65,0,0,1-3.07.69,4.23,4.23,0,0,1-2.35-.54,1.77,1.77,0,0,1-.82-1.56,1.65,1.65,0,0,1,.44-1.17,2.36,2.36,0,0,1,1.24-.66,1.26,1.26,0,0,1-.53-.44,1.13,1.13,0,0,1-.21-.64,1.08,1.08,0,0,1,.24-.72,2.57,2.57,0,0,1,.71-.58,2.11,2.11,0,0,1-.95-.83,2.35,2.35,0,0,1-.37-1.33,2.39,2.39,0,0,1,.78-1.91,3.25,3.25,0,0,1,2.21-.68,5.43,5.43,0,0,1,.67.05l.53.09ZM542.07,444a.88.88,0,0,0,.47.8,2.63,2.63,0,0,0,1.31.28,4,4,0,0,0,2-.38,1.12,1.12,0,0,0,.64-1,.75.75,0,0,0-.35-.7,2.82,2.82,0,0,0-1.31-.21h-1.22a1.72,1.72,0,0,0-1.1.33A1.06,1.06,0,0,0,542.07,444Zm.69-6.29a1.52,1.52,0,0,0,.36,1.09,1.38,1.38,0,0,0,1,.38c.93,0,1.4-.49,1.4-1.49a1.66,1.66,0,0,0-.35-1.13,1.3,1.3,0,0,0-1.05-.4,1.36,1.36,0,0,0-1,.39A1.68,1.68,0,0,0,542.76,437.66Z" transform="translate(-226.83 -415.33)"/><path d="M553.24,435.07a4.23,4.23,0,0,1,.8.07l-.15,1.5a2.81,2.81,0,0,0-.71-.08,2.06,2.06,0,0,0-1.57.63,2.24,2.24,0,0,0-.59,1.63v3.95h-1.61v-7.56h1.26l.21,1.33H551a3,3,0,0,1,1-1.07A2.39,2.39,0,0,1,553.24,435.07Z" transform="translate(-226.83 -415.33)"/><path d="M560.18,442.77l-.33-1h-.05a3.09,3.09,0,0,1-1.1.94,3.58,3.58,0,0,1-1.42.25,2.42,2.42,0,0,1-1.74-.6,2.26,2.26,0,0,1-.63-1.71,2,2,0,0,1,.87-1.76,5,5,0,0,1,2.65-.65l1.3,0v-.4a1.52,1.52,0,0,0-.34-1.09,1.36,1.36,0,0,0-1-.36,3.73,3.73,0,0,0-1.11.17,8.5,8.5,0,0,0-1,.41l-.52-1.15a5.69,5.69,0,0,1,1.35-.49,6.34,6.34,0,0,1,1.38-.17,3.28,3.28,0,0,1,2.18.63,2.47,2.47,0,0,1,.73,2v5.09Zm-2.4-1.09a2,2,0,0,0,1.41-.49,1.78,1.78,0,0,0,.53-1.37v-.66l-1,0a3.39,3.39,0,0,0-1.65.38,1.15,1.15,0,0,0-.52,1,1,1,0,0,0,.3.78A1.31,1.31,0,0,0,557.78,441.68Z" transform="translate(-226.83 -415.33)"/><path d="M566.38,441.61a3.69,3.69,0,0,0,1.18-.19v1.21a3,3,0,0,1-.69.2,4.94,4.94,0,0,1-.87.08c-1.52,0-2.28-.81-2.28-2.41v-4.07h-1v-.71l1.11-.59.55-1.6h1v1.68h2.15v1.22h-2.15v4a1.14,1.14,0,0,0,.29.86A1,1,0,0,0,566.38,441.61Z" transform="translate(-226.83 -415.33)"/><path d="M569,433.21a.9.9,0,0,1,.24-.67.94.94,0,0,1,.67-.23.82.82,0,0,1,.9.9.84.84,0,0,1-.24.64.86.86,0,0,1-.66.24.9.9,0,0,1-.67-.24A.84.84,0,0,1,569,433.21Zm1.71,9.56h-1.61v-7.56h1.61Z" transform="translate(-226.83 -415.33)"/><path d="M579.68,439a4.14,4.14,0,0,1-.95,2.89,3.42,3.42,0,0,1-2.65,1,3.62,3.62,0,0,1-1.87-.48,3.17,3.17,0,0,1-1.25-1.38,4.64,4.64,0,0,1-.44-2.07,4.12,4.12,0,0,1,.94-2.87,3.43,3.43,0,0,1,2.66-1,3.35,3.35,0,0,1,2.6,1.06A4.06,4.06,0,0,1,579.68,439Zm-5.5,0c0,1.74.64,2.61,1.93,2.61S578,440.72,578,439s-.65-2.59-1.93-2.59a1.63,1.63,0,0,0-1.47.67A3.41,3.41,0,0,0,574.18,439Z" transform="translate(-226.83 -415.33)"/><path d="M588.18,442.77h-1.62v-4.65a2,2,0,0,0-.35-1.3,1.35,1.35,0,0,0-1.12-.43,1.8,1.8,0,0,0-1.49.6,3.34,3.34,0,0,0-.47,2v3.77h-1.6v-7.56h1.25l.23,1h.08a2.2,2.2,0,0,1,1-.83,3.23,3.23,0,0,1,1.4-.3,2.43,2.43,0,0,1,2.72,2.77Z" transform="translate(-226.83 -415.33)"/><path d="M592.08,441.3a23.61,23.61,0,0,1-1.2,3.28h-1.19a34.14,34.14,0,0,0,.71-3.44H592Z" transform="translate(-226.83 -415.33)"/><path d="M501,459.57l-1-2.77h-3.82l-1,2.77h-1.72l3.74-10H499l3.74,10Zm-1.43-4.18-.94-2.72c-.06-.19-.16-.47-.28-.86s-.2-.68-.25-.87a14.07,14.07,0,0,1-.54,1.84l-.9,2.61Z" transform="translate(-226.83 -415.33)"/><path d="M509.19,459.57l-.23-1h-.08a2.27,2.27,0,0,1-.95.83,3.25,3.25,0,0,1-1.42.3,2.76,2.76,0,0,1-2.05-.69,2.82,2.82,0,0,1-.67-2.07V452h1.62v4.66a2,2,0,0,0,.35,1.3,1.37,1.37,0,0,0,1.12.44,1.74,1.74,0,0,0,1.48-.61,3.29,3.29,0,0,0,.48-2V452h1.61v7.56Z" transform="translate(-226.83 -415.33)"/><path d="M515.56,458.41a3.67,3.67,0,0,0,1.17-.19v1.21a2.78,2.78,0,0,1-.68.2,5,5,0,0,1-.88.08c-1.52,0-2.28-.8-2.28-2.41v-4.07h-1v-.71l1.11-.59.54-1.6h1V452h2.16v1.22H514.5v4a1.11,1.11,0,0,0,.3.86A1,1,0,0,0,515.56,458.41Z" transform="translate(-226.83 -415.33)"/><path d="M525,455.78a4.14,4.14,0,0,1-1,2.89,3.41,3.41,0,0,1-2.65,1,3.62,3.62,0,0,1-1.87-.48,3.17,3.17,0,0,1-1.25-1.38,4.64,4.64,0,0,1-.44-2.07,4.07,4.07,0,0,1,1-2.87,3.41,3.41,0,0,1,2.66-1,3.32,3.32,0,0,1,2.59,1.06A4.06,4.06,0,0,1,525,455.78Zm-5.5,0c0,1.74.64,2.62,1.93,2.62s1.92-.88,1.92-2.62-.65-2.59-1.93-2.59a1.64,1.64,0,0,0-1.47.67A3.41,3.41,0,0,0,519.45,455.78Z" transform="translate(-226.83 -415.33)"/><path d="M533.17,459.57h-1.62v-4.66a2.2,2.2,0,0,0-.32-1.3,1.22,1.22,0,0,0-1-.42,1.56,1.56,0,0,0-1.36.6,3.54,3.54,0,0,0-.44,2v3.77h-1.6V452h1.25l.23,1h.08a2.09,2.09,0,0,1,.91-.83,2.91,2.91,0,0,1,1.32-.3,2.31,2.31,0,0,1,2.31,1.19H533a2.33,2.33,0,0,1,.94-.87,3,3,0,0,1,1.4-.32,2.52,2.52,0,0,1,2,.69,3,3,0,0,1,.62,2.08v4.93h-1.61v-4.66a2.13,2.13,0,0,0-.33-1.3,1.22,1.22,0,0,0-1-.42,1.6,1.6,0,0,0-1.37.58,3,3,0,0,0-.43,1.79Z" transform="translate(-226.83 -415.33)"/><path d="M544.91,459.57l-.32-1.05h-.05a3.2,3.2,0,0,1-1.11.94,3.54,3.54,0,0,1-1.42.25,2.42,2.42,0,0,1-1.74-.6,2.28,2.28,0,0,1-.62-1.71,2,2,0,0,1,.87-1.76,5,5,0,0,1,2.64-.65l1.31,0v-.4a1.56,1.56,0,0,0-.34-1.09,1.39,1.39,0,0,0-1-.36,3.8,3.8,0,0,0-1.12.17,9,9,0,0,0-1,.41l-.52-1.15a5.69,5.69,0,0,1,1.35-.49,6.19,6.19,0,0,1,1.38-.17,3.3,3.3,0,0,1,2.18.63,2.5,2.5,0,0,1,.73,2v5.09Zm-2.39-1.09a2,2,0,0,0,1.4-.49,1.75,1.75,0,0,0,.53-1.37V456l-1,0a3.45,3.45,0,0,0-1.65.38,1.16,1.16,0,0,0-.51,1,1,1,0,0,0,.3.78A1.31,1.31,0,0,0,542.52,458.48Z" transform="translate(-226.83 -415.33)"/><path d="M551.12,458.41a3.67,3.67,0,0,0,1.17-.19v1.21a2.78,2.78,0,0,1-.68.2,4.94,4.94,0,0,1-.87.08c-1.53,0-2.29-.8-2.29-2.41v-4.07h-1v-.71l1.11-.59.54-1.6h1V452h2.15v1.22h-2.15v4a1.11,1.11,0,0,0,.29.86A1,1,0,0,0,551.12,458.41Z" transform="translate(-226.83 -415.33)"/><path d="M553.71,450a.9.9,0,0,1,.24-.67,1.08,1.08,0,0,1,1.33,0,.9.9,0,0,1,.23.67.84.84,0,0,1-.23.64,1,1,0,0,1-1.33,0A.84.84,0,0,1,553.71,450Zm1.7,9.56H553.8V452h1.61Z" transform="translate(-226.83 -415.33)"/><path d="M564.41,455.78a4.1,4.1,0,0,1-.95,2.89,3.4,3.4,0,0,1-2.64,1,3.59,3.59,0,0,1-1.87-.48,3.19,3.19,0,0,1-1.26-1.38,4.64,4.64,0,0,1-.43-2.07,4.07,4.07,0,0,1,.94-2.87,3.43,3.43,0,0,1,2.66-1,3.36,3.36,0,0,1,2.6,1.06A4.06,4.06,0,0,1,564.41,455.78Zm-5.5,0c0,1.74.65,2.62,1.94,2.62s1.91-.88,1.91-2.62-.64-2.59-1.93-2.59a1.63,1.63,0,0,0-1.46.67A3.32,3.32,0,0,0,558.91,455.78Z" transform="translate(-226.83 -415.33)"/><path d="M572.91,459.57H571.3v-4.65a2,2,0,0,0-.35-1.3,1.36,1.36,0,0,0-1.12-.43,1.77,1.77,0,0,0-1.49.6,3.27,3.27,0,0,0-.47,2v3.77h-1.61V452h1.26l.22,1h.09a2.14,2.14,0,0,1,1-.83,3.18,3.18,0,0,1,1.39-.3,2.43,2.43,0,0,1,2.72,2.77Z" transform="translate(-226.83 -415.33)"/><path d="M370,435.4a5,5,0,0,1-1.38,3.78,5.5,5.5,0,0,1-3.95,1.31h-2.8v-10H365a5.09,5.09,0,0,1,3.71,1.28A4.79,4.79,0,0,1,370,435.4Zm-1.73.05c0-2.39-1.11-3.59-3.35-3.59h-1.42v7.26h1.17Q368.26,439.12,368.26,435.45Z" transform="translate(-226.83 -415.33)"/><path d="M375.26,440.63a3.66,3.66,0,0,1-2.75-1,3.89,3.89,0,0,1-1-2.84,4.32,4.32,0,0,1,.92-2.91,3.23,3.23,0,0,1,2.54-1.06,3.15,3.15,0,0,1,2.37.91,3.51,3.51,0,0,1,.86,2.5v.87h-5a2.46,2.46,0,0,0,.59,1.69,2.05,2.05,0,0,0,1.58.6,6.15,6.15,0,0,0,1.25-.13,7.57,7.57,0,0,0,1.24-.42v1.3a4.91,4.91,0,0,1-1.19.4A7.09,7.09,0,0,1,375.26,440.63ZM375,434a1.6,1.6,0,0,0-1.23.49,2.34,2.34,0,0,0-.55,1.41h3.43a2,2,0,0,0-.45-1.42A1.54,1.54,0,0,0,375,434Z" transform="translate(-226.83 -415.33)"/><path d="M381.75,440.49l-2.87-7.56h1.7l1.53,4.4a7.93,7.93,0,0,1,.48,1.79h.06a11.48,11.48,0,0,1,.48-1.79l1.53-4.4h1.71l-2.88,7.56Z" transform="translate(-226.83 -415.33)"/><path d="M396.57,435.48a5.46,5.46,0,0,1-1.22,3.79,5.12,5.12,0,0,1-6.94,0,6.57,6.57,0,0,1,0-7.61,4.48,4.48,0,0,1,3.48-1.33,4.4,4.4,0,0,1,3.45,1.35A5.45,5.45,0,0,1,396.57,435.48Zm-7.63,0a4.54,4.54,0,0,0,.74,2.8,3,3,0,0,0,4.41,0,5.67,5.67,0,0,0,0-5.6,2.61,2.61,0,0,0-2.19-.95,2.63,2.63,0,0,0-2.21.95A4.42,4.42,0,0,0,388.94,435.48Z" transform="translate(-226.83 -415.33)"/><path d="M402.38,440.63a2.65,2.65,0,0,1-2.23-1h-.1c.07.64.1,1,.1,1.17v3.09h-1.61V432.93h1.3c0,.14.11.48.23,1h.08a2.52,2.52,0,0,1,2.25-1.15,2.62,2.62,0,0,1,2.21,1,4.65,4.65,0,0,1,.79,2.88,4.6,4.6,0,0,1-.81,2.89A2.64,2.64,0,0,1,402.38,440.63Zm-.39-6.52a1.65,1.65,0,0,0-1.4.56,2.86,2.86,0,0,0-.44,1.79v.24a3.58,3.58,0,0,0,.43,2,1.64,1.64,0,0,0,1.43.61,1.44,1.44,0,0,0,1.29-.68,3.52,3.52,0,0,0,.45-1.95,3.36,3.36,0,0,0-.45-1.92A1.48,1.48,0,0,0,402,434.11Z" transform="translate(-226.83 -415.33)"/><path d="M412.34,438.34a2,2,0,0,1-.8,1.7,3.9,3.9,0,0,1-2.31.59,5.54,5.54,0,0,1-2.43-.46v-1.39a6,6,0,0,0,2.48.62c1,0,1.48-.3,1.48-.9a.71.71,0,0,0-.16-.48,2,2,0,0,0-.54-.39,8,8,0,0,0-1.05-.47,4.73,4.73,0,0,1-1.76-1,1.87,1.87,0,0,1-.46-1.31,1.73,1.73,0,0,1,.78-1.51,3.69,3.69,0,0,1,2.13-.54,6,6,0,0,1,2.52.54l-.52,1.21a5.75,5.75,0,0,0-2.06-.5c-.85,0-1.27.24-1.27.72a.72.72,0,0,0,.33.6,7.19,7.19,0,0,0,1.45.68,6.62,6.62,0,0,1,1.36.66,2,2,0,0,1,.63.7A2.07,2.07,0,0,1,412.34,438.34Z" transform="translate(-226.83 -415.33)"/><polyline class="l" points="207.6 100.53 207.6 68.78 159.91 68.78 159.91 39.22"/><path class="c" d="M390.5,454.77a3.76,3.76,0,1,0-3.76,3.76A3.76,3.76,0,0,0,390.5,454.77Z" transform="translate(-226.83 -415.33)"/><path class="m" d="M391,454.77a4.26,4.26,0,1,1-4.26-4.26,4.27,4.27,0,0,1,4.26,4.26Zm-7.52,0a3.26,3.26,0,1,0,3.26-3.26,3.27,3.27,0,0,0-3.26,3.26Z" transform="translate(-226.83 -415.33)"/><polyline class="l" points="271.86 100.53 271.86 68.78 305.12 68.78 305.12 55.56"/><path class="c" d="M535.71,471.11a3.76,3.76,0,1,0-3.76,3.76A3.76,3.76,0,0,0,535.71,471.11Z" transform="translate(-226.83 -415.33)"/><path class="m" d="M536.21,471.11a4.26,4.26,0,1,1-4.26-4.26,4.26,4.26,0,0,1,4.26,4.26Zm-7.52,0a3.26,3.26,0,1,0,3.26-3.26,3.26,3.26,0,0,0-3.26,3.26Z" transform="translate(-226.83 -415.33)"/><rect class="n" x="180.85" y="88.5" width="117.56" height="43.95"/><path d="M454.4,513.18a19.92,19.92,0,0,1,2.88-.19,6.11,6.11,0,0,1,3.87,1,4.2,4.2,0,0,1,1.6,3.56,4.8,4.8,0,0,1-1.57,3.83,6.84,6.84,0,0,1-4.36,1.21,18.79,18.79,0,0,1-2.42-.13Zm2.14,7.71a4.12,4.12,0,0,0,.74,0c1.94,0,3.2-1,3.2-3.31a2.71,2.71,0,0,0-3-3,4.46,4.46,0,0,0-1,.09Z" transform="translate(-226.83 -415.33)"/><path d="M464.14,522.5v-9.44h2.5l2,3.46a27.3,27.3,0,0,1,1.54,3.23h0a35.05,35.05,0,0,1-.18-3.93v-2.76h2v9.44h-2.24l-2-3.64a34.5,34.5,0,0,1-1.64-3.34l0,0c.06,1.24.08,2.57.08,4.11v2.85Z" transform="translate(-226.83 -415.33)"/><path d="M473.87,520.3a5.54,5.54,0,0,0,2.37.59c1,0,1.5-.41,1.5-1s-.45-.92-1.58-1.33c-1.57-.54-2.6-1.41-2.6-2.78,0-1.62,1.35-2.85,3.58-2.85a5.78,5.78,0,0,1,2.4.48l-.47,1.72a4.53,4.53,0,0,0-2-.45c-.92,0-1.37.42-1.37.91s.53.87,1.75,1.33c1.67.62,2.45,1.49,2.45,2.82,0,1.58-1.22,2.93-3.81,2.93a6,6,0,0,1-2.67-.58Z" transform="translate(-226.83 -415.33)"/><path d="M422.48,529.86h5.45v1.41H424.2v2.61h3.48v1.41H424.2v4h-1.72Z" transform="translate(-226.83 -415.33)"/><path d="M432.78,539.3l-.11-.76h0a2.54,2.54,0,0,1-2,.91,2,2,0,0,1-2.14-2c0-1.72,1.53-2.59,4-2.58v-.11c0-.45-.18-1.19-1.39-1.19a3.63,3.63,0,0,0-1.83.5l-.34-1.12a5,5,0,0,1,2.47-.6,2.55,2.55,0,0,1,2.81,2.87v2.47a11,11,0,0,0,.1,1.64Zm-.22-3.34c-1.22,0-2.38.24-2.38,1.28a.9.9,0,0,0,1,1,1.38,1.38,0,0,0,1.34-.94,1.07,1.07,0,0,0,.06-.38Z" transform="translate(-226.83 -415.33)"/><path d="M437.89,530.57a1,1,0,0,1-1.93,0,1,1,0,0,1,1.93,0Zm-1.83,8.73v-6.82h1.74v6.82Z" transform="translate(-226.83 -415.33)"/><path d="M439.64,529.35h1.74v9.95h-1.74Z" transform="translate(-226.83 -415.33)"/><path d="M449.73,535.82a3.38,3.38,0,0,1-3.51,3.63,3.29,3.29,0,0,1-3.41-3.51,3.37,3.37,0,0,1,3.53-3.62A3.27,3.27,0,0,1,449.73,535.82Zm-5.15.07c0,1.32.65,2.31,1.7,2.31s1.67-1,1.67-2.33c0-1.07-.48-2.29-1.66-2.29S444.58,534.76,444.58,535.89Z" transform="translate(-226.83 -415.33)"/><path d="M452.12,532.48l1.1,3.46c.2.6.34,1.14.47,1.7h0c.12-.56.28-1.09.46-1.7l1.08-3.46h1.82l-2.61,6.82h-1.69l-2.54-6.82Z" transform="translate(-226.83 -415.33)"/><path d="M459.17,536.37a1.85,1.85,0,0,0,2.1,1.76,5.33,5.33,0,0,0,1.9-.3l.25,1.19a6.6,6.6,0,0,1-2.38.42,3.23,3.23,0,0,1-3.52-3.45,3.38,3.38,0,0,1,3.33-3.67c2.22,0,2.95,1.82,2.95,3.32a4.06,4.06,0,0,1-.06.73Zm3-1.2a1.47,1.47,0,0,0-1.41-1.67,1.68,1.68,0,0,0-1.59,1.67Z" transform="translate(-226.83 -415.33)"/><path d="M465.18,534.67c0-.92,0-1.58-.06-2.19h1.5l.06,1.3h.05a2,2,0,0,1,1.87-1.46,1.7,1.7,0,0,1,.4,0V534a2.2,2.2,0,0,0-.5-.06,1.51,1.51,0,0,0-1.54,1.3,2.87,2.87,0,0,0-.06.54v3.53h-1.72Z" transform="translate(-226.83 -415.33)"/><path d="M473.09,537.42a4.79,4.79,0,0,0,2.28.6c1.11,0,1.72-.52,1.72-1.29s-.47-1.13-1.68-1.56c-1.55-.57-2.55-1.39-2.55-2.75,0-1.54,1.29-2.72,3.34-2.72a5,5,0,0,1,2.27.48l-.42,1.38a4.08,4.08,0,0,0-1.88-.44c-1.09,0-1.57.59-1.57,1.13,0,.73.55,1.07,1.81,1.56,1.64.61,2.43,1.44,2.43,2.8s-1.14,2.83-3.58,2.83a5.57,5.57,0,0,1-2.55-.59Z" transform="translate(-226.83 -415.33)"/><path d="M481.19,532.48l.72,3.09c.15.73.31,1.47.43,2.21h0c.14-.74.37-1.49.56-2.2l.88-3.1h1.4l.86,3c.21.8.39,1.54.55,2.28h0c.12-.74.27-1.48.45-2.28l.76-3h1.69l-2.14,6.82h-1.6l-.81-2.78a21.88,21.88,0,0,1-.52-2.18h0a19.08,19.08,0,0,1-.51,2.18l-.87,2.78h-1.61l-2-6.82Z" transform="translate(-226.83 -415.33)"/><path d="M492.48,530.57a.92.92,0,0,1-1,.93.9.9,0,0,1-.95-.93,1,1,0,0,1,1.93,0Zm-1.84,8.73v-6.82h1.74v6.82Z" transform="translate(-226.83 -415.33)"/><path d="M496.2,530.53v2h1.64v1.28H496.2v3c0,.82.23,1.26.89,1.26a2.64,2.64,0,0,0,.67-.09l0,1.32a3.76,3.76,0,0,1-1.25.17,2,2,0,0,1-1.49-.56,2.76,2.76,0,0,1-.53-1.91v-3.21h-1v-1.28h1v-1.55Z" transform="translate(-226.83 -415.33)"/><path d="M504.07,539.09a5.13,5.13,0,0,1-1.93.35,3.28,3.28,0,0,1-3.52-3.48,3.53,3.53,0,0,1,3.8-3.64,4.39,4.39,0,0,1,1.67.32l-.31,1.29a3.16,3.16,0,0,0-1.3-.26,2.21,2.21,0,0,0,0,4.41,3.3,3.3,0,0,0,1.35-.27Z" transform="translate(-226.83 -415.33)"/><path d="M505.34,529.35h1.74v4.06h0a2.37,2.37,0,0,1,.85-.78,2.33,2.33,0,0,1,1.18-.31c1.16,0,2.38.77,2.38,3v4H509.8v-3.83c0-1-.37-1.73-1.32-1.73a1.4,1.4,0,0,0-1.33,1,1.37,1.37,0,0,0-.07.52v4.08h-1.74Z" transform="translate(-226.83 -415.33)"/><line class="l" x1="207.6" y1="133.45" x2="207.6" y2="153.05"/><line class="o" x1="273.06" y1="133.45" x2="273.06" y2="136.45"/><line class="p" x1="273.05" y1="140.1" x2="273.05" y2="149.22"/><line class="o" x1="273.05" y1="151.04" x2="273.05" y2="154.04"/><polyline class="l" points="156.11 186.85 156.11 152.05 207.6 152.05 50.88 152.05 50.88 186.85"/><polyline class="q" points="323.56 186.85 323.56 153.05 273.06 153.05 428.78 153.05 428.78 186.85"/></svg>