<svg xmlns="http://www.w3.org/2000/svg" viewBox="0 0 314.96 453.6"><defs><style>.a{fill:#f3f4f4;stroke:#e2e2e2;}.a,.d,.f,.g,.h,.i{stroke-miterlimit:10;}.b{fill:#02203c;}.c{fill:#fff;}.d,.f,.g,.h,.i{fill:none;}.d{stroke:#02203c;}.d,.i{stroke-width:2px;}.e{fill:#e3f4fc;}.f,.g,.h{stroke:#cadce5;}.g{stroke-dasharray:5.87 2.93;}.h{stroke-dasharray:5.39 2.69;}.i{stroke:#cdcdcd;}.j{fill:#cdcdcd;}</style></defs><title>platform</title><rect class="a" x="0.5" y="142.09" width="313.96" height="311.01" rx="18.46" ry="18.46"/><rect class="b" x="21.43" y="172.8" width="271.37" height="56.93"/><path class="c" d="M430.24,656.41a4.24,4.24,0,0,0-3.48,1.57,6.69,6.69,0,0,0-1.27,4.33,6.76,6.76,0,0,0,1.22,4.37,4.3,4.3,0,0,0,3.53,1.48,9.43,9.43,0,0,0,1.93-.19q.93-.21,1.95-.51v2.2a12,12,0,0,1-4.19.7,6.71,6.71,0,0,1-5.3-2.09,8.77,8.77,0,0,1-1.85-6,9.67,9.67,0,0,1,.9-4.29,6.42,6.42,0,0,1,2.59-2.81,7.87,7.87,0,0,1,4-1,10,10,0,0,1,4.45,1l-.93,2.14a14,14,0,0,0-1.68-.66A6,6,0,0,0,430.24,656.41Z" transform="translate(-318.39 -462.53)"/><path class="c" d="M446.45,664.18a6.5,6.5,0,0,1-1.49,4.54,5.37,5.37,0,0,1-4.16,1.64,5.66,5.66,0,0,1-2.95-.76,5,5,0,0,1-2-2.16,7.28,7.28,0,0,1-.69-3.26,6.47,6.47,0,0,1,1.48-4.51,5.39,5.39,0,0,1,4.18-1.63,5.22,5.22,0,0,1,4.08,1.67A6.35,6.35,0,0,1,446.45,664.18Zm-8.65,0q0,4.11,3,4.11t3-4.11c0-2.72-1-4.07-3-4.07a2.57,2.57,0,0,0-2.3,1A5.33,5.33,0,0,0,437.8,664.18Z" transform="translate(-318.39 -462.53)"/><path class="c" d="M458.48,670.14H456v-7.3a3.22,3.22,0,0,0-.56-2.06,2.13,2.13,0,0,0-1.75-.67,2.81,2.81,0,0,0-2.35.94,5.26,5.26,0,0,0-.74,3.17v5.92H448V658.26h2l.35,1.56h.13a3.49,3.49,0,0,1,1.52-1.31,5.1,5.1,0,0,1,2.2-.47c2.85,0,4.27,1.46,4.27,4.36Z" transform="translate(-318.39 -462.53)"/><path class="c" d="M467.08,660.17h-2.9v10h-2.54v-10h-1.95V659l1.95-.77v-.78a4.33,4.33,0,0,1,1-3.12,4.06,4.06,0,0,1,3-1,8.19,8.19,0,0,1,2.62.44l-.67,1.91a5.83,5.83,0,0,0-1.78-.3,1.46,1.46,0,0,0-1.25.53,2.72,2.72,0,0,0-.39,1.6v.77h2.9Zm1.86-5.06a1.38,1.38,0,0,1,.38-1,1.7,1.7,0,0,1,2.09,0,1.62,1.62,0,0,1,0,2.06,1.43,1.43,0,0,1-2.47-1Zm2.68,15H469.1V658.26h2.52Z" transform="translate(-318.39 -462.53)"/><path class="c" d="M485.27,658.26v1.39l-2,.37a3.11,3.11,0,0,1,.46.93,3.4,3.4,0,0,1,.19,1.16,3.59,3.59,0,0,1-1.27,2.89,6.24,6.24,0,0,1-4.52,1,1.42,1.42,0,0,0-.82,1.18.67.67,0,0,0,.38.62,3.43,3.43,0,0,0,1.4.2h2.08a4.58,4.58,0,0,1,3,.84,2.94,2.94,0,0,1,1,2.41,3.51,3.51,0,0,1-1.66,3.12,8.78,8.78,0,0,1-4.81,1.1,6.67,6.67,0,0,1-3.71-.86,2.79,2.79,0,0,1-1.28-2.45,2.56,2.56,0,0,1,.7-1.84,3.64,3.64,0,0,1,1.93-1,2,2,0,0,1-.83-.69,1.79,1.79,0,0,1,0-2.14,4.39,4.39,0,0,1,1.12-.91,3.28,3.28,0,0,1-1.5-1.29,3.85,3.85,0,0,1-.58-2.1,3.78,3.78,0,0,1,1.22-3,5.14,5.14,0,0,1,3.48-1.07,8,8,0,0,1,1.06.08,6.06,6.06,0,0,1,.83.14ZM475.94,672a1.4,1.4,0,0,0,.73,1.26,4.08,4.08,0,0,0,2.07.44,6.14,6.14,0,0,0,3.07-.6,1.75,1.75,0,0,0,1-1.56,1.16,1.16,0,0,0-.55-1.1,4.41,4.41,0,0,0-2.06-.33H478.3a2.67,2.67,0,0,0-1.72.51A1.66,1.66,0,0,0,475.94,672Zm1.08-9.88a2.35,2.35,0,0,0,.58,1.71,2.14,2.14,0,0,0,1.65.61c1.46,0,2.19-.78,2.19-2.35a2.63,2.63,0,0,0-.54-1.78,2.08,2.08,0,0,0-1.65-.63,2.14,2.14,0,0,0-1.66.62A2.61,2.61,0,0,0,477,662.11Z" transform="translate(-318.39 -462.53)"/><path class="c" d="M500.13,670.14h-2.58v-7.08h-7.24v7.08h-2.57v-15.7h2.57v6.42h7.24v-6.42h2.58Z" transform="translate(-318.39 -462.53)"/><path class="c" d="M510.62,670.14l-.36-1.56h-.13a3.54,3.54,0,0,1-1.5,1.3,4.89,4.89,0,0,1-2.21.48,4.36,4.36,0,0,1-3.23-1.08,4.43,4.43,0,0,1-1.06-3.25v-7.77h2.55v7.33a3.16,3.16,0,0,0,.55,2,2.13,2.13,0,0,0,1.75.68,2.78,2.78,0,0,0,2.34-.95,5.19,5.19,0,0,0,.75-3.18v-5.92h2.53v11.88Z" transform="translate(-318.39 -462.53)"/><path class="c" d="M521,658a4.13,4.13,0,0,1,3.47,1.62,8.85,8.85,0,0,1,0,9.07,4.18,4.18,0,0,1-3.49,1.63,4.13,4.13,0,0,1-3.5-1.63h-.18l-.46,1.41h-1.89V653.43h2.53v4c0,.29,0,.73,0,1.31s-.05.95-.06,1.11h.11A4,4,0,0,1,521,658Zm-.66,2.07a2.58,2.58,0,0,0-2.19.89,5.19,5.19,0,0,0-.69,3v.17a5.54,5.54,0,0,0,.68,3.14,2.56,2.56,0,0,0,2.25,1,2.27,2.27,0,0,0,2-1.06,5.56,5.56,0,0,0,.7-3.07Q523.07,660.11,520.29,660.11Z" transform="translate(-318.39 -462.53)"/><path class="b" d="M505.33,769.08a9,9,0,0,0,.54-3l0-8.49a10.38,10.38,0,0,1-.11,1.24,10.16,10.16,0,0,0-.49-4,9,9,0,0,0,.57-3.09l0-8v-.49a1.23,1.23,0,0,1,0,.19c-.12-4-2.67-8-7.67-10.92-10.2-5.89-26.68-5.89-36.81,0-4.92,2.85-7.43,6.82-7.55,10.82a1.94,1.94,0,0,1,0-.24l0,8.49a9.12,9.12,0,0,0,.57,3.15,10.29,10.29,0,0,0-.54,3c0-.09,0-.18,0-.27l0,8.49a9.35,9.35,0,0,0,.55,3.11,10.29,10.29,0,0,0-.53,4.28l0,6.95c0,3.89,2.55,7.78,7.69,10.74,10.19,5.89,26.67,5.89,36.8,0,5-2.93,7.56-6.76,7.57-10.59l0-7.09A10.24,10.24,0,0,0,505.33,769.08Zm-8.05,11.65c-4.59,2.67-10.75,4.13-17.34,4.13s-12.76-1.46-17.38-4.13c-4.24-2.45-6.59-5.58-6.64-8.81a17.83,17.83,0,0,0,5.58,4.75c10.19,5.89,26.67,5.89,36.8,0a17.76,17.76,0,0,0,5.51-4.75C503.81,775.15,501.49,778.28,497.28,780.73Zm0-14.35c-4.59,2.67-10.75,4.14-17.34,4.14s-12.76-1.47-17.38-4.14c-4.24-2.44-6.59-5.57-6.64-8.81a18,18,0,0,0,5.58,4.76c10.19,5.89,26.67,5.88,36.8,0a17.51,17.51,0,0,0,5.51-4.75C503.81,760.81,501.49,763.94,497.28,766.38Zm0-14.34c-4.59,2.66-10.75,4.13-17.34,4.13s-12.76-1.47-17.38-4.13c-4.28-2.47-6.64-5.63-6.64-8.9s2.31-6.37,6.53-8.82c4.58-2.67,10.74-4.14,17.33-4.14s12.77,1.47,17.39,4.14c4.28,2.47,6.64,5.63,6.64,8.89S501.5,749.59,497.28,752Z" transform="translate(-318.39 -462.53)"/><line class="d" x1="161.47" y1="229.73" x2="161.47" y2="267.65"/><path class="b" d="M505.33,872.26a9,9,0,0,0,.54-3l0-8.49a10.22,10.22,0,0,1-.11,1.23,10.2,10.2,0,0,0-.49-4,8.92,8.92,0,0,0,.57-3.08l0-8v-.5a1.36,1.36,0,0,1,0,.2c-.12-4-2.67-8-7.67-10.93-10.2-5.89-26.68-5.88-36.81,0-4.92,2.86-7.43,6.83-7.55,10.82a1.64,1.64,0,0,1,0-.23l0,8.49a9.16,9.16,0,0,0,.57,3.15,10.29,10.29,0,0,0-.54,3c0-.09,0-.18,0-.27l0,8.49a9.4,9.4,0,0,0,.55,3.11,10.27,10.27,0,0,0-.53,4.28l0,7c0,3.88,2.55,7.77,7.69,10.74,10.19,5.89,26.67,5.88,36.8,0,5-2.92,7.56-6.75,7.57-10.59l0-7.08A10.22,10.22,0,0,0,505.33,872.26Zm-8.05,11.65c-4.59,2.66-10.75,4.13-17.34,4.13s-12.76-1.47-17.38-4.13c-4.24-2.45-6.59-5.58-6.64-8.81a18.1,18.1,0,0,0,5.58,4.75c10.19,5.89,26.67,5.89,36.8,0a17.65,17.65,0,0,0,5.51-4.76C503.81,878.33,501.49,881.46,497.28,883.91Zm0-14.35c-4.59,2.67-10.75,4.14-17.34,4.14s-12.76-1.47-17.38-4.14c-4.24-2.45-6.59-5.57-6.64-8.81a18,18,0,0,0,5.58,4.76c10.19,5.88,26.67,5.88,36.8,0a17.76,17.76,0,0,0,5.51-4.75C503.81,864,501.49,867.11,497.28,869.56Zm0-14.35c-4.59,2.67-10.75,4.14-17.34,4.14s-12.76-1.47-17.38-4.14c-4.28-2.47-6.64-5.63-6.64-8.89s2.31-6.38,6.53-8.83c4.58-2.66,10.74-4.13,17.33-4.13s12.77,1.47,17.39,4.14c4.28,2.47,6.64,5.62,6.64,8.89S501.5,852.76,497.28,855.21Z" transform="translate(-318.39 -462.53)"/><line class="d" x1="161.47" y1="332.91" x2="161.47" y2="370.83"/><path d="M386,757.81a5.7,5.7,0,0,1-1.57,4.32,6.32,6.32,0,0,1-4.53,1.5H376.7V752.21h3.53a5.83,5.83,0,0,1,4.24,1.47A5.48,5.48,0,0,1,386,757.81Zm-2,.06q0-4.1-3.84-4.1h-1.62v8.29h1.33Q384,762.06,384,757.87Z" transform="translate(-318.39 -462.53)"/><path d="M393.65,763.63l-.37-1.2h-.06A3.55,3.55,0,0,1,392,763.5a4,4,0,0,1-1.62.29,2.75,2.75,0,0,1-2-.69,2.57,2.57,0,0,1-.71-2,2.27,2.27,0,0,1,1-2,5.72,5.72,0,0,1,3-.75l1.49,0v-.46a1.77,1.77,0,0,0-.38-1.24,1.6,1.6,0,0,0-1.2-.41,4.18,4.18,0,0,0-1.28.19,11.84,11.84,0,0,0-1.17.46l-.59-1.31a6.7,6.7,0,0,1,1.54-.56,7.47,7.47,0,0,1,1.58-.19,3.73,3.73,0,0,1,2.48.72,2.81,2.81,0,0,1,.84,2.26v5.82Zm-2.73-1.25a2.28,2.28,0,0,0,1.6-.56,2,2,0,0,0,.61-1.57v-.75l-1.11,0a3.86,3.86,0,0,0-1.89.43,1.34,1.34,0,0,0-.59,1.19,1.15,1.15,0,0,0,.35.89A1.46,1.46,0,0,0,390.92,762.38Z" transform="translate(-318.39 -462.53)"/><path d="M400.74,762.3a4.52,4.52,0,0,0,1.35-.21v1.38a3.6,3.6,0,0,1-.79.23,6.39,6.39,0,0,1-1,.09c-1.74,0-2.61-.92-2.61-2.75v-4.66h-1.18v-.81l1.26-.68.63-1.82h1.13V755H402v1.39h-2.46V761a1.29,1.29,0,0,0,.33,1A1.19,1.19,0,0,0,400.74,762.3Z" transform="translate(-318.39 -462.53)"/><path d="M409.22,763.63l-.37-1.2h-.06a3.55,3.55,0,0,1-1.26,1.07,4,4,0,0,1-1.62.29,2.75,2.75,0,0,1-2-.69,2.57,2.57,0,0,1-.71-2,2.27,2.27,0,0,1,1-2,5.72,5.72,0,0,1,3-.75l1.49,0v-.46a1.77,1.77,0,0,0-.38-1.24,1.6,1.6,0,0,0-1.2-.41,4.18,4.18,0,0,0-1.28.19,11.84,11.84,0,0,0-1.17.46l-.59-1.31a6.7,6.7,0,0,1,1.54-.56,7.47,7.47,0,0,1,1.58-.19,3.73,3.73,0,0,1,2.48.72,2.81,2.81,0,0,1,.84,2.26v5.82Zm-2.73-1.25a2.28,2.28,0,0,0,1.6-.56,2,2,0,0,0,.61-1.57v-.75l-1.11,0a3.86,3.86,0,0,0-1.89.43,1.34,1.34,0,0,0-.59,1.19,1.15,1.15,0,0,0,.35.89A1.46,1.46,0,0,0,406.49,762.38Z" transform="translate(-318.39 -462.53)"/><path d="M417.51,754.83A3,3,0,0,1,420,756a6.47,6.47,0,0,1,0,6.6,3.33,3.33,0,0,1-5.09,0h-.12l-.34,1H413.1V751.47h1.83v2.89c0,.22,0,.53,0,1s0,.69,0,.8h.08A2.92,2.92,0,0,1,417.51,754.83Zm-.48,1.5a1.86,1.86,0,0,0-1.59.65,3.79,3.79,0,0,0-.51,2.19v.12a4.09,4.09,0,0,0,.5,2.29,1.87,1.87,0,0,0,1.63.71,1.66,1.66,0,0,0,1.49-.78,4.14,4.14,0,0,0,.5-2.23C419.05,757.31,418.38,756.33,417,756.33Z" transform="translate(-318.39 -462.53)"/><path d="M428.47,763.63l-.37-1.2H428a3.55,3.55,0,0,1-1.26,1.07,4,4,0,0,1-1.62.29,2.75,2.75,0,0,1-2-.69,2.57,2.57,0,0,1-.71-2,2.27,2.27,0,0,1,1-2,5.72,5.72,0,0,1,3-.75l1.49,0v-.46a1.77,1.77,0,0,0-.38-1.24,1.6,1.6,0,0,0-1.2-.41,4.18,4.18,0,0,0-1.28.19,11.84,11.84,0,0,0-1.17.46l-.59-1.31a6.7,6.7,0,0,1,1.54-.56,7.47,7.47,0,0,1,1.58-.19,3.73,3.73,0,0,1,2.48.72,2.81,2.81,0,0,1,.84,2.26v5.82Zm-2.73-1.25a2.28,2.28,0,0,0,1.6-.56,2,2,0,0,0,.61-1.57v-.75l-1.11,0A3.86,3.86,0,0,0,425,760a1.34,1.34,0,0,0-.59,1.19,1.15,1.15,0,0,0,.35.89A1.46,1.46,0,0,0,425.74,762.38Z" transform="translate(-318.39 -462.53)"/><path d="M438.15,761.17a2.27,2.27,0,0,1-.92,1.94,4.44,4.44,0,0,1-2.64.68,6.26,6.26,0,0,1-2.78-.53v-1.58a7,7,0,0,0,2.84.7c1.13,0,1.7-.34,1.7-1a.83.83,0,0,0-.19-.55,2.07,2.07,0,0,0-.62-.45,10.3,10.3,0,0,0-1.19-.54,5.48,5.48,0,0,1-2-1.15,2.16,2.16,0,0,1-.53-1.5,2,2,0,0,1,.89-1.72,4.26,4.26,0,0,1,2.44-.62,6.94,6.94,0,0,1,2.88.62l-.59,1.38a6.58,6.58,0,0,0-2.36-.58c-1,0-1.45.28-1.45.83a.85.85,0,0,0,.38.69,8.2,8.2,0,0,0,1.65.77,7.79,7.79,0,0,1,1.56.76,2.33,2.33,0,0,1,.72.79A2.39,2.39,0,0,1,438.15,761.17Z" transform="translate(-318.39 -462.53)"/><path d="M443.91,763.79a4.17,4.17,0,0,1-3.15-1.18,4.45,4.45,0,0,1-1.14-3.24,4.92,4.92,0,0,1,1.05-3.33,3.68,3.68,0,0,1,2.9-1.21,3.6,3.6,0,0,1,2.71,1,4,4,0,0,1,1,2.86v1h-5.76a2.86,2.86,0,0,0,.68,1.94,2.37,2.37,0,0,0,1.8.67,7.15,7.15,0,0,0,1.43-.14,8.2,8.2,0,0,0,1.42-.48v1.49a5.86,5.86,0,0,1-1.36.45A8.18,8.18,0,0,1,443.91,763.79Zm-.34-7.57a1.84,1.84,0,0,0-1.4.56,2.67,2.67,0,0,0-.63,1.61h3.92a2.41,2.41,0,0,0-.51-1.62A1.8,1.8,0,0,0,443.57,756.22Z" transform="translate(-318.39 -462.53)"/><path d="M386,852.36a5.73,5.73,0,0,1-1.57,4.33,6.31,6.31,0,0,1-4.53,1.49H376.7V846.76h3.53a5.83,5.83,0,0,1,4.24,1.47A5.5,5.5,0,0,1,386,852.36Zm-2,.07c0-2.74-1.28-4.1-3.84-4.1h-1.62v8.28h1.33Q384,856.61,384,852.43Z" transform="translate(-318.39 -462.53)"/><path d="M393.65,858.18l-.37-1.2h-.06a3.57,3.57,0,0,1-1.26,1.08,4,4,0,0,1-1.62.28,2.75,2.75,0,0,1-2-.69,2.54,2.54,0,0,1-.72-1.94,2.31,2.31,0,0,1,1-2,5.73,5.73,0,0,1,3-.74l1.49-.05v-.46a1.8,1.8,0,0,0-.38-1.24,1.6,1.6,0,0,0-1.2-.41,4.18,4.18,0,0,0-1.28.2,9.79,9.79,0,0,0-1.17.46l-.59-1.31a6.26,6.26,0,0,1,1.54-.56,6.86,6.86,0,0,1,1.57-.19,3.74,3.74,0,0,1,2.49.72,2.81,2.81,0,0,1,.84,2.25v5.82Zm-2.73-1.25a2.27,2.27,0,0,0,1.6-.55,2.06,2.06,0,0,0,.61-1.57v-.75l-1.11.05a3.75,3.75,0,0,0-1.89.43,1.32,1.32,0,0,0-.59,1.18,1.19,1.19,0,0,0,.34.9A1.5,1.5,0,0,0,390.92,856.93Z" transform="translate(-318.39 -462.53)"/><path d="M400.74,856.86a4.52,4.52,0,0,0,1.35-.21V858a3.82,3.82,0,0,1-.79.22,5.36,5.36,0,0,1-1,.09c-1.74,0-2.61-.92-2.61-2.75v-4.66h-1.18v-.81l1.26-.67.63-1.83h1.13v1.92H402v1.39h-2.46v4.63a1.3,1.3,0,0,0,.33,1A1.21,1.21,0,0,0,400.74,856.86Z" transform="translate(-318.39 -462.53)"/><path d="M409.22,858.18l-.37-1.2h-.06a3.49,3.49,0,0,1-1.26,1.08,4,4,0,0,1-1.62.28,2.75,2.75,0,0,1-2-.69,2.53,2.53,0,0,1-.71-1.94,2.3,2.3,0,0,1,1-2,5.73,5.73,0,0,1,3-.74l1.49-.05v-.46a1.8,1.8,0,0,0-.38-1.24,1.6,1.6,0,0,0-1.2-.41,4.18,4.18,0,0,0-1.28.2,9.79,9.79,0,0,0-1.17.46l-.59-1.31a6.26,6.26,0,0,1,1.54-.56,6.87,6.87,0,0,1,1.58-.19,3.73,3.73,0,0,1,2.48.72,2.81,2.81,0,0,1,.84,2.25v5.82Zm-2.73-1.25a2.27,2.27,0,0,0,1.6-.55,2,2,0,0,0,.61-1.57v-.75l-1.11.05a3.75,3.75,0,0,0-1.89.43,1.32,1.32,0,0,0-.59,1.18,1.16,1.16,0,0,0,.35.9A1.46,1.46,0,0,0,406.49,856.93Z" transform="translate(-318.39 -462.53)"/><path d="M417.51,849.39a3,3,0,0,1,2.52,1.17,6.47,6.47,0,0,1,0,6.6,3.33,3.33,0,0,1-5.09,0h-.12l-.34,1H413.1V846h1.83v2.89c0,.21,0,.53,0,1s0,.69,0,.81h.08A2.91,2.91,0,0,1,417.51,849.39Zm-.48,1.5a1.86,1.86,0,0,0-1.59.65,3.73,3.73,0,0,0-.51,2.18v.13a4.05,4.05,0,0,0,.5,2.28,1.84,1.84,0,0,0,1.63.71,1.65,1.65,0,0,0,1.48-.77,4.08,4.08,0,0,0,.51-2.24C419.05,851.87,418.38,850.89,417,850.89Z" transform="translate(-318.39 -462.53)"/><path d="M428.47,858.18l-.37-1.2H428a3.49,3.49,0,0,1-1.26,1.08,4,4,0,0,1-1.62.28,2.75,2.75,0,0,1-2-.69,2.53,2.53,0,0,1-.71-1.94,2.3,2.3,0,0,1,1-2,5.73,5.73,0,0,1,3-.74l1.49-.05v-.46a1.8,1.8,0,0,0-.38-1.24,1.6,1.6,0,0,0-1.2-.41,4.18,4.18,0,0,0-1.28.2,9.79,9.79,0,0,0-1.17.46l-.59-1.31a6.26,6.26,0,0,1,1.54-.56,6.87,6.87,0,0,1,1.58-.19,3.73,3.73,0,0,1,2.48.72,2.81,2.81,0,0,1,.84,2.25v5.82Zm-2.73-1.25a2.27,2.27,0,0,0,1.6-.55,2,2,0,0,0,.61-1.57v-.75l-1.11.05a3.75,3.75,0,0,0-1.89.43,1.32,1.32,0,0,0-.59,1.18,1.16,1.16,0,0,0,.35.9A1.46,1.46,0,0,0,425.74,856.93Z" transform="translate(-318.39 -462.53)"/><path d="M438.15,855.72a2.29,2.29,0,0,1-.92,1.95,4.44,4.44,0,0,1-2.64.67,6.27,6.27,0,0,1-2.78-.52v-1.59a6.83,6.83,0,0,0,2.84.7c1.13,0,1.7-.34,1.7-1a.85.85,0,0,0-.19-.55,2.48,2.48,0,0,0-.62-.45,10.52,10.52,0,0,0-1.19-.53,5.47,5.47,0,0,1-2-1.16,2.09,2.09,0,0,1-.53-1.5,2,2,0,0,1,.89-1.72,4.26,4.26,0,0,1,2.44-.61A6.93,6.93,0,0,1,438,850l-.59,1.39a6.38,6.38,0,0,0-2.36-.58c-1,0-1.45.28-1.45.83a.85.85,0,0,0,.38.69,8.82,8.82,0,0,0,1.65.77,7.79,7.79,0,0,1,1.56.76,2.33,2.33,0,0,1,.72.79A2.38,2.38,0,0,1,438.15,855.72Z" transform="translate(-318.39 -462.53)"/><path d="M443.91,858.34a4.16,4.16,0,0,1-3.15-1.17,4.48,4.48,0,0,1-1.14-3.24,4.92,4.92,0,0,1,1.05-3.33,3.65,3.65,0,0,1,2.9-1.21,3.56,3.56,0,0,1,2.71,1,4,4,0,0,1,1,2.86v1h-5.76a2.83,2.83,0,0,0,.68,1.93,2.37,2.37,0,0,0,1.8.68,6.47,6.47,0,0,0,1.43-.15,6.8,6.8,0,0,0,1.42-.48v1.49a5.46,5.46,0,0,1-1.36.46A8.23,8.23,0,0,1,443.91,858.34Zm-.34-7.56a1.84,1.84,0,0,0-1.4.55,2.67,2.67,0,0,0-.63,1.62h3.92a2.41,2.41,0,0,0-.51-1.62A1.76,1.76,0,0,0,443.57,850.78Z" transform="translate(-318.39 -462.53)"/><path d="M378.56,872.82v4.56H376.7V866h3.22a5.33,5.33,0,0,1,3.28.83,3,3,0,0,1,1.06,2.5,3.12,3.12,0,0,1-2.22,3l3.23,5h-2.13l-2.73-4.56Zm0-1.54h1.3a3,3,0,0,0,1.89-.49,1.76,1.76,0,0,0,.59-1.44,1.55,1.55,0,0,0-.63-1.39,3.51,3.51,0,0,0-1.91-.42h-1.24Z" transform="translate(-318.39 -462.53)"/><path d="M390.5,877.54a4.19,4.19,0,0,1-3.15-1.17,4.48,4.48,0,0,1-1.14-3.24,4.88,4.88,0,0,1,1.06-3.33,3.63,3.63,0,0,1,2.9-1.21,3.53,3.53,0,0,1,2.7,1,4,4,0,0,1,1,2.86v1H388.1a2.88,2.88,0,0,0,.68,1.93,2.38,2.38,0,0,0,1.81.68,6.38,6.38,0,0,0,1.42-.15,6.61,6.61,0,0,0,1.42-.48V877a5.86,5.86,0,0,1-1.36.45A8.23,8.23,0,0,1,390.5,877.54Zm-.33-7.56a1.86,1.86,0,0,0-1.41.55,2.67,2.67,0,0,0-.63,1.62h3.93a2.42,2.42,0,0,0-.52-1.62A1.74,1.74,0,0,0,390.17,870Z" transform="translate(-318.39 -462.53)"/><path d="M400.33,877.54a3,3,0,0,1-2.55-1.18h-.11c.08.73.11,1.17.11,1.33v3.54H396V868.74h1.48c0,.17.13.55.26,1.16h.09a2.9,2.9,0,0,1,2.58-1.31,3,3,0,0,1,2.52,1.17,6.45,6.45,0,0,1,0,6.59A3,3,0,0,1,400.33,877.54Zm-.45-7.45a1.89,1.89,0,0,0-1.59.64,3.3,3.3,0,0,0-.51,2v.27a4.05,4.05,0,0,0,.5,2.28,1.86,1.86,0,0,0,1.64.71,1.65,1.65,0,0,0,1.46-.78,4,4,0,0,0,.52-2.23,3.91,3.91,0,0,0-.51-2.2A1.72,1.72,0,0,0,399.88,870.09Z" transform="translate(-318.39 -462.53)"/><path d="M407.75,877.38h-1.83V865.23h1.83Z" transform="translate(-318.39 -462.53)"/><path d="M410.27,866.46a1,1,0,0,1,.27-.76,1,1,0,0,1,.77-.27.94.94,0,0,1,1,1,1,1,0,0,1-.27.73,1,1,0,0,1-.75.27,1,1,0,0,1-.77-.27A1,1,0,0,1,410.27,866.46Zm1.94,10.92h-1.83v-8.64h1.83Z" transform="translate(-318.39 -462.53)"/><path d="M418.32,877.54a3.79,3.79,0,0,1-3-1.14,5.8,5.8,0,0,1,.05-6.64,4,4,0,0,1,3.08-1.17,5.76,5.76,0,0,1,2.46.51l-.55,1.47a5.63,5.63,0,0,0-1.92-.45c-1.5,0-2.25,1-2.25,3a3.59,3.59,0,0,0,.56,2.18,1.93,1.93,0,0,0,1.64.73,4.65,4.65,0,0,0,2.32-.61V877a4,4,0,0,1-1.05.42A6.6,6.6,0,0,1,418.32,877.54Z" transform="translate(-318.39 -462.53)"/><path d="M428.17,877.38l-.37-1.2h-.06a3.57,3.57,0,0,1-1.26,1.08,4,4,0,0,1-1.63.28,2.71,2.71,0,0,1-2-.69,2.54,2.54,0,0,1-.72-1.94,2.3,2.3,0,0,1,1-2,5.74,5.74,0,0,1,3-.74l1.49,0v-.46a1.76,1.76,0,0,0-.39-1.24,1.6,1.6,0,0,0-1.2-.41,4.16,4.16,0,0,0-1.27.2,8.62,8.62,0,0,0-1.17.46l-.6-1.31a6.26,6.26,0,0,1,1.54-.56,7,7,0,0,1,1.58-.19,3.74,3.74,0,0,1,2.49.72,2.81,2.81,0,0,1,.84,2.25v5.82Zm-2.74-1.25a2.3,2.3,0,0,0,1.61-.55,2.06,2.06,0,0,0,.6-1.57v-.75l-1.11,0a3.74,3.74,0,0,0-1.88.43,1.3,1.3,0,0,0-.59,1.18,1.15,1.15,0,0,0,.34.9A1.48,1.48,0,0,0,425.43,876.13Z" transform="translate(-318.39 -462.53)"/><rect class="e" x="35.37" y="125.62" width="79.31" height="32.95"/><polyline class="f" points="114.69 155.56 114.69 158.56 111.69 158.56"/><line class="g" x1="108.75" y1="158.56" x2="39.84" y2="158.56"/><polyline class="f" points="38.37 158.56 35.37 158.56 35.37 155.56"/><line class="h" x1="35.37" y1="152.87" x2="35.37" y2="129.96"/><polyline class="f" points="35.37 128.62 35.37 125.62 38.37 125.62"/><line class="g" x1="41.31" y1="125.62" x2="110.22" y2="125.62"/><polyline class="f" points="111.69 125.62 114.69 125.62 114.69 128.62"/><line class="h" x1="114.69" y1="131.31" x2="114.69" y2="154.22"/><path d="M380.77,610.11h-1.9l-1.82-6.39c-.08-.27-.17-.68-.29-1.2a10,10,0,0,1-.21-1.1c-.05.32-.13.72-.24,1.22s-.2.87-.28,1.11l-1.77,6.36h-1.9L371,604.75l-1.4-5.35h1.78l1.53,6.24c.24,1,.41,1.89.52,2.65.05-.41.13-.87.24-1.39s.2-.92.29-1.24l1.74-6.26h1.74l1.79,6.29a23.8,23.8,0,0,1,.54,2.6,18.67,18.67,0,0,1,.53-2.66l1.52-6.23h1.77Z" transform="translate(-318.39 -462.53)"/><path d="M388.43,610.26a3.92,3.92,0,0,1-2.95-1.1,4.21,4.21,0,0,1-1.07-3,4.6,4.6,0,0,1,1-3.12,3.42,3.42,0,0,1,2.72-1.14,3.33,3.33,0,0,1,2.53,1,3.72,3.72,0,0,1,.93,2.68v.93h-5.4a2.67,2.67,0,0,0,.64,1.81,2.24,2.24,0,0,0,1.69.64,6.26,6.26,0,0,0,1.34-.14,7,7,0,0,0,1.33-.45v1.4a5.19,5.19,0,0,1-1.28.42A7.17,7.17,0,0,1,388.43,610.26Zm-.31-7.09a1.73,1.73,0,0,0-1.32.52,2.49,2.49,0,0,0-.59,1.51h3.68a2.28,2.28,0,0,0-.48-1.52A1.69,1.69,0,0,0,388.12,603.17Z" transform="translate(-318.39 -462.53)"/><path d="M397.68,601.86A2.82,2.82,0,0,1,400,603a6.09,6.09,0,0,1,0,6.19,3.12,3.12,0,0,1-4.77,0h-.12l-.31,1h-1.29v-11.4h1.72v2.71q0,.3,0,.9c0,.39,0,.64,0,.75h.07A2.75,2.75,0,0,1,397.68,601.86Zm-.45,1.41a1.76,1.76,0,0,0-1.5.61,3.61,3.61,0,0,0-.47,2v.12a3.81,3.81,0,0,0,.47,2.14,1.74,1.74,0,0,0,1.53.66,1.56,1.56,0,0,0,1.39-.72,3.94,3.94,0,0,0,.47-2.1Q399.12,603.27,397.23,603.27Z" transform="translate(-318.39 -462.53)"/><path d="M411.46,599.4v6.93a4.11,4.11,0,0,1-.51,2.08,3.42,3.42,0,0,1-1.47,1.37,5.1,5.1,0,0,1-2.3.48,4.27,4.27,0,0,1-3.1-1.06,3.8,3.8,0,0,1-1.11-2.9v-6.9h1.76v6.78a2.7,2.7,0,0,0,.61,2,2.54,2.54,0,0,0,1.89.63c1.65,0,2.48-.86,2.48-2.6V599.4Z" transform="translate(-318.39 -462.53)"/><path d="M414.2,610.11V599.4H416v10.71Z" transform="translate(-318.39 -462.53)"/><rect class="e" x="191.02" y="125.62" width="79.31" height="32.95"/><polyline class="f" points="270.34 155.56 270.34 158.56 267.34 158.56"/><line class="g" x1="264.4" y1="158.56" x2="195.49" y2="158.56"/><polyline class="f" points="194.02 158.56 191.02 158.56 191.02 155.56"/><line class="h" x1="191.02" y1="152.87" x2="191.02" y2="129.96"/><polyline class="f" points="191.02 128.62 191.02 125.62 194.02 125.62"/><line class="g" x1="196.96" y1="125.62" x2="265.87" y2="125.62"/><polyline class="f" points="267.34 125.62 270.34 125.62 270.34 128.62"/><line class="h" x1="270.34" y1="131.31" x2="270.34" y2="154.22"/><path d="M521.08,605.83v4.28h-1.75V599.4h3a5,5,0,0,1,3.07.78,2.8,2.8,0,0,1,1,2.34,2.93,2.93,0,0,1-2.08,2.85l3,4.74h-2l-2.56-4.28Zm0-1.45h1.21a2.82,2.82,0,0,0,1.78-.45,1.66,1.66,0,0,0,.54-1.35,1.43,1.43,0,0,0-.59-1.3,3.18,3.18,0,0,0-1.79-.4h-1.15Z" transform="translate(-318.39 -462.53)"/><path d="M535,610.11h-6.06V599.4H535v1.48h-4.31v2.92h4v1.46h-4v3.36H535Z" transform="translate(-318.39 -462.53)"/><path d="M543.46,607.2a2.67,2.67,0,0,1-1,2.24,4.45,4.45,0,0,1-2.85.82,6.79,6.79,0,0,1-3-.57V608a8,8,0,0,0,1.56.54,6.72,6.72,0,0,0,1.54.2,2.39,2.39,0,0,0,1.53-.4,1.28,1.28,0,0,0,.49-1.06,1.34,1.34,0,0,0-.45-1,6.73,6.73,0,0,0-1.88-1,4.9,4.9,0,0,1-2.06-1.35,2.88,2.88,0,0,1-.6-1.83,2.57,2.57,0,0,1,.95-2.11,4,4,0,0,1,2.56-.77,7.52,7.52,0,0,1,3.06.67l-.56,1.43a6.68,6.68,0,0,0-2.55-.6,2,2,0,0,0-1.29.37,1.23,1.23,0,0,0-.44,1,1.31,1.31,0,0,0,.18.71,1.74,1.74,0,0,0,.58.56,9.45,9.45,0,0,0,1.45.7,8.26,8.26,0,0,1,1.73.91,2.85,2.85,0,0,1,.8,1A2.92,2.92,0,0,1,543.46,607.2Z" transform="translate(-318.39 -462.53)"/><path d="M549.23,610.11h-1.75V600.9h-3.15v-1.5h8v1.5h-3.15Z" transform="translate(-318.39 -462.53)"/><path d="M564.56,610.11l-1.07-3H559.4l-1,3H556.5l4-10.75h1.91l4,10.75ZM563,605.63l-1-2.92c-.08-.19-.18-.5-.31-.92s-.22-.73-.26-.92a19.58,19.58,0,0,1-.58,2l-1,2.79Z" transform="translate(-318.39 -462.53)"/><path d="M574.92,602.64a3.11,3.11,0,0,1-1.09,2.57,4.84,4.84,0,0,1-3.13.89h-1.12v4h-1.75V599.4h3.09a4.67,4.67,0,0,1,3,.82A3,3,0,0,1,574.92,602.64Zm-5.34,2h.94a3.27,3.27,0,0,0,2-.47,1.7,1.7,0,0,0,.63-1.46,1.67,1.67,0,0,0-.56-1.38,2.81,2.81,0,0,0-1.76-.45h-1.22Z" transform="translate(-318.39 -462.53)"/><path d="M577.06,610.11V599.4h1.75v10.71Z" transform="translate(-318.39 -462.53)"/><path d="M504.21,474.69l-1.14-3.18h-4.36l-1.12,3.18h-2l4.27-11.47h2l4.28,11.47Zm-1.63-4.79-1.07-3.1c-.08-.21-.19-.54-.32-1s-.24-.77-.29-1a15.91,15.91,0,0,1-.62,2.1l-1,3Z" transform="translate(-318.39 -462.53)"/><path d="M511.89,474.84a3,3,0,0,1-2.54-1.18h-.11c.07.73.11,1.17.11,1.33v3.54h-1.84V466.05H509c0,.16.12.54.25,1.15h.1a2.87,2.87,0,0,1,2.57-1.31,3,3,0,0,1,2.52,1.17,6.39,6.39,0,0,1,0,6.59A3,3,0,0,1,511.89,474.84Zm-.44-7.45a1.91,1.91,0,0,0-1.6.64,3.31,3.31,0,0,0-.5,2.05v.27a4,4,0,0,0,.5,2.29,1.84,1.84,0,0,0,1.63.7,1.66,1.66,0,0,0,1.47-.78,4.07,4.07,0,0,0,.51-2.23,3.87,3.87,0,0,0-.51-2.19A1.7,1.7,0,0,0,511.45,467.39Z" transform="translate(-318.39 -462.53)"/><path d="M521.86,474.84a3,3,0,0,1-2.54-1.18h-.11c.07.73.11,1.17.11,1.33v3.54h-1.84V466.05H519c0,.16.13.54.26,1.15h.1a2.87,2.87,0,0,1,2.57-1.31,3,3,0,0,1,2.52,1.17,6.39,6.39,0,0,1,0,6.59A3,3,0,0,1,521.86,474.84Zm-.44-7.45a1.91,1.91,0,0,0-1.6.64,3.31,3.31,0,0,0-.5,2.05v.27a4,4,0,0,0,.5,2.29,1.84,1.84,0,0,0,1.63.7,1.67,1.67,0,0,0,1.47-.78,4.07,4.07,0,0,0,.51-2.23,3.87,3.87,0,0,0-.51-2.19A1.7,1.7,0,0,0,521.42,467.39Z" transform="translate(-318.39 -462.53)"/><path d="M529.28,474.69h-1.83V462.53h1.83Z" transform="translate(-318.39 -462.53)"/><path d="M531.8,463.76a1,1,0,0,1,.27-.76,1,1,0,0,1,.77-.27.94.94,0,0,1,1,1,1,1,0,0,1-.27.73,1,1,0,0,1-.75.27,1,1,0,0,1-.77-.27A1,1,0,0,1,531.8,463.76Zm2,10.93h-1.84v-8.64h1.84Z" transform="translate(-318.39 -462.53)"/><path d="M539.85,474.84a3.8,3.8,0,0,1-3-1.14,5.8,5.8,0,0,1,0-6.64,4,4,0,0,1,3.08-1.17,5.76,5.76,0,0,1,2.46.51l-.55,1.47a5.63,5.63,0,0,0-1.92-.45c-1.5,0-2.24,1-2.24,3a3.58,3.58,0,0,0,.55,2.18,1.94,1.94,0,0,0,1.64.73,4.65,4.65,0,0,0,2.32-.61v1.6a3.67,3.67,0,0,1-1,.42A6.53,6.53,0,0,1,539.85,474.84Z" transform="translate(-318.39 -462.53)"/><path d="M549.7,474.69l-.37-1.21h-.06a3.57,3.57,0,0,1-1.26,1.08,4,4,0,0,1-1.62.28,2.74,2.74,0,0,1-2-.69,2.54,2.54,0,0,1-.72-1.94,2.3,2.3,0,0,1,1-2,5.77,5.77,0,0,1,3-.74l1.49-.05v-.46a1.71,1.71,0,0,0-.39-1.23,1.53,1.53,0,0,0-1.2-.41,4.16,4.16,0,0,0-1.27.19,8.62,8.62,0,0,0-1.17.46l-.59-1.31a6.19,6.19,0,0,1,1.53-.56,7,7,0,0,1,1.58-.19,3.74,3.74,0,0,1,2.49.72,2.81,2.81,0,0,1,.84,2.26v5.82ZM547,473.44a2.29,2.29,0,0,0,1.61-.56,2,2,0,0,0,.6-1.57v-.75l-1.1.05a3.75,3.75,0,0,0-1.89.43,1.33,1.33,0,0,0-.59,1.19,1.15,1.15,0,0,0,.34.89A1.49,1.49,0,0,0,547,473.44Z" transform="translate(-318.39 -462.53)"/><path d="M556.79,473.36a4.52,4.52,0,0,0,1.35-.21v1.38a3.82,3.82,0,0,1-.79.22,5.39,5.39,0,0,1-1,.09c-1.73,0-2.6-.91-2.6-2.75v-4.65h-1.18v-.82l1.26-.67.63-1.83h1.13v1.93h2.46v1.39h-2.46v4.62a1.3,1.3,0,0,0,.33,1A1.21,1.21,0,0,0,556.79,473.36Z" transform="translate(-318.39 -462.53)"/><path d="M559.75,463.76A1,1,0,0,1,560,463a1,1,0,0,1,.77-.27.94.94,0,0,1,1,1,1,1,0,0,1-.27.73,1,1,0,0,1-.76.27,1,1,0,0,1-.77-.27A1,1,0,0,1,559.75,463.76Zm2,10.93h-1.84v-8.64h1.84Z" transform="translate(-318.39 -462.53)"/><path d="M572,470.35a4.72,4.72,0,0,1-1.09,3.3,3.85,3.85,0,0,1-3,1.19,4.17,4.17,0,0,1-2.14-.54,3.63,3.63,0,0,1-1.43-1.57,5.31,5.31,0,0,1-.5-2.38,4.68,4.68,0,0,1,1.08-3.28,3.87,3.87,0,0,1,3-1.18,3.79,3.79,0,0,1,3,1.21A4.65,4.65,0,0,1,572,470.35Zm-6.29,0c0,2,.74,3,2.21,3s2.19-1,2.19-3-.74-3-2.21-3a1.86,1.86,0,0,0-1.67.76A3.91,3.91,0,0,0,565.7,470.35Z" transform="translate(-318.39 -462.53)"/><path d="M581.7,474.69h-1.85v-5.32a2.32,2.32,0,0,0-.4-1.49,1.55,1.55,0,0,0-1.28-.49,2,2,0,0,0-1.7.69,3.77,3.77,0,0,0-.54,2.3v4.31H574.1v-8.64h1.43l.26,1.13h.1a2.53,2.53,0,0,1,1.11-.95,3.6,3.6,0,0,1,1.59-.34q3.1,0,3.11,3.16Z" transform="translate(-318.39 -462.53)"/><path d="M590.06,472.23a2.27,2.27,0,0,1-.92,1.94,4.44,4.44,0,0,1-2.64.67,6.24,6.24,0,0,1-2.78-.52v-1.59a6.82,6.82,0,0,0,2.84.71c1.13,0,1.69-.34,1.69-1a.8.8,0,0,0-.18-.54,2.42,2.42,0,0,0-.62-.46,13.09,13.09,0,0,0-1.2-.53,5.57,5.57,0,0,1-2-1.15,2.16,2.16,0,0,1-.52-1.5,2,2,0,0,1,.89-1.73,4.25,4.25,0,0,1,2.43-.61,7,7,0,0,1,2.89.62l-.6,1.38a6.29,6.29,0,0,0-2.35-.58c-1,0-1.45.28-1.45.83a.82.82,0,0,0,.38.69,8.82,8.82,0,0,0,1.65.77,7.65,7.65,0,0,1,1.55.76,2.14,2.14,0,0,1,.72.79A2.27,2.27,0,0,1,590.06,472.23Z" transform="translate(-318.39 -462.53)"/><path d="M594,473a26.08,26.08,0,0,1-1.38,3.74h-1.35a39.28,39.28,0,0,0,.81-3.92h1.8Z" transform="translate(-318.39 -462.53)"/><path d="M485.69,483.9a3.07,3.07,0,0,0-2.53,1.14,6,6,0,0,0,0,6.33,3.15,3.15,0,0,0,2.57,1.08,6.55,6.55,0,0,0,1.41-.15c.45-.09.92-.22,1.41-.37v1.6a8.52,8.52,0,0,1-3.05.51,4.85,4.85,0,0,1-3.85-1.52,6.37,6.37,0,0,1-1.34-4.34,7.1,7.1,0,0,1,.65-3.12,4.75,4.75,0,0,1,1.89-2.05,5.74,5.74,0,0,1,2.9-.71,7.32,7.32,0,0,1,3.23.73l-.67,1.56a11.05,11.05,0,0,0-1.22-.48A4.35,4.35,0,0,0,485.69,483.9Z" transform="translate(-318.39 -462.53)"/><path d="M498.44,489.55a4.72,4.72,0,0,1-1.08,3.3,3.89,3.89,0,0,1-3,1.19,4.17,4.17,0,0,1-2.14-.54,3.63,3.63,0,0,1-1.43-1.57,5.44,5.44,0,0,1-.5-2.38,4.68,4.68,0,0,1,1.08-3.28,3.9,3.9,0,0,1,3-1.18,3.79,3.79,0,0,1,3,1.21A4.65,4.65,0,0,1,498.44,489.55Zm-6.29,0c0,2,.74,3,2.21,3s2.19-1,2.19-3-.73-3-2.2-3a1.89,1.89,0,0,0-1.68.76A4,4,0,0,0,492.15,489.55Z" transform="translate(-318.39 -462.53)"/><path d="M508.15,493.89h-1.84v-5.32a2.39,2.39,0,0,0-.4-1.49,1.56,1.56,0,0,0-1.28-.49,2,2,0,0,0-1.7.69,3.77,3.77,0,0,0-.54,2.3v4.31h-1.84v-8.64H502l.26,1.13h.09a2.53,2.53,0,0,1,1.11-.95,3.63,3.63,0,0,1,1.59-.34c2.08,0,3.11,1.05,3.11,3.16Z" transform="translate(-318.39 -462.53)"/><path d="M513.93,492.56a4.51,4.51,0,0,0,1.34-.21v1.38a3.65,3.65,0,0,1-.79.22,5.36,5.36,0,0,1-1,.09c-1.74,0-2.61-.91-2.61-2.75v-4.65H509.7v-.82l1.26-.67.63-1.83h1.13v1.93h2.46v1.39h-2.46v4.62a1.3,1.3,0,0,0,.33,1A1.25,1.25,0,0,0,513.93,492.56Z" transform="translate(-318.39 -462.53)"/><path d="M516.72,492.91a1.22,1.22,0,0,1,.3-.88,1.36,1.36,0,0,1,1.73,0,1.43,1.43,0,0,1,0,1.74,1.14,1.14,0,0,1-.86.32,1.09,1.09,0,0,1-.86-.32A1.24,1.24,0,0,1,516.72,492.91Z" transform="translate(-318.39 -462.53)"/><path d="M525.75,493.89V482.46h1.86v11.43Z" transform="translate(-318.39 -462.53)"/><path d="M538,493.89h-1.85v-5.32a2.32,2.32,0,0,0-.4-1.49,1.56,1.56,0,0,0-1.28-.49,2,2,0,0,0-1.7.69,3.77,3.77,0,0,0-.54,2.3v4.31h-1.84v-8.64h1.44l.26,1.13h.09a2.53,2.53,0,0,1,1.11-.95,3.64,3.64,0,0,1,1.6-.34q3.11,0,3.11,3.16Z" transform="translate(-318.39 -462.53)"/><path d="M543.81,492.56a4.46,4.46,0,0,0,1.34-.21v1.38a3.54,3.54,0,0,1-.78.22,5.47,5.47,0,0,1-1,.09c-1.74,0-2.61-.91-2.61-2.75v-4.65h-1.18v-.82l1.27-.67.62-1.83h1.14v1.93h2.46v1.39h-2.46v4.62a1.3,1.3,0,0,0,.33,1A1.21,1.21,0,0,0,543.81,492.56Z" transform="translate(-318.39 -462.53)"/><path d="M550.65,494a4.19,4.19,0,0,1-3.15-1.17,4.48,4.48,0,0,1-1.14-3.24,4.88,4.88,0,0,1,1.06-3.33,3.63,3.63,0,0,1,2.9-1.21,3.56,3.56,0,0,1,2.7,1,4,4,0,0,1,1,2.86v1h-5.76a2.88,2.88,0,0,0,.68,1.93,2.38,2.38,0,0,0,1.81.68,6.38,6.38,0,0,0,1.42-.15,6.61,6.61,0,0,0,1.42-.48v1.5a5.86,5.86,0,0,1-1.36.45A8.23,8.23,0,0,1,550.65,494Zm-.33-7.56a1.9,1.9,0,0,0-1.41.55,2.61,2.61,0,0,0-.62,1.62h3.92a2.42,2.42,0,0,0-.52-1.62A1.74,1.74,0,0,0,550.32,486.48Z" transform="translate(-318.39 -462.53)"/><path d="M563.39,485.25v1l-1.47.28a2.21,2.21,0,0,1,.33.67,2.77,2.77,0,0,1-.79,2.94,3.84,3.84,0,0,1-2.53.77,4.22,4.22,0,0,1-.75-.06,1,1,0,0,0-.6.86.47.47,0,0,0,.28.44,2.35,2.35,0,0,0,1,.15h1.51a3.34,3.34,0,0,1,2.17.61,2.16,2.16,0,0,1,.74,1.76,2.54,2.54,0,0,1-1.21,2.26,6.38,6.38,0,0,1-3.5.8,4.81,4.81,0,0,1-2.7-.63,2,2,0,0,1-.93-1.78,1.9,1.9,0,0,1,.51-1.34,2.66,2.66,0,0,1,1.41-.75,1.35,1.35,0,0,1-.61-.5A1.28,1.28,0,0,1,556,492a1.25,1.25,0,0,1,.27-.82,3,3,0,0,1,.81-.67,2.41,2.41,0,0,1-1.09-.94,3.07,3.07,0,0,1,.47-3.71,3.75,3.75,0,0,1,2.53-.77,7.09,7.09,0,0,1,.77.05,3.64,3.64,0,0,1,.6.11Zm-6.78,10a1,1,0,0,0,.53.91,2.88,2.88,0,0,0,1.5.32,4.53,4.53,0,0,0,2.24-.43,1.27,1.27,0,0,0,.73-1.14.86.86,0,0,0-.4-.8,3.23,3.23,0,0,0-1.5-.24h-1.39a1.94,1.94,0,0,0-1.25.38A1.2,1.2,0,0,0,556.61,495.23Zm.78-7.19a1.73,1.73,0,0,0,.42,1.25,1.59,1.59,0,0,0,1.2.44c1.06,0,1.6-.57,1.6-1.7a1.92,1.92,0,0,0-.4-1.3,1.48,1.48,0,0,0-1.2-.46,1.57,1.57,0,0,0-1.21.45A1.91,1.91,0,0,0,557.39,488Z" transform="translate(-318.39 -462.53)"/><path d="M569.38,485.09a4.51,4.51,0,0,1,.91.08l-.18,1.71a3.59,3.59,0,0,0-.81-.1,2.34,2.34,0,0,0-1.78.72,2.59,2.59,0,0,0-.69,1.87v4.52H565v-8.64h1.43l.25,1.52h.09a3.42,3.42,0,0,1,1.12-1.23A2.68,2.68,0,0,1,569.38,485.09Z" transform="translate(-318.39 -462.53)"/><path d="M577.3,493.89l-.37-1.21h-.06a3.49,3.49,0,0,1-1.26,1.08A4,4,0,0,1,574,494a2.75,2.75,0,0,1-2-.69,2.53,2.53,0,0,1-.71-1.94,2.3,2.3,0,0,1,1-2,5.73,5.73,0,0,1,3-.74l1.49,0v-.46a1.76,1.76,0,0,0-.38-1.23,1.56,1.56,0,0,0-1.2-.41,4.18,4.18,0,0,0-1.28.19,11.84,11.84,0,0,0-1.17.46l-.59-1.31a6.26,6.26,0,0,1,1.54-.56,6.87,6.87,0,0,1,1.58-.19,3.73,3.73,0,0,1,2.48.72,2.81,2.81,0,0,1,.84,2.26v5.82Zm-2.73-1.25a2.28,2.28,0,0,0,1.6-.56,2,2,0,0,0,.61-1.57v-.75l-1.11.05a3.75,3.75,0,0,0-1.89.43,1.33,1.33,0,0,0-.59,1.19,1.15,1.15,0,0,0,.35.89A1.46,1.46,0,0,0,574.57,492.64Z" transform="translate(-318.39 -462.53)"/><path d="M584.39,492.56a4.52,4.52,0,0,0,1.35-.21v1.38a3.65,3.65,0,0,1-.79.22,5.36,5.36,0,0,1-1,.09c-1.74,0-2.61-.91-2.61-2.75v-4.65h-1.18v-.82l1.26-.67.63-1.83h1.13v1.93h2.46v1.39h-2.46v4.62a1.3,1.3,0,0,0,.33,1A1.23,1.23,0,0,0,584.39,492.56Z" transform="translate(-318.39 -462.53)"/><path d="M587.36,483a1.06,1.06,0,0,1,.26-.76,1,1,0,0,1,.77-.27.94.94,0,0,1,1,1,1,1,0,0,1-.27.73,1,1,0,0,1-.76.27,1,1,0,0,1-.77-.27A1,1,0,0,1,587.36,483Zm1.94,10.93h-1.84v-8.64h1.84Z" transform="translate(-318.39 -462.53)"/><path d="M599.59,489.55a4.68,4.68,0,0,1-1.09,3.3,3.85,3.85,0,0,1-3,1.19,4.17,4.17,0,0,1-2.14-.54,3.63,3.63,0,0,1-1.43-1.57,5.44,5.44,0,0,1-.5-2.38,4.68,4.68,0,0,1,1.08-3.28,3.9,3.9,0,0,1,3-1.18,3.79,3.79,0,0,1,3,1.21A4.65,4.65,0,0,1,599.59,489.55Zm-6.29,0c0,2,.74,3,2.21,3s2.19-1,2.19-3-.74-3-2.2-3a1.89,1.89,0,0,0-1.68.76A3.91,3.91,0,0,0,593.3,489.55Z" transform="translate(-318.39 -462.53)"/><path d="M609.3,493.89h-1.84v-5.32a2.32,2.32,0,0,0-.41-1.49,1.53,1.53,0,0,0-1.27-.49,2,2,0,0,0-1.71.69,3.78,3.78,0,0,0-.53,2.3v4.31H601.7v-8.64h1.44l.25,1.13h.1a2.53,2.53,0,0,1,1.11-.95,3.63,3.63,0,0,1,1.59-.34q3.1,0,3.11,3.16Z" transform="translate(-318.39 -462.53)"/><path d="M613.76,492.21a27.09,27.09,0,0,1-1.37,3.74H611c.35-1.41.62-2.71.8-3.92h1.8Z" transform="translate(-318.39 -462.53)"/><path d="M509.64,513.09l-1.14-3.18h-4.37L503,513.09h-2l4.28-11.47h2l4.27,11.47ZM508,508.3l-1.07-3.1c-.07-.21-.18-.54-.32-1s-.23-.77-.29-1a17.42,17.42,0,0,1-.61,2.1l-1,3Z" transform="translate(-318.39 -462.53)"/><path d="M519,513.09l-.26-1.14h-.09a2.67,2.67,0,0,1-1.09.95,3.67,3.67,0,0,1-1.62.34,3.16,3.16,0,0,1-2.34-.78,3.22,3.22,0,0,1-.77-2.37v-5.64h1.85v5.32a2.31,2.31,0,0,0,.4,1.49,1.57,1.57,0,0,0,1.28.5,2,2,0,0,0,1.7-.69,3.84,3.84,0,0,0,.54-2.32v-4.3h1.84v8.64Z" transform="translate(-318.39 -462.53)"/><path d="M526.31,511.76a4.46,4.46,0,0,0,1.34-.21v1.38a3.54,3.54,0,0,1-.78.22,5.47,5.47,0,0,1-1,.09c-1.74,0-2.61-.91-2.61-2.75v-4.65h-1.18V505l1.27-.67.62-1.83h1.14v1.93h2.46v1.39h-2.46v4.62a1.3,1.3,0,0,0,.33,1A1.21,1.21,0,0,0,526.31,511.76Z" transform="translate(-318.39 -462.53)"/><path d="M537,508.75a4.72,4.72,0,0,1-1.08,3.3,3.89,3.89,0,0,1-3,1.19,4.2,4.2,0,0,1-2.14-.54,3.66,3.66,0,0,1-1.43-1.58,5.37,5.37,0,0,1-.5-2.37,4.68,4.68,0,0,1,1.08-3.28,3.9,3.9,0,0,1,3-1.18,3.79,3.79,0,0,1,3,1.21A4.65,4.65,0,0,1,537,508.75Zm-6.29,0c0,2,.74,3,2.21,3s2.19-1,2.19-3-.73-3-2.2-3a1.89,1.89,0,0,0-1.68.76A4,4,0,0,0,530.75,508.75Z" transform="translate(-318.39 -462.53)"/><path d="M546.43,513.09h-1.84v-5.33a2.4,2.4,0,0,0-.38-1.48,1.37,1.37,0,0,0-1.17-.49,1.79,1.79,0,0,0-1.56.69,4.07,4.07,0,0,0-.49,2.3v4.31h-1.84v-8.64h1.44l.26,1.13h.09a2.48,2.48,0,0,1,1-1,3.44,3.44,0,0,1,1.51-.33,2.62,2.62,0,0,1,2.64,1.36h.12a2.67,2.67,0,0,1,1.08-1,3.43,3.43,0,0,1,1.6-.36,2.9,2.9,0,0,1,2.25.78,3.47,3.47,0,0,1,.71,2.38v5.64h-1.84v-5.33a2.4,2.4,0,0,0-.38-1.48,1.37,1.37,0,0,0-1.17-.49,1.81,1.81,0,0,0-1.57.67,3.44,3.44,0,0,0-.5,2.05Z" transform="translate(-318.39 -462.53)"/><path d="M559.86,513.09l-.37-1.21h-.06a3.57,3.57,0,0,1-1.26,1.08,4,4,0,0,1-1.63.28,2.75,2.75,0,0,1-2-.69,2.57,2.57,0,0,1-.71-1.94,2.3,2.3,0,0,1,1-2,5.74,5.74,0,0,1,3-.74l1.49-.05v-.46a1.71,1.71,0,0,0-.39-1.23,1.56,1.56,0,0,0-1.2-.41,4.11,4.11,0,0,0-1.27.19,8.62,8.62,0,0,0-1.17.46l-.6-1.31a6.26,6.26,0,0,1,1.54-.56,6.94,6.94,0,0,1,1.58-.19,3.74,3.74,0,0,1,2.49.72,2.81,2.81,0,0,1,.84,2.26v5.82Zm-2.74-1.25a2.3,2.3,0,0,0,1.61-.56,2,2,0,0,0,.6-1.57V509l-1.11.05a3.74,3.74,0,0,0-1.88.43,1.3,1.3,0,0,0-.59,1.18,1.15,1.15,0,0,0,.34.9A1.48,1.48,0,0,0,557.12,511.84Z" transform="translate(-318.39 -462.53)"/><path d="M567,511.76a4.46,4.46,0,0,0,1.34-.21v1.38a3.54,3.54,0,0,1-.78.22,5.39,5.39,0,0,1-1,.09c-1.74,0-2.61-.91-2.61-2.75v-4.65h-1.18V505l1.27-.67.62-1.83h1.14v1.93h2.46v1.39h-2.46v4.62a1.3,1.3,0,0,0,.33,1A1.21,1.21,0,0,0,567,511.76Z" transform="translate(-318.39 -462.53)"/><path d="M569.91,502.16a1,1,0,0,1,.27-.76,1,1,0,0,1,.77-.27.94.94,0,0,1,1,1,1,1,0,0,1-.27.73,1,1,0,0,1-.75.27,1,1,0,0,1-.77-.27A1,1,0,0,1,569.91,502.16Zm2,10.93H570v-8.64h1.84Z" transform="translate(-318.39 -462.53)"/><path d="M582.14,508.75a4.72,4.72,0,0,1-1.08,3.3,3.87,3.87,0,0,1-3,1.19,4.21,4.21,0,0,1-2.15-.54,3.66,3.66,0,0,1-1.43-1.58,5.37,5.37,0,0,1-.5-2.37,4.68,4.68,0,0,1,1.08-3.28,3.9,3.9,0,0,1,3-1.18,3.79,3.79,0,0,1,3,1.21A4.65,4.65,0,0,1,582.14,508.75Zm-6.28,0c0,2,.73,3,2.21,3s2.18-1,2.18-3-.73-3-2.2-3a1.86,1.86,0,0,0-1.67.76A3.91,3.91,0,0,0,575.86,508.75Z" transform="translate(-318.39 -462.53)"/><path d="M591.86,513.09H590v-5.32a2.32,2.32,0,0,0-.4-1.49,1.55,1.55,0,0,0-1.28-.49,2,2,0,0,0-1.7.69,3.77,3.77,0,0,0-.54,2.3v4.31h-1.84v-8.64h1.44l.26,1.13H586a2.61,2.61,0,0,1,1.11-1,3.78,3.78,0,0,1,1.6-.33q3.11,0,3.11,3.16Z" transform="translate(-318.39 -462.53)"/><path d="M374.28,485.9a5.69,5.69,0,0,1-1.57,4.33,6.3,6.3,0,0,1-4.52,1.49H365V480.3h3.53a5.83,5.83,0,0,1,4.24,1.47A5.5,5.5,0,0,1,374.28,485.9Zm-2,.07q0-4.11-3.83-4.11h-1.62v8.29h1.33Q372.32,490.15,372.31,486Z" transform="translate(-318.39 -462.53)"/><path d="M380.31,491.88a4.16,4.16,0,0,1-3.15-1.18,4.44,4.44,0,0,1-1.14-3.23,4.88,4.88,0,0,1,1.06-3.33,3.63,3.63,0,0,1,2.9-1.21,3.53,3.53,0,0,1,2.7,1,4,4,0,0,1,1,2.86v1h-5.76a2.88,2.88,0,0,0,.68,1.93,2.38,2.38,0,0,0,1.81.68,6.38,6.38,0,0,0,1.42-.15,6.61,6.61,0,0,0,1.42-.48v1.49a5.46,5.46,0,0,1-1.36.46A8.23,8.23,0,0,1,380.31,491.88Zm-.33-7.56a1.85,1.85,0,0,0-1.41.55,2.67,2.67,0,0,0-.63,1.62h3.93a2.47,2.47,0,0,0-.52-1.62A1.74,1.74,0,0,0,380,484.32Z" transform="translate(-318.39 -462.53)"/><path d="M387.73,491.72l-3.29-8.64h1.94l1.76,5a10.57,10.57,0,0,1,.55,2h.06a14.16,14.16,0,0,1,.55-2l1.75-5h2l-3.3,8.64Z" transform="translate(-318.39 -462.53)"/><path d="M404.65,486a6.23,6.23,0,0,1-1.39,4.33,5.86,5.86,0,0,1-7.92,0A6.28,6.28,0,0,1,394,486a6.19,6.19,0,0,1,1.4-4.34,5.13,5.13,0,0,1,4-1.52,5,5,0,0,1,3.93,1.54A6.24,6.24,0,0,1,404.65,486Zm-8.71,0a5.13,5.13,0,0,0,.85,3.2,3.46,3.46,0,0,0,5,0,6.48,6.48,0,0,0,0-6.4,3,3,0,0,0-2.5-1.09,3.05,3.05,0,0,0-2.54,1.09A5.08,5.08,0,0,0,395.94,486Z" transform="translate(-318.39 -462.53)"/><path d="M411.3,491.88a3,3,0,0,1-2.55-1.18h-.11c.07.73.11,1.17.11,1.33v3.54h-1.84V483.08h1.49c0,.17.12.55.25,1.16h.1a2.86,2.86,0,0,1,2.58-1.31,3,3,0,0,1,2.52,1.17,6.42,6.42,0,0,1,0,6.59A3,3,0,0,1,411.3,491.88Zm-.45-7.45a1.91,1.91,0,0,0-1.6.64,3.36,3.36,0,0,0-.5,2v.28a4.05,4.05,0,0,0,.5,2.28,1.84,1.84,0,0,0,1.63.71,1.65,1.65,0,0,0,1.47-.78,4.06,4.06,0,0,0,.52-2.23,3.9,3.9,0,0,0-.52-2.2A1.71,1.71,0,0,0,410.85,484.43Z" transform="translate(-318.39 -462.53)"/><path d="M422.69,489.26a2.24,2.24,0,0,1-.93,1.94,4.33,4.33,0,0,1-2.64.68,6.22,6.22,0,0,1-2.77-.52v-1.59a6.8,6.8,0,0,0,2.84.7c1.13,0,1.69-.34,1.69-1a.8.8,0,0,0-.19-.55,2.4,2.4,0,0,0-.61-.45,10.81,10.81,0,0,0-1.2-.53,5.56,5.56,0,0,1-2-1.16,2.13,2.13,0,0,1-.53-1.5,2,2,0,0,1,.9-1.72,4.25,4.25,0,0,1,2.43-.61,6.94,6.94,0,0,1,2.89.61l-.6,1.39a6.29,6.29,0,0,0-2.35-.58c-1,0-1.45.28-1.45.83a.8.8,0,0,0,.38.68,8.05,8.05,0,0,0,1.65.78,7.16,7.16,0,0,1,1.55.76,2.14,2.14,0,0,1,.72.79A2.25,2.25,0,0,1,422.69,489.26Z" transform="translate(-318.39 -462.53)"/><line class="i" x1="75.28" y1="39.85" x2="75.28" y2="126.04"/><circle class="c" cx="75.28" cy="40.07" r="3.76"/><path class="j" d="M389.41,502.59a4.26,4.26,0,1,0,4.26-4.25,4.26,4.26,0,0,0-4.26,4.25Zm7.52,0a3.26,3.26,0,1,1-3.26-3.25,3.26,3.26,0,0,1,3.26,3.25Z" transform="translate(-318.39 -462.53)"/><path class="c" d="M389.91,588.36a3.76,3.76,0,1,0,3.76-3.76A3.77,3.77,0,0,0,389.91,588.36Z" transform="translate(-318.39 -462.53)"/><path class="j" d="M389.41,588.36a4.26,4.26,0,1,1,4.26,4.26,4.26,4.26,0,0,1-4.26-4.26Zm7.52,0a3.26,3.26,0,1,0-3.26,3.26,3.26,3.26,0,0,0,3.26-3.26Z" transform="translate(-318.39 -462.53)"/><line class="i" x1="230.68" y1="61.31" x2="230.68" y2="126.04"/><path class="c" d="M545.31,524.05a3.76,3.76,0,1,1,3.76,3.76A3.76,3.76,0,0,1,545.31,524.05Z" transform="translate(-318.39 -462.53)"/><path class="j" d="M544.81,524.05a4.26,4.26,0,1,0,4.26-4.26,4.26,4.26,0,0,0-4.26,4.26Zm7.52,0a3.26,3.26,0,1,1-3.26-3.26,3.26,3.26,0,0,1,3.26,3.26Z" transform="translate(-318.39 -462.53)"/><path class="c" d="M545.31,588.36a3.76,3.76,0,1,0,3.76-3.76A3.76,3.76,0,0,0,545.31,588.36Z" transform="translate(-318.39 -462.53)"/><path class="j" d="M544.81,588.36a4.26,4.26,0,1,1,4.26,4.26,4.26,4.26,0,0,1-4.26-4.26Zm7.52,0a3.26,3.26,0,1,0-3.26,3.26,3.26,3.26,0,0,0,3.26-3.26Z" transform="translate(-318.39 -462.53)"/></svg>