<svg xmlns="http://www.w3.org/2000/svg" viewBox="0 0 44 42.08"><defs><style>.a{fill:#fff;}.b{fill:none;stroke:#159bc0;stroke-miterlimit:10;}</style></defs><title>chat-white</title><path class="a" d="M12,7.36c0,2.28-.52,5-3,5s-3-2.72-3-5c0-3.18,1.09-5,3-5,2.61,0,3,3.13,3,5m-8,0c0,6.49,3.83,7,5,7s5-.51,5-7-3.83-7-5-7c-2.42,0-5,1.84-5,7" transform="translate(0 0)"/><path class="a" d="M16,30.36H2v-5a7,7,0,0,1,14,0Zm-7-14a9,9,0,0,0-9,9v6a1,1,0,0,0,1,1H17a1,1,0,0,0,1-1v-6a9,9,0,0,0-9-9Z" transform="translate(0 0)"/><path class="a" d="M38,7.36c0,2.28-.52,5-3,5s-3-2.72-3-5c0-3.18,1.09-5,3-5,2.61,0,3,3.13,3,5m-8,0c0,6.49,3.83,7,5,7s5-.51,5-7-3.83-7-5-7c-2.42,0-5,1.84-5,7" transform="translate(0 0)"/><path class="a" d="M42,30.36H28v-5a7,7,0,0,1,14,0Zm-7-14a9,9,0,0,0-9,9v6a1,1,0,0,0,1,1H43a1,1,0,0,0,1-1v-6a9,9,0,0,0-9-9Z" transform="translate(0 0)"/><path class="a" d="M18.24,3.12a1,1,0,1,0-1.41,1.41,4,4,0,0,1,0,5.66,1,1,0,1,0,1.41,1.41,6,6,0,0,0,0-8.48" transform="translate(0 0)"/><path class="a" d="M19.66.29a1,1,0,0,0,0,1.41,8,8,0,0,1,0,11.31,1,1,0,1,0,1.41,1.41,10,10,0,0,0,0-14.14,1,1,0,0,0-1.41,0" transform="translate(0 0)"/><line class="b" y1="41.58" x2="44" y2="41.58"/></svg>