<svg xmlns="http://www.w3.org/2000/svg" xmlns:xlink="http://www.w3.org/1999/xlink" viewBox="0 0 160 53.74"><defs><style>.a{opacity:0.3;}.b{fill:#bfbfbf;}.c{fill:url(#a);}.d{fill:url(#b);}.e{fill:url(#c);}.f{fill:url(#d);}.g{fill:url(#e);}.h{fill:url(#f);}.i{fill:url(#g);}.j{fill:url(#h);}.k{fill:url(#i);}.l{fill:url(#j);}.m{fill:url(#k);}.n{fill:url(#l);}.o{fill:url(#m);}.p{fill:url(#n);}.q{fill:url(#o);}.r{fill:url(#p);}.s{fill:url(#q);}.t{fill:url(#r);}.u{fill:url(#s);}.v{fill:url(#t);}.w{fill:url(#u);}.x{fill:url(#v);}.y{fill:url(#w);}.z{fill:url(#x);}.aa{fill:url(#y);}.ab{fill:url(#z);}.ac{fill:url(#aa);}.ad{fill:url(#ab);}.ae{fill:url(#ac);}.af{fill:url(#ad);}.ag{fill:url(#ae);}.ah{fill:url(#af);}.ai{fill:#565e65;}.aj{fill:url(#ag);}.ak{fill:url(#ah);}.al{fill:url(#ai);}.am{fill:url(#aj);}.an{fill:url(#ak);}.ao{fill:url(#al);}.ap{fill:url(#am);}.aq{fill:url(#an);}.ar{fill:url(#ao);}.as{fill:url(#ap);}.at{fill:url(#aq);}.au{fill:url(#ar);}.av{fill:url(#as);}.aw{fill:url(#at);}.ax{fill:url(#au);}.ay{fill:url(#av);}.az{fill:url(#aw);}.ba{fill:url(#ax);}.bb{fill:url(#ay);}.bc{fill:url(#az);}.bd{fill:url(#ba);}.be{fill:url(#bb);}.bf{fill:url(#bc);}.bg{fill:url(#bd);}.bh{fill:url(#be);}.bi{fill:url(#bf);}.bj{fill:url(#bg);}.bk{fill:url(#bh);}.bl{fill:url(#bi);}.bm{fill:url(#bj);}.bn{fill:url(#bk);}.bo{fill:url(#bl);}.bp{fill:#9a9ea3;}</style><linearGradient id="a" x1="403.71" y1="89.74" x2="403.71" y2="84.15" gradientTransform="matrix(-0.69, -0.73, -0.73, 0.69, 497.54, 310.48)" gradientUnits="userSpaceOnUse"><stop offset="0" stop-color="#565e65"/><stop offset="1" stop-color="#bfbfbf"/></linearGradient><linearGradient id="b" x1="404.91" y1="92.99" x2="404.91" y2="84.18" gradientTransform="matrix(-0.93, -0.36, -0.36, 0.93, 566.01, 142.33)" xlink:href="#a"/><linearGradient id="c" x1="409.35" y1="96.26" x2="409.35" y2="84.18" gradientTransform="matrix(-0.42, -0.91, -0.91, 0.42, 404.85, 415.67)" xlink:href="#a"/><linearGradient id="d" x1="410.94" y1="96.23" x2="410.94" y2="82.45" gradientTransform="matrix(-0.99, 0.17, 0.17, 0.99, 541.16, -75.98)" xlink:href="#a"/><linearGradient id="e" x1="417.88" y1="94.53" x2="417.88" y2="76.29" gradientTransform="matrix(-0.43, -0.9, -0.9, 0.43, 400.97, 417.99)" xlink:href="#a"/><linearGradient id="f" x1="412.74" y1="95.81" x2="412.74" y2="76.32" gradientTransform="matrix(-1, -0.08, -0.08, 1, 566.62, 25.04)" xlink:href="#a"/><linearGradient id="g" x1="425.27" y1="94.32" x2="425.27" y2="83.74" gradientTransform="matrix(-0.87, -0.5, -0.5, 0.87, 549.61, 218.91)" xlink:href="#a"/><linearGradient id="h" x1="428.97" y1="87.42" x2="428.97" y2="83.52" gradientTransform="matrix(-0.39, -0.92, -0.92, 0.39, 379.9, 441.44)" xlink:href="#a"/><linearGradient id="i" x1="434.93" y1="93.3" x2="434.93" y2="77.2" gradientTransform="matrix(-0.99, 0.12, 0.12, 0.99, 547.86, -55.48)" xlink:href="#a"/><linearGradient id="j" x1="431.88" y1="87.48" x2="431.88" y2="77.18" gradientTransform="matrix(-0.93, -0.37, -0.37, 0.93, 560.22, 163.19)" xlink:href="#a"/><linearGradient id="k" x1="438.97" y1="88.29" x2="438.97" y2="82" gradientTransform="matrix(-0.97, 0.23, 0.23, 0.97, 511.69, -155.78)" xlink:href="#a"/><linearGradient id="l" x1="436.84" y1="93.85" x2="436.84" y2="82.01" gradientTransform="matrix(-0.98, -0.17, -0.17, 0.98, 570.75, 74.48)" xlink:href="#a"/><linearGradient id="m" x1="443.35" y1="88.52" x2="443.35" y2="76.3" gradientTransform="matrix(-0.89, -0.46, -0.46, 0.89, 548.81, 213.28)" xlink:href="#a"/><linearGradient id="n" x1="445.64" y1="92.42" x2="445.64" y2="76.33" gradientTransform="matrix(-0.99, -0.11, -0.11, 0.99, 568.02, 47.68)" xlink:href="#a"/><linearGradient id="o" x1="449.18" y1="85.46" x2="449.18" y2="76.43" gradientTransform="matrix(-0.5, -0.87, -0.87, 0.5, 406.85, 429.15)" xlink:href="#a"/><linearGradient id="p" x1="452.75" y1="85.65" x2="452.75" y2="75.34" gradientTransform="matrix(-0.98, -0.19, -0.19, 0.98, 567.89, 87.2)" xlink:href="#a"/><linearGradient id="q" x1="455.59" y1="83.16" x2="455.59" y2="75.32" gradientTransform="matrix(-0.43, -0.9, -0.9, 0.43, 373.25, 457.55)" xlink:href="#a"/><linearGradient id="r" x1="458.79" y1="77.31" x2="454.09" y2="75.21" gradientTransform="matrix(-0.92, -0.4, -0.4, 0.92, 552.74, 189)" gradientUnits="userSpaceOnUse"><stop offset="0.18" stop-color="#565e65"/><stop offset="0.29" stop-color="#767c80"/><stop offset="0.43" stop-color="#96999c"/><stop offset="0.56" stop-color="#adaeaf"/><stop offset="0.69" stop-color="#babbbb"/><stop offset="0.8" stop-color="#bfbfbf"/></linearGradient><linearGradient id="s" x1="460.45" y1="83.17" x2="463.4" y2="77.32" gradientTransform="matrix(-0.9, -0.43, -0.43, 0.9, 550.96, 207.28)" gradientUnits="userSpaceOnUse"><stop offset="0" stop-color="#565e65"/><stop offset="0.06" stop-color="#5f676d"/><stop offset="0.35" stop-color="#888d90"/><stop offset="0.61" stop-color="#a6a8aa"/><stop offset="0.84" stop-color="#b9b9b9"/><stop offset="1" stop-color="#bfbfbf"/></linearGradient><linearGradient id="t" x1="465.27" y1="81.43" x2="465.27" y2="76.94" gradientTransform="matrix(-0.97, 0.23, 0.23, 0.97, 511.69, -155.78)" xlink:href="#a"/><linearGradient id="u" x1="467.57" y1="77.07" x2="467.57" y2="72.33" gradientTransform="matrix(-0.49, -0.87, -0.87, 0.49, 385.77, 450.8)" gradientUnits="userSpaceOnUse"><stop offset="0" stop-color="#bfbfbf"/><stop offset="1" stop-color="#565e65"/></linearGradient><linearGradient id="v" x1="477.38" y1="77.28" x2="471.84" y2="72.21" gradientTransform="matrix(-0.78, -0.62, -0.62, 0.78, 503.84, 317.01)" gradientUnits="userSpaceOnUse"><stop offset="0" stop-color="#bfbfbf"/><stop offset="0.16" stop-color="#b7b8b8"/><stop offset="0.41" stop-color="#a1a4a6"/><stop offset="0.71" stop-color="#7e8387"/><stop offset="1" stop-color="#565e65"/></linearGradient><linearGradient id="w" x1="477.24" y1="76.78" x2="485.45" y2="76.78" gradientTransform="matrix(-1, 0.03, 0.03, 1, 558.45, -5.55)" gradientUnits="userSpaceOnUse"><stop offset="0" stop-color="#bfbfbf"/><stop offset="0.17" stop-color="#b9baba"/><stop offset="0.38" stop-color="#a9abac"/><stop offset="0.62" stop-color="#8f9296"/><stop offset="0.88" stop-color="#6a7076"/><stop offset="1" stop-color="#565e65"/></linearGradient><linearGradient id="x" x1="477.37" y1="85.34" x2="477.37" y2="77" gradientTransform="matrix(-1, -0.02, -0.02, 1, 563.45, 18.04)" xlink:href="#a"/><linearGradient id="y" x1="482.89" y1="82.91" x2="482.89" y2="76.92" gradientTransform="matrix(-0.88, -0.47, -0.47, 0.88, 541.73, 246.16)" xlink:href="#a"/><linearGradient id="z" x1="508.49" y1="82.6" x2="508.49" y2="73.42" gradientTransform="matrix(-0.28, -0.96, -0.96, 0.28, 271.73, 557.53)" xlink:href="#a"/><linearGradient id="aa" x1="504.72" y1="87.71" x2="504.72" y2="73.59" gradientTransform="matrix(-0.96, -0.28, -0.28, 0.96, 564.69, 156.98)" xlink:href="#a"/><linearGradient id="ab" x1="510.25" y1="80.23" x2="510.25" y2="73.32" gradientTransform="matrix(-0.67, -0.74, -0.74, 0.67, 451.26, 416.95)" xlink:href="#a"/><linearGradient id="ac" x1="512.38" y1="77.85" x2="512.38" y2="73.3" gradientTransform="matrix(-0.92, -0.39, -0.39, 0.92, 550.57, 219.07)" xlink:href="#a"/><linearGradient id="ad" x1="516.01" y1="77.82" x2="516.01" y2="73.56" gradientTransform="matrix(-0.61, -0.79, -0.79, 0.61, 418.6, 455.57)" xlink:href="#a"/><linearGradient id="ae" x1="514.15" y1="79.86" x2="514.15" y2="73.59" gradientTransform="matrix(-0.98, -0.19, -0.19, 0.98, 566.82, 113.96)" xlink:href="#a"/><linearGradient id="af" x1="512.13" y1="82.4" x2="512.13" y2="73.24" gradientTransform="matrix(-0.97, 0.23, 0.23, 0.97, 511.69, -155.78)" xlink:href="#a"/><linearGradient id="ag" x1="34.49" y1="89.46" x2="34.49" y2="83.86" gradientTransform="matrix(0.73, 0.69, -0.69, 0.73, 75.13, 6.31)" gradientUnits="userSpaceOnUse"><stop offset="0" stop-color="#565e65"/><stop offset="1" stop-color="#9a9ea3"/></linearGradient><linearGradient id="ah" x1="35.69" y1="92.7" x2="35.69" y2="83.89" gradientTransform="translate(111.55 29.34) rotate(68.8)" xlink:href="#ag"/><linearGradient id="ai" x1="40.13" y1="95.97" x2="40.13" y2="83.89" gradientTransform="translate(47.62 -2.73) rotate(24.58)" xlink:href="#ag"/><linearGradient id="aj" x1="41.72" y1="95.95" x2="41.72" y2="82.16" gradientTransform="translate(21.88 -0.03) rotate(9.57)" xlink:href="#ag"/><linearGradient id="ak" x1="48.66" y1="94.24" x2="48.66" y2="76" gradientTransform="matrix(0.9, 0.43, -0.43, 0.9, 47.7, -7.66)" xlink:href="#ag"/><linearGradient id="al" x1="43.52" y1="95.52" x2="43.52" y2="76.03" gradientTransform="matrix(1, -0.08, 0.08, 1, -0.59, 9.28)" xlink:href="#ag"/><linearGradient id="am" x1="56.05" y1="94.03" x2="56.05" y2="83.45" gradientTransform="matrix(0.5, 0.87, -0.87, 0.5, 111.28, 0.13)" xlink:href="#ag"/><linearGradient id="an" x1="59.75" y1="87.13" x2="59.75" y2="83.23" gradientTransform="translate(44.42 -12.69) rotate(23.2)" xlink:href="#ag"/><linearGradient id="ao" x1="65.71" y1="93.01" x2="65.71" y2="76.92" gradientTransform="translate(16.79 -3.97) rotate(6.98)" xlink:href="#ag"/><linearGradient id="ap" x1="62.66" y1="87.19" x2="62.66" y2="76.89" gradientTransform="translate(121.1 -3.03) rotate(68.08)" xlink:href="#ag"/><linearGradient id="aq" x1="69.75" y1="88" x2="69.75" y2="81.71" gradientTransform="translate(37.98 -15.31) rotate(19.33)" xlink:href="#ag"/><linearGradient id="ar" x1="67.62" y1="93.56" x2="67.62" y2="81.72" gradientTransform="matrix(0.17, 0.98, -0.98, 0.17, 148.39, 8.99)" xlink:href="#ag"/><linearGradient id="as" x1="74.13" y1="88.23" x2="74.13" y2="76.01" gradientTransform="translate(118.29 -19) rotate(62.43)" xlink:href="#ag"/><linearGradient id="at" x1="76.42" y1="92.14" x2="76.42" y2="76.04" gradientTransform="translate(157.65 1.43) rotate(83.82)" xlink:href="#ag"/><linearGradient id="au" x1="79.96" y1="85.17" x2="79.96" y2="76.14" gradientTransform="translate(56.7 -27.17) rotate(30.08)" xlink:href="#ag"/><linearGradient id="av" x1="83.53" y1="85.36" x2="83.53" y2="75.05" gradientTransform="translate(152.11 -15.17) rotate(79.2)" xlink:href="#ag"/><linearGradient id="aw" x1="86.37" y1="82.87" x2="86.37" y2="75.03" gradientTransform="translate(47.88 -28.12) rotate(25.59)" xlink:href="#ag"/><linearGradient id="ax" x1="89.57" y1="77.02" x2="84.87" y2="74.93" gradientTransform="translate(127.21 -32.71) rotate(66.64)" gradientUnits="userSpaceOnUse"><stop offset="0.18" stop-color="#565e65"/><stop offset="0.33" stop-color="#71777d"/><stop offset="0.5" stop-color="#888d92"/><stop offset="0.66" stop-color="#959a9f"/><stop offset="0.8" stop-color="#9a9ea3"/></linearGradient><linearGradient id="ay" x1="91.23" y1="82.88" x2="94.18" y2="77.03" gradientTransform="matrix(0.42, 0.91, -0.91, 0.42, 130.74, -37.6)" xlink:href="#s"/><linearGradient id="az" x1="96.05" y1="81.14" x2="96.05" y2="76.65" gradientTransform="matrix(0.77, 0.64, -0.64, 0.77, 77.43, -42.58)" xlink:href="#ag"/><linearGradient id="ba" x1="98.35" y1="76.79" x2="98.35" y2="72.04" gradientTransform="matrix(0.87, 0.49, -0.49, 0.87, 53.61, -38.2)" xlink:href="#u"/><linearGradient id="bb" x1="108.16" y1="76.99" x2="102.62" y2="71.92" gradientTransform="matrix(0.62, 0.78, -0.78, 0.62, 103.02, -54.72)" gradientUnits="userSpaceOnUse"><stop offset="0" stop-color="#9a9ea3"/><stop offset="0.22" stop-color="#92979c"/><stop offset="0.56" stop-color="#7c8288"/><stop offset="0.97" stop-color="#596168"/><stop offset="1" stop-color="#565e65"/></linearGradient><linearGradient id="bc" x1="108.02" y1="76.49" x2="116.23" y2="76.49" gradientTransform="translate(7.12 -4.09) rotate(1.59)" gradientUnits="userSpaceOnUse"><stop offset="0" stop-color="#9a9ea3"/><stop offset="0.22" stop-color="#94999e"/><stop offset="0.5" stop-color="#848a8f"/><stop offset="0.81" stop-color="#6a7177"/><stop offset="1" stop-color="#565e65"/></linearGradient><linearGradient id="bd" x1="108.15" y1="85.05" x2="108.15" y2="76.71" gradientTransform="translate(3.56 1.87) rotate(-1.32)" xlink:href="#ag"/><linearGradient id="be" x1="113.67" y1="82.62" x2="113.67" y2="76.63" gradientTransform="translate(135.2 -59.37) rotate(61.72)" xlink:href="#ag"/><linearGradient id="bf" x1="139.27" y1="82.31" x2="139.27" y2="73.13" gradientTransform="translate(32.58 -39.79) rotate(16.41)" gradientUnits="userSpaceOnUse"><stop offset="0" stop-color="#9a9ea3"/><stop offset="1" stop-color="#565e65"/></linearGradient><linearGradient id="bg" x1="135.5" y1="87.42" x2="135.5" y2="73.3" gradientTransform="matrix(0.28, 0.96, -0.96, 0.28, 180.14, -75.43)" xlink:href="#bf"/><linearGradient id="bh" x1="154.32" y1="76.49" x2="154.5" y2="76.49" gradientTransform="translate(92.93 -78.75) rotate(42.27)" gradientUnits="userSpaceOnUse"><stop offset="0.21" stop-color="#9a9ea3"/><stop offset="0.4" stop-color="#909499"/><stop offset="0.72" stop-color="#747a80"/><stop offset="1" stop-color="#565e65"/></linearGradient><linearGradient id="bi" x1="148.24" y1="77.77" x2="138.53" y2="73.03" gradientTransform="translate(161.83 -89.84) rotate(67.22)" gradientUnits="userSpaceOnUse"><stop offset="0.17" stop-color="#9a9ea3"/><stop offset="0.44" stop-color="#878d92"/><stop offset="0.98" stop-color="#575f66"/><stop offset="1" stop-color="#565e65"/></linearGradient><linearGradient id="bj" x1="146.79" y1="77.53" x2="146.79" y2="73.27" gradientTransform="translate(80.53 -77.91) rotate(37.35)" xlink:href="#bf"/><linearGradient id="bk" x1="144.93" y1="79.57" x2="144.93" y2="73.31" gradientTransform="translate(197.28 -84.52) rotate(79.06)" xlink:href="#bf"/><linearGradient id="bl" x1="142.91" y1="82.11" x2="142.91" y2="72.95" gradientTransform="matrix(1, -0.1, 0.1, 1, -20.44, -44.95)" xlink:href="#bf"/></defs><title>bg</title><g class="a"><polygon class="b" points="151.55 11.33 151.58 11.15 143.29 9.87 143.26 10.04 151.55 11.33"/><rect class="b" x="170.09" y="66.25" width="0.18" height="6.47" transform="matrix(1, 0, 0, 1, -18.71, -54.73)"/><rect class="b" x="172.19" y="65.86" width="0.18" height="11.75" transform="translate(-32.87 11.86) rotate(-21.11)"/><rect class="b" x="160.86" y="67" width="9.39" height="0.18" transform="translate(-27.9 -24.49) rotate(-10.25)"/><rect class="b" x="162" y="67.76" width="0.18" height="8.85" transform="translate(-31.84 -10.07) rotate(-15.17)"/><rect class="b" x="159.75" y="66.52" width="3.55" height="0.18" transform="translate(27.09 142.4) rotate(-70.88)"/><rect class="b" x="145.31" y="68.02" width="15.62" height="0.18" transform="translate(-20.25 -51.16) rotate(-1.43)"/><rect class="b" x="152.69" y="71.09" width="9.53" height="0.18" transform="translate(-24.68 71.98) rotate(-43.17)"/><rect class="b" x="155.25" y="73.95" width="0.18" height="4.25" transform="translate(-31.27 62.16) rotate(-39.84)"/><rect class="b" x="152.18" y="71.85" width="0.18" height="3.73" transform="translate(23.5 147.08) rotate(-75.2)"/><rect class="b" x="147.75" y="67.25" width="0.18" height="7.16" transform="translate(-25.54 69.84) rotate(-44.84)"/><rect class="b" x="140.7" y="62.24" width="0.18" height="9.43" transform="translate(18.11 128.01) rotate(-73.55)"/><rect class="b" x="134.88" y="64.2" width="0.18" height="2.61" transform="translate(40.04 139.65) rotate(-85.31)"/><rect class="b" x="135.74" y="64.54" width="0.18" height="5.74" transform="translate(-26.73 60.02) rotate(-44.7)"/><rect class="b" x="136.92" y="65.32" width="0.18" height="4.3" transform="translate(-34.08 3.96) rotate(-23.03)"/><rect class="b" x="137.8" y="68.78" width="7.56" height="0.18" transform="translate(-27.44 -32.64) rotate(-8.76)"/><rect class="b" x="129.99" y="70.75" width="8.1" height="0.18" transform="translate(-34.75 -4.88) rotate(-20)"/><rect class="b" x="128.07" y="68.64" width="7.79" height="0.18" transform="translate(-6.88 101.36) rotate(-63.6)"/><rect class="b" x="127.84" y="72.15" width="2.4" height="0.18" transform="translate(-19.81 -52.8) rotate(-0.98)"/><rect class="b" x="131.4" y="72" width="0.18" height="7.22" transform="translate(-36.64 -4.87) rotate(-20.24)"/><rect class="b" x="127.22" y="74.74" width="5.6" height="0.18" transform="translate(22.17 140.39) rotate(-83.41)"/><rect class="b" x="126.15" y="73.99" width="4.93" height="0.18" transform="translate(-30.29 67.48) rotate(-48.98)"/><rect class="b" x="125.18" y="73.05" width="2.95" height="0.18" transform="translate(-37.22 35.05) rotate(-36.65)"/><rect class="b" x="125.6" y="73.07" width="4.82" height="0.18" transform="translate(-36.97 0.49) rotate(-22.87)"/><rect class="b" x="126.29" y="73.92" width="0.18" height="2.11" transform="translate(-38.97 27.52) rotate(-33.63)"/><rect class="b" x="116.42" y="74.09" width="9.42" height="0.18" transform="translate(-20.13 -52.45) rotate(-1.21)"/><rect class="b" x="121.26" y="76.6" width="6.24" height="0.18" transform="translate(-17.71 99.79) rotate(-63.97)"/><rect class="b" x="119.72" y="72.84" width="0.18" height="8.18" transform="translate(-33.67 67.53) rotate(-51.39)"/><rect class="b" x="113.1" y="75.02" width="3.54" height="0.18" transform="translate(-40.48 8.38) rotate(-28.28)"/><rect class="b" x="112.33" y="69.41" width="0.18" height="8.17" transform="translate(0.13 114.71) rotate(-78.95)"/><rect class="b" x="110.67" y="71.4" width="0.18" height="5.97" transform="translate(-29.07 75.09) rotate(-58.57)"/><polygon class="b" points="88.48 20.69 89.69 17.85 89.53 17.78 88.32 20.62 88.48 20.69"/><polygon class="b" points="94.57 21.09 94.57 20.92 88.45 20.78 88.45 20.96 94.57 21.09"/><rect class="b" x="98.55" y="77.35" width="7.41" height="0.18" transform="translate(-30.61 -35.85) rotate(-10.12)"/><rect class="b" x="106.08" y="76.78" width="0.18" height="5.05" transform="translate(-26.12 -43.8) rotate(-5.84)"/><rect class="b" x="99.79" y="79.81" width="7.7" height="0.18" transform="translate(-40.61 61.47) rotate(-53.86)"/><rect class="b" x="99.96" y="77.71" width="0.18" height="5.87" transform="translate(-45.29 4.37) rotate(-29.35)"/><rect class="b" x="101.6" y="82.99" width="0.18" height="5.97" transform="translate(-27.33 -43.47) rotate(-6.23)"/><rect class="b" x="102.65" y="82.59" width="0.18" height="4.94" transform="translate(-48.53 16.28) rotate(-33.7)"/><rect class="b" x="102.75" y="81.71" width="0.18" height="2.96" transform="translate(-10.84 120.13) rotate(-83.01)"/><rect class="b" x="96.05" y="86.59" width="7.85" height="0.18" transform="translate(-35.07 94.51) rotate(-69.28)"/><rect class="b" x="99.08" y="79.29" width="0.18" height="5.02" transform="translate(-38.89 74.26) rotate(-61.19)"/><rect class="b" x="96.29" y="79.25" width="2.99" height="0.18" transform="translate(-40.82 62.48) rotate(-56.69)"/><polygon class="b" points="77.13 24.38 80.16 22.91 80.08 22.75 77.05 24.22 77.13 24.38"/><rect class="b" x="92.01" y="81.11" width="5.03" height="0.18" transform="translate(-35.39 -29.83) rotate(-13.95)"/><rect class="b" x="90.34" y="84.2" width="8.69" height="0.18" transform="translate(-45.4 65.46) rotate(-58.26)"/><rect class="b" x="90.31" y="89.78" width="3.79" height="0.18" transform="translate(-25.22 117.38) rotate(-84.13)"/><rect class="b" x="87.65" y="80.89" width="0.18" height="10.1" transform="translate(-45.71 74.42) rotate(-65.15)"/><rect class="b" x="75.68" y="89.02" width="11.22" height="0.18" transform="translate(-48.34 81.22) rotate(-70.63)"/><rect class="b" x="72.25" y="86.02" width="11.38" height="0.18" transform="translate(-46.71 -16.26) rotate(-23.79)"/><rect class="b" x="74.45" y="88" width="0.18" height="8.45" transform="translate(-50.82 -14.4) rotate(-25.25)"/><rect class="b" x="69.44" y="91.16" width="5.74" height="0.18" transform="translate(-47.12 94.44) rotate(-81.6)"/><rect class="b" x="64.12" y="90.15" width="9.01" height="0.18" transform="translate(-49.4 -19.25) rotate(-24.03)"/><polygon class="b" points="53.27 39.16 53.32 38.99 45.98 37.19 45.94 37.36 53.27 39.16"/><rect class="b" x="66.73" y="98.32" width="8.78" height="0.18" transform="translate(-56.92 95.99) rotate(-79.81)"/><rect class="b" x="64.05" y="97.17" width="9.21" height="0.18" transform="translate(-67.58 23.96) rotate(-45.94)"/><rect class="b" x="64.05" y="92.63" width="0.18" height="8.16" transform="translate(-46.48 -29.01) rotate(-18.91)"/><rect class="b" x="64.39" y="98.77" width="0.18" height="2.33" transform="translate(-73.05 44.58) rotate(-57)"/><rect class="b" x="61.2" y="99.51" width="2.34" height="0.18" transform="translate(-42.33 -35.4) rotate(-15.05)"/><polygon class="b" points="44.99 44.28 44.5 37.71 44.32 37.72 44.82 44.29 44.99 44.28"/><rect class="b" x="58.41" y="96.29" width="7.23" height="0.18" transform="matrix(0.22, -0.98, 0.98, 0.22, -64.11, 81.02)"/><rect class="b" x="61.27" y="99.9" width="0.18" height="6.22" transform="translate(-22.19 -52.79) rotate(-2.02)"/><rect class="b" x="58.25" y="100.76" width="3.43" height="0.18" transform="translate(-69.28 6.81) rotate(-39.84)"/><polygon class="b" points="42.65 44.82 42.71 44.65 34.22 41.47 34.16 41.63 42.65 44.82"/><rect class="b" x="50.83" y="93.98" width="0.18" height="3.94" transform="translate(-74.7 59.56) rotate(-71.92)"/><polygon class="b" points="34.19 41.64 34.2 41.46 30 41.18 29.98 41.35 34.19 41.64"/><rect class="b" x="45.29" y="95.66" width="3.8" height="0.18" transform="translate(-37.71 -42.93) rotate(-12.16)"/><rect class="b" x="44.8" y="93.28" width="0.18" height="2.95" transform="translate(-45.2 -36.95) rotate(-17.64)"/><polygon class="b" points="22.04 42.62 26.76 41.23 26.71 41.06 21.99 42.45 22.04 42.62"/><rect class="b" x="39.74" y="95.44" width="5.54" height="0.18" transform="translate(-74.86 6.2) rotate(-46.85)"/><polygon class="b" points="25.83 38.42 25.86 38.25 17.68 36.72 17.65 36.89 25.83 38.42"/><rect class="b" x="38.35" y="91.09" width="0.18" height="7.19" transform="matrix(0.8, -0.6, 0.6, 0.8, -67.95, -12.62)"/><rect class="b" x="25.19" y="95.8" width="12.35" height="0.18" transform="translate(-73.57 -11.32) rotate(-40.73)"/><rect class="b" x="24" y="92.04" width="0.18" height="8.73" transform="translate(-71.24 -21.75) rotate(-36.52)"/><rect class="b" x="21.49" y="92.01" width="14.28" height="0.18" transform="translate(-26.49 -52.18) rotate(-4.98)"/><circle class="b" cx="175.87" cy="76.51" r="0.69" transform="translate(-23.63 85.2) rotate(-42.91)"/><circle class="b" cx="174.54" cy="77.25" r="0.88" transform="translate(-24.49 84.49) rotate(-42.91)"/><circle class="b" cx="172.19" cy="78.06" r="0.29" transform="translate(-25.67 83.11) rotate(-42.91)"/><circle class="b" cx="170.14" cy="72.68" r="0.85" transform="translate(-22.56 80.27) rotate(-42.91)"/><circle class="b" cx="170.05" cy="66.24" r="1.21" transform="translate(-18.2 78.49) rotate(-42.91)"/><circle class="b" cx="167.08" cy="73.89" r="0.74" transform="translate(-24.2 78.52) rotate(-42.91)"/><circle class="b" cx="163.32" cy="76.18" r="1.32" transform="translate(-26.76 76.57) rotate(-42.91)"/><circle class="b" cx="161.26" cy="77.84" r="0.79" transform="translate(-28.45 75.61) rotate(-42.91)"/><circle class="b" cx="161.95" cy="64.96" r="0.76" transform="translate(-19.5 72.62) rotate(-42.91)"/><circle class="b" cx="160.96" cy="67.83" r="1.06" transform="translate(-21.71 72.72) rotate(-42.91)"/><circle class="b" cx="156.67" cy="77.53" r="0.58" transform="translate(-29.46 72.4) rotate(-42.91)"/><circle class="b" cx="153.97" cy="74.34" r="1.29" transform="translate(-28.02 69.71) rotate(-42.91)"/><circle class="b" cx="152.25" cy="71.39" r="0.21" transform="translate(-26.47 67.75) rotate(-42.91)"/><circle class="b" cx="151.71" cy="74.67" r="0.42" transform="translate(-28.85 68.25) rotate(-42.91)"/><circle class="b" cx="150.37" cy="73.37" r="0.99" transform="translate(-28.32 66.99) rotate(-42.91)"/><circle class="b" cx="148.54" cy="66.06" r="0.14" transform="matrix(0.73, -0.68, 0.68, 0.73, -23.81, 63.84)"/><circle class="b" cx="145.4" cy="68.37" r="1.24" transform="translate(-26.24 62.28) rotate(-42.91)"/><circle class="b" cx="142.67" cy="71.3" r="0.33" transform="translate(-28.97 61.2) rotate(-42.91)"/><circle class="b" cx="140.16" cy="78.27" r="0.14" transform="translate(-34.39 61.36) rotate(-42.91)"/><circle class="b" cx="137.87" cy="69.49" r="0.47" transform="translate(-29.02 57.45) rotate(-42.91)"/><circle class="b" cx="136.21" cy="65.7" r="0.72" transform="translate(-26.89 55.31) rotate(-42.91)"/><circle class="b" cx="133.74" cy="65.36" r="1.21" transform="translate(-27.32 53.54) rotate(-42.91)"/><circle class="b" cx="132.83" cy="79.01" r="0.87" transform="translate(-36.85 56.58) rotate(-42.91)"/><circle class="b" cx="130.19" cy="72.22" r="0.93" transform="translate(-32.93 52.95) rotate(-42.91)"/><circle class="b" cx="129.8" cy="77.46" r="0.62" transform="translate(-36.61 54.09) rotate(-42.91)"/><circle class="b" cx="128" cy="72.24" r="0.6" transform="translate(-33.54 51.47) rotate(-42.91)"/><circle class="b" cx="127" cy="75.94" r="0.51" transform="translate(-36.33 51.77) rotate(-42.91)"/><circle class="b" cx="125.72" cy="73.96" r="0.89" transform="translate(-35.31 50.37) rotate(-42.91)"/><circle class="b" cx="121.9" cy="71.81" r="0.29" transform="translate(-34.87 47.2) rotate(-42.91)"/><circle class="b" cx="123.02" cy="79.57" r="0.74" transform="translate(-39.86 50.03) rotate(-42.91)"/><circle class="b" cx="121.54" cy="79.15" r="0.21" transform="translate(-39.97 48.93) rotate(-42.91)"/><circle class="b" cx="117.85" cy="68.07" r="0.32" transform="translate(-33.41 43.44) rotate(-42.91)"/><circle class="b" cx="116.42" cy="74.27" r="0.76" transform="translate(-38.02 44.12) rotate(-42.91)"/><circle class="b" cx="113.31" cy="75.95" r="1.11" transform="translate(-39.99 42.46) rotate(-42.91)"/><circle class="b" cx="108.37" cy="72.72" r="1.08" transform="translate(-39.12 38.23) rotate(-42.91)"/><circle class="b" cx="106.99" cy="75.93" r="0.74" transform="translate(-41.66 38.15) rotate(-42.91)"/><circle class="b" cx="105.91" cy="76.79" r="1.02" transform="translate(-42.54 37.64) rotate(-42.91)"/><circle class="b" cx="106.45" cy="81.78" r="0.83" transform="translate(-45.8 39.34) rotate(-42.91)"/><circle class="b" cx="104.37" cy="83.32" r="0.48" transform="translate(-47.4 38.34) rotate(-42.91)"/><circle class="b" cx="104.11" cy="87.12" r="0.52" transform="translate(-50.06 39.18) rotate(-42.91)"/><circle class="b" cx="101.35" cy="83.02" r="1.43" transform="translate(-48 36.2) rotate(-42.91)"/><circle class="b" cx="98.61" cy="78.09" r="0.93" transform="translate(-45.38 33.02) rotate(-42.91)"/><circle class="b" cx="101.97" cy="88.89" r="1.32" transform="translate(-51.84 38.2) rotate(-42.91)"/><circle class="b" cx="97" cy="80.67" r="0.93" transform="translate(-47.57 32.6) rotate(-42.91)"/><circle class="b" cx="95.64" cy="79.28" r="0.63" transform="translate(-46.99 31.31) rotate(-42.91)"/><circle class="b" cx="98.47" cy="90.5" r="0.71" transform="translate(-53.87 36.24) rotate(-42.91)"/><circle class="b" cx="98.12" cy="90.69" r="0.63" transform="translate(-54.09 36.06) rotate(-42.91)"/><circle class="b" cx="92.08" cy="81.8" r="1.37" transform="translate(-49.66 29.57) rotate(-42.91)"/><circle class="b" cx="92.32" cy="88.06" r="0.97" transform="translate(-53.85 31.4) rotate(-42.91)"/><circle class="b" cx="92" cy="91.61" r="1.15" transform="translate(-56.35 32.14) rotate(-42.91)"/><circle class="b" cx="89.96" cy="89.68" r="0.76" transform="translate(-55.59 30.23) rotate(-42.91)"/><circle class="b" cx="83.15" cy="83.81" r="1.1" transform="translate(-53.42 24.03) rotate(-42.91)"/><circle class="b" cx="81.62" cy="87.79" r="0.34" transform="translate(-56.54 24.05) rotate(-42.91)"/><circle class="b" cx="79.33" cy="89.22" r="0.32" transform="translate(-58.12 22.88) rotate(-42.91)"/><circle class="b" cx="79.43" cy="94.4" r="0.52" transform="translate(-61.62 24.32) rotate(-42.91)"/><circle class="b" cx="77.05" cy="92.74" r="0.29" transform="translate(-61.12 22.27) rotate(-42.92)"/><circle class="b" cx="76.3" cy="96.12" r="0.9" transform="translate(-63.63 22.65) rotate(-42.91)"/><circle class="b" cx="72.81" cy="88.45" r="0.52" transform="translate(-59.34 18.22) rotate(-42.91)"/><circle class="b" cx="71.84" cy="94.02" r="0.84" transform="translate(-63.39 19.06) rotate(-42.91)"/><circle class="b" cx="70.34" cy="102.73" r="1.26" transform="translate(-69.72 20.37) rotate(-42.91)"/><circle class="b" cx="68.24" cy="96.5" r="0.21" transform="translate(-66.05 17.29) rotate(-42.92)"/><circle class="b" cx="67.65" cy="102.64" r="0.26" transform="translate(-70.38 18.51) rotate(-42.91)"/><circle class="b" cx="64.56" cy="92.14" r="1.23" transform="translate(-64.05 13.6) rotate(-42.91)"/><circle class="b" cx="65.45" cy="100.4" r="1.03" transform="translate(-69.44 16.41) rotate(-42.91)"/><circle class="b" cx="62.86" cy="93.06" r="1.37" transform="translate(-65.14 12.69) rotate(-42.91)"/><circle class="b" cx="63.61" cy="99.37" r="0.87" transform="translate(-69.23 14.88) rotate(-42.91)"/><circle class="b" cx="61.22" cy="99.86" r="1.07" transform="translate(-70.21 13.39) rotate(-42.91)"/><circle class="b" cx="61.8" cy="106.03" r="0.9" transform="translate(-74.26 15.44) rotate(-42.91)"/><circle class="b" cx="61.46" cy="106.12" r="1.24" transform="translate(-74.41 15.23) rotate(-42.91)"/><circle class="b" cx="58.69" cy="101.75" r="0.95" transform="translate(-72.17 12.17) rotate(-42.91)"/><circle class="b" cx="55.82" cy="99.42" r="0.43" transform="matrix(0.73, -0.68, 0.68, 0.73, -71.35, 9.58)"/><circle class="b" cx="52.99" cy="96.57" r="1.4" transform="translate(-70.17 6.91) rotate(-42.91)"/><circle class="b" cx="50.74" cy="106.34" r="0.2" transform="translate(-77.43 7.98) rotate(-42.91)"/><circle class="b" cx="48.94" cy="95.4" r="1.12" transform="translate(-70.46 3.83) rotate(-42.91)"/><circle class="b" cx="48.59" cy="96.1" r="0.93" transform="translate(-71.03 3.78) rotate(-42.91)"/><circle class="b" cx="46.77" cy="93.01" r="0.36" transform="translate(-69.41 1.71) rotate(-42.91)"/><circle class="b" cx="45.34" cy="96.15" r="0.72" transform="translate(-71.94 1.58) rotate(-42.91)"/><circle class="b" cx="44.51" cy="93.37" r="1.37" transform="translate(-70.26 0.28) rotate(-42.91)"/><circle class="b" cx="40.62" cy="97.55" r="1.23" transform="translate(-74.15 -1.26) rotate(-42.91)"/><circle class="b" cx="38.86" cy="89.96" r="0.31" transform="translate(-69.45 -4.48) rotate(-42.91)"/><circle class="b" cx="36.05" cy="91.86" r="0.93" transform="translate(-71.49 -5.89) rotate(-42.91)"/><circle class="b" cx="34.16" cy="94.96" r="0.21" transform="translate(-74.11 -6.37) rotate(-42.9)"/><circle class="b" cx="34.81" cy="90.69" r="0.23" transform="translate(-71.03 -7.05) rotate(-42.91)"/><circle class="b" cx="26.69" cy="99.92" r="1.24" transform="translate(-79.49 -10.1) rotate(-42.91)"/><circle class="b" cx="29.29" cy="86.7" r="0.21" transform="translate(-69.79 -11.88) rotate(-42.91)"/><circle class="b" cx="25.86" cy="88.64" r="0.42" transform="translate(-72.03 -13.69) rotate(-42.91)"/><circle class="b" cx="21.52" cy="92.71" r="0.63" transform="translate(-75.97 -15.55) rotate(-42.91)"/><circle class="b" cx="25" cy="82.21" r="0.91" transform="translate(-67.88 -15.99) rotate(-42.91)"/><circle class="b" cx="18.81" cy="89.67" r="0.21" transform="translate(-74.62 -18.21) rotate(-42.91)"/><rect class="c" x="157.22" y="72.48" width="0.18" height="7.97" transform="translate(-6.27 119.29) rotate(-59.94)"/><rect class="d" x="156.42" y="73.65" width="0.18" height="9.38" transform="translate(-35.45 47.37) rotate(-34.49)"/><rect class="e" x="145.96" y="80.85" width="13.2" height="0.18" transform="translate(24.66 159.65) rotate(-78.69)"/><rect class="f" x="150.73" y="73.48" width="0.18" height="13.95" transform="translate(-23.46 -45.14) rotate(-3.69)"/><rect class="g" x="133.08" y="78.13" width="20.15" height="0.18" transform="translate(17.47 146.27) rotate(-77.62)"/><rect class="h" x="148.22" y="67.91" width="0.18" height="19.54" transform="translate(-35.28 -5.76) rotate(-17.87)"/><rect class="i" x="136.71" y="77.38" width="0.18" height="12.11" transform="translate(-38.61 61.4) rotate(-43.25)"/><rect class="j" x="130.3" y="80.73" width="4.16" height="0.18" transform="translate(11.33 142.26) rotate(-80.07)"/><rect class="k" x="126.44" y="73.88" width="0.18" height="16.19" transform="translate(-26.81 -40.67) rotate(-6.28)"/><rect class="l" x="128.73" y="72.92" width="0.18" height="11.03" transform="translate(-40.26 33.51) rotate(-35.17)"/><polygon class="m" points="103.71 31.08 104.41 24.51 104.23 24.49 103.53 31.06 103.71 31.08"/><rect class="n" x="125.2" y="79.03" width="0.18" height="11.99" transform="translate(-42.01 1.44) rotate(-23.29)"/><rect class="o" x="117.6" y="74.29" width="0.18" height="13.69" transform="translate(-43.01 41.68) rotate(-40.83)"/><rect class="p" x="115.81" y="75.5" width="0.18" height="16.17" transform="translate(-39.81 -11.66) rotate(-19.44)"/><rect class="q" x="106.51" y="80.97" width="10.34" height="0.18" transform="translate(-16.83 109.48) rotate(-73.18)"/><rect class="r" x="108" y="76.2" width="0.18" height="10.47" transform="translate(-42.41 -3.87) rotate(-24.06)"/><rect class="s" x="100.73" y="80.78" width="8.61" height="0.18" transform="translate(-14.98 111.21) rotate(-77.68)"/><rect class="t" x="101.07" y="77.95" width="5.24" height="0.18" transform="translate(-44.68 22.25) rotate(-36.62)"/><rect class="u" x="98.69" y="79.82" width="0.18" height="6.16" transform="translate(-48.73 24.36) rotate(-38.44)"/><polygon class="v" points="75.83 30.6 78.34 25.52 78.18 25.44 75.67 30.52 75.83 30.6"/><rect class="w" x="92.25" y="74.5" width="0.18" height="9.4" transform="translate(-27.79 91.2) rotate(-74.04)"/><rect class="x" x="81.83" y="80.71" width="7.39" height="0.18" transform="translate(-49.5 42.75) rotate(-51.66)"/><rect class="y" x="75.31" y="84.29" width="8.2" height="0.18" transform="translate(-34.05 -37.17) rotate(-11.69)"/><rect class="z" x="84.2" y="83.57" width="0.18" height="8.34" transform="translate(-38.03 -30.87) rotate(-14.64)"/><rect class="aa" x="72.47" y="87.7" width="12.31" height="0.18" transform="translate(-57.04 19.21) rotate(-41.54)"/><rect class="ab" x="48.51" y="91.72" width="9.52" height="0.18" transform="translate(-59.92 84.95) rotate(-86.85)"/><rect class="ac" x="57.46" y="86.18" width="0.18" height="14.66" transform="translate(-57.16 -14.6) rotate(-29.47)"/><rect class="ad" x="46.69" y="90.92" width="9.17" height="0.18" transform="translate(-71.78 36.71) rotate(-61)"/><rect class="ae" x="43.27" y="90.24" width="11.32" height="0.18" transform="translate(-62.38 -8.93) rotate(-36.05)"/><rect class="af" x="42.81" y="91.18" width="5.23" height="0.18" transform="translate(-75.04 40.48) rotate(-65.92)"/><rect class="ag" x="47.38" y="88.68" width="0.18" height="6.35" transform="translate(-52.07 -27.5) rotate(-24.19)"/><polygon class="ah" points="34.62 41.32 34.74 41.2 27.55 33.57 27.43 33.69 34.62 41.32"/><rect class="ai" x="173.22" y="66.79" width="0.18" height="4.57" transform="translate(74.48 182.49) rotate(-86.26)"/><rect class="ai" x="164.84" y="73.14" width="9.19" height="0.18" transform="translate(23.05 151.4) rotate(-69.56)"/><rect class="ai" x="165.73" y="73.99" width="0.18" height="4.67" transform="translate(-3.5 124.3) rotate(-59.06)"/><rect class="ai" x="167" y="68.07" width="0.18" height="9.51" transform="translate(-27.91 -28.08) rotate(-8.97)"/><rect class="ai" x="165.38" y="71.92" width="0.18" height="6.59" transform="translate(-22.77 85.46) rotate(-45.49)"/><rect class="ai" x="160.78" y="78" width="7.09" height="0.18" transform="translate(-28.89 -28.01) rotate(-9.11)"/><rect class="ai" x="160.05" y="76.92" width="4.25" height="0.18" transform="translate(-18.82 98.55) rotate(-50.64)"/><rect class="ai" x="165.82" y="79.37" width="3.86" height="0.18" transform="matrix(0.04, -1, 1, 0.04, 62.85, 188.77)"/><rect class="ai" x="164.37" y="76.49" width="0.18" height="7.19" transform="translate(14.36 152.22) rotate(-70)"/><rect class="ai" x="159.25" y="81.86" width="8.64" height="0.18" transform="matrix(0.99, -0.15, 0.15, 0.99, -28.85, -30.15)"/><rect class="ai" x="154" y="86.48" width="6.35" height="0.18" transform="translate(-6.59 137.02) rotate(-64.85)"/><rect class="ai" x="153.34" y="87.15" width="3.16" height="0.18" transform="matrix(0.38, -0.92, 0.92, 0.38, -3.51, 142.03)"/><rect class="ai" x="153.11" y="87.02" width="0.18" height="2.43" transform="translate(-5.74 140.73) rotate(-67.4)"/><rect class="ai" x="151.39" y="86.44" width="4.27" height="0.18" transform="translate(-39.2 4.36) rotate(-20.54)"/><rect class="ai" x="146.99" y="91.68" width="8.61" height="0.18" transform="translate(-38.84 80.19) rotate(-45.45)"/><rect class="ai" x="146.55" y="92.33" width="0.18" height="3.57" transform="translate(-17.05 135.59) rotate(-66.32)"/><rect class="ai" x="144.45" y="90.96" width="10.43" height="0.18" transform="translate(-43.57 22.22) rotate(-26.79)"/><rect class="ai" x="142.96" y="87.58" width="0.18" height="6.48" transform="translate(-44.39 50.09) rotate(-37.25)"/><rect class="ai" x="141.68" y="86.74" width="0.18" height="8.23" transform="translate(-35.92 91.01) rotate(-51.78)"/><rect class="ai" x="138.53" y="88.04" width="2.67" height="0.18" transform="translate(-29.22 -35.32) rotate(-7.76)"/><rect class="ai" x="134.45" y="93.96" width="10.59" height="0.18" transform="translate(-29 -37.33) rotate(-6.98)"/><rect class="ai" x="135.21" y="81.36" width="0.18" height="8.46" transform="translate(-35.85 79.16) rotate(-49.98)"/><rect class="ai" x="132.74" y="91.41" width="7.56" height="0.18" transform="translate(-32.49 102.72) rotate(-57.6)"/><rect class="ai" x="127.63" y="89.19" width="11" height="0.18" transform="translate(-32.2 -30.26) rotate(-10.11)"/><rect class="ai" x="131.01" y="88.41" width="0.18" height="8.11" transform="translate(-36.7 96.43) rotate(-56.76)"/><rect class="ai" x="129.9" y="96.32" width="5.24" height="0.18" transform="translate(-49.33 55.72) rotate(-41.05)"/><rect class="ai" x="130.2" y="90.21" width="0.18" height="8.43" transform="matrix(0.06, -1, 1, 0.06, 9.17, 163.43)"/><rect class="ai" x="124.97" y="89.06" width="0.18" height="5.3" transform="translate(-44.3 0.32) rotate(-22.69)"/><polygon class="ai" points="109.09 35.32 109.14 35.15 105.45 34.17 105.41 34.34 109.09 35.32"/><rect class="ai" x="123.03" y="85.75" width="0.18" height="3.75" transform="translate(-45.64 15.65) rotate(-28.99)"/><rect class="ai" x="118.43" y="90.21" width="5.79" height="0.18" transform="translate(-42.8 -5.88) rotate(-20.86)"/><rect class="ai" x="117.35" y="88.74" width="6.21" height="0.18" transform="translate(-40.98 78.5) rotate(-53.78)"/><rect class="ai" x="119.71" y="94.72" width="6.44" height="0.18" transform="translate(-35.26 -28.13) rotate(-11.69)"/><rect class="ai" x="122.12" y="88.86" width="0.18" height="7.66" transform="translate(-26.49 118.92) rotate(-69.17)"/><rect class="ai" x="119.11" y="91.25" width="0.18" height="4.29" transform="translate(-39.2 -19.83) rotate(-15.47)"/><rect class="ai" x="114.61" y="85.63" width="0.18" height="8.05" transform="translate(-30.75 106.07) rotate(-67.4)"/><rect class="ai" x="116.14" y="88.7" width="0.18" height="4.8" transform="translate(-4.26 142.99) rotate(-84.46)"/><rect class="ai" x="112.33" y="87.5" width="0.18" height="3.98" transform="translate(-48.68 52.93) rotate(-45.9)"/><rect class="ai" x="109.67" y="86.07" width="0.18" height="8.27" transform="translate(-15.66 128.86) rotate(-80.66)"/><rect class="ai" x="105.59" y="88.73" width="5.49" height="0.18" transform="translate(-37.95 -23.83) rotate(-15.05)"/><rect class="ai" x="105.18" y="87.86" width="5.47" height="0.18" transform="translate(-49.6 23.76) rotate(-35.4)"/><rect class="ai" x="104.71" y="84.85" width="0.18" height="4.85" transform="translate(-43.18 -10.88) rotate(-21.35)"/><rect class="ai" x="106.78" y="82.58" width="0.18" height="6.03" transform="translate(-16.27 119.01) rotate(-78.92)"/><rect class="ai" x="99.57" y="91.21" width="6.62" height="0.18" transform="translate(-51.41 13.78) rotate(-32.17)"/><rect class="ai" x="96.83" y="89.23" width="7.55" height="0.18" transform="translate(-20.53 121.41) rotate(-81.95)"/><rect class="ai" x="101.1" y="85.17" width="3.18" height="0.18" transform="translate(-33.75 -32.42) rotate(-11.7)"/><rect class="ai" x="103.3" y="84.53" width="0.18" height="5.89" transform="translate(-48.68 55.44) rotate(-50)"/><rect class="ai" x="102.46" y="79.17" width="0.18" height="6.16" transform="translate(-44.34 -1.45) rotate(-26.13)"/><rect class="ai" x="101.9" y="81.52" width="0.18" height="4.55" transform="translate(-42.08 69.78) rotate(-57.5)"/><rect class="ai" x="100.51" y="82.48" width="0.18" height="3.19" transform="translate(-40.81 -16.82) rotate(-19.4)"/><rect class="ai" x="94.24" y="85.64" width="6.9" height="0.18" transform="translate(-22.21 -50.72) rotate(-2.47)"/><polygon class="ai" points="75.63 30.96 75.66 30.78 68.03 29.49 68 29.67 75.63 30.96"/><rect class="ai" x="91.03" y="77" width="0.18" height="9.98" transform="translate(-49.86 20.06) rotate(-38.75)"/><rect class="ai" x="89.24" y="87.59" width="5.64" height="0.18" transform="translate(-53.33 23.43) rotate(-39.44)"/><rect class="ai" x="88.16" y="84.1" width="0.18" height="5.87" transform="translate(-52.1 8.81) rotate(-33.81)"/><polygon class="ai" points="66.73 36.76 71.59 34.56 71.52 34.4 66.66 36.6 66.73 36.76"/><rect class="ai" x="82.37" y="87.98" width="7.41" height="0.18" transform="translate(-36.7 98.74) rotate(-77.89)"/><rect class="ai" x="74.02" y="91.68" width="11.03" height="0.18" transform="translate(-18.86 -54.79) rotate(-0.16)"/><rect class="ai" x="71.2" y="88.34" width="6.8" height="0.18" transform="translate(-43.94 91.71) rotate(-80.1)"/><rect class="ai" x="71.59" y="88.01" width="0.18" height="5.22" transform="translate(-59.93 59.65) rotate(-63.67)"/><polygon class="ai" points="55.43 36.85 55.4 36.68 43.72 38.66 43.75 38.83 55.43 36.85"/><rect class="ai" x="61.73" y="91.52" width="8.22" height="0.18" transform="translate(-56.77 -7.1) rotate(-31.51)"/><rect class="ai" x="62.16" y="88.59" width="0.18" height="5.17" transform="translate(-21.39 -53.05) rotate(-1.77)"/><rect class="ai" x="65.68" y="85.28" width="0.18" height="7.22" transform="translate(-46.84 92.1) rotate(-85.27)"/><polygon class="ai" points="49.83 32.9 49.83 32.72 47.45 32.75 47.45 32.93 49.83 32.9"/><polygon class="ai" points="47.11 32.85 47.22 32.71 39.66 26.42 39.55 26.56 47.11 32.85"/><polygon class="ai" points="47.44 32.93 47.46 32.75 42.34 32.21 42.32 32.39 47.44 32.93"/><rect class="ai" x="59.48" y="81.2" width="0.18" height="6.41" transform="translate(-48.75 -21.82) rotate(-25.07)"/><rect class="ai" x="58.02" y="81.88" width="0.18" height="6.9" transform="translate(-63.71 28.59) rotate(-54.79)"/><rect class="ai" x="54.9" y="82.11" width="3.76" height="0.18" transform="translate(-56.9 -3.47) rotate(-37.49)"/><rect class="ai" x="52.23" y="85.02" width="4.21" height="0.18" transform="translate(-62.86 51.87) rotate(-69.9)"/><rect class="ai" x="57.04" y="83.68" width="0.18" height="7.01" transform="translate(-50.28 86.75) rotate(-88.34)"/><rect class="ai" x="50.38" y="78.47" width="0.18" height="9.2" transform="translate(-51.85 77.43) rotate(-89.25)"/><rect class="ai" x="46.14" y="82.97" width="0.18" height="3.87" transform="translate(-33.49 -45.01) rotate(-10.65)"/><polygon class="ai" points="18.18 36.92 28.02 31.87 27.94 31.71 18.1 36.76 18.18 36.92"/><polygon class="ai" points="18.16 36.92 27.63 33.99 27.58 33.82 18.11 36.76 18.16 36.92"/><rect class="ai" x="40.51" y="88.72" width="0.18" height="7.89" transform="translate(-77.05 58.24) rotate(-78.08)"/><rect class="ai" x="37.37" y="91.95" width="0.18" height="6.52" transform="translate(-37.22 -45.38) rotate(-11.76)"/><rect class="ai" x="40.68" y="96.09" width="0.18" height="5.32" transform="translate(-81.08 71.21) rotate(-82.47)"/><rect class="ai" x="36.49" y="94.39" width="0.18" height="4.61" transform="translate(-74.12 -5.28) rotate(-42.26)"/><rect class="ai" x="33.72" y="88.48" width="0.18" height="6.37" transform="translate(-76.9 69.26) rotate(-89.25)"/><polygon class="ai" points="16.51 40.02 18.21 36.88 18.06 36.8 16.35 39.94 16.51 40.02"/><polygon class="ai" points="16.44 40.07 16.42 39.89 7.09 40.68 7.1 40.86 16.44 40.07"/><rect class="ai" x="21.81" y="95.89" width="3.9" height="0.18" transform="translate(-27.91 -52.22) rotate(-5.63)"/><polygon class="ai" points="3.38 44.63 7.16 40.83 7.03 40.71 3.25 44.51 3.38 44.63"/><circle class="ai" cx="21.01" cy="100.59" r="1.01" transform="translate(-89.49 -0.4) rotate(-51.62)"/><circle class="ai" cx="21.83" cy="99.73" r="1.42" transform="translate(-88.51 -0.09) rotate(-51.62)"/><circle class="ai" cx="21.73" cy="96.1" r="1.43" transform="translate(-85.7 -1.54) rotate(-51.62)"/><circle class="ai" cx="25.62" cy="95.98" r="1.3" transform="translate(-84.13 1.47) rotate(-51.62)"/><circle class="ai" cx="28.27" cy="98.26" r="0.42" transform="translate(-84.91 4.41) rotate(-51.63)"/><circle class="ai" cx="29.39" cy="94.18" r="0.32" transform="translate(-81.29 3.73) rotate(-51.62)"/><circle class="ai" cx="30.62" cy="91.67" r="0.89" transform="translate(-78.86 3.75) rotate(-51.62)"/><circle class="ai" cx="35.05" cy="94.99" r="0.48" transform="translate(-79.78 8.48) rotate(-51.62)"/><circle class="ai" cx="38.19" cy="98.38" r="0.94" transform="translate(-81.25 12.23) rotate(-51.62)"/><circle class="ai" cx="36.74" cy="91.85" r="0.73" transform="translate(-76.68 8.62) rotate(-51.62)"/><circle class="ai" cx="43.32" cy="99.09" r="0.76" transform="translate(-79.86 16.52) rotate(-51.62)"/><circle class="ai" cx="43.66" cy="95.35" r="0.13" transform="translate(-76.8 15.4) rotate(-51.64)"/><circle class="ai" cx="44.36" cy="93.49" r="0.57" transform="translate(-75.07 15.21) rotate(-51.62)"/><circle class="ai" cx="47.46" cy="98.44" r="0.26" transform="translate(-77.77 19.52) rotate(-51.62)"/><circle class="ai" cx="46.27" cy="88.95" r="1.18" transform="translate(-70.79 14.99) rotate(-51.62)"/><circle class="ai" cx="46.58" cy="86.81" r="0.97" transform="translate(-68.99 14.42) rotate(-51.62)"/><circle class="ai" cx="45.98" cy="83.08" r="0.61" transform="translate(-66.29 12.54) rotate(-51.63)"/><circle class="ai" cx="48.33" cy="84.23" r="0.26" transform="translate(-66.31 14.82) rotate(-51.63)"/><circle class="ai" cx="52.09" cy="87.31" r="0.32" transform="translate(-67.29 18.92) rotate(-51.62)"/><circle class="ai" cx="52.38" cy="87.07" r="1.28" transform="translate(-67 19.07) rotate(-51.62)"/><circle class="ai" cx="53.5" cy="86.99" r="1.21" transform="translate(-66.51 19.91) rotate(-51.62)"/><circle class="ai" cx="55.23" cy="83.4" r="1.13" transform="translate(-63.04 19.9) rotate(-51.62)"/><circle class="ai" cx="58.2" cy="81.34" r="1.07" transform="translate(-60.3 21.46) rotate(-51.62)"/><circle class="ai" cx="60.93" cy="87.31" r="1.43" transform="translate(-63.95 25.86) rotate(-51.62)"/><circle class="ai" cx="62.42" cy="93.81" r="1.21" transform="translate(-68.48 29.49) rotate(-51.62)"/><circle class="ai" cx="62.19" cy="88.69" r="1.34" transform="translate(-64.55 27.37) rotate(-51.62)"/><circle class="ai" cx="65.76" cy="87.79" r="0.53" transform="translate(-62.49 29.83) rotate(-51.62)"/><circle class="ai" cx="68.19" cy="88.04" r="1.15" transform="translate(-61.76 31.83) rotate(-51.62)"/><circle class="ai" cx="69.29" cy="89.34" r="1.13" transform="translate(-62.36 33.18) rotate(-51.62)"/><circle class="ai" cx="70.56" cy="82.42" r="0.1" transform="translate(-56.46 31.58) rotate(-51.64)"/><circle class="ai" cx="74.02" cy="91.78" r="1.22" transform="translate(-62.49 37.81) rotate(-51.62)"/><circle class="ai" cx="75.23" cy="85.2" r="0.98" transform="translate(-56.87 36.27) rotate(-51.62)"/><circle class="ai" cx="77.58" cy="83.14" r="0.33" transform="translate(-54.36 37.33) rotate(-51.63)"/><circle class="ai" cx="81.28" cy="87.44" r="0.37" transform="translate(-56.33 41.86) rotate(-51.62)"/><circle class="ai" cx="84.79" cy="85.65" r="0.27" transform="translate(-53.6 43.94) rotate(-51.63)"/><circle class="ai" cx="85.26" cy="86.53" r="0.14" transform="translate(-54.1 44.64) rotate(-51.63)"/><circle class="ai" cx="85.31" cy="91.73" r="1.31" transform="translate(-58.17 46.65) rotate(-51.62)"/><circle class="ai" cx="86.73" cy="84.56" r="1.28" transform="translate(-52.01 45.04) rotate(-51.62)"/><circle class="ai" cx="87.91" cy="77.99" r="0.69" transform="translate(-46.4 43.48) rotate(-51.63)"/><circle class="ai" cx="90.06" cy="89.42" r="0.85" transform="translate(-54.55 49.49) rotate(-51.62)"/><circle class="ai" cx="94.25" cy="85.89" r="0.81" transform="translate(-50.2 51.43) rotate(-51.62)"/><circle class="ai" cx="97.62" cy="81.6" r="0.26" transform="translate(-45.56 52.45) rotate(-51.62)"/><circle class="ai" cx="100.25" cy="82.6" r="0.92" transform="translate(-45.35 54.89) rotate(-51.62)"/><circle class="ai" cx="101.29" cy="79.69" r="1.38" transform="translate(-42.67 54.61) rotate(-51.62)"/><circle class="ai" cx="101.07" cy="85.63" r="0.7" transform="translate(-47.41 56.69) rotate(-51.62)"/><circle class="ai" cx="100.24" cy="93.11" r="1.02" transform="translate(-53.59 58.88) rotate(-51.62)"/><circle class="ai" cx="104.02" cy="85.06" r="1.16" transform="translate(-45.84 58.79) rotate(-51.63)"/><circle class="ai" cx="105.74" cy="89.39" r="1.35" transform="translate(-48.58 61.78) rotate(-51.62)"/><circle class="ai" cx="110.07" cy="86.37" r="1.13" transform="translate(-44.58 64.02) rotate(-51.62)"/><circle class="ai" cx="110.92" cy="88.07" r="1.18" transform="translate(-45.58 65.33) rotate(-51.62)"/><circle class="ai" cx="113.9" cy="90.85" r="0.42" transform="translate(-46.64 68.72) rotate(-51.62)"/><circle class="ai" cx="115.2" cy="96.74" r="0.41" transform="translate(-50.76 71.98) rotate(-51.62)"/><circle class="ai" cx="118.55" cy="91.22" r="1.3" transform="translate(-45.16 72.51) rotate(-51.62)"/><circle class="ai" cx="119.82" cy="95.54" r="0.92" transform="translate(-48.07 75.15) rotate(-51.62)"/><circle class="ai" cx="120.69" cy="95.94" r="0.46" transform="translate(-48.05 75.97) rotate(-51.62)"/><circle class="ai" cx="122.43" cy="86.36" r="1.03" transform="translate(-39.88 73.71) rotate(-51.62)"/><circle class="ai" cx="124.03" cy="89.27" r="0.57" transform="translate(-41.55 76.07) rotate(-51.62)"/><circle class="ai" cx="125.78" cy="95.24" r="0.13" transform="translate(-45.57 79.7) rotate(-51.62)"/><circle class="ai" cx="126.07" cy="94.1" r="0.9" transform="translate(-44.57 79.51) rotate(-51.62)"/><circle class="ai" cx="126.93" cy="92.22" r="0.39" transform="translate(-42.76 79.47) rotate(-51.63)"/><circle class="ai" cx="127.61" cy="90.28" r="1.41" transform="translate(-40.99 79.26) rotate(-51.62)"/><circle class="ai" cx="130.49" cy="98.06" r="0.35" transform="translate(-46 84.46) rotate(-51.62)"/><circle class="ai" cx="132.06" cy="82.88" r="0.75" transform="translate(-33.5 79.94) rotate(-51.62)"/><circle class="ai" cx="134.49" cy="94.69" r="0.52" transform="translate(-41.84 86.33) rotate(-51.62)"/><circle class="ai" cx="137.21" cy="83.85" r="0.22" transform="translate(-32.32 84.31) rotate(-51.61)"/><circle class="ai" cx="138.64" cy="88.27" r="0.9" transform="translate(-35.23 87.14) rotate(-51.62)"/><circle class="ai" cx="141" cy="88.15" r="0.8" transform="matrix(0.62, -0.78, 0.78, 0.62, -34.25, 88.94)"/><circle class="ai" cx="145.01" cy="93.4" r="0.48" transform="translate(-36.84 94.09) rotate(-51.63)"/><circle class="ai" cx="148.19" cy="94.93" r="1.17" transform="translate(-36.83 97.16) rotate(-51.62)"/><circle class="ai" cx="148.21" cy="85.41" r="0.39" transform="translate(-29.36 93.57) rotate(-51.63)"/><circle class="ai" cx="151.27" cy="87.41" r="1.23" transform="translate(-29.77 96.72) rotate(-51.62)"/><circle class="ai" cx="154.32" cy="88.7" r="1.41" transform="translate(-29.62 99.6) rotate(-51.62)"/><circle class="ai" cx="154.87" cy="88.05" r="0.59" transform="translate(-28.9 99.78) rotate(-51.62)"/><circle class="ai" cx="155.84" cy="89.21" r="1.14" transform="translate(-29.45 100.98) rotate(-51.62)"/><circle class="ai" cx="156.31" cy="88.8" r="0.23" transform="translate(-28.95 101.19) rotate(-51.62)"/><circle class="ai" cx="155.52" cy="85.78" r="0.66" transform="translate(-26.88 99.43) rotate(-51.62)"/><circle class="ai" cx="156.49" cy="86.8" r="0.21" transform="matrix(0.62, -0.78, 0.78, 0.62, -27.31, 100.58)"/><circle class="ai" cx="158.45" cy="83.87" r="0.83" transform="translate(-24.27 101.01) rotate(-51.62)"/><circle class="ai" cx="159.3" cy="82.59" r="0.94" transform="translate(-22.95 101.18) rotate(-51.62)"/><circle class="ai" cx="160.83" cy="78.66" r="1.25" transform="translate(-19.28 100.89) rotate(-51.62)"/><circle class="ai" cx="167.67" cy="81.39" r="0.82" transform="translate(-18.83 107.29) rotate(-51.62)"/><circle class="ai" cx="163.84" cy="75.17" r="1.12" transform="translate(-15.41 101.93) rotate(-51.62)"/><circle class="ai" cx="163.41" cy="73.28" r="1.41" transform="translate(-14.09 100.88) rotate(-51.62)"/><circle class="ai" cx="167.85" cy="77.57" r="0.9" transform="translate(-15.77 105.99) rotate(-51.63)"/><circle class="ai" cx="172.35" cy="78.14" r="0.42" transform="translate(-14.51 109.73) rotate(-51.62)"/><circle class="ai" cx="166.34" cy="68.13" r="0.77" transform="translate(-8.94 101.22) rotate(-51.62)"/><circle class="ai" cx="171.03" cy="68.92" r="1.28" transform="translate(-7.78 105.2) rotate(-51.62)"/><circle class="ai" cx="175.59" cy="69.22" r="1.43" transform="translate(-6.29 108.89) rotate(-51.62)"/><circle class="ai" cx="176.74" cy="68.09" r="0.88" transform="translate(-4.96 109.36) rotate(-51.62)"/></g><rect class="aj" x="36.79" y="92.94" width="7.97" height="0.18" transform="translate(-74.68 7.43) rotate(-48.8)"/><rect class="ak" x="37.44" y="94.45" width="9.38" height="0.18" transform="translate(-78.88 54.5) rotate(-74.3)"/><rect class="al" x="46.62" y="89.14" width="0.18" height="13.2" transform="translate(-60.28 -18.73) rotate(-30.07)"/><rect class="am" x="48.12" y="87.74" width="0.18" height="13.95" transform="translate(-41.56 -39.23) rotate(-15.06)"/><rect class="an" x="54.65" y="80.06" width="0.18" height="20.15" transform="translate(-57.32 -13.73) rotate(-31.13)"/><rect class="ao" x="49.6" y="81.51" width="0.18" height="19.54" transform="translate(-20 -54.24) rotate(-0.88)"/><rect class="ap" x="56.38" y="92.95" width="12.11" height="0.18" transform="translate(-66.71 56.26) rotate(-65.5)"/><rect class="aq" x="65.69" y="87.06" width="0.18" height="4.16" transform="translate(-53.32 -12.49) rotate(-28.69)"/><rect class="ar" x="71.6" y="80.25" width="0.18" height="16.19" transform="translate(-35.99 -37.45) rotate(-12.47)"/><rect class="as" x="62.87" y="85.65" width="11.03" height="0.18" transform="translate(-51.79 72.07) rotate(-73.57)"/><rect class="at" x="75.62" y="84.55" width="0.18" height="6.61" transform="translate(-48.49 -15.11) rotate(-24.82)"/><rect class="au" x="67.86" y="90.75" width="11.99" height="0.18" transform="matrix(0.08, -1, 1, 0.08, -41.13, 102.27)"/><rect class="av" x="72.95" y="84.63" width="13.69" height="0.18" transform="translate(-47.3 71.81) rotate(-67.92)"/><rect class="aw" x="74.19" y="86.37" width="16.17" height="0.18" transform="translate(-23.76 112.68) rotate(-89.31)"/><rect class="ax" x="85.37" y="77.53" width="0.18" height="10.34" transform="translate(-50.76 10.14) rotate(-35.57)"/><rect class="ay" x="83.75" y="81.82" width="10.47" height="0.18" transform="translate(-19.42 107.91) rotate(-84.69)"/><rect class="az" x="91.6" y="76.08" width="0.18" height="8.61" transform="translate(-46.94 3.86) rotate(-31.08)"/><rect class="ba" x="91.96" y="74.66" width="0.18" height="5.24" transform="translate(-28.34 86.16) rotate(-72.13)"/><rect class="bb" x="95.19" y="80.22" width="6.16" height="0.18" transform="translate(-29.01 90.82) rotate(-70.34)"/><rect class="bc" x="101.23" y="76.57" width="0.18" height="5.67" transform="translate(-45.07 39.91) rotate(-45.01)"/><rect class="bd" x="98.47" y="74.64" width="9.4" height="0.18" transform="translate(-42.79 16.97) rotate(-34.68)"/><rect class="be" x="110.05" y="70.36" width="0.18" height="7.39" transform="translate(-30.47 71.28) rotate(-57.09)"/><rect class="bf" x="112.98" y="75.39" width="8.2" height="0.18" transform="translate(-27.01 -40.01) rotate(-7.08)"/><rect class="bg" x="113.46" y="76.05" width="0.18" height="8.34" transform="translate(-24.13 -46.55) rotate(-4.17)"/><rect class="bh" x="118.83" y="72.29" width="0.18" height="12.32" transform="translate(-18.06 102.69) rotate(-67.21)"/><rect class="bi" x="144.13" y="69.35" width="0.18" height="9.52" transform="translate(-35.83 4.12) rotate(-21.9)"/><rect class="bj" x="133.39" y="77" width="14.66" height="0.18" transform="translate(20.27 146.06) rotate(-79.31)"/><rect class="bk" x="145.76" y="68.12" width="0.18" height="9.17" transform="translate(-24.63 76.79) rotate(-47.76)"/><rect class="bl" x="147.77" y="65.65" width="0.18" height="11.32" transform="translate(17.22 136.27) rotate(-72.71)"/><rect class="bm" x="151.4" y="68.46" width="0.18" height="5.23" transform="matrix(0.73, -0.68, 0.68, 0.73, -26.52, 66.94)"/><rect class="bn" x="146.56" y="72.2" width="6.35" height="0.18" transform="translate(44.96 159.46) rotate(-84.55)"/><polygon class="bo" points="127.13 23.36 126.97 23.28 131.32 13.75 131.48 13.82 127.13 23.36"/><polygon class="bp" points="6.76 32.56 6.67 32.4 14.12 28.52 14.2 28.67 6.76 32.56"/><rect class="bp" x="26.26" y="87.32" width="0.18" height="6.47" transform="translate(-46.19 -41.82) rotate(-18.66)"/><rect class="bp" x="19.2" y="93.27" width="11.75" height="0.18" transform="translate(-87.84 59.53) rotate(-87.62)"/><rect class="bp" x="25.26" y="86.71" width="9.39" height="0.18" transform="translate(-31.14 -49.61) rotate(-8.53)"/><rect class="bp" x="34.79" y="86.09" width="0.18" height="8.85" transform="translate(-24.23 -52.63) rotate(-3.61)"/><rect class="bp" x="33.53" y="83.28" width="0.18" height="3.55" transform="translate(-63.73 -16.47) rotate(-37.87)"/><rect class="bp" x="34.24" y="83.67" width="15.62" height="0.18" transform="translate(-41.62 -38.7) rotate(-17.31)"/><rect class="bp" x="38.85" y="83.3" width="0.18" height="9.53" transform="translate(-75.95 32.1) rotate(-65.58)"/><rect class="bp" x="40.39" y="91.93" width="4.25" height="0.18" transform="translate(-77.24 43.6) rotate(-68.93)"/><rect class="bp" x="42.8" y="88.71" width="3.73" height="0.18" transform="translate(-60.25 -15.51) rotate(-33.56)"/><rect class="bp" x="44.35" y="84.56" width="7.16" height="0.18" transform="translate(-67.77 35.44) rotate(-63.9)"/><rect class="bp" x="48.64" y="78.62" width="9.43" height="0.18" transform="translate(-54.22 -9.85) rotate(-35.21)"/><rect class="bp" x="57.1" y="75.38" width="2.61" height="0.18" transform="translate(-43.82 -25.52) rotate(-23.46)"/><rect class="bp" x="55.33" y="77.46" width="5.74" height="0.18" transform="translate(-55.59 40.96) rotate(-64.06)"/><rect class="bp" x="54.96" y="77.89" width="4.3" height="0.18" transform="translate(-43.53 74.07) rotate(-85.7)"/><rect class="bp" x="49.45" y="80.69" width="7.56" height="0.18" transform="translate(-31.76 -44.59) rotate(-9.96)"/><rect class="bp" x="60.91" y="76.16" width="0.18" height="8.1" transform="translate(-39.13 84.43) rotate(-88.75)"/><rect class="bp" x="62.2" y="73.66" width="0.18" height="7.79" transform="translate(-55.23 12.02) rotate(-45.16)"/><rect class="bp" x="64.99" y="79.85" width="2.4" height="0.18" transform="translate(-39.87 -30.94) rotate(-17.81)"/><rect class="bp" x="61.34" y="83.82" width="7.22" height="0.18" transform="translate(-39.19 91.68) rotate(-88.53)"/><rect class="bp" x="66" y="79.9" width="0.18" height="5.6" transform="translate(-47.64 -18.76) rotate(-25.34)"/><rect class="bp" x="67.09" y="79.08" width="0.18" height="4.93" transform="translate(-55.7 43.53) rotate(-59.78)"/><rect class="bp" x="68.64" y="78.55" width="0.18" height="2.95" transform="translate(-47.14 65.83) rotate(-72.11)"/><rect class="bp" x="67.36" y="78.07" width="0.18" height="4.82" transform="translate(-36.26 86.97) rotate(-85.88)"/><rect class="bp" x="68.53" y="81.58" width="2.11" height="0.18" transform="translate(-45.78 73) rotate(-75.16)"/><rect class="bp" x="69.58" y="79.14" width="9.42" height="0.18" transform="translate(-39.06 -28.87) rotate(-17.58)"/><rect class="bp" x="71.94" y="79.53" width="0.18" height="6.24" transform="translate(-55.91 19.71) rotate(-44.78)"/><rect class="bp" x="72.34" y="81.33" width="8.18" height="0.18" transform="translate(-51.94 46.9) rotate(-57.39)"/><rect class="bp" x="80.44" y="76.33" width="0.18" height="3.54" transform="translate(-28.42 89.57) rotate(-80.47)"/><rect class="bp" x="78.25" y="75.69" width="8.17" height="0.18" transform="translate(-45.38 -4.06) rotate(-29.81)"/><rect class="bp" x="81.2" y="76.01" width="5.97" height="0.18" transform="translate(-46.78 36.97) rotate(-50.16)"/><polygon class="bp" points="69.49 21.14 67.43 18.84 67.56 18.73 69.62 21.03 69.49 21.14"/><polygon class="bp" points="63.86 23.48 63.8 23.32 69.55 21.22 69.61 21.39 63.86 23.48"/><rect class="bp" x="89.51" y="76.16" width="7.41" height="0.18" transform="translate(-28.98 -40.17) rotate(-8.63)"/><rect class="bp" x="90.03" y="76.75" width="0.18" height="5.05" transform="translate(-34.04 -32.87) rotate(-12.91)"/><rect class="bp" x="92.61" y="75.17" width="0.18" height="7.7" transform="translate(-43.86 54.39) rotate(-54.89)"/><rect class="bp" x="93.4" y="78.49" width="5.87" height="0.18" transform="translate(-17.23 103.79) rotate(-79.39)"/><rect class="bp" x="96.41" y="81.17" width="0.18" height="5.97" transform="translate(-34.55 -32.08) rotate(-12.53)"/><rect class="bp" x="92.74" y="83.54" width="4.94" height="0.18" transform="translate(-28.76 99) rotate(-75.03)"/><rect class="bp" x="93.03" y="81.79" width="2.96" height="0.18" transform="translate(-44.78 -5.85) rotate(-25.73)"/><rect class="bp" x="98.26" y="80.34" width="0.18" height="7.85" transform="translate(-49.74 26.74) rotate(-39.48)"/><rect class="bp" x="95.03" y="79.3" width="5.02" height="0.18" transform="translate(-45.47 42.78) rotate(-47.56)"/><rect class="bp" x="97.97" y="75.12" width="0.18" height="2.99" transform="translate(-41.25 51.84) rotate(-52.06)"/><polygon class="bp" points="81.43 20.99 78.08 20.57 78.11 20.4 81.45 20.81 81.43 20.99"/><rect class="bp" x="99.23" y="77.23" width="5.03" height="0.18" transform="translate(-24.72 -46.22) rotate(-4.81)"/><rect class="bp" x="102.5" y="75.95" width="0.18" height="8.69" transform="translate(-43.23 53.35) rotate(-50.49)"/><rect class="bp" x="106.65" y="82.89" width="0.18" height="3.79" transform="translate(-44.22 -2.83) rotate(-24.62)"/><rect class="bp" x="104.65" y="79.54" width="10.1" height="0.18" transform="translate(-43.25 42.6) rotate(-43.6)"/><polygon class="bp" points="101.61 30.01 94.69 21.19 94.83 21.08 101.75 29.9 101.61 30.01"/><rect class="bp" x="118.94" y="70.95" width="0.18" height="11.38" transform="translate(13.63 133.47) rotate(-84.97)"/><rect class="bp" x="120" y="81.25" width="8.45" height="0.18" transform="translate(10.74 140.54) rotate(-83.5)"/><rect class="bp" x="125.92" y="76.83" width="0.18" height="5.74" transform="translate(-41.09 11.28) rotate(-27.16)"/><rect class="bp" x="129.09" y="73.05" width="0.18" height="9.01" transform="translate(21.48 144.05) rotate(-84.73)"/><polygon class="bp" points="108.77 27.32 108.67 27.17 115.04 23.1 115.14 23.25 108.77 27.32"/><rect class="bp" x="129.36" y="81.71" width="0.18" height="8.78" transform="translate(-44.1 18.38) rotate(-28.94)"/><rect class="bp" x="131.31" y="79.61" width="0.18" height="9.21" transform="translate(-22.15 107.6) rotate(-62.81)"/><rect class="bp" x="131.43" y="82.15" width="8.16" height="0.18" transform="translate(34.22 162.46) rotate(-89.81)"/><rect class="bp" x="135.06" y="85.32" width="2.33" height="0.18" transform="translate(-33.77 84.52) rotate(-51.76)"/><rect class="bp" x="136.94" y="84.33" width="2.34" height="0.18" transform="translate(-23.76 -45.92) rotate(-3.7)"/><polygon class="bp" points="118.25 29.5 116.61 23.12 116.78 23.07 118.42 29.45 118.25 29.5"/><rect class="bp" x="137.31" y="77.63" width="0.18" height="7.23" transform="translate(-40.81 28.12) rotate(-31.28)"/><rect class="bp" x="140.08" y="84.21" width="0.18" height="6.22" transform="translate(-37.81 -10.95) rotate(-16.74)"/><rect class="bp" x="140.7" y="83.1" width="0.18" height="3.43" transform="translate(-7.59 130.67) rotate(-68.92)"/><polygon class="bp" points="120.64 29.25 120.53 29.12 127.55 23.38 127.66 23.51 120.64 29.25"/><rect class="bp" x="145.81" y="77.19" width="3.94" height="0.18" transform="translate(-35.44 48.91) rotate(-36.8)"/><polygon class="bp" points="127.64 23.52 127.57 23.36 131.46 21.74 131.52 21.9 127.64 23.52"/><rect class="bp" x="149.35" y="75.79" width="3.8" height="0.18" transform="translate(-26.31 -37.16) rotate(-6.59)"/><rect class="bp" x="153.02" y="72.73" width="0.18" height="2.95" transform="translate(-20 -52.05) rotate(-1.11)"/><polygon class="bp" points="139.46 20.55 134.54 20.75 134.53 20.57 139.45 20.38 139.46 20.55"/><rect class="bp" x="155.52" y="71.4" width="0.18" height="5.54" transform="translate(-1.71 121.5) rotate(-61.9)"/><polygon class="bp" points="134.52 17.79 134.43 17.64 141.68 13.56 141.77 13.71 134.52 17.79"/><rect class="bp" x="155.59" y="71.97" width="7.19" height="0.18" transform="translate(22 145.39) rotate(-71.62)"/><rect class="bp" x="166.18" y="64.75" width="0.18" height="12.35" transform="translate(19.68 143.57) rotate(-68.03)"/><rect class="bp" x="168.96" y="68.99" width="8.73" height="0.18" transform="translate(36.06 158.05) rotate(-72.23)"/><rect class="bp" x="160.51" y="66.38" width="14.28" height="0.18" transform="translate(-29.61 -13.13) rotate(-13.79)"/><circle class="bp" cx="23.21" cy="99.03" r="0.69" transform="translate(-95.25 24.68) rotate(-65.85)"/><circle class="bp" cx="24.71" cy="99.31" r="0.88" transform="translate(-94.62 26.21) rotate(-65.85)"/><circle class="bp" cx="27.19" cy="99.32" r="0.29" transform="translate(-93.16 28.49) rotate(-65.85)"/><circle class="bp" cx="27.41" cy="93.56" r="0.85" transform="translate(-87.78 25.27) rotate(-65.84)"/><circle class="bp" cx="25.43" cy="87.44" r="1.21" transform="translate(-83.36 19.85) rotate(-65.84)"/><circle class="bp" cx="30.69" cy="93.73" r="0.74" transform="translate(-85.99 28.37) rotate(-65.85)"/><circle class="bp" cx="34.99" cy="94.69" r="1.32" transform="translate(-84.33 32.85) rotate(-65.84)"/><circle class="bp" cx="37.48" cy="95.6" r="0.79" transform="translate(-83.69 35.66) rotate(-65.84)"/><circle class="bp" cx="32.69" cy="83.62" r="0.76" transform="translate(-75.59 24.21) rotate(-65.84)"/><circle class="bp" cx="34.54" cy="86.02" r="1.06" transform="translate(-76.68 27.33) rotate(-65.84)"/><circle class="bp" cx="41.72" cy="93.83" r="0.58" transform="translate(-79.57 38.49) rotate(-65.85)"/><circle class="bp" cx="43.25" cy="89.94" r="1.29" transform="translate(-75.11 37.59) rotate(-65.84)"/><circle class="bp" cx="43.93" cy="86.6" r="0.21" transform="translate(-71.66 36.25) rotate(-65.85)"/><circle class="bp" cx="45.5" cy="89.53" r="0.42" transform="translate(-73.41 39.39) rotate(-65.84)"/><circle class="bp" cx="46.35" cy="87.86" r="0.99" transform="translate(-71.38 39.19) rotate(-65.84)"/><circle class="bp" cx="45.73" cy="80.35" r="0.14" transform="translate(-64.9 34.17) rotate(-65.83)"/><circle class="bp" cx="49.45" cy="81.53" r="1.24" transform="translate(-63.78 38.27) rotate(-65.84)"/><circle class="bp" cx="52.97" cy="83.43" r="0.33" transform="translate(-63.43 42.61) rotate(-65.84)"/><circle class="bp" cx="57.6" cy="89.22" r="0.14" transform="translate(-65.99 50.24) rotate(-65.84)"/><circle class="bp" cx="56.94" cy="80.17" r="0.47" transform="translate(-58.11 44.31) rotate(-65.85)"/><circle class="bp" cx="57.29" cy="76.05" r="0.72" transform="translate(-54.15 42.19) rotate(-65.84)"/><circle class="bp" cx="59.52" cy="74.94" r="1.21" transform="translate(-51.81 43.57) rotate(-65.84)"/><circle class="bp" cx="64.77" cy="87.57" r="0.87" transform="translate(-60.24 55.82) rotate(-65.84)"/><circle class="bp" cx="65.09" cy="80.28" r="0.93" transform="translate(-53.4 51.81) rotate(-65.84)"/><circle class="bp" cx="67.15" cy="85.12" r="0.62" transform="translate(-56.6 56.55) rotate(-65.84)"/><circle class="bp" cx="67.17" cy="79.61" r="0.6" transform="translate(-51.55 53.31) rotate(-65.85)"/><circle class="bp" cx="69.31" cy="82.79" r="0.51" transform="translate(-53.19 57.14) rotate(-65.85)"/><circle class="bp" cx="69.88" cy="80.5" r="0.89" transform="translate(-50.77 56.3) rotate(-65.84)"/><circle class="bp" cx="72.81" cy="77.23" r="0.29" transform="translate(-46.06 57.05) rotate(-65.84)"/><circle class="bp" cx="74.24" cy="84.94" r="0.74" transform="translate(-52.24 62.91) rotate(-65.84)"/><circle class="bp" cx="75.51" cy="84.07" r="0.21" transform="matrix(0.41, -0.91, 0.91, 0.41, -50.71, 63.55)"/><circle class="bp" cx="75.44" cy="72.39" r="0.32" transform="translate(-40.09 56.59) rotate(-65.85)"/><circle class="bp" cx="78.79" cy="77.8" r="0.76" transform="translate(-43.05 62.84) rotate(-65.85)"/><circle class="bp" cx="82.27" cy="78.39" r="1.11" transform="translate(-41.52 66.37) rotate(-65.84)"/><circle class="bp" cx="85.91" cy="73.75" r="1.08" transform="translate(-35.14 66.95) rotate(-65.85)"/><circle class="bp" cx="88.25" cy="76.34" r="0.74" transform="translate(-36.12 70.61) rotate(-65.85)"/><circle class="bp" cx="89.55" cy="76.81" r="1.02" transform="translate(-35.78 72.08) rotate(-65.85)"/><circle class="bp" cx="90.64" cy="81.71" r="0.83" transform="translate(-39.61 75.97) rotate(-65.84)"/><circle class="bp" cx="93.11" cy="82.5" r="0.48" transform="translate(-38.87 78.68) rotate(-65.84)"/><circle class="bp" cx="94.57" cy="86.01" r="0.52" transform="translate(-41.2 82.1) rotate(-65.85)"/><circle class="bp" cx="95.87" cy="81.24" r="1.43" transform="translate(-36.09 80.45) rotate(-65.84)"/><circle class="bp" cx="96.88" cy="75.69" r="0.93" transform="translate(-30.43 78.1) rotate(-65.84)"/><circle class="bp" cx="97.17" cy="87" r="1.32" transform="translate(-40.58 85.05) rotate(-65.84)"/><circle class="bp" cx="99.24" cy="77.61" r="0.93" transform="translate(-30.79 81.38) rotate(-65.84)"/><circle class="bp" cx="100.08" cy="75.86" r="0.63" transform="translate(-28.7 81.12) rotate(-65.84)"/><circle class="bp" cx="101" cy="87.4" r="0.71" transform="translate(-38.68 88.78) rotate(-65.84)"/><circle class="bp" cx="101.39" cy="87.47" r="0.63" transform="translate(-38.51 89.18) rotate(-65.84)"/><circle class="bp" cx="104.25" cy="77.11" r="1.37" transform="translate(-27.37 85.67) rotate(-65.84)"/><circle class="bp" cx="106.04" cy="83.11" r="0.97" transform="translate(-31.78 90.85) rotate(-65.85)"/><circle class="bp" cx="107.48" cy="86.37" r="1.15" transform="translate(-33.9 94.08) rotate(-65.84)"/><circle class="bp" cx="108.8" cy="83.89" r="0.76" transform="translate(-30.87 93.82) rotate(-65.85)"/><circle class="bp" cx="113.36" cy="76.14" r="1.1" transform="translate(-21.11 93.4) rotate(-65.84)"/><circle class="bp" cx="116.09" cy="79.42" r="0.34" transform="translate(-22.49 97.82) rotate(-65.84)"/><circle class="bp" cx="118.72" cy="80.03" r="0.32" transform="translate(-21.49 100.59) rotate(-65.85)"/><circle class="bp" cx="120.29" cy="84.97" r="0.52" transform="matrix(0.41, -0.91, 0.91, 0.41, -25.06, 104.94)"/><circle class="bp" cx="122" cy="82.63" r="0.29" transform="translate(-21.92 105.13) rotate(-65.85)"/><circle class="bp" cx="123.8" cy="85.6" r="0.9" transform="translate(-23.57 108.51) rotate(-65.84)"/><circle class="bp" cx="124.64" cy="77.21" r="0.52" transform="translate(-15.42 104.33) rotate(-65.84)"/><circle class="bp" cx="127.35" cy="82.17" r="0.84" transform="translate(-18.34 109.72) rotate(-65.84)"/><circle class="bp" cx="131.57" cy="89.93" r="1.26" transform="translate(-22.93 118.16) rotate(-65.84)"/><circle class="bp" cx="131.56" cy="83.36" r="0.21" transform="translate(-16.94 114.28) rotate(-65.84)"/><circle class="bp" cx="134.09" cy="88.99" r="0.26" transform="translate(-20.58 119.91) rotate(-65.84)"/><circle class="bp" cx="133.63" cy="78.05" r="1.23" transform="translate(-10.86 113.03) rotate(-65.84)"/><circle class="bp" cx="135.45" cy="86.15" r="1.03" transform="translate(-17.19 119.47) rotate(-65.84)"/><circle class="bp" cx="135.54" cy="78.37" r="1.37" transform="translate(-10.03 114.96) rotate(-65.84)"/><circle class="bp" cx="136.86" cy="84.59" r="0.87" transform="translate(-14.93 119.84) rotate(-65.85)"/><circle class="bp" cx="139.29" cy="84.28" r="1.07" transform="translate(-13.22 121.87) rotate(-65.84)"/><circle class="bp" cx="140.72" cy="90.32" r="0.9" transform="translate(-17.88 126.74) rotate(-65.84)"/><circle class="bp" cx="141.07" cy="90.29" r="1.24" transform="translate(-17.65 127.05) rotate(-65.84)"/><circle class="bp" cx="142.29" cy="85.26" r="0.95" transform="translate(-12.33 125.19) rotate(-65.85)"/><circle class="bp" cx="144.26" cy="82.13" r="0.43" transform="translate(-8.31 125.13) rotate(-65.84)"/><circle class="bp" cx="146.02" cy="78.52" r="1.4" transform="translate(-3.98 124.61) rotate(-65.84)"/><circle class="bp" cx="151.3" cy="87.06" r="0.2" transform="translate(-8.63 134.49) rotate(-65.85)"/><circle class="bp" cx="149.48" cy="76.12" r="1.12" transform="translate(0.26 126.35) rotate(-65.84)"/><circle class="bp" cx="150.03" cy="76.67" r="0.93" transform="translate(0.08 127.18) rotate(-65.84)"/><circle class="bp" cx="150.77" cy="73.15" r="0.36" transform="translate(3.71 125.76) rotate(-65.84)"/><circle class="bp" cx="153.13" cy="75.67" r="0.72" transform="translate(2.82 129.42) rotate(-65.84)"/><circle class="bp" cx="153.02" cy="72.77" r="1.37" transform="translate(5.4 127.6) rotate(-65.84)"/><circle class="bp" cx="158.05" cy="75.48" r="1.23" transform="translate(5.9 133.79) rotate(-65.84)"/><circle class="bp" cx="157.27" cy="67.72" r="0.31" transform="translate(12.52 128.5) rotate(-65.85)"/><circle class="bp" cx="160.54" cy="68.62" r="0.93" transform="translate(13.64 132.02) rotate(-65.85)"/><circle class="bp" cx="163.34" cy="70.95" r="0.21" transform="translate(13.16 135.93) rotate(-65.84)"/><circle class="bp" cx="161.35" cy="67.11" r="0.23" transform="translate(15.49 131.86) rotate(-65.85)"/><circle class="bp" cx="172" cy="73.24" r="1.24" transform="translate(16.19 145.2) rotate(-65.85)"/><circle class="bp" cx="165.29" cy="61.56" r="0.21" transform="translate(22.88 132.17) rotate(-65.84)"/><circle class="bp" cx="169.16" cy="62.3" r="0.42" transform="translate(24.49 136.14) rotate(-65.84)"/><circle class="bp" cx="174.58" cy="64.76" r="0.63" transform="translate(25.45 142.54) rotate(-65.84)"/><circle class="bp" cx="167.91" cy="55.93" r="0.91" transform="translate(29.57 131.23) rotate(-65.84)"/><circle class="bp" cx="176.17" cy="61" r="0.21" transform="translate(29.81 141.76) rotate(-65.84)"/><rect class="ai" x="20.96" y="91.08" width="4.57" height="0.18" transform="translate(-51.74 -39.16) rotate(-22.52)"/><rect class="ai" x="28.17" y="89.26" width="0.18" height="9.19" transform="translate(-71.55 -16.04) rotate(-39.19)"/><rect class="ai" x="30.33" y="95.54" width="4.67" height="0.18" transform="translate(-80 3.68) rotate(-49.7)"/><rect class="ai" x="30.26" y="87.97" width="0.18" height="9.51" transform="matrix(0.99, -0.17, 0.17, 0.99, -33.92, -48.5)"/><rect class="ai" x="29.35" y="94.38" width="6.59" height="0.18" transform="translate(-85.01 26.1) rotate(-63.26)"/><rect class="ai" x="31.11" y="96.73" width="7.09" height="0.18" transform="translate(-34.32 -47.84) rotate(-9.64)"/><rect class="ai" x="36.25" y="92.98" width="0.18" height="4.25" transform="translate(-82.21 20.71) rotate(-58.11)"/><rect class="ai" x="31.77" y="97.28" width="0.18" height="3.86" transform="translate(-52.2 -36.88) rotate(-21.11)"/><rect class="ai" x="31.57" y="98.67" width="7.19" height="0.18" transform="translate(-72.72 -11.19) rotate(-38.8)"/><rect class="ai" x="32.3" y="100.15" width="8.64" height="0.18" transform="translate(-35.94 -46.84) rotate(-10.31)"/><rect class="ai" x="44.06" y="99.37" width="0.18" height="6.35" transform="translate(-77.37 4.27) rotate(-43.91)"/><rect class="ai" x="46.41" y="100.88" width="0.18" height="3.16" transform="translate(-74.6 1.03) rotate(-41.23)"/><rect class="ai" x="47.24" y="102.76" width="2.43" height="0.18" transform="translate(-74.48 2.66) rotate(-41.36)"/><rect class="ai" x="47.51" y="99.2" width="0.18" height="4.27" transform="translate(-73.78 90.73) rotate(-88.21)"/><rect class="ai" x="51.3" y="101.28" width="0.18" height="8.61" transform="translate(-84.62 49.05) rotate(-63.31)"/><rect class="ai" x="54.77" y="106.22" width="3.57" height="0.18" transform="translate(-75.51 10.97) rotate(-42.42)"/><rect class="ai" x="52.62" y="99.16" width="0.18" height="10.43" transform="translate(-76.62 86.96) rotate(-81.96)"/><rect class="ai" x="55.66" y="101.94" width="6.48" height="0.18" transform="translate(-75.14 70.55) rotate(-71.52)"/><rect class="ai" x="56" y="101.57" width="8.23" height="0.18" transform="translate(-76.48 41.68) rotate(-57)"/><rect class="ai" x="59.71" y="98.38" width="2.67" height="0.18" transform="translate(-36.22 -41.6) rotate(-10.97)"/><rect class="ai" x="57.76" y="103.94" width="10.59" height="0.18" transform="translate(-38.48 -39.98) rotate(-11.76)"/><rect class="ai" x="60.32" y="94.51" width="8.46" height="0.18" transform="translate(-68.41 45.67) rotate(-58.74)"/><rect class="ai" x="65.21" y="96.8" width="0.18" height="7.56" transform="translate(-72.59 33.34) rotate(-51.15)"/><rect class="ai" x="62.29" y="97.3" width="11" height="0.18" transform="translate(-32.44 -43.74) rotate(-8.63)"/><rect class="ai" x="66.68" y="99.67" width="8.11" height="0.18" transform="translate(-70.02 39.06) rotate(-52)"/><rect class="ai" x="70.58" y="101.32" width="0.18" height="5.24" transform="translate(-70.92 74.87) rotate(-67.7)"/><rect class="ai" x="67.92" y="101.26" width="8.43" height="0.18" transform="translate(-51.81 -19.82) rotate(-22.43)"/><rect class="ai" x="73.57" y="97.01" width="5.3" height="0.18" transform="translate(-44.49 111.45) rotate(-86.06)"/><polygon class="ai" points="54.68 41.62 54.58 41.48 57.75 39.37 57.85 39.51 54.68 41.62"/><rect class="ai" x="74.86" y="92.52" width="3.75" height="0.18" transform="matrix(0.18, -0.98, 0.98, 0.18, -46.67, 96.59)"/><rect class="ai" x="79.21" y="91.66" width="0.18" height="5.79" transform="translate(-36.72 115.31) rotate(-87.89)"/><rect class="ai" x="79.56" y="89.78" width="0.18" height="6.21" transform="translate(-60.73 49.78) rotate(-54.97)"/><rect class="ai" x="76.01" y="99.26" width="6.44" height="0.18" transform="translate(-30.19 -44.55) rotate(-7.04)"/><rect class="ai" x="75.4" y="97.02" width="7.66" height="0.18" transform="translate(-62.31 17.74) rotate(-39.58)"/><rect class="ai" x="82.22" y="94.66" width="0.18" height="4.29" transform="translate(-23.96 -50.18) rotate(-3.25)"/><rect class="ai" x="81.34" y="91.73" width="8.05" height="0.18" transform="translate(-57.98 24.25) rotate(-41.34)"/><rect class="ai" x="81.97" y="93.59" width="4.8" height="0.18" transform="translate(-49.67 -12) rotate(-24.3)"/><rect class="ai" x="85.49" y="90.84" width="3.98" height="0.18" transform="translate(-51.95 72.26) rotate(-62.85)"/><rect class="ai" x="86.08" y="90.66" width="8.27" height="0.18" transform="translate(-50.71 -1.81) rotate(-28.11)"/><rect class="ai" x="88.38" y="88.89" width="5.49" height="0.18" transform="translate(-24.15 -48.95) rotate(-3.7)"/><rect class="ai" x="91.16" y="85.29" width="0.18" height="5.47" transform="translate(-37.82 95.22) rotate(-73.35)"/><rect class="ai" x="91.55" y="86.29" width="4.85" height="0.18" transform="translate(-15.13 121.37) rotate(-87.43)"/><rect class="ai" x="88.46" y="85.37" width="6.03" height="0.18" transform="translate(-49 1.87) rotate(-29.86)"/><rect class="ai" x="97" y="86.26" width="0.18" height="6.62" transform="translate(-31.17 108.21) rotate(-76.58)"/><rect class="ai" x="98.51" y="83.19" width="0.18" height="7.55" transform="translate(-47.22 -1.2) rotate(-26.81)"/><rect class="ai" x="93.73" y="83.7" width="3.18" height="0.18" transform="translate(-28.2 -42.63) rotate(-7.08)"/><rect class="ai" x="92.43" y="86.03" width="5.89" height="0.18" transform="translate(-46.33 67.95) rotate(-58.74)"/><rect class="ai" x="91.4" y="80.81" width="6.16" height="0.18" transform="translate(-16.48 109.19) rotate(-82.62)"/><rect class="ai" x="93.24" y="82.09" width="4.55" height="0.18" transform="translate(-46.96 50.21) rotate(-51.25)"/><rect class="ai" x="95.32" y="81.91" width="3.19" height="0.18" transform="translate(-4.78 122.97) rotate(-89.35)"/><rect class="ai" x="96.76" y="82.54" width="6.9" height="0.18" transform="translate(-37.76 -23.58) rotate(-16.29)"/><polygon class="ai" points="84.96 26.73 84.88 26.58 91.68 22.91 91.77 23.06 84.96 26.73"/><rect class="ai" x="100.24" y="76.89" width="9.98" height="0.18" transform="translate(-21.66 94.58) rotate(-70.03)"/><rect class="ai" x="106.07" y="79.84" width="0.18" height="5.64" transform="translate(-27.27 97.77) rotate(-69.31)"/><rect class="ai" x="106.63" y="80.74" width="5.87" height="0.18" transform="translate(-15.6 110.56) rotate(-74.91)"/><polygon class="ai" points="95.25 29.37 89.94 28.84 89.96 28.67 95.27 29.19 95.25 29.37"/><rect class="ai" x="111.87" y="77.41" width="0.18" height="7.41" transform="translate(-44.36 13.92) rotate(-30.87)"/><rect class="ai" x="113.83" y="82.42" width="11.03" height="0.18" transform="translate(-38.67 -12.69) rotate(-18.58)"/><rect class="ai" x="122.85" y="74.37" width="0.18" height="6.8" transform="translate(-40.84 13.46) rotate(-28.65)"/><rect class="ai" x="123.8" y="78.81" width="5.22" height="0.18" transform="translate(-37.3 57.77) rotate(-45.12)"/><polygon class="ai" points="105.98 25.82 105.95 25.65 117.66 23.77 117.68 23.94 105.98 25.82"/><rect class="ai" x="132.17" y="73.85" width="0.18" height="8.22" transform="translate(8.42 134.73) rotate(-77.24)"/><rect class="ai" x="135.43" y="73.81" width="0.18" height="5.17" transform="translate(-35.01 -12.1) rotate(-16.98)"/><rect class="ai" x="127.84" y="75.27" width="7.22" height="0.18" transform="translate(-37.74 3.56) rotate(-23.46)"/><polygon class="ai" points="110.02 20.28 109.96 20.11 112.22 19.38 112.28 19.54 110.02 20.28"/><polygon class="ai" points="112.58 19.35 112.43 19.26 117.56 10.88 117.71 10.97 112.58 19.35"/><polygon class="ai" points="112.28 19.54 112.21 19.38 116.89 17.22 116.96 17.38 112.28 19.54"/><rect class="ai" x="132.67" y="69.04" width="6.41" height="0.18" transform="translate(33.63 141.57) rotate(-83.68)"/><rect class="ai" x="134.11" y="69.44" width="6.9" height="0.18" transform="translate(-18.15 84.92) rotate(-53.99)"/><rect class="ai" x="137.72" y="64.25" width="0.18" height="3.76" transform="translate(12.31 120.38) rotate(-71.26)"/><rect class="ai" x="140.97" y="66" width="0.18" height="4.21" transform="translate(-30.11 48.56) rotate(-38.86)"/><rect class="ai" x="135.58" y="70.88" width="7.01" height="0.18" transform="translate(-34.62 -2) rotate(-20.43)"/><rect class="ai" x="139.47" y="64.84" width="9.2" height="0.18" transform="translate(-32.01 -3.18) rotate(-19.51)"/><rect class="ai" x="148.59" y="63.37" width="0.18" height="3.87" transform="translate(-26.32 -33.39) rotate(-8.11)"/><polygon class="ai" points="141.28 13.91 130.34 12.29 130.36 12.12 141.31 13.73 141.28 13.91"/><polygon class="ai" points="141.29 13.91 131.39 14.18 131.38 14 141.29 13.73 141.29 13.91"/><rect class="ai" x="152.56" y="70.75" width="7.89" height="0.18" transform="translate(-32.85 34.72) rotate(-30.67)"/><rect class="ai" x="160.2" y="68.99" width="0.18" height="6.52" transform="translate(-26.21 -34.95) rotate(-7)"/><rect class="ai" x="155.64" y="76.57" width="5.32" height="0.18" transform="translate(-36.18 23.03) rotate(-26.29)"/><rect class="ai" x="159.3" y="73.28" width="4.61" height="0.18" transform="translate(11.29 137.32) rotate(-66.51)"/><rect class="ai" x="159.43" y="67.63" width="6.37" height="0.18" transform="translate(-31.88 3.17) rotate(-19.51)"/><polygon class="ai" points="143.86 16.31 141.23 13.89 141.35 13.76 143.98 16.18 143.86 16.31"/><polygon class="ai" points="143.94 16.33 143.9 16.16 152.99 13.91 153.03 14.08 143.94 16.33"/><rect class="ai" x="171.56" y="68.47" width="3.9" height="0.18" transform="translate(-29.63 -13.86) rotate(-13.11)"/><rect class="ai" x="173.92" y="67.52" width="0.18" height="5.36" transform="translate(15.13 139.8) rotate(-63.58)"/><circle class="ai" cx="177.59" cy="72.05" r="1.01" transform="translate(2.09 127.1) rotate(-57.13)"/><circle class="ai" cx="176.55" cy="71.5" r="1.42" transform="translate(2.07 125.97) rotate(-57.13)"/><circle class="ai" cx="175.47" cy="68.03" r="1.43" transform="translate(4.5 123.47) rotate(-57.13)"/><circle class="ai" cx="171.75" cy="69.17" r="1.3" transform="translate(1.84 120.87) rotate(-57.13)"/><circle class="ai" cx="169.97" cy="72.18" r="0.42" transform="translate(-1.5 120.75) rotate(-57.13)"/><circle class="ai" cx="167.6" cy="68.68" r="0.32" transform="translate(0.36 117.17) rotate(-57.14)"/><circle class="ai" cx="165.63" cy="66.7" r="0.89" transform="translate(1.12 114.6) rotate(-57.13)"/><circle class="ai" cx="162.5" cy="71.26" r="0.48" transform="translate(-4.14 114.07) rotate(-57.13)"/><circle class="ai" cx="160.62" cy="75.48" r="0.94" transform="translate(-8.55 114.41) rotate(-57.13)"/><circle class="ai" cx="159.89" cy="68.83" r="0.73" transform="translate(-3.3 110.77) rotate(-57.13)"/><circle class="ai" cx="155.98" cy="77.81" r="0.76" transform="translate(-12.62 111.59) rotate(-57.13)"/><circle class="ai" cx="154.46" cy="74.37" r="0.13" transform="translate(-10.44 108.72) rotate(-57.13)"/><circle class="ai" cx="153.2" cy="72.83" r="0.57" transform="matrix(0.54, -0.84, 0.84, 0.54, -9.72, 106.96)"/><circle class="ai" cx="151.86" cy="78.52" r="0.26" transform="translate(-15.11 108.43) rotate(-57.13)"/><circle class="ai" cx="149.93" cy="69.15" r="1.18" transform="translate(-8.12 102.54) rotate(-57.13)"/><circle class="ai" cx="148.95" cy="67.22" r="0.97" transform="translate(-6.95 100.83) rotate(-57.13)"/><circle class="ai" cx="148.32" cy="63.5" r="0.61" transform="translate(-4.11 98.6) rotate(-57.13)"/><circle class="ai" cx="146.47" cy="65.34" r="0.26" transform="translate(-6.51 97.89) rotate(-57.13)"/><circle class="ai" cx="143.89" cy="69.47" r="0.32" transform="translate(-11.15 97.61) rotate(-57.13)"/><circle class="ai" cx="143.54" cy="69.34" r="1.28" transform="translate(-11.2 97.26) rotate(-57.13)"/><circle class="ai" cx="142.46" cy="69.62" r="1.21" transform="translate(-11.94 96.47) rotate(-57.13)"/><circle class="ai" cx="139.67" cy="66.77" r="1.13" transform="translate(-10.81 92.83) rotate(-57.13)"/><circle class="ai" cx="136.19" cy="65.78" r="1.07" transform="translate(-11.58 89.45) rotate(-57.13)"/><circle class="ai" cx="135.53" cy="72.31" r="1.43" transform="translate(-17.37 91.88) rotate(-57.13)"/><circle class="ai" cx="136.2" cy="78.94" r="1.21" transform="translate(-22.63 95.48) rotate(-57.13)"/><circle class="ai" cx="134.77" cy="74.02" r="1.34" transform="translate(-19.14 92.03) rotate(-57.13)"/><circle class="ai" cx="131.1" cy="74.32" r="0.53" transform="translate(-21.08 89.07) rotate(-57.12)"/><circle class="ai" cx="128.88" cy="75.34" r="1.15" transform="translate(-22.94 87.68) rotate(-57.13)"/><circle class="ai" cx="128.26" cy="76.92" r="1.13" transform="translate(-24.55 87.89) rotate(-57.13)"/><circle class="ai" cx="124.83" cy="70.77" r="0.1" transform="translate(-20.96 82.2) rotate(-57.13)"/><circle class="ai" cx="124.57" cy="80.75" r="1.22" transform="translate(-29.46 86.54) rotate(-57.13)"/><circle class="ai" cx="121.31" cy="74.91" r="0.98" transform="translate(-26.05 81.13) rotate(-57.13)"/><circle class="ai" cx="118.42" cy="73.71" r="0.33" transform="translate(-26.36 78.16) rotate(-57.13)"/><circle class="ai" cx="116.3" cy="78.97" r="0.37" transform="translate(-31.75 78.79) rotate(-57.13)"/><circle class="ai" cx="112.4" cy="78.41" r="0.27" transform="translate(-33.06 75.25) rotate(-57.13)"/><circle class="ai" cx="112.23" cy="79.39" r="0.14" transform="translate(-33.97 75.54) rotate(-57.12)"/><circle class="ai" cx="113.86" cy="84.34" r="1.31" transform="translate(-37.37 79.18) rotate(-57.13)"/><circle class="ai" cx="110.21" cy="78" r="1.28" transform="translate(-33.72 73.22) rotate(-57.13)"/><circle class="ai" cx="106.98" cy="72.16" r="0.69" transform="translate(-30.29 67.84) rotate(-57.13)"/><circle class="ai" cx="108.62" cy="83.67" r="0.85" transform="translate(-39.2 74.48) rotate(-57.13)"/><circle class="ai" cx="103.52" cy="81.68" r="0.81" transform="translate(-39.87 69.28) rotate(-57.13)"/><circle class="ai" cx="98.95" cy="78.7" r="0.26" transform="translate(-39.45 64.09) rotate(-57.14)"/><circle class="ai" cx="96.78" cy="80.49" r="0.92" transform="translate(-41.95 63.08) rotate(-57.13)"/><circle class="ai" cx="94.86" cy="78.07" r="1.38" transform="translate(-40.8 60.36) rotate(-57.13)"/><circle class="ai" cx="96.98" cy="83.62" r="0.7" transform="translate(-44.49 64.67) rotate(-57.13)"/><circle class="ai" cx="100.17" cy="90.44" r="1.02" transform="translate(-48.76 70.47) rotate(-57.13)"/><circle class="ai" cx="94" cy="84.04" r="1.16" transform="matrix(0.54, -0.84, 0.84, 0.54, -46.2, 62.36)"/><circle class="ai" cx="93.76" cy="88.69" r="1.35" transform="translate(-50.22 64.29) rotate(-57.13)"/><circle class="ai" cx="88.69" cy="87.22" r="1.13" transform="translate(-51.3 59.36) rotate(-57.13)"/><circle class="ai" cx="88.43" cy="89.1" r="1.18" transform="translate(-53 60) rotate(-57.13)"/><circle class="ai" cx="86.51" cy="92.69" r="0.42" transform="translate(-56.9 60.03) rotate(-57.13)"/><circle class="ai" cx="87.17" cy="98.68" r="0.41" transform="translate(-61.63 63.32) rotate(-57.13)"/><circle class="ai" cx="82.22" cy="94.54" r="1.3" transform="translate(-60.4 57.27) rotate(-57.13)"/><circle class="ai" cx="82.41" cy="99.04" r="0.92" transform="translate(-64.1 59.49) rotate(-57.13)"/><circle class="ai" cx="81.71" cy="99.69" r="0.46" transform="translate(-64.97 59.2) rotate(-57.13)"/><circle class="ai" cx="76.99" cy="91.18" r="1.03" transform="translate(-59.98 51.34) rotate(-57.13)"/><circle class="ai" cx="76.4" cy="94.45" r="0.57" transform="translate(-63 52.35) rotate(-57.13)"/><circle class="ai" cx="76.66" cy="100.67" r="0.13" transform="translate(-68.09 55.44) rotate(-57.14)"/><circle class="ai" cx="76.02" cy="99.68" r="0.9" transform="translate(-67.56 54.43) rotate(-57.13)"/><circle class="ai" cx="74.6" cy="98.18" r="0.39" transform="translate(-66.95 52.54) rotate(-57.13)"/><circle class="ai" cx="73.34" cy="96.56" r="1.41" transform="translate(-66.16 50.75) rotate(-57.13)"/><circle class="ai" cx="73.12" cy="104.85" r="0.35" transform="translate(-73.23 54.34) rotate(-57.13)"/><circle class="ai" cx="66.74" cy="90.98" r="0.75" transform="translate(-64.49 42.65) rotate(-57.13)"/><circle class="ai" cx="68.24" cy="102.95" r="0.52" transform="translate(-73.86 49.38) rotate(-57.13)"/><circle class="ai" cx="62.19" cy="93.56" r="0.22" transform="translate(-68.74 40) rotate(-57.13)"/><circle class="ai" cx="62.25" cy="98.21" r="0.9" transform="translate(-72.62 42.18) rotate(-57.13)"/><circle class="ai" cx="59.98" cy="98.85" r="0.8" transform="translate(-74.2 40.57) rotate(-57.13)"/><circle class="ai" cx="57.87" cy="105.11" r="0.48" transform="translate(-80.42 41.66) rotate(-57.13)"/><circle class="ai" cx="55.35" cy="107.59" r="1.17" transform="translate(-83.65 40.67) rotate(-57.13)"/><circle class="ai" cx="52.27" cy="98.57" r="0.39" transform="translate(-77.49 33.98) rotate(-57.14)"/><circle class="ai" cx="50.02" cy="101.45" r="1.23" transform="translate(-80.94 33.39) rotate(-57.13)"/><circle class="ai" cx="47.54" cy="103.65" r="1.41" transform="translate(-83.91 32.31) rotate(-57.13)"/><circle class="ai" cx="46.81" cy="103.21" r="0.59" transform="translate(-83.89 31.5) rotate(-57.13)"/><circle class="ai" cx="46.27" cy="104.62" r="1.14" transform="translate(-85.32 31.69) rotate(-57.13)"/><circle class="ai" cx="45.69" cy="104.39" r="0.23" transform="translate(-85.38 31.09) rotate(-57.13)"/><circle class="ai" cx="45.46" cy="101.27" r="0.66" transform="translate(-82.87 29.48) rotate(-57.13)"/><circle class="ai" cx="44.87" cy="102.55" r="0.21" transform="translate(-84.21 29.56) rotate(-57.13)"/><circle class="ai" cx="42.08" cy="100.41" r="0.83" transform="translate(-83.69 26.24) rotate(-57.13)"/><circle class="ai" cx="40.86" cy="99.46" r="0.94" transform="translate(-83.45 24.79) rotate(-57.13)"/><circle class="ai" cx="38.15" cy="96.23" r="1.25" transform="translate(-81.98 21.03) rotate(-57.13)"/><circle class="ai" cx="32.55" cy="101.02" r="0.82" transform="translate(-88.56 18.52) rotate(-57.13)"/><circle class="ai" cx="34.17" cy="93.9" r="1.12" transform="translate(-81.84 16.63) rotate(-57.13)"/><circle class="ai" cx="33.97" cy="91.98" r="1.41" transform="translate(-80.32 15.58) rotate(-57.13)"/><circle class="ai" cx="31.15" cy="97.47" r="0.9" transform="translate(-86.22 15.72) rotate(-57.13)"/><circle class="ai" cx="27.07" cy="99.45" r="0.42" transform="translate(-89.75 13.2) rotate(-57.13)"/><circle class="ai" cx="29.54" cy="88.04" r="0.77" transform="translate(-79.04 10.06) rotate(-57.13)"/><circle class="ai" cx="25.35" cy="90.29" r="1.28" transform="translate(-82.85 7.57) rotate(-57.13)"/><circle class="ai" cx="21.13" cy="92.04" r="1.43" transform="translate(-86.25 4.83) rotate(-57.13)"/><circle class="ai" cx="19.68" cy="91.34" r="0.88" transform="translate(-86.32 3.29) rotate(-57.13)"/></svg>