<svg xmlns="http://www.w3.org/2000/svg" xmlns:xlink="http://www.w3.org/1999/xlink" viewBox="0 0 673.56 593"><defs><style>.a{isolation:isolate;}.b{fill:#f15927;}.c,.e,.g{mix-blend-mode:multiply;}.c{fill:url(#a);}.d{fill:#2ebcc6;}.e{fill:url(#b);}.f{fill:#3f5465;}.g{fill:url(#c);}.h{fill:#e6e6e6;}.i{fill:#fff;}</style><linearGradient id="a" x1="64.06" y1="184.06" x2="653.45" y2="184.06" gradientUnits="userSpaceOnUse"><stop offset="0" stop-color="#fff"/><stop offset="0.24" stop-color="#fbfcfc"/><stop offset="0.46" stop-color="#f1f2f3"/><stop offset="0.66" stop-color="#dee2e4"/><stop offset="0.86" stop-color="#c5cbcf"/><stop offset="1" stop-color="#aeb7bc"/></linearGradient><linearGradient id="b" x1="421.22" y1="673.72" x2="715.93" y2="163.27" gradientUnits="userSpaceOnUse"><stop offset="0" stop-color="#aeb7bc"/><stop offset="0.14" stop-color="#c5cbcf"/><stop offset="0.34" stop-color="#dee2e4"/><stop offset="0.54" stop-color="#f1f2f3"/><stop offset="0.76" stop-color="#fbfcfc"/><stop offset="1" stop-color="#fff"/></linearGradient><linearGradient id="c" x1="407.21" y1="737.92" x2="112.84" y2="228.04" xlink:href="#a"/></defs><title>appLifecycle</title><g class="a"><path class="b" d="M648.61,160.57l-48,83.15H95.38a36.16,36.16,0,0,0-31.32,18.07l79.33-137.4a36.18,36.18,0,0,1,31.32-18.07H617.29a36.16,36.16,0,0,1,31.32,54.25Z" transform="translate(-59.22 -106.32)"/><path class="c" d="M648.61,160.57l-48,83.15H95.38a36.16,36.16,0,0,0-31.32,18.07l79.33-137.4a36.18,36.18,0,0,1,31.32-18.07H617.29a36.16,36.16,0,0,1,31.32,54.25Z" transform="translate(-59.22 -106.32)"/><path class="d" d="M727.94,261.79a36.16,36.16,0,0,1,0,36.16L506.65,681.25a36.15,36.15,0,0,1-31.32,18.07h-1.26A36.12,36.12,0,0,1,444,681.27l-48-83.15L600.6,243.72l48-83.15a36.17,36.17,0,0,0,0-36.17Z" transform="translate(-59.22 -106.32)"/><path class="e" d="M727.94,261.79a36.16,36.16,0,0,1,0,36.16L506.65,681.25a36.15,36.15,0,0,1-31.32,18.07h-1.26A36.12,36.12,0,0,1,444,681.27l-48-83.15L600.6,243.72l48-83.15a36.17,36.17,0,0,0,0-36.17Z" transform="translate(-59.22 -106.32)"/><path class="f" d="M474.07,699.32H316.67a36.15,36.15,0,0,1-31.32-18.07L64.07,298a36.15,36.15,0,0,1,31.32-54.23h96L396,598.11l48,83.15A36.12,36.12,0,0,0,474.07,699.32Z" transform="translate(-59.22 -106.32)"/><path class="g" d="M474.07,699.32H316.67a36.15,36.15,0,0,1-31.32-18.07L64.07,298a36.15,36.15,0,0,1,31.32-54.23h96L396,598.11l48,83.15A36.12,36.12,0,0,0,474.07,699.32Z" transform="translate(-59.22 -106.32)"/><path class="h" d="M299.94,175.5q0,10.93-6.22,16.74t-18,5.81H263.21V153.8h13.9q10.84,0,16.83,5.72T299.94,175.5Zm-9.75.24q0-14.26-12.59-14.26h-5v28.82h4Q290.19,190.31,290.19,175.75Z" transform="translate(-59.22 -106.32)"/><path class="h" d="M334.6,198.06H309.11V153.8H334.6v7.69H318.49v9.72h15v7.69h-15v11.41H334.6Z" transform="translate(-59.22 -106.32)"/><path class="h" d="M369.08,153.8h9.48l-15,44.26H353.28l-15-44.26h9.48l8.33,26.34q.7,2.33,1.44,5.43t.92,4.31a77.44,77.44,0,0,1,2.27-9.75Z" transform="translate(-59.22 -106.32)"/><path class="h" d="M409.62,198.06H384.13V153.8h25.49v7.69H393.51v9.72h15v7.69h-15v11.41h16.11Z" transform="translate(-59.22 -106.32)"/><path class="h" d="M418.85,198.06V153.8h9.38v36.51h18v7.75Z" transform="translate(-59.22 -106.32)"/><path class="h" d="M494,175.87q0,11-5.45,16.89T473,198.66q-10.17,0-15.62-5.9t-5.45-17q0-11,5.46-16.88T473,153.1q10.2,0,15.61,5.87T494,175.87Zm-32.3,0q0,7.42,2.82,11.17t8.42,3.75q11.23,0,11.23-14.92t-11.17-15q-5.6,0-8.45,3.77T461.75,175.87Z" transform="translate(-59.22 -106.32)"/><path class="h" d="M533.8,167.6q0,7.14-4.46,10.93t-12.7,3.78h-4v15.74h-9.38V153.8h14.14q8.05,0,12.25,3.47T533.8,167.6Zm-21.19,7h3.09q4.33,0,6.48-1.71a6,6,0,0,0,2.15-5,6.14,6.14,0,0,0-1.8-4.87q-1.8-1.57-5.65-1.57h-4.27Z" transform="translate(-59.22 -106.32)"/><path class="h" d="M195.56,382.55q-9.46,5.47-17.61,3t-14-12.64l-6.27-10.85L196,339.9l7,12q5.43,9.38,3.47,17.44T195.56,382.55Zm-5.09-8.32q12.34-7.14,6-18l-2.5-4.32L169.06,366.3l2,3.49Q177.87,381.52,190.47,374.23Z" transform="translate(-59.22 -106.32)"/><path class="h" d="M193.39,423.85l-12.76-22.07,38.32-22.16,12.76,22.07L225,405.54,217,391.6l-8.41,4.86,7.5,13-6.66,3.85-7.5-13L192,406,200.1,420Z" transform="translate(-59.22 -106.32)"/><path class="h" d="M239.68,443.06q-6.18,3.57-11.7,1.61t-9.63-9.1l-2-3.49L202.71,440l-4.7-8.12,38.31-22.16,7.08,12.24q4,7,3.13,12.34T239.68,443.06ZM223,428.23l1.55,2.67q2.17,3.75,4.72,4.75a6,6,0,0,0,5.39-.63,6.14,6.14,0,0,0,3.32-4q.46-2.35-1.46-5.68l-2.14-3.69Z" transform="translate(-59.22 -106.32)"/><path class="h" d="M217.5,465.54l38.31-22.16,4.7,8.12-31.61,18.28,9,15.54-6.71,3.88Z" transform="translate(-59.22 -106.32)"/><path class="h" d="M274.35,519.53q-9.51,5.5-17.35,3.74T244.07,512.7q-5.09-8.8-2.71-16.48T253.31,483q9.57-5.53,17.35-3.72t12.89,10.64q5.11,8.83,2.73,16.45T274.35,519.53Zm-16.17-28q-6.42,3.71-8.26,8t1,9.16q5.62,9.72,18.54,2.25t7.35-17.16q-2.8-4.85-7.49-5.43T258.18,491.57Z" transform="translate(-59.22 -106.32)"/><path class="h" d="M289.17,537.47l20.4-1.13,5.06,8.75-30.75.82L269,554.54l-4.67-8.07L278.95,538l16.31-26.39,5.09,8.81Z" transform="translate(-59.22 -106.32)"/><path class="h" d="M554.58,504.08l-4.69,8.13L518.31,494l-6,10.41-6.77-3.9,16.69-29,6.77,3.9-6,10.41Z" transform="translate(-59.22 -106.32)"/><path class="h" d="M580.49,459.13l-12.73,22.08L529.42,459.1,542.15,437l6.66,3.84-8,14,8.42,4.85,7.48-13,6.66,3.84-7.48,13,9.89,5.7,8-14Z" transform="translate(-59.22 -106.32)"/><path class="h" d="M591.28,415.8a11.44,11.44,0,0,1,6,8.45q.83,5.46-3,12.12a28.19,28.19,0,0,1-8.57,9.53l-7.55-4.35a51.45,51.45,0,0,0,6.23-5.16,22.42,22.42,0,0,0,3.54-4.51,8.07,8.07,0,0,0,1.34-4.69,4,4,0,0,0-2.22-3.18,3.88,3.88,0,0,0-2.37-.53,8.18,8.18,0,0,0-2.76.87,55.26,55.26,0,0,0-5.46,3.47,27.12,27.12,0,0,1-6.21,3.44,13.7,13.7,0,0,1-5.16.77,11.67,11.67,0,0,1-5.33-1.67,11.44,11.44,0,0,1-6-8.06q-.92-5.13,2.58-11.21a26,26,0,0,1,4-5.29,45.34,45.34,0,0,1,5.27-4.53l4.81,6.27a44.54,44.54,0,0,0-4.68,4.06,18.86,18.86,0,0,0-2.77,3.66,6,6,0,0,0-1,4.16,4.09,4.09,0,0,0,2.1,2.85,4,4,0,0,0,2.16.58,6.31,6.31,0,0,0,2.46-.7,56,56,0,0,0,5.66-3.6q5.67-3.89,9.4-4.4A11.61,11.61,0,0,1,591.28,415.8Z" transform="translate(-59.22 -106.32)"/><path class="h" d="M618.24,393.64l-4.69,8.13L582,383.57,576,394l-6.77-3.9,16.69-29,6.77,3.9-6,10.41Z" transform="translate(-59.22 -106.32)"/><path class="i" d="M287.86,295.73a8.33,8.33,0,0,0-7.14,3.47q-2.53,3.47-2.53,9.66,0,12.89,9.67,12.89a30.56,30.56,0,0,0,9.83-2v6.85a27.3,27.3,0,0,1-10.59,2q-8.41,0-12.86-5.1t-4.45-14.64A23.91,23.91,0,0,1,272,298.27a15.81,15.81,0,0,1,6.29-6.93,18.59,18.59,0,0,1,9.61-2.41,25.94,25.94,0,0,1,11.28,2.71l-2.64,6.64a43.72,43.72,0,0,0-4.35-1.79A13,13,0,0,0,287.86,295.73Z" transform="translate(-59.22 -106.32)"/><path class="i" d="M327.71,313.23q0,7.2-3.79,11.25t-10.57,4.06a14.78,14.78,0,0,1-7.48-1.86,12.36,12.36,0,0,1-5-5.34,17.93,17.93,0,0,1-1.74-8.12q0-7.22,3.77-11.23t10.6-4a14.87,14.87,0,0,1,7.48,1.84,12.32,12.32,0,0,1,5,5.3A17.77,17.77,0,0,1,327.71,313.23Zm-20.37,0q0,4.38,1.44,6.62a5.14,5.14,0,0,0,4.68,2.24,5.05,5.05,0,0,0,4.63-2.23q1.41-2.23,1.41-6.63t-1.42-6.56a6.05,6.05,0,0,0-9.3,0Q307.34,308.83,307.34,313.23Z" transform="translate(-59.22 -106.32)"/><path class="i" d="M358.32,328h-8V310.8a8.27,8.27,0,0,0-1.13-4.78,4.12,4.12,0,0,0-3.61-1.59,5.43,5.43,0,0,0-4.88,2.25q-1.5,2.25-1.5,7.47V328h-8V298.55h6.14l1.08,3.77h.45a8.49,8.49,0,0,1,3.7-3.23,12.61,12.61,0,0,1,5.36-1.09q5.14,0,7.8,2.78t2.66,8Z" transform="translate(-59.22 -106.32)"/><path class="i" d="M379.64,304.58h-7V328h-8V304.58h-4.43v-3.87l4.43-2.16v-2.16q0-5,2.48-7.35t7.93-2.32a20.65,20.65,0,0,1,7.41,1.24l-2.06,5.9a15,15,0,0,0-4.48-.76,2.9,2.9,0,0,0-2.48,1,4.2,4.2,0,0,0-.76,2.6v1.84h7Zm4.27-13.65q0-3.93,4.38-3.93t4.38,3.93a3.83,3.83,0,0,1-1.09,2.91,4.6,4.6,0,0,1-3.28,1Q383.91,294.88,383.91,290.93ZM392.29,328h-8V298.55h8Z" transform="translate(-59.22 -106.32)"/><path class="i" d="M426.34,298.55v4.09l-4.61,1.19a8,8,0,0,1,1.27,4.43,8.94,8.94,0,0,1-3.31,7.39q-3.31,2.65-9.18,2.65l-1.45-.08-1.19-.13a2.67,2.67,0,0,0-1.24,2.11q0,1.74,4.43,1.74h5q4.85,0,7.39,2.08a7.44,7.44,0,0,1,2.54,6.11,9.07,9.07,0,0,1-4.31,8Q417.38,341,409.32,341q-6.17,0-9.42-2.15a6.82,6.82,0,0,1-3.25-6,6.3,6.3,0,0,1,1.66-4.45,9.43,9.43,0,0,1,4.88-2.56,5.37,5.37,0,0,1-2.16-1.73,4.24,4.24,0,0,1,.05-5.35,11.28,11.28,0,0,1,2.82-2.2,7.91,7.91,0,0,1-3.68-3.22,9.78,9.78,0,0,1-1.36-5.22,9.2,9.2,0,0,1,3.14-7.46q3.14-2.64,9-2.64a22.94,22.94,0,0,1,2.94.22q1.7.22,2.17.33ZM403.6,332.18a2.91,2.91,0,0,0,1.59,2.61,8.78,8.78,0,0,0,4.47.95,15.83,15.83,0,0,0,6.77-1.19q2.45-1.19,2.45-3.24a2.29,2.29,0,0,0-1.45-2.29,11.87,11.87,0,0,0-4.48-.63h-4.16a6.31,6.31,0,0,0-3.7,1A3.21,3.21,0,0,0,403.6,332.18Zm2.92-24a6,6,0,0,0,1.09,3.79,4,4,0,0,0,3.33,1.4,3.89,3.89,0,0,0,3.32-1.4,6.16,6.16,0,0,0,1.05-3.79q0-5.32-4.37-5.32T406.52,308.19Z" transform="translate(-59.22 -106.32)"/><path class="i" d="M461.24,328H453.1V311.38H437.84V328h-8.17V289.48h8.17v15.1H453.1v-15.1h8.14Z" transform="translate(-59.22 -106.32)"/><path class="i" d="M486.89,328l-1.08-3.77h-.42a8.49,8.49,0,0,1-3.66,3.18,12.51,12.51,0,0,1-5.4,1.12q-5.19,0-7.83-2.78t-2.64-8V298.55h8v17.21a8.26,8.26,0,0,0,1.13,4.78,4.12,4.12,0,0,0,3.61,1.59,5.43,5.43,0,0,0,4.88-2.25q1.5-2.25,1.5-7.47V298.55h8V328Z" transform="translate(-59.22 -106.32)"/><path class="i" d="M513.56,298a9.53,9.53,0,0,1,8.17,4.07q3,4.07,3,11.16,0,7.3-3,11.31a10.63,10.63,0,0,1-16.43.24h-.55L503.31,328h-6.14V287h8v9.54q0,1.82-.32,5.82h.32A9.3,9.3,0,0,1,513.56,298ZM511,304.42a5.08,5.08,0,0,0-4.35,1.83q-1.37,1.83-1.42,6v.87q0,4.74,1.41,6.8a5,5,0,0,0,4.47,2.06,4.48,4.48,0,0,0,3.94-2.28,12.34,12.34,0,0,0,1.46-6.63q0-4.35-1.48-6.52A4.63,4.63,0,0,0,511,304.42Z" transform="translate(-59.22 -106.32)"/></g></svg>