<svg xmlns="http://www.w3.org/2000/svg" viewBox="0 0 506.51 476.67"><defs><style>.a{fill:#ff5a30;}.b{fill:#04a9b5;}.c{fill:#20af5d;}.d{fill:#2e3643;}</style></defs><title>appLifecycle-circle</title><path class="a" d="M989.9,330.46a4.14,4.14,0,1,0-2.85,7.79l12.25,4.48A209.42,209.42,0,0,0,841.69,646.14a4.15,4.15,0,1,0,7.36-3.81A201.14,201.14,0,0,1,1000.1,351l-11.26,6.66a4.15,4.15,0,1,0,4.22,7.14l30.19-17.86c2.46-1.46,2.63-3.31.37-4.13l-4.09-1.49-.06,0Z" transform="translate(-769.87 -330.2)"/><path class="a" d="M771,568.45a75.63,75.63,0,0,1-1.11-10.37c-.3-6.69.7-11.36,2.95-14.75,2.29-3.56,5.89-5.85,11.2-6.08,5.54-.25,9.79,1.74,12.62,5,3,3.43,4.66,9,5,16a81.87,81.87,0,0,1,0,8.83Zm26.06-7.7a27.89,27.89,0,0,0,0-3.61c-.33-8.49-4.62-13.35-12.51-13-6.88.25-10.6,5-10.24,13.17a24,24,0,0,0,.52,4.44Z" transform="translate(-769.87 -330.2)"/><path class="a" d="M789.06,510.63l-1.27,13.43,9.11.86,1.42-15,4.65.44-2,21.52-31-2.93,2-20.73,4.65.44-1.35,14.23,8,.76,1.27-13.43Z" transform="translate(-769.87 -330.2)"/><path class="a" d="M805.58,497.28l-32.94,4.3,1.6-6.94,14.87-1.59c4.14-.47,8-.79,11.86-.87l0-.1a109.92,109.92,0,0,1-10.16-6.1l-12.7-8.26,1.56-6.78,27.56,19Z" transform="translate(-769.87 -330.2)"/><path class="a" d="M805.32,451.66l-4.72,12.64,8.57,3.2,5.28-14.13,4.37,1.63-7.57,20.25-29.17-10.9,7.29-19.51,4.37,1.63-5,13.39,7.53,2.81L801,450Z" transform="translate(-769.87 -330.2)"/><path class="a" d="M793.22,436.37l3-5.81,23.45,12.09,6.75-13.08,4.23,2.18-9.74,18.88Z" transform="translate(-769.87 -330.2)"/><path class="a" d="M836.53,394.88c8.57,6,9.31,15.34,3.67,23.45-5.76,8.29-14.9,9.7-22.41,4.48-7.85-5.46-9.45-15-3.69-23.27C820.08,390.94,829.25,389.81,836.53,394.88Zm-14.87,22.21c5.2,3.61,11.42,3.48,15-1.67s1.47-11-3.88-14.73c-4.82-3.35-11.28-3.76-15,1.6S816.39,413.42,821.66,417.08Z" transform="translate(-769.87 -330.2)"/><path class="a" d="M830.35,379.68a65,65,0,0,1,6.36-7.73c3.27-3.49,6.31-5.44,9.09-6a8.35,8.35,0,0,1,7.42,2.15,8.8,8.8,0,0,1,3,7.08c-.13,3.45-2.16,7.16-5.32,10.53a21.15,21.15,0,0,1-2.32,2.2l8.56,8-4.44,4.73Zm15,5.2a15.12,15.12,0,0,0,2.35-2.17c3.35-3.56,3.87-7.16,1.2-9.65s-5.77-1.62-8.86,1.67a20.76,20.76,0,0,0-2.38,2.94Z" transform="translate(-769.87 -330.2)"/><path class="b" d="M856.43,692.73a4.14,4.14,0,1,0,8.17-1.43l-2.25-12.85a209.42,209.42,0,0,0,341.57-15.21,4.15,4.15,0,1,0-7-4.47A201.14,201.14,0,0,1,869.1,673.63l11.4,6.42a4.15,4.15,0,1,0,4.07-7.22L854,655.62c-2.49-1.4-4.18-.62-3.76,1.75l.75,4.29v.07Z" transform="translate(-769.87 -330.2)"/><path class="c" d="M1236.9,627.18a4.15,4.15,0,1,0-5.32-6.36l-10,8.37a209.42,209.42,0,0,0-184-288.21,4.14,4.14,0,0,0-.38,8.28A201.14,201.14,0,0,1,1214,625.75l-.14-13.08a4.15,4.15,0,0,0-8.29.09l.37,35.07c0,2.86,1.55,3.93,3.4,2.39l3.34-2.79.05,0Z" transform="translate(-769.87 -330.2)"/><path class="c" d="M1218.2,378.32l-6.79-7.62,3.55-3.17,18,20.19-3.55,3.17-6.86-7.7-19.7,17.55-4.35-4.88Z" transform="translate(-769.87 -330.2)"/><path class="c" d="M1234.38,419.66l-7.73-11.06-7.5,5.24,8.64,12.37-3.83,2.67-12.38-17.72,25.53-17.83L1249,410.4l-3.83,2.67L1237,401.35l-6.59,4.6,7.73,11.06Z" transform="translate(-769.87 -330.2)"/><path class="c" d="M1231.81,430a20.23,20.23,0,0,0,2.35,8.57c2,3.7,4.6,4.95,6.84,3.74,2.08-1.12,2.44-3.36,1.54-8.06-1.16-6.07-.55-10.68,3.4-12.8,4.48-2.41,10.21.06,13.88,6.9a21.31,21.31,0,0,1,2.69,8.32l-4.78.76a17,17,0,0,0-2.07-7c-2-3.65-4.53-4.32-6.11-3.47-2.12,1.14-2.11,3.49-1.27,8.46,1.15,6.44.18,10.4-3.76,12.52-4.39,2.36-10.28.58-14.66-7.56A23.89,23.89,0,0,1,1227,431Z" transform="translate(-769.87 -330.2)"/><path class="c" d="M1265.77,453.43l-3.75-9.49,4.43-1.75,9.93,25.15-4.43,1.75-3.79-9.59-24.54,9.69-2.4-6.08Z" transform="translate(-769.87 -330.2)"/><path class="b" d="M944.94,761.52a75.81,75.81,0,0,1,10.13,2.5c6.39,2,10.44,4.54,12.86,7.81s3.48,7.53,1.89,12.6c-1.66,5.29-5,8.6-9,10.14-4.24,1.62-10.09,1.29-16.73-.8a82,82,0,0,1-8.29-3Zm-1.67,27.12a28,28,0,0,0,3.41,1.21c8.1,2.59,14.13.22,16.5-7.31,2.11-6.55-1.07-11.67-8.88-14.12a23.87,23.87,0,0,0-4.35-1Z" transform="translate(-769.87 -330.2)"/><path class="b" d="M995.27,791.3,982,789l-1.54,9,14.87,2.54-.79,4.6-21.31-3.64,5.25-30.69,20.53,3.5-.79,4.6-14.09-2.41-1.35,7.92,13.3,2.27Z" transform="translate(-769.87 -330.2)"/><path class="b" d="M1004.09,775.35a65,65,0,0,1,10-.17c4.78.23,8.24,1.27,10.44,3a8.35,8.35,0,0,1,3.18,7,8.8,8.8,0,0,1-3.41,6.91c-2.71,2.14-6.85,3-11.46,2.78a21.2,21.2,0,0,1-3.18-.34l-.56,11.72-6.47-.31Zm5.78,14.8a15.11,15.11,0,0,0,3.17.38c4.88.23,8-1.7,8.13-5.35.17-3.46-2.51-5.44-7-5.65a20.63,20.63,0,0,0-3.78.1Z" transform="translate(-769.87 -330.2)"/><path class="b" d="M1032.46,775.81l6.52-.47,1.89,26.31,14.68-1.05.34,4.75-21.2,1.52Z" transform="translate(-769.87 -330.2)"/><path class="b" d="M1089.27,783c2.06,10.23-3.9,17.51-13.58,19.46-9.89,2-17.47-3.32-19.27-12.28-1.89-9.37,3.55-17.35,13.44-19.34C1080.12,768.73,1087.52,774.27,1089.27,783Zm-26.1,5.73c1.25,6.2,5.84,10.42,12,9.18s8.68-6.93,7.4-13.32c-1.16-5.75-5.53-10.53-11.94-9.24S1061.9,782.39,1063.17,788.69Z" transform="translate(-769.87 -330.2)"/><path class="b" d="M1106.38,793.75l-4.28-12.25-16.67-13.4,7-2.45,6.7,6.12c1.92,1.78,3.35,3.14,5,4.83l.1,0c.2-2.17.51-4.34.92-6.88l1.42-9,7-2.44-5.29,20.94,4.33,12.38Z" transform="translate(-769.87 -330.2)"/><path class="d" d="M898.23,531.8a9.77,9.77,0,0,0-8.38,4.06q-3,4.06-3,11.33,0,15.12,11.34,15.12a35.86,35.86,0,0,0,11.53-2.38v8a32,32,0,0,1-12.43,2.32q-9.86,0-15.08-6T877,547.14a28,28,0,0,1,2.57-12.35,18.54,18.54,0,0,1,7.37-8.13,21.81,21.81,0,0,1,11.27-2.83A30.41,30.41,0,0,1,911.46,527l-3.09,7.79a51.3,51.3,0,0,0-5.1-2.1A15.22,15.22,0,0,0,898.23,531.8Z" transform="translate(-769.87 -330.2)"/><path class="d" d="M945,552.33q0,8.44-4.45,13.2t-12.4,4.76a17.34,17.34,0,0,1-8.78-2.18,14.5,14.5,0,0,1-5.84-6.26,21,21,0,0,1-2-9.52q0-8.47,4.42-13.17t12.43-4.7a17.44,17.44,0,0,1,8.78,2.16,14.44,14.44,0,0,1,5.84,6.21A20.84,20.84,0,0,1,945,552.33Zm-23.89,0q0,5.13,1.69,7.76t5.49,2.63q3.77,0,5.43-2.61t1.65-7.77q0-5.13-1.67-7.7t-5.47-2.57q-3.77,0-5.44,2.55T921.07,552.33Z" transform="translate(-769.87 -330.2)"/><path class="d" d="M980.86,569.67h-9.43V549.49a9.7,9.7,0,0,0-1.33-5.61,4.84,4.84,0,0,0-4.23-1.87q-4,0-5.72,2.64t-1.76,8.76v16.26H949V535.11h7.2l1.27,4.42H958a10,10,0,0,1,4.34-3.79,14.79,14.79,0,0,1,6.29-1.28q6,0,9.15,3.26t3.12,9.41Z" transform="translate(-769.87 -330.2)"/><path class="d" d="M1005.87,542.19h-8.16v27.48h-9.43V542.19h-5.19v-4.54l5.19-2.53v-2.53q0-5.9,2.91-8.62t9.3-2.72a24.22,24.22,0,0,1,8.69,1.45l-2.41,6.92a17.59,17.59,0,0,0-5.25-.9,3.4,3.4,0,0,0-2.91,1.19,4.92,4.92,0,0,0-.9,3v2.16h8.16Zm5-16q0-4.61,5.13-4.61t5.13,4.61a4.49,4.49,0,0,1-1.28,3.42,5.39,5.39,0,0,1-3.85,1.22Q1010.88,530.82,1010.88,526.18Zm9.83,43.49h-9.43V535.11h9.43Z" transform="translate(-769.87 -330.2)"/><path class="d" d="M1060.65,535.11v4.79l-5.41,1.39a9.44,9.44,0,0,1,1.48,5.19,10.49,10.49,0,0,1-3.88,8.67q-3.88,3.11-10.77,3.11l-1.7-.09L1039,558a3.13,3.13,0,0,0-1.45,2.47q0,2,5.19,2h5.87q5.69,0,8.67,2.44t3,7.17a10.64,10.64,0,0,1-5.05,9.4q-5.05,3.34-14.51,3.34-7.23,0-11.05-2.52a8,8,0,0,1-3.82-7.06,7.4,7.4,0,0,1,1.95-5.22,11.06,11.06,0,0,1,5.72-3,6.3,6.3,0,0,1-2.54-2,5,5,0,0,1,.06-6.27,13.2,13.2,0,0,1,3.31-2.58,9.27,9.27,0,0,1-4.31-3.77,11.47,11.47,0,0,1-1.59-6.12q0-5.66,3.68-8.75t10.51-3.09a27,27,0,0,1,3.45.26q2,.26,2.55.39ZM1034,574.55a3.42,3.42,0,0,0,1.87,3.06,10.29,10.29,0,0,0,5.24,1.11,18.56,18.56,0,0,0,7.94-1.39q2.88-1.39,2.88-3.8a2.69,2.69,0,0,0-1.7-2.69,13.92,13.92,0,0,0-5.25-.74h-4.88a7.39,7.39,0,0,0-4.34,1.22A3.76,3.76,0,0,0,1034,574.55Zm3.43-28.13a7,7,0,0,0,1.28,4.45,4.66,4.66,0,0,0,3.91,1.64,4.56,4.56,0,0,0,3.89-1.64,7.22,7.22,0,0,0,1.24-4.45q0-6.24-5.13-6.24T1037.4,546.43Z" transform="translate(-769.87 -330.2)"/><path class="d" d="M1101.57,569.67H1092v-19.5h-17.9v19.5h-9.58V524.48h9.58v17.71H1092V524.48h9.55Z" transform="translate(-769.87 -330.2)"/><path class="d" d="M1131.66,569.67l-1.27-4.42h-.5a10,10,0,0,1-4.3,3.73,14.68,14.68,0,0,1-6.34,1.31q-6.09,0-9.18-3.26t-3.09-9.38V535.11h9.43V555.3a9.69,9.69,0,0,0,1.33,5.61,4.83,4.83,0,0,0,4.23,1.87q4,0,5.72-2.64t1.76-8.76V535.11h9.43v34.56Z" transform="translate(-769.87 -330.2)"/><path class="d" d="M1162.94,534.46a11.18,11.18,0,0,1,9.58,4.78Q1176,544,1176,552.33q0,8.56-3.57,13.26a12.47,12.47,0,0,1-19.27.28h-.65l-1.58,3.8h-7.2v-48.1h9.43v11.19q0,2.13-.37,6.83h.37A10.91,10.91,0,0,1,1162.94,534.46Zm-3,7.54q-3.49,0-5.1,2.15t-1.67,7.09v1q0,5.56,1.65,8a5.9,5.9,0,0,0,5.24,2.41,5.26,5.26,0,0,0,4.62-2.67q1.72-2.67,1.72-7.77t-1.73-7.65A5.43,5.43,0,0,0,1159.91,542Z" transform="translate(-769.87 -330.2)"/></svg>