<svg xmlns="http://www.w3.org/2000/svg" viewBox="0 0 297.21 150"><defs><style>.a{fill:none;stroke:#d4eff1;stroke-width:2px;}.a,.b{stroke-miterlimit:10;}.b{fill:#d4eff1;stroke:#6bcad0;}.c{fill:#f05234;}.d{fill:#9bd52c;}.e{fill:#6bcad0;}.f{fill:#083b54;}</style></defs><title>apps</title><line class="a" x1="6.05" y1="18.44" x2="16.56" y2="28.87"/><line class="a" x1="107.67" y1="70.98" x2="106.86" y2="85.67"/><line class="a" x1="16.56" y1="28.87" x2="3.6" y2="37.21"/><line class="a" x1="16.56" y1="28.87" x2="29.51" y2="22.44"/><polyline class="a" points="171.98 75.6 217.81 75.6 217.81 107.31"/><polyline class="a" points="195.78 37.21 222.23 37.21 222.23 107.31"/><polyline class="a" points="291.61 72.57 240.13 72.57 240.13 107.31"/><polyline class="a" points="249.09 47.41 235.63 47.41 235.63 107.31"/><polyline class="a" points="271.27 28.35 231.21 28.35 231.21 107.31"/><polyline class="a" points="214.6 5.6 226.72 5.6 226.72 107.31"/><rect class="b" x="197.78" y="107.31" width="62.51" height="15.03" rx="4.03" ry="4.03"/><circle class="c" cx="6.05" cy="18.44" r="3.6"/><circle class="d" cx="29.51" cy="22.44" r="3.6"/><circle class="e" cx="3.6" cy="37.21" r="3.6"/><circle class="f" cx="16.56" cy="28.87" r="5.6"/><path class="e" d="M230.2,150h.1a2.13,2.13,0,0,0,1.5-.7l8-10a2,2,0,0,0-3.1-2.5L230,145l-2.4-2.4a2,2,0,1,0-2.8,2.8l4,4a1.68,1.68,0,0,0,1.4.6Z" transform="translate(-0.16 0)"/><path class="c" d="M59.7,143l4-4a1.77,1.77,0,0,0-2.5-2.5l-4,4-4-4a1.77,1.77,0,0,0-2.5,2.5l4,4-4,4a1.75,1.75,0,0,0,0,2.5,1.69,1.69,0,0,0,2.4,0l4-4,4,4a1.69,1.69,0,0,0,2.4,0,1.75,1.75,0,0,0,0-2.5l-3.8-4Z" transform="translate(-0.16 0)"/><line class="a" x1="102.21" y1="12.51" x2="90.44" y2="21.49"/><line class="a" x1="90.44" y1="21.49" x2="83.95" y2="7.51"/><line class="a" x1="90.44" y1="21.49" x2="95.03" y2="35.21"/><circle class="c" cx="102.21" cy="12.51" r="3.6"/><circle class="d" cx="95.03" cy="35.21" r="3.6"/><circle class="e" cx="83.95" cy="7.51" r="3.6"/><circle class="f" cx="90.44" cy="21.49" r="5.6"/><line class="a" x1="55.94" y1="63.91" x2="45.92" y2="53.01"/><line class="a" x1="45.92" y1="53.01" x2="59.25" y2="45.26"/><line class="a" x1="46.48" y1="53.01" x2="32.12" y2="51.29"/><circle class="c" cx="55.94" cy="63.91" r="3.6"/><circle class="d" cx="31.16" cy="51.01" r="3.6"/><circle class="e" cx="59.25" cy="45.26" r="3.6"/><circle class="f" cx="45.92" cy="53.01" r="5.6"/><line class="a" x1="35.31" y1="87.55" x2="27.53" y2="100.14"/><line class="a" x1="27.53" y1="99.97" x2="12.62" y2="103.88"/><line class="a" x1="27.53" y1="100.14" x2="36.72" y2="111.31"/><circle class="c" cx="35.31" cy="87.55" r="3.6"/><circle class="d" cx="36.72" cy="111.31" r="3.6"/><circle class="e" cx="12.16" cy="104" r="3.6"/><circle class="f" cx="27.53" cy="100.14" r="5.6"/><line class="a" x1="59.37" y1="104.29" x2="73.98" y2="101.94"/><line class="a" x1="74.22" y1="102.15" x2="84.01" y2="114.05"/><line class="a" x1="73.98" y1="101.94" x2="76.42" y2="87.68"/><circle class="c" cx="59.37" cy="104.29" r="3.6"/><circle class="d" cx="76.42" cy="87.68" r="3.6"/><circle class="e" cx="84.71" cy="114.91" r="3.6"/><circle class="f" cx="73.98" cy="101.94" r="5.6"/><line class="a" x1="107.67" y1="70.98" x2="97.73" y2="60.01"/><line class="a" x1="107.77" y1="71.1" x2="121.15" y2="63.45"/><circle class="c" cx="98.63" cy="61" r="3.6"/><circle class="d" cx="121.31" cy="63.37" r="3.6"/><circle class="e" cx="106.86" cy="85.67" r="3.6"/><circle class="f" cx="107.77" cy="71.1" r="5.6"/><circle class="f" cx="195.78" cy="37.21" r="5.6"/><circle class="f" cx="214.6" cy="5.6" r="5.6"/><circle class="f" cx="270.87" cy="28.35" r="5.6"/><circle class="f" cx="291.6" cy="72.57" r="5.6"/><circle class="f" cx="249.09" cy="47.41" r="5.6"/><circle class="f" cx="171.98" cy="75.6" r="5.6"/><circle class="d" cx="214.04" cy="114.91" r="3.6"/><circle class="c" cx="228.97" cy="114.91" r="3.6"/><circle class="e" cx="243.48" cy="114.91" r="3.6"/></svg>