<svg xmlns="http://www.w3.org/2000/svg" viewBox="0 0 142.59 119.36"><defs><style>.a{fill:#e0f2f3;}.b{fill:#f9c231;}.c{fill:#fff;}.d{fill:#e0ac21;}.e{fill:#cc850a;}.f{fill:#2c5871;}.g{fill:#1e3c4d;}.h{fill:#0e2326;}.i{fill:#d9d9d9;}.j{fill:#b2b6b8;}</style></defs><title>books</title><circle class="a" cx="71.03" cy="58.55" r="58.55"/><polygon class="b" points="40.75 28.04 2.48 48.43 1.02 45.37 40.75 20.18 40.75 28.04"/><path class="c" d="M49.18,80.72a10.41,10.41,0,0,1-3.48,1.33,8.65,8.65,0,0,1-3.54,0L39,81.37c-.92-.22-1.89-.67-1.94-.94-.12-.59.54-1.2,1.8-2.13l33.81-22s-.06,1.32,3.1,2.3a13.4,13.4,0,0,0,7.19.12Z" transform="translate(-33.71 -32.56)"/><path class="b" d="M51.23,79.75a14.4,14.4,0,0,1-5,1.89,12.5,12.5,0,0,1-5,.09l-4.47-1c-1.3-.31-3-.93-3-1.78v55.82c0,1,.73,2.11,3,2.86l4.47,1a12.47,12.47,0,0,0,5-.08,14.6,14.6,0,0,0,5-1.9l37.89-23.52V56.23Z" transform="translate(-33.71 -32.56)"/><path class="d" d="M50.39,81.35v55.84l38.73-24.06V56.23Z" transform="translate(-33.71 -32.56)"/><path class="e" d="M86.77,55.67,50.76,79a13.77,13.77,0,0,1-4.66,1.77,12,12,0,0,1-4.67.09l-4.47-1c-.91-.22-1.38-.55-1.29-1.37,0-.36.18-.66,1.37-1.42L74.47,52.77l-2.36-.56-36,23.36c-1.61,1-2.43,2.2-2.37,3.37s1.09,2.18,2.84,2.59l4.47,1a10.34,10.34,0,0,0,2.32.24,16.22,16.22,0,0,0,3.09-.32,15.26,15.26,0,0,0,5.27-2L89.12,56.23Z" transform="translate(-33.71 -32.56)"/><polygon class="f" points="59.76 24.54 21.48 44.93 20.03 41.87 59.76 16.68 59.76 24.54"/><path class="c" d="M68.18,77.21a10.14,10.14,0,0,1-3.47,1.33,8.67,8.67,0,0,1-3.54.06L58,77.86c-.91-.21-1.89-.66-1.94-.94-.12-.58.55-1.2,1.8-2.13l33.81-22s-.06,1.31,3.11,2.3a13.34,13.34,0,0,0,7.19.11Z" transform="translate(-33.71 -32.56)"/><path class="f" d="M70.24,76.25a14.76,14.76,0,0,1-5,1.89,12.34,12.34,0,0,1-5.05.08l-4.46-1c-1.31-.3-3-.92-3.05-1.77v63.54c0,1.6.59,2.33,3.05,3.18l4.46,1a12.34,12.34,0,0,0,5.05-.08,14.76,14.76,0,0,0,5-1.89l37.88-23.53V52.73Z" transform="translate(-33.71 -32.56)"/><path class="g" d="M70.24,89.21v52l37.88-23.53V64.86Z" transform="translate(-33.71 -32.56)"/><path class="h" d="M105.77,52.17l-36,23.34a13.59,13.59,0,0,1-4.65,1.77,11.63,11.63,0,0,1-4.68.09L56,76.32c-.92-.21-1.39-.54-1.3-1.36,0-.36.18-.66,1.37-1.43L93.47,49.27l-2.36-.56-36,23.36c-1.6,1-2.42,2.2-2.37,3.37s1.1,2.17,2.85,2.58l4.46,1a9.82,9.82,0,0,0,2.32.25,16.41,16.41,0,0,0,3.1-.32,15.48,15.48,0,0,0,5.26-2l37.41-24.25Z" transform="translate(-33.71 -32.56)"/><path class="b" d="M121.18,149.84a13.64,13.64,0,0,1-4.55,1.78,11,11,0,0,1-4.53.12l-42.61-10,59.06-38.35,42.62,10c1.15.27,1.87.83,1.86,1.62s-.73,1.64-1.89,2.4Z" transform="translate(-33.71 -32.56)"/><path class="c" d="M170.25,115s-3.35-2.53,0-10c-3.48,0-51.92-2.24-51.92-2.24L64.39,137.88l51.92,12.26Z" transform="translate(-33.71 -32.56)"/><path class="i" d="M168.81,110.05a16.06,16.06,0,0,1,1.44-5.07c-3.48,0-51.92-2.24-51.92-2.24L105.59,111l8.7,34.49Z" transform="translate(-33.71 -32.56)"/><polygon class="i" points="82.6 74.99 30.68 105.31 82.6 117.57 82.6 74.99"/><polygon class="d" points="76.82 118.83 35.77 109.14 40.12 106.38 82.6 117.57 76.82 118.83"/><polygon class="j" points="82.6 74.99 37.61 101.1 82.6 111.69 82.6 74.99"/><path class="e" d="M121.18,139.58a13.86,13.86,0,0,1-4.55,1.78,11,11,0,0,1-4.53.11l-42.61-10V129.5l59.06-36.41L173,102.8v1.94c0,.79-.73,1.65-1.89,2.4Z" transform="translate(-33.71 -32.56)"/><path class="b" d="M121.18,137.64a13.64,13.64,0,0,1-4.55,1.78,10.78,10.78,0,0,1-4.53.11l-42.61-10,59.06-38.35,42.62,10c1.15.27,1.87.84,1.86,1.62s-.73,1.65-1.89,2.41Z" transform="translate(-33.71 -32.56)"/><path class="d" d="M171.17,101.18l-42.62-10L98.41,110.72l-8.55,6.19v1.94l36.86,8.69a11,11,0,0,0,4.53-.11,13.86,13.86,0,0,0,4.55-1.78l36.73-23.85A3.37,3.37,0,0,0,171.17,101.18Z" transform="translate(-33.71 -32.56)"/><path class="h" d="M135.8,123.67a13.86,13.86,0,0,1-4.55,1.78,11,11,0,0,1-4.53.11l-36.86-8.69v-1.94l42-30.39,44.48,9.71v1.94c0,.79-.73,1.65-1.9,2.41Z" transform="translate(-33.71 -32.56)"/><path class="f" d="M135.8,121.73a13.64,13.64,0,0,1-4.55,1.78,10.78,10.78,0,0,1-4.53.11l-36.86-8.69,42-32.33,42.61,10c1.16.28,1.87.84,1.87,1.62s-.73,1.65-1.9,2.41Z" transform="translate(-33.71 -32.56)"/><path class="c" d="M173.53,94.25s-3.35-2.53,0-10c-3.48,0-41.66-4.31-41.66-4.31l-47.1,31.19L130.93,122Z" transform="translate(-33.71 -32.56)"/><path class="i" d="M172.09,89.3a15.73,15.73,0,0,1,1.44-5.07c-3.48,0-41.73-3.87-41.73-3.87L126,84.27l3,33.15Z" transform="translate(-33.71 -32.56)"/><polygon class="i" points="97.22 48.22 51.05 78.54 97.22 89.46 97.22 48.22"/><polygon class="g" points="91.44 90.72 56.15 82.37 60.5 79.61 97.22 89.46 91.44 90.72"/><polygon class="j" points="97.22 48.22 57.98 74.33 97.22 83.58 97.22 48.22"/><path class="h" d="M135.8,111.46a13.64,13.64,0,0,1-4.55,1.78,11,11,0,0,1-4.53.12l-36.86-8.7v-1.93l47.72-29.06,38.73,8.38V84c0,.78-.73,1.64-1.9,2.4Z" transform="translate(-33.71 -32.56)"/><path class="f" d="M135.8,109.53a13.86,13.86,0,0,1-4.55,1.78,11,11,0,0,1-4.53.11l-36.86-8.69,47.72-31,36.86,8.69c1.16.27,1.87.84,1.87,1.62s-.73,1.65-1.9,2.4Z" transform="translate(-33.71 -32.56)"/><polygon class="j" points="93.29 84.76 87.84 83.47 87.83 86.94 93.28 88.39 93.29 84.76"/><polygon class="b" points="93.29 84.76 87.84 83.47 81.56 87.62 86.04 87.17 87.01 88.91 93.29 84.76"/><polygon class="e" points="93.29 84.76 87.84 83.47 87.5 83.69 92.95 84.97 93.29 84.76"/><path class="g" d="M89.86,102.73l33.52,7.9,33.12-21.5c1.17-.76,1.9-1.62,1.9-2.4V84.79L127.78,78.1Z" transform="translate(-33.71 -32.56)"/><path class="e" d="M118.33,111.58a13.73,13.73,0,0,1-4.55,1.78,10.83,10.83,0,0,1-4.54.11l-36.85-8.69v-1.94l42-30.39,44.47,9.72V84.1c0,.79-.73,1.65-1.89,2.41Z" transform="translate(-33.71 -32.56)"/><path class="b" d="M118.33,109.64a13.73,13.73,0,0,1-4.55,1.78,11,11,0,0,1-4.54.12l-36.85-8.7,42-32.33,42.61,10c1.15.27,1.87.83,1.86,1.62s-.73,1.64-1.89,2.4Z" transform="translate(-33.71 -32.56)"/><path class="c" d="M156.06,82.16s-3.36-2.53,0-10c-3.49,0-41.66-4.31-41.66-4.31L67.29,99l46.17,10.92Z" transform="translate(-33.71 -32.56)"/><path class="i" d="M154.61,77.21a15.86,15.86,0,0,1,1.45-5.07c-3.49,0-41.74-3.87-41.74-3.87l-5.83,3.91,2.94,33.15Z" transform="translate(-33.71 -32.56)"/><polygon class="i" points="79.74 36.13 33.58 66.45 79.74 77.37 79.74 36.13"/><polygon class="d" points="73.97 78.63 38.67 70.28 43.02 67.52 79.74 77.37 73.97 78.63"/><polygon class="j" points="79.74 36.13 40.51 62.24 79.74 71.49 79.74 36.13"/><path class="e" d="M118.33,99.38a14,14,0,0,1-4.55,1.78,11,11,0,0,1-4.54.11L72.39,92.58V90.64l47.72-29L158.83,70V71.9c0,.79-.73,1.65-1.89,2.41Z" transform="translate(-33.71 -32.56)"/><path class="b" d="M118.33,97.44a13.73,13.73,0,0,1-4.55,1.78,10.83,10.83,0,0,1-4.54.11L72.39,90.64l47.72-31L157,68.34c1.15.28,1.87.84,1.86,1.62s-.73,1.65-1.89,2.41Z" transform="translate(-33.71 -32.56)"/><polygon class="c" points="9.13 54.23 2.93 52.77 2.93 90.03 9.13 91.5 9.13 54.23"/><polygon class="e" points="2.93 90.03 9.13 91.5 9.13 82.42 2.93 80.96 2.93 90.03"/><polygon class="e" points="9.13 54.23 2.93 52.77 2.93 61.84 9.13 63.3 9.13 54.23"/><polygon class="c" points="87.1 32.28 71.03 42.74 99.32 49.42 115.4 38.96 87.1 32.28"/><polygon class="e" points="103.79 46.51 75.49 39.83 71.03 42.74 99.32 49.42 103.79 46.51"/><path class="i" d="M131.52,70.1a5.41,5.41,0,0,0-3,.38c-.47.36-.27,1,1.47,1.12,1.18.1,2.84,0,3.26-.43S133.25,70.29,131.52,70.1Z" transform="translate(-33.71 -32.56)"/><path class="i" d="M137.06,69.06a2.35,2.35,0,0,0-1.73.31c-.27.28-.15.78.85.89.68.08,1.64,0,1.88-.35S138.06,69.21,137.06,69.06Z" transform="translate(-33.71 -32.56)"/><path class="i" d="M123.35,70.1a5.41,5.41,0,0,0-3,.38c-.47.36-.27,1,1.47,1.12,1.18.1,2.84,0,3.25-.43S125.08,70.29,123.35,70.1Z" transform="translate(-33.71 -32.56)"/></svg>