<svg xmlns="http://www.w3.org/2000/svg" viewBox="0 0 602.77 480.66"><defs><style>.a{fill:#d35551;}.a,.b,.c,.d,.e,.f,.g,.h,.i,.j,.k,.l{stroke:#fff;stroke-miterlimit:10;stroke-width:5px;}.b{fill:#e4b95f;}.c{fill:#aaaf58;}.d{fill:#4390bb;}.e{fill:#b9bdbe;}.f{fill:#5fc3e7;}.g{fill:#6a8e7b;}.h{fill:#a292b1;}.i{fill:#f28f98;}.j{fill:#72a3bb;}.k{fill:#fb8d4d;}.l{fill:#d8d8d8;}.m{fill:#595959;}</style></defs><title>centralize2</title><circle class="a" cx="163.01" cy="104.66" r="41.1"/><circle class="b" cx="286.11" cy="40.55" r="23.01"/><circle class="b" cx="286.11" cy="455.15" r="23.01"/><circle class="c" cx="87.84" cy="210.46" r="34.07"/><circle class="d" cx="36.57" cy="89.72" r="34.07"/><circle class="e" cx="478.59" cy="40.55" r="38.05"/><circle class="f" cx="384.56" cy="127.78" r="38.05"/><circle class="g" cx="558.45" cy="327.4" r="41.81"/><circle class="h" cx="440.53" cy="406.8" r="34.07"/><circle class="i" cx="521.55" cy="199.9" r="34.07"/><circle class="j" cx="192.72" cy="402.43" r="29.71"/><circle class="k" cx="70.64" cy="357.36" r="45.32"/><rect class="l" x="177.01" y="219.95" width="243.45" height="92.09" rx="14.35" ry="14.35"/><path class="m" d="M438.61,460.7a5.54,5.54,0,0,0-4.75,2.31,10.74,10.74,0,0,0-1.68,6.43q0,8.58,6.44,8.58a20.35,20.35,0,0,0,6.54-1.35v4.56a18.18,18.18,0,0,1-7.05,1.32q-5.6,0-8.56-3.4t-3-9.75a15.91,15.91,0,0,1,1.46-7,10.52,10.52,0,0,1,4.18-4.61,12.38,12.38,0,0,1,6.4-1.61,17.26,17.26,0,0,1,7.51,1.81l-1.75,4.42a29.15,29.15,0,0,0-2.9-1.19A8.64,8.64,0,0,0,438.61,460.7Z" transform="translate(-215.63 -204.86)"/><path class="m" d="M465.86,472.35a10.54,10.54,0,0,1-2.53,7.49,9.16,9.16,0,0,1-7,2.7,9.84,9.84,0,0,1-5-1.24,8.23,8.23,0,0,1-3.32-3.55,11.94,11.94,0,0,1-1.16-5.4q0-4.81,2.51-7.47a9.22,9.22,0,0,1,7.05-2.67,9.9,9.9,0,0,1,5,1.23A8.2,8.2,0,0,1,464.7,467,11.83,11.83,0,0,1,465.86,472.35Zm-13.56,0a8.23,8.23,0,0,0,1,4.4,3.42,3.42,0,0,0,3.11,1.49,3.37,3.37,0,0,0,3.08-1.48,8.35,8.35,0,0,0,.94-4.41,8.1,8.1,0,0,0-.95-4.37,4,4,0,0,0-6.19,0A8.09,8.09,0,0,0,452.3,472.35Z" transform="translate(-215.63 -204.86)"/><path class="m" d="M486.23,482.19h-5.35V470.73a5.51,5.51,0,0,0-.75-3.18,2.75,2.75,0,0,0-2.4-1.06,3.61,3.61,0,0,0-3.25,1.5,9.31,9.31,0,0,0-1,5v9.23h-5.35V462.57h4.09l.72,2.51h.3a5.65,5.65,0,0,1,2.47-2.15,8.39,8.39,0,0,1,3.57-.73,6.86,6.86,0,0,1,5.19,1.85,7.43,7.43,0,0,1,1.77,5.34Z" transform="translate(-215.63 -204.86)"/><path class="m" d="M500.43,466.59H495.8v15.6h-5.35v-15.6H487.5V464l2.95-1.44v-1.44q0-3.35,1.65-4.9t5.28-1.54a13.74,13.74,0,0,1,4.93.82l-1.37,3.93a10,10,0,0,0-3-.51,1.93,1.93,0,0,0-1.65.68,2.79,2.79,0,0,0-.51,1.73v1.23h4.63Zm2.84-9.09q0-2.61,2.91-2.61t2.91,2.61a2.55,2.55,0,0,1-.73,1.94,3.06,3.06,0,0,1-2.19.69Q503.27,460.14,503.27,457.5Zm5.58,24.69H503.5V462.57h5.35Z" transform="translate(-215.63 -204.86)"/><path class="m" d="M531.52,462.57v2.72l-3.07.79a5.35,5.35,0,0,1,.84,2.95,6,6,0,0,1-2.2,4.92,9.54,9.54,0,0,1-6.12,1.76l-1-.05-.79-.09a1.78,1.78,0,0,0-.83,1.4q0,1.16,2.95,1.16h3.33a7.61,7.61,0,0,1,4.92,1.39,5,5,0,0,1,1.69,4.07,6,6,0,0,1-2.87,5.33q-2.87,1.9-8.24,1.9a11.4,11.4,0,0,1-6.27-1.43,4.54,4.54,0,0,1-2.17-4,4.2,4.2,0,0,1,1.11-3,6.27,6.27,0,0,1,3.25-1.7,3.58,3.58,0,0,1-1.44-1.15,2.82,2.82,0,0,1,0-3.56,7.52,7.52,0,0,1,1.88-1.46,5.27,5.27,0,0,1-2.45-2.14,6.51,6.51,0,0,1-.9-3.47,6.13,6.13,0,0,1,2.09-5,9,9,0,0,1,6-1.75,15.32,15.32,0,0,1,2,.15q1.13.15,1.45.22ZM516.38,485a1.94,1.94,0,0,0,1.06,1.74,5.84,5.84,0,0,0,3,.63,10.54,10.54,0,0,0,4.51-.79,2.41,2.41,0,0,0,1.63-2.16,1.53,1.53,0,0,0-1-1.53,7.92,7.92,0,0,0-3-.42h-2.77a4.2,4.2,0,0,0-2.46.69A2.14,2.14,0,0,0,516.38,485Zm1.95-16a4,4,0,0,0,.73,2.53,2.64,2.64,0,0,0,2.22.93,2.59,2.59,0,0,0,2.21-.93,4.11,4.11,0,0,0,.7-2.53q0-3.54-2.91-3.54T518.32,469Z" transform="translate(-215.63 -204.86)"/><path class="m" d="M555.47,482.19H550V471.12H539.89v11.07h-5.44V456.54h5.44v10.05H550V456.54h5.42Z" transform="translate(-215.63 -204.86)"/><path class="m" d="M573.26,482.19l-.72-2.51h-.28a5.64,5.64,0,0,1-2.44,2.11,8.33,8.33,0,0,1-3.6.75,6.85,6.85,0,0,1-5.21-1.85,7.45,7.45,0,0,1-1.75-5.33V462.57h5.35V474a5.5,5.5,0,0,0,.75,3.18,2.75,2.75,0,0,0,2.4,1.06,3.61,3.61,0,0,0,3.25-1.5,9.31,9.31,0,0,0,1-5v-9.23h5.35v19.62Z" transform="translate(-215.63 -204.86)"/><path class="m" d="M591.74,462.21a6.35,6.35,0,0,1,5.44,2.71,12.44,12.44,0,0,1,2,7.43q0,4.86-2,7.53a7.08,7.08,0,0,1-10.94.16h-.37l-.89,2.16h-4.09v-27.3h5.35v6.35q0,1.21-.21,3.88h.21A6.19,6.19,0,0,1,591.74,462.21ZM590,466.49a3.38,3.38,0,0,0-2.89,1.22,7,7,0,0,0-.95,4v.58a8.26,8.26,0,0,0,.94,4.53,3.35,3.35,0,0,0,3,1.37,3,3,0,0,0,2.62-1.52,8.21,8.21,0,0,0,1-4.41,7.78,7.78,0,0,0-1-4.34A3.08,3.08,0,0,0,590,466.49Z" transform="translate(-215.63 -204.86)"/></svg>