<svg xmlns="http://www.w3.org/2000/svg" viewBox="0 0 678.71 333.33"><defs><style>.a{fill:none;}.b{fill:#c5e9ec;}.c{fill:#71cad0;}.d{fill:#fed7ab;}.e{fill:#fff;}.f{fill:#5a5962;}.g{fill:#a9a9ae;}.h{fill:#0fa0a8;}.i{fill:#f7ab44;}.j{fill:#edb989;}.k{fill:#f8b75d;}.l{fill:#008ea5;}</style></defs><title>collaboration</title><path class="a" d="M185,181.66a2.17,2.17,0,1,0,3,.42A2.16,2.16,0,0,0,185,181.66Z" transform="translate(0 0)"/><path class="a" d="M253.18,109.05a3.14,3.14,0,1,0-4.2-1.46A3.15,3.15,0,0,0,253.18,109.05Z" transform="translate(0 0)"/><path class="a" d="M172.89,184.82a2.18,2.18,0,1,0,1.86,2.45A2.18,2.18,0,0,0,172.89,184.82Z" transform="translate(0 0)"/><path class="a" d="M232,107a11.33,11.33,0,1,0,7,14.42A11.33,11.33,0,0,0,232,107Z" transform="translate(0 0)"/><path class="a" d="M254,123.76a3.15,3.15,0,1,0,1.93,4A3.15,3.15,0,0,0,254,123.76Z" transform="translate(0 0)"/><path class="a" d="M234.9,98.58a20.28,20.28,0,1,0,12.47,25.82A20.31,20.31,0,0,0,234.9,98.58Zm10.09,25A17.75,17.75,0,1,1,234.07,101,17.76,17.76,0,0,1,245,123.57Z" transform="translate(0 0)"/><path class="a" d="M217.34,96.55a3.14,3.14,0,1,0-4.21-1.46A3.14,3.14,0,0,0,217.34,96.55Z" transform="translate(0 0)"/><path class="a" d="M367.48,58.78a3.22,3.22,0,1,0-3.34-3.09A3.22,3.22,0,0,0,367.48,58.78Z" transform="translate(0 0)"/><path class="a" d="M235.44,95.51a3.15,3.15,0,1,0-1.93-4A3.14,3.14,0,0,0,235.44,95.51Z" transform="translate(0 0)"/><path class="a" d="M219.84,140.27a3.15,3.15,0,1,0,1.93,4A3.15,3.15,0,0,0,219.84,140.27Z" transform="translate(0 0)"/><path class="a" d="M205.26,110.09a3.15,3.15,0,1,0-4,1.93A3.14,3.14,0,0,0,205.26,110.09Z" transform="translate(0 0)"/><path class="a" d="M238,139.23a3.15,3.15,0,1,0,4.2,1.47A3.15,3.15,0,0,0,238,139.23Z" transform="translate(0 0)"/><path class="a" d="M156.46,168.2a2.18,2.18,0,1,0-1.85-2.45A2.18,2.18,0,0,0,156.46,168.2Z" transform="translate(0 0)"/><path class="a" d="M158.61,181.1a2.17,2.17,0,1,0,.42-3A2.17,2.17,0,0,0,158.61,181.1Z" transform="translate(0 0)"/><path class="a" d="M272.69,220.83l-.54-.2Z" transform="translate(0 0)"/><path class="a" d="M172.91,182.19a14,14,0,1,0-12-15.81A14,14,0,0,0,172.91,182.19Zm-10.23-15.57a12.27,12.27,0,1,1,10.47,13.84A12.28,12.28,0,0,1,162.68,166.62Z" transform="translate(0 0)"/><path class="a" d="M273.66,221.16l-.19-.06Z" transform="translate(0 0)"/><path class="a" d="M173.76,176.06a7.83,7.83,0,1,0-6.68-8.83A7.83,7.83,0,0,0,173.76,176.06Z" transform="translate(0 0)"/><path class="a" d="M191.25,159.13a2.17,2.17,0,1,0-3-.42A2.18,2.18,0,0,0,191.25,159.13Z" transform="translate(0 0)"/><path class="a" d="M191.37,170.84a2.18,2.18,0,1,0,2.45-1.85A2.18,2.18,0,0,0,191.37,170.84Z" transform="translate(0 0)"/><path class="a" d="M177.39,152.37a2.18,2.18,0,1,0-1.85-2.46A2.18,2.18,0,0,0,177.39,152.37Z" transform="translate(0 0)"/><path class="a" d="M165.26,155.53a2.18,2.18,0,1,0-3-.42A2.18,2.18,0,0,0,165.26,155.53Z" transform="translate(0 0)"/><path class="a" d="M423.43,200.22a3.15,3.15,0,1,0-4.41-.6A3.15,3.15,0,0,0,423.43,200.22Z" transform="translate(0 0)"/><path class="a" d="M423.64,217.16a3.15,3.15,0,1,0,3.55-2.7A3.15,3.15,0,0,0,423.64,217.16Z" transform="translate(0 0)"/><path class="a" d="M418.24,237.89l.08,0a3.15,3.15,0,1,0-3.81-5l-.06.06c.68.51,1.33,1,1.88,1.35A4.7,4.7,0,0,1,418.24,237.89Z" transform="translate(0 0)"/><path class="a" d="M523.34,248.92a29.73,29.73,0,0,0,.21-6.09l-3.13.25a26,26,0,0,1-.2,5.42c0,.2-.06.41-.1.61l1.8,1.33,1.35-1.09C523.29,249.21,523.32,249.07,523.34,248.92Z" transform="translate(0 0)"/><path class="a" d="M403.35,190.49a3.15,3.15,0,1,0-2.69-3.54A3.15,3.15,0,0,0,403.35,190.49Z" transform="translate(0 0)"/><path class="a" d="M420.53,217.24a20.27,20.27,0,1,0-32.61,13.18l2-1.64a17.78,17.78,0,1,1,23.55-2.19,4.77,4.77,0,0,1-.09,1.09,15.66,15.66,0,0,1-1.22,3.36h0A20.18,20.18,0,0,0,420.53,217.24Z" transform="translate(0 0)"/><path class="a" d="M517.39,243.33l-4.56.38,4.5,3.33A23,23,0,0,0,517.39,243.33Z" transform="translate(0 0)"/><path class="a" d="M389.22,213a11.22,11.22,0,0,0,.32,4.6A17.47,17.47,0,0,1,389.22,213Z" transform="translate(0 0)"/><path class="a" d="M385.81,195.11a3.15,3.15,0,1,0-4.41-.6A3.15,3.15,0,0,0,385.81,195.11Z" transform="translate(0 0)"/><path class="a" d="M504.28,235l10.08-1.93a23.89,23.89,0,1,0-7.61,31.63,6.66,6.66,0,0,1-1.11-1.13l6.69-5.41c-2.68-3-5.47-8.2-2-14.84C505,241.7,504.28,235,504.28,235Z" transform="translate(0 0)"/><path class="a" d="M405.44,70.88a3.22,3.22,0,1,0-4.55.18A3.21,3.21,0,0,0,405.44,70.88Z" transform="translate(0 0)"/><path class="a" d="M369.58,230.84l-4.73-.92c-.94,5.05-2.57,14.44-2.82,20.1h0c1.5-.18,7.44-4.62,14.14-10l0-.46A34.81,34.81,0,0,1,369.58,230.84Z" transform="translate(0 0)"/><path class="a" d="M392.59,206.47l17.21,14.4a11.14,11.14,0,0,0,1.86-4.84,11.32,11.32,0,0,0-20.42-8.11A8.71,8.71,0,0,1,392.59,206.47Z" transform="translate(0 0)"/><path class="a" d="M333.28,139.61a3.22,3.22,0,1,0,4.56-.18A3.24,3.24,0,0,0,333.28,139.61Z" transform="translate(0 0)"/><path class="a" d="M371.24,151.71a3.22,3.22,0,1,0,3.35,3.09A3.23,3.23,0,0,0,371.24,151.71Z" transform="translate(0 0)"/><path class="a" d="M419.18,106.45a3.22,3.22,0,1,0-3.35-3.08A3.22,3.22,0,0,0,419.18,106.45Z" transform="translate(0 0)"/><path class="a" d="M403.55,136.77a3.22,3.22,0,1,0,4.55-.18A3.21,3.21,0,0,0,403.55,136.77Z" transform="translate(0 0)"/><path class="a" d="M285.44,222a25.85,25.85,0,1,0-28.1-35.07l2.57-.57s3.94.54,4.83,3.5c.43,1.42,1.24,3.46,2,5.18a17,17,0,0,1,3.74-.23,6.9,6.9,0,0,1,5.61,5.16l9.55,22Z" transform="translate(0 0)"/><path class="a" d="M373.14,213.48a3.15,3.15,0,1,0-2.7-3.54A3.16,3.16,0,0,0,373.14,213.48Z" transform="translate(0 0)"/><path class="a" d="M363.5,80l0,0c1.17,9.48-6.51,11.7-8.61,11.45a3.36,3.36,0,0,1-1.08-.67A12.65,12.65,0,0,1,352,97.85c-3.26,5.25-7.29,4.67-7.29,4.67l-1-.1a27.54,27.54,0,0,1-2.73,4.28,12.9,12.9,0,0,1-6.38,4.1,35.71,35.71,0,1,0,19.53-39.57A40.15,40.15,0,0,1,362.85,74Z" transform="translate(0 0)"/><path class="a" d="M376.29,232.13a3.15,3.15,0,1,0,.6-4.41A3.15,3.15,0,0,0,376.29,232.13Z" transform="translate(0 0)"/><path class="a" d="M509.79,266.28a26.92,26.92,0,1,1,7.68-33.78l3.2-.61a30.06,30.06,0,1,0-5.88,34.2A8.83,8.83,0,0,1,509.79,266.28Z" transform="translate(0 0)"/><path class="a" d="M202.1,126.73a3.15,3.15,0,1,0,4.2,1.47A3.15,3.15,0,0,0,202.1,126.73Z" transform="translate(0 0)"/><path class="a" d="M593.14,109a2.17,2.17,0,1,0-3-.61A2.17,2.17,0,0,0,593.14,109Z" transform="translate(0 0)"/><path class="a" d="M646.17,136.82a12,12,0,1,0,16.17,5.24A12,12,0,0,0,646.17,136.82Zm10.25,20.08A10.53,10.53,0,1,1,661,142.74,10.54,10.54,0,0,1,656.42,156.9Z" transform="translate(0 0)"/><circle class="a" cx="605.88" cy="104.5" r="2.17" transform="translate(100.02 453.95) rotate(-44.42)"/><path class="a" d="M648.58,141.55a6.72,6.72,0,1,0,9,2.92A6.72,6.72,0,0,0,648.58,141.55Z" transform="translate(0 0)"/><path class="a" d="M618.86,114.25a2.18,2.18,0,1,0-3-.61A2.17,2.17,0,0,0,618.86,114.25Z" transform="translate(0 0)"/><path class="a" d="M598.93,138.74a2.18,2.18,0,1,0,1.7,2.57A2.18,2.18,0,0,0,598.93,138.74Z" transform="translate(0 0)"/><path class="a" d="M611.24,136.34a2.18,2.18,0,1,0,3,.62A2.18,2.18,0,0,0,611.24,136.34Z" transform="translate(0 0)"/><path class="a" d="M658.38,160.09a1.86,1.86,0,1,0,2.51.81A1.86,1.86,0,0,0,658.38,160.09Z" transform="translate(0 0)"/><path class="a" d="M618.24,126a2.18,2.18,0,1,0,2.57-1.7A2.19,2.19,0,0,0,618.24,126Z" transform="translate(0 0)"/><path class="a" d="M584.91,134.14a2.17,2.17,0,1,0,.61-3A2.16,2.16,0,0,0,584.91,134.14Z" transform="translate(0 0)"/><path class="a" d="M637,153.15a1.87,1.87,0,1,0,2.51.82A1.86,1.86,0,0,0,637,153.15Z" transform="translate(0 0)"/><path class="a" d="M638.62,143.25a1.86,1.86,0,1,0-2.34,1.2A1.87,1.87,0,0,0,638.62,143.25Z" transform="translate(0 0)"/><path class="a" d="M647.66,160.94a1.87,1.87,0,1,0,1.2,2.35A1.87,1.87,0,0,0,647.66,160.94Z" transform="translate(0 0)"/><path class="a" d="M645.6,135.07a1.87,1.87,0,1,0-2.51-.82A1.86,1.86,0,0,0,645.6,135.07Z" transform="translate(0 0)"/><path class="a" d="M583.57,121.13a2.17,2.17,0,1,0-1.7-2.56A2.17,2.17,0,0,0,583.57,121.13Z" transform="translate(0 0)"/><path class="a" d="M606.09,129.2a7.83,7.83,0,1,0-10.85-2.2A7.82,7.82,0,0,0,606.09,129.2Z" transform="translate(0 0)"/><path class="a" d="M667,142a1.86,1.86,0,1,0-2.51-.81A1.87,1.87,0,0,0,667,142Z" transform="translate(0 0)"/><path class="a" d="M609.51,134.36a14,14,0,1,0-19.42-3.94A14,14,0,0,0,609.51,134.36ZM595,112.45a12.27,12.27,0,1,1-3.45,17A12.28,12.28,0,0,1,595,112.45Z" transform="translate(0 0)"/><path class="a" d="M471.39,144.48a2.62,2.62,0,1,0,3.21,1.85A2.61,2.61,0,0,0,471.39,144.48Z" transform="translate(0 0)"/><path class="a" d="M520.89,173.07a2.62,2.62,0,1,0,3.21,1.85A2.63,2.63,0,0,0,520.89,173.07Z" transform="translate(0 0)"/><path class="a" d="M550.84,128.63a2.62,2.62,0,1,0-3.21-1.85A2.61,2.61,0,0,0,550.84,128.63Z" transform="translate(0 0)"/><path class="a" d="M544.81,159a2.62,2.62,0,1,0-1-3.58A2.63,2.63,0,0,0,544.81,159Z" transform="translate(0 0)"/><path class="a" d="M482.86,142.62a29,29,0,1,0,36.27-35.36,8,8,0,0,1-.51,7.08l-9.41-5.56-.27.36s-5.37,12.75-17.77,7.74l2.7-5.29A29,29,0,0,0,482.86,142.62Z" transform="translate(0 0)"/><path class="a" d="M529.06,100.24a2.62,2.62,0,1,0,3.58-1A2.63,2.63,0,0,0,529.06,100.24Z" transform="translate(0 0)"/><path class="a" d="M492.21,169.29a2.62,2.62,0,1,0,1,3.58A2.62,2.62,0,0,0,492.21,169.29Z" transform="translate(0 0)"/><path class="a" d="M254.3,185.69a29.16,29.16,0,1,1,7.75,32.59l-2.92,1.94A32.53,32.53,0,1,0,251.77,183,11.53,11.53,0,0,1,254.3,185.69Z" transform="translate(0 0)"/><path class="a" d="M266.4,215.42c-.49.31-1,.64-1.51,1a25.92,25.92,0,0,0,5.7,3.57Z" transform="translate(0 0)"/><path class="a" d="M656.32,134.21a1.87,1.87,0,1,0-1.2-2.35A1.87,1.87,0,0,0,656.32,134.21Z" transform="translate(0 0)"/><path class="a" d="M597.84,219.51a25.14,25.14,0,1,0-29.25-20.21A25.17,25.17,0,0,0,597.84,219.51Zm-8.56-46.87a22.51,22.51,0,1,1-18.1,26.18A22.54,22.54,0,0,1,589.28,172.64Z" transform="translate(0 0)"/><path class="a" d="M477.42,114.07a2.62,2.62,0,1,0,1,3.58A2.61,2.61,0,0,0,477.42,114.07Z" transform="translate(0 0)"/><path class="a" d="M667.71,150.71a1.87,1.87,0,1,0,1.19,2.35A1.86,1.86,0,0,0,667.71,150.71Z" transform="translate(0 0)"/><circle class="a" cx="593.32" cy="194.78" r="19.97" transform="translate(98.28 575.44) rotate(-55.73)"/><path class="b" d="M597.37,216.93a22.51,22.51,0,1,0-26.19-18.11A22.54,22.54,0,0,0,597.37,216.93Zm-7.63-41.8a20,20,0,1,1-16.06,23.24A20,20,0,0,1,589.74,175.13Z" transform="translate(0 0)"/><path class="b" d="M551,191.12a43,43,0,0,0,.08,7.52l7.29,2.41a35.51,35.51,0,0,0,2.19,7.26l-4.49,6.5a43.1,43.1,0,0,0,3.88,5.86l7.42-1.9a35.76,35.76,0,0,0,6.44,5.4l-.27,7.81a43.06,43.06,0,0,0,6.12,2.63l5.22-5.63a35.49,35.49,0,0,0,8.83,1l4,6.65c1.07-.12,2.14-.27,3.22-.47s2.14-.43,3.18-.7l1.36-7.62a35.17,35.17,0,0,0,7.91-4.06l6.87,3.42a42.61,42.61,0,0,0,4.79-4.61l-3-7.22A35.87,35.87,0,0,0,626.1,208l7.61-.84a41.5,41.5,0,0,0,1.56-6.85l-6.5-4.49a35.32,35.32,0,0,0-.51-7.57l6-4.83a40.78,40.78,0,0,0-2.58-7.07l-7.92-.27a36.13,36.13,0,0,0-4-5.39l2.42-7.34a42,42,0,0,0-6.33-4.85l-6.8,4.05a35.85,35.85,0,0,0-5.62-2.21l-1.95-7.56a42.67,42.67,0,0,0-8.19-.79l-3.51,7.06c-1,.09-1.91.22-2.87.4s-1.9.39-2.82.63l-5.78-5.35a41.81,41.81,0,0,0-7.38,3.63l.85,7.76a35.93,35.93,0,0,0-4.48,4.05l-7.8-1.38a42.47,42.47,0,0,0-4.2,6.77l4.86,6a35.27,35.27,0,0,0-1.83,6.45Zm37.83-21.07a25.14,25.14,0,1,1-20.22,29.25A25.17,25.17,0,0,1,588.81,170.05Z" transform="translate(0 0)"/><path class="b" d="M173.15,180.46a12.27,12.27,0,1,0-10.47-13.84A12.28,12.28,0,0,0,173.15,180.46Zm-6.07-13.23a7.83,7.83,0,1,1,6.68,8.83A7.83,7.83,0,0,1,167.08,167.23Z" transform="translate(0 0)"/><path class="b" d="M150.84,169l-6.9,5.89c.23,1.05.51,2.09.84,3.11l8.86,1.76a24.14,24.14,0,0,0,4.58,6.05l-.71,8.86a33.61,33.61,0,0,0,2.92,1.69l7.36-4.93a23.78,23.78,0,0,0,3.73.83,25.73,25.73,0,0,0,3.8.22l5.75,6.74a30.14,30.14,0,0,0,3.27-.84l1.73-8.71a24.57,24.57,0,0,0,6.05-4.58l9,.72a32.19,32.19,0,0,0,1.66-2.77l-5.05-7.54a23.72,23.72,0,0,0,1-7.5l7.06-6c-.2-1-.45-2-.74-2.93L196,157.24a23.93,23.93,0,0,0-4.55-6l.75-9.44c-.8-.52-1.62-1-2.48-1.47l-7.88,5.27a24.69,24.69,0,0,0-3.69-.81,23.09,23.09,0,0,0-3.78-.22l-6.15-7.22c-.95.21-1.87.46-2.78.74l-1.85,9.29a24.3,24.3,0,0,0-6,4.55l-9.28-.74c-.54.85-1.05,1.72-1.51,2.62l5.15,7.71a25.1,25.1,0,0,0-.82,3.72A25.54,25.54,0,0,0,150.84,169Zm23.91,18.27a2.18,2.18,0,1,1-1.86-2.45A2.18,2.18,0,0,1,174.75,187.27Zm12.9-2.14a2.17,2.17,0,1,1,.42-3A2.17,2.17,0,0,1,187.65,185.13ZM193.82,169a2.17,2.17,0,1,1-2.45,1.85A2.18,2.18,0,0,1,193.82,169Zm-5.19-13.33a2.17,2.17,0,1,1,2.62,3.47,2.17,2.17,0,0,1-2.62-3.47Zm-13.09-5.75a2.17,2.17,0,1,1,1.85,2.46A2.16,2.16,0,0,1,175.54,149.91Zm-12.91,2.15a2.18,2.18,0,1,1-.42,3.05A2.17,2.17,0,0,1,162.63,152.06ZM161,166.38a14,14,0,1,1,12,15.81A14,14,0,0,1,161,166.38Zm1.13,12.1a2.17,2.17,0,1,1-3.05-.42A2.18,2.18,0,0,1,162.08,178.48Zm-7.47-12.73a2.17,2.17,0,1,1,1.85,2.45A2.18,2.18,0,0,1,154.61,165.75Z" transform="translate(0 0)"/><path class="b" d="M608.55,132.91a12.27,12.27,0,1,0-17-3.45A12.29,12.29,0,0,0,608.55,132.91Zm-11.11-16.76a7.83,7.83,0,1,1-2.2,10.85A7.83,7.83,0,0,1,597.44,116.15Z" transform="translate(0 0)"/><path class="b" d="M570.49,127.42a30,30,0,0,0,.6,3l9,2.37a23.68,23.68,0,0,0,1.84,3.33,24.7,24.7,0,0,0,2.34,3l-1.28,9a29.64,29.64,0,0,0,2.68,1.78l7.81-4.54a24.28,24.28,0,0,0,7.44,1.51l5.33,7.1a31,31,0,0,0,3.3-.65l2.27-8.57a23.2,23.2,0,0,0,3.33-1.85,24,24,0,0,0,3-2.35l8.77,1.25a32.53,32.53,0,0,0,1.89-2.79l-4.47-7.67a24.34,24.34,0,0,0,1.51-7.44l7.23-5.42c-.15-1.06-.34-2.12-.59-3.17l-8.77-2.32a24.52,24.52,0,0,0-1.84-3.31,23.21,23.21,0,0,0-2.35-3l1.31-9.18q-1.22-.92-2.49-1.71l-8.05,4.68a24,24,0,0,0-7.4-1.49l-5.68-7.58c-1,.14-1.89.31-2.83.54L592,101a24.52,24.52,0,0,0-3.31,1.84,23.64,23.64,0,0,0-3,2.34l-9.39-1.35q-.85,1.17-1.59,2.4l4.76,8.18a24.31,24.31,0,0,0-1.5,7.4Zm30.14,13.89a2.17,2.17,0,1,1-1.7-2.57A2.17,2.17,0,0,1,600.63,141.31Zm13-1.34a2.18,2.18,0,1,1,.61-3A2.17,2.17,0,0,1,613.64,140Zm7.17-15.72a2.17,2.17,0,1,1-2.57,1.7A2.17,2.17,0,0,1,620.81,124.25Zm-4.35-13.63a2.18,2.18,0,1,1-.62,3A2.17,2.17,0,0,1,616.46,110.62Zm-12.71-6.55a2.17,2.17,0,1,1,1.7,2.56A2.16,2.16,0,0,1,603.75,104.07Zm-13,1.34a2.17,2.17,0,1,1-.62,3A2.16,2.16,0,0,1,590.74,105.41ZM594,111a14,14,0,1,1-3.94,19.42A14,14,0,0,1,594,111Zm-5.5,20.74a2.17,2.17,0,1,1-3-.61A2.16,2.16,0,0,1,588.53,131.74Zm-6.66-13.17a2.17,2.17,0,1,1,1.7,2.56A2.17,2.17,0,0,1,581.87,118.57Z" transform="translate(0 0)"/><path class="b" d="M646.85,138.15A10.53,10.53,0,1,0,661,142.74,10.55,10.55,0,0,0,646.85,138.15Zm7.84,15.36a6.72,6.72,0,1,1,2.92-9A6.73,6.73,0,0,1,654.69,153.51Z" transform="translate(0 0)"/><path class="b" d="M678.71,146.92a25.61,25.61,0,0,0-.2-2.76l-7.24-2.82a21.05,21.05,0,0,0-3-5.79l2-7.69a24.36,24.36,0,0,0-2-1.7L661,129.37a20.77,20.77,0,0,0-6.16-2l-4.1-7q-1.23,0-2.46.18l-3,7.57a21.62,21.62,0,0,0-3,1.25,19.72,19.72,0,0,0-2.77,1.7L631.73,129c-.56.6-1.09,1.23-1.59,1.88l3.27,7.44a20.54,20.54,0,0,0-2,6.15l-6.89,4a25.16,25.16,0,0,0,.23,2.59l7.41,2.88a19.75,19.75,0,0,0,1.25,3,20.2,20.2,0,0,0,1.7,2.76l-2,7.53a27.22,27.22,0,0,0,2.12,1.77l7.1-3.11a20.7,20.7,0,0,0,6.19,2l3.85,6.57a28,28,0,0,0,2.88-.24l2.76-7.08a22.38,22.38,0,0,0,3-1.25,21.72,21.72,0,0,0,2.79-1.72l7.35,1.92a28,28,0,0,0,1.89-2.19L670,157a20.5,20.5,0,0,0,2-6.19Zm-23.59-15.06a1.87,1.87,0,1,1,1.2,2.35A1.87,1.87,0,0,1,655.12,131.86Zm-11.22-.12a1.87,1.87,0,1,1-.81,2.51A1.86,1.86,0,0,1,643.9,131.74Zm-8.82,10.36a1.86,1.86,0,1,1,1.2,2.35A1.85,1.85,0,0,1,635.08,142.1Zm3.58,14.38a1.87,1.87,0,0,1-1.69-3.33,1.87,1.87,0,1,1,1.69,3.33Zm10.2,6.81a1.87,1.87,0,1,1-1.2-2.35A1.87,1.87,0,0,1,648.86,163.29Zm11.22.12a1.86,1.86,0,1,1,.81-2.51A1.86,1.86,0,0,1,660.08,163.41Zm-3-5.18a12,12,0,1,1,5.24-16.17A12,12,0,0,1,657.1,158.23Zm7.4-17A1.87,1.87,0,1,1,667,142,1.86,1.86,0,0,1,664.5,141.19Zm4.4,11.87a1.86,1.86,0,1,1-1.19-2.35A1.85,1.85,0,0,1,668.9,153.06Z" transform="translate(0 0)"/><path class="b" d="M234.07,101A17.75,17.75,0,1,0,245,123.57,17.77,17.77,0,0,0,234.07,101Zm4.85,20.49A11.33,11.33,0,1,1,232,107,11.32,11.32,0,0,1,238.92,121.45Z" transform="translate(0 0)"/><path class="b" d="M262.27,124.09,274,117.57q0-2.2-.21-4.38L261.33,108a35,35,0,0,0-4.75-9.84L260.32,85c-1-1-2-1.9-3.09-2.78l-12.67,5.24a33.78,33.78,0,0,0-5-2.21,35,35,0,0,0-5.29-1.39l-6.68-12c-1.39,0-2.77.11-4.15.26L218.17,84.8a35,35,0,0,0-9.84,4.75l-13-3.69c-1,1-2,2.14-2.89,3.29l5.12,12.4A34.64,34.64,0,0,0,194,111.9l-11.46,6.38a45,45,0,0,0,.3,4.65l12.07,5a34.91,34.91,0,0,0,4.77,9.89l-3.52,12.36a46.93,46.93,0,0,0,3.66,3.23l11.84-4.89a35,35,0,0,0,10.39,3.62l6.24,11.2a46.25,46.25,0,0,0,4.86-.26l4.93-11.87a34.67,34.67,0,0,0,9.89-4.78L260.54,150c1.09-1.09,2.14-2.24,3.13-3.45l-5-12.13a33.67,33.67,0,0,0,2.21-5A34.46,34.46,0,0,0,262.27,124.09ZM233.51,91.51a3.15,3.15,0,1,1,1.93,4A3.15,3.15,0,0,1,233.51,91.51Zm-18.91-.62a3.14,3.14,0,1,1-1.47,4.2A3.15,3.15,0,0,1,214.6,90.89ZM199.32,108a3.15,3.15,0,1,1,1.94,4A3.15,3.15,0,0,1,199.32,108Zm5.52,24.38a3.15,3.15,0,1,1,1.46-4.2A3.14,3.14,0,0,1,204.84,132.4Zm16.93,11.88a3.15,3.15,0,1,1-1.93-4A3.14,3.14,0,0,1,221.77,144.28Zm18.91.62a3.15,3.15,0,1,1,1.47-4.2A3.15,3.15,0,0,1,240.68,144.9Zm6.69-20.5A20.28,20.28,0,1,1,234.9,98.58,20.29,20.29,0,0,1,247.37,124.4ZM249,107.59a3.15,3.15,0,1,1,4.2,1.46A3.14,3.14,0,0,1,249,107.59Zm7,20.18a3.15,3.15,0,1,1-1.93-4A3.15,3.15,0,0,1,256,127.77Z" transform="translate(0 0)"/><path class="c" d="M402.83,196.92a17.75,17.75,0,0,0-12.95,31.86c1.27-1.06,2.45-2.06,3.52-3l-3.06-5.1a27.61,27.61,0,0,1-.8-3.12,11.22,11.22,0,0,1-.32-4.6,9.84,9.84,0,0,1,2-5.07A11.32,11.32,0,0,1,411.66,216a11.14,11.14,0,0,1-1.86,4.84l.34.29a6.87,6.87,0,0,1,3.29,5.43,17.72,17.72,0,0,0-10.6-29.67Z" transform="translate(0 0)"/><path class="c" d="M365.51,226.45s-.27,1.36-.66,3.47l4.73.92a34.81,34.81,0,0,0,6.65,8.74l0,.46c3.89-3.12,8-6.53,11.72-9.62a20.28,20.28,0,1,1,24.2.62c.74.61,1.55,1.25,2.33,1.85l.06-.06a3.15,3.15,0,1,1,3.81,5l-.08,0a7.31,7.31,0,0,1,0,1.72l-2.14,3.89q.59.62,1.05,1.17a34.75,34.75,0,0,0,8.1-6.27l13.65,1c.76-1.16,1.46-2.35,2.11-3.58l-7.65-11.38a34.94,34.94,0,0,0,1.47-10.82l10.41-8.93q-.45-2-1.08-4L430.7,198.1a34.64,34.64,0,0,0-6.61-8.7l1-13.43a42.91,42.91,0,0,0-3.8-2.17l-11.12,7.49a34.22,34.22,0,0,0-5.39-1.18,35,35,0,0,0-5.48-.31l-8.53-10q-2.3.51-4.5,1.23l-2.51,12.83a35.14,35.14,0,0,0-8.74,6.64l-12.81-1a42.87,42.87,0,0,0-2.44,4.22L367,204.41A34.14,34.14,0,0,0,365.48,215,16.31,16.31,0,0,1,365.51,226.45Zm61.68-12a3.15,3.15,0,1,1-3.55,2.7A3.15,3.15,0,0,1,427.19,214.46Zm-7.57-19.25a3.15,3.15,0,1,1-.6,4.41A3.15,3.15,0,0,1,419.62,195.21Zm-19-8.26a3.14,3.14,0,1,1,2.69,3.54A3.14,3.14,0,0,1,400.66,187ZM382,190.1a3.15,3.15,0,1,1-.6,4.41A3.15,3.15,0,0,1,382,190.1Zm-.7,38.22a3.15,3.15,0,1,1-4.41-.6A3.14,3.14,0,0,1,381.3,228.32Zm-10.86-18.38a3.15,3.15,0,1,1,2.7,3.54A3.15,3.15,0,0,1,370.44,209.94Z" transform="translate(0 0)"/><path class="d" d="M392.59,206.47a8.71,8.71,0,0,0-1.35,1.45,9.84,9.84,0,0,0-2,5.07,17.47,17.47,0,0,0,.32,4.6,27.61,27.61,0,0,0,.8,3.12l3.06,5.1c3.42-2.9,5.71-4.87,5.71-4.87s5.46-1.51,7.28-1.2a10.16,10.16,0,0,1,3.75,1.42l-.34-.29Z" transform="translate(0 0)"/><path class="d" d="M412.15,250.65l4.47,2.64c.22.26.41.5.6.75l1.56-2.12s2.4-2.32-1.65-7.25q-.47-.55-1.05-1.17Z" transform="translate(0 0)"/><path class="d" d="M418.22,239.61a7.31,7.31,0,0,0,0-1.72,4.7,4.7,0,0,0-1.91-3.65c-.55-.36-1.2-.84-1.88-1.35s-1.59-1.24-2.33-1.85h0c-2,4.17-5.76,9.57-9.25,14.15l9.28,5.46,3.93-7.15Z" transform="translate(0 0)"/><path class="d" d="M379,301.32c5.79-4.48,11.78-9.22,14.8-12,6.79-6.15,25.36-26.49,25.36-26.49s3.09-2.43-1.95-8.83c-.19-.25-.38-.49-.6-.75l-4.47-2.64-9.28-5.46c-4,5.25-7.6,9.41-7.6,9.41l-51.92,23.86s-.29-.56-.74-1.53l-1.12,1.9Z" transform="translate(0 0)"/><path class="d" d="M353.55,246.17A10.87,10.87,0,0,0,362,250c.25-5.66,1.88-15.05,2.82-20.1.39-2.11.66-3.47.66-3.47a16.31,16.31,0,0,0,0-11.41c-1.26-3.1-3.85-6.26-8.84-8.69l-16.37,44.8A21,21,0,0,0,338,262l.35-.3C345.55,255.46,345.43,250.9,353.55,246.17Z" transform="translate(0 0)"/><path class="d" d="M339.14,267.61h0c-.41-1.42-.78-2.93-1.09-4.48A19.38,19.38,0,0,0,339.14,267.61Z" transform="translate(0 0)"/><path class="d" d="M395.27,254.6s3.6-4.16,7.6-9.41c3.49-4.58,7.28-10,9.25-14.15a15.66,15.66,0,0,0,1.22-3.36,4.77,4.77,0,0,0,.09-1.09,6.87,6.87,0,0,0-3.29-5.43,10.16,10.16,0,0,0-3.75-1.42c-1.82-.31-7.28,1.2-7.28,1.2s-2.29,2-5.71,4.87c-1.07.91-2.25,1.91-3.52,3l-2,1.64c-3.68,3.09-7.83,6.5-11.72,9.62-6.7,5.36-12.64,9.8-14.14,10h0a10.87,10.87,0,0,1-8.48-3.85c-8.12,4.73-8,9.29-15.23,15.53l-.35.3-.1.08c.06.36.13.7.2,1.05.31,1.55.68,3.06,1.09,4.48a69.19,69.19,0,0,0,3.45,9.32c.45,1,.74,1.53.74,1.53Z" transform="translate(0 0)"/><polygon class="e" points="339.67 284.89 339.67 284.89 340.54 285.39 340.53 285.4 349.81 290.82 350.25 291.06 350.24 291.07 360.89 297.3 360.89 297.28 361.41 297.6 371.97 303.78 371.98 303.76 372.81 304.26 372.81 304.27 377.07 306.76 380.29 302.09 379.01 301.32 341.49 278.83 339.69 277.75 336.13 282.82 339.67 284.89"/><polygon class="f" points="379.55 308.2 377.07 306.76 372.81 304.27 354.86 333.33 365.39 333.33 379.55 308.2"/><polygon class="f" points="339.67 284.89 336.13 282.82 333.24 281.13 296.6 333.33 306.86 333.33 339.67 284.89"/><polygon class="f" points="349.39 290.6 349.81 290.82 340.53 285.4 308.07 333.33 322.08 333.33 349.39 290.6"/><polygon class="f" points="371.97 303.78 361.41 297.6 361.71 297.78 339.23 333.33 353.72 333.33 371.97 303.78"/><polygon class="f" points="360.89 297.3 350.24 291.07 323.24 333.33 338.09 333.33 360.89 297.3"/><polygon class="g" points="340.53 285.4 340.54 285.39 339.67 284.89 339.67 284.89 306.86 333.33 308.07 333.33 340.53 285.4"/><polygon class="g" points="372.81 304.27 372.81 304.26 371.98 303.76 371.97 303.78 353.72 333.33 354.86 333.33 372.81 304.27"/><polygon class="g" points="361.71 297.78 361.41 297.6 360.89 297.28 360.89 297.3 338.09 333.33 339.23 333.33 361.71 297.78"/><polygon class="g" points="350.24 291.07 350.25 291.06 349.81 290.82 349.39 290.6 322.08 333.33 323.24 333.33 350.24 291.07"/><path class="e" d="M310.16,200.92a29.14,29.14,0,0,0-55.86-15.23,19.77,19.77,0,0,1,1.07,1.68l2-.43A25.85,25.85,0,1,1,285.44,222a23.76,23.76,0,0,1-8.39,0,30.1,30.1,0,0,1-3.39-.88l-.19-.06-.78-.27-.54-.2c-1-.35-1.54-.62-1.54-.62l0,0a25.92,25.92,0,0,1-5.7-3.57l-2.84,1.87a29.12,29.12,0,0,0,48.11-17.36Z" transform="translate(0 0)"/><path class="h" d="M245.12,183.1l2.58-.94s1.67-.95,4.07.81a32.56,32.56,0,1,1,7.36,37.25c-5.66,3.78-12,8.12-17.14,11.8l-.6,1.57a56.56,56.56,0,0,0,6.36,5.81l8.77-4.68a45.55,45.55,0,0,0,10.38,5l2,9.81c1.35.31,2.73.58,4.14.8s2.79.37,4.18.48l4.9-8.74a45.46,45.46,0,0,0,11.39-1.62l7,7.1a54.24,54.24,0,0,0,7.81-3.62l-.62-10.1a46.1,46.1,0,0,0,8.13-7.22l9.67,2.2a55.46,55.46,0,0,0,4.81-7.72l-6-8.25a46.23,46.23,0,0,0,2.57-9.47l9.35-3.39a55.32,55.32,0,0,0-.17-9.73l-9.58-3.69a46.12,46.12,0,0,0-2.59-8.29l6.07-7.94a56.3,56.3,0,0,0-5.68-8.62l-10.05,2.08a45.09,45.09,0,0,0-5.93-5.09l.82-10.07a54.45,54.45,0,0,0-9.68-4.43l-7.29,7.13c-1.2-.28-2.43-.52-3.68-.72s-2.48-.33-3.72-.42l-4.8-9a55.27,55.27,0,0,0-10.57,1.32l-2.25,9.85a46.54,46.54,0,0,0-7.19,3.07l-8.95-5a55.58,55.58,0,0,0-8,6.51l3.4,9.4a45.64,45.64,0,0,0-5,7.13l-10.25.63a54.18,54.18,0,0,0-2.92,8.64l8.61-4.18S240.18,176.1,245.12,183.1Z" transform="translate(0 0)"/><path class="d" d="M270.61,220s.58.27,1.54.62l.54.2.78.27.19.06a30.1,30.1,0,0,0,3.39.88,23.76,23.76,0,0,0,8.39,0l.16,0-9.55-22a10.4,10.4,0,0,1,.3,4.19c-.22,1.92-3.36,7-3.36,7s-2.66,1.71-6.59,4.29l4.19,4.56Z" transform="translate(0 0)"/><path class="d" d="M255.37,187.37a19.77,19.77,0,0,0-1.07-1.68,11.53,11.53,0,0,0-2.53-2.72c-2.4-1.76-4.07-.81-4.07-.81l-2.58.94c.19.26.38.53.57.82L247,189.2Z" transform="translate(0 0)"/><path class="d" d="M266.7,195.05c-.72-1.72-1.53-3.76-2-5.18-.89-3-4.83-3.5-4.83-3.5l-2.57.57-2,.43L247,189.2l2.74,11C255.38,198,261.93,195.79,266.7,195.05Z" transform="translate(0 0)"/><path class="d" d="M197.38,246.49,238,205s5.26-2.38,11.72-4.84l-2.74-11-1.31-5.28c-.19-.29-.38-.56-.57-.82-4.94-7-8.31-4.58-8.31-4.58l-8.61,4.18-20.9,10.14-20.85,14.83Z" transform="translate(0 0)"/><path class="d" d="M214,260.1l-.41.27a22,22,0,0,0,11.59.91l42.68-2.61.13.37c-2.76-16.5-17.57-14.89-17.57-14.89s-11.4.66-18.18-1.13a11.45,11.45,0,0,0,1.88,6.39C226.94,256.16,222.4,254.69,214,260.1Z" transform="translate(0 0)"/><path class="d" d="M212.34,259.88c-1.1-.58-2.22-1.21-3.34-1.86A20.68,20.68,0,0,0,212.34,259.88Z" transform="translate(0 0)"/><path class="d" d="M262.05,218.28l2.84-1.87c.52-.35,1-.68,1.51-1,3.93-2.58,6.59-4.29,6.59-4.29s3.14-5,3.36-7a10.4,10.4,0,0,0-.3-4.19,6.9,6.9,0,0,0-5.61-5.16,17,17,0,0,0-3.74.23c-4.77.74-11.32,2.95-17,5.1C243.28,202.61,238,205,238,205l-40.64,41.5,1.34,4.78c2.63,1.88,6.41,4.47,10.28,6.75,1.12.65,2.24,1.28,3.34,1.86l1.12.57.11-.08.41-.27c8.42-5.41,13-3.94,20.12-10.69a11.45,11.45,0,0,1-1.88-6.39,8.78,8.78,0,0,1,.55-3.3c.47-1.11,4.21-4.08,9.22-7.7s11.48-8,17.14-11.8Z" transform="translate(0 0)"/><polygon class="e" points="195.13 253.15 198.92 251.97 198.72 251.27 197.38 246.49 186.45 207.67 185.84 205.5 182.64 206.86 195.13 253.15"/><polygon class="i" points="0 324.04 195.87 255.88 195.13 253.15 182.64 206.86 181.81 203.79 0 245.5 0 324.04"/><path class="d" d="M519.13,107.26a28.92,28.92,0,0,0-7.89-1.19l-2,2.71,9.41,5.56A8,8,0,0,0,519.13,107.26Z" transform="translate(0 0)"/><path class="j" d="M500,95a2.61,2.61,0,0,0-1.88,3l2.24.89,1.81-3.54A2.58,2.58,0,0,0,500,95Z" transform="translate(0 0)"/><path class="j" d="M497.78,86.09c1-.27,2-.5,3-.7l1-4.47-10.24,2.45,3.33,3.6C495.81,86.65,496.79,86.35,497.78,86.09Z" transform="translate(0 0)"/><path class="d" d="M475,95.83h0l.08-.47C475,95.67,475,95.83,475,95.83Z" transform="translate(0 0)"/><path class="d" d="M528.31,45.26l-39.9,21.23S479,70.62,477.77,79.36c-1.34,9.36-2.35,14.41-2.68,16L481.2,94l.62-.46-2.51-12.64a61.22,61.22,0,0,1,6.77-3.41l5.44,5.89,10.24-2.45,1.85-8.14a60.34,60.34,0,0,1,7.57-.42l1.08,3.19,5.08-10,29.44-4,1.11-2.41c1.4-1.42,4.5-4.52,8.72-8.77l-20.27-17Z" transform="translate(0 0)"/><path class="d" d="M481.2,94l-6.11,1.32h0v0l-.08.47c0,.19-.05.42-.06.69l2.05.88A49.73,49.73,0,0,1,481.2,94Z" transform="translate(0 0)"/><path class="d" d="M498.13,98.18a2.63,2.63,0,0,0,1.67,1.8l.54-1.07L498.1,98A.9.9,0,0,0,498.13,98.18Z" transform="translate(0 0)"/><path class="h" d="M518.91,95.36c-.82,1.44-5,7.11-7.67,10.71a29,29,0,1,1-17.37,5.52L499.8,100a2.63,2.63,0,0,1-1.67-1.8.9.9,0,0,1,0-.16A2.61,2.61,0,0,1,500,95a2.58,2.58,0,0,1,2.17.39l10.11-19.82-1.08-3.19a60.34,60.34,0,0,0-7.57.42l-1.85,8.14-1,4.47c-1,.2-2,.43-3,.7s-2,.56-2.93.88l-3.33-3.6-5.44-5.89a61.22,61.22,0,0,0-6.77,3.41l2.51,12.64-.62.46A49.73,49.73,0,0,0,477,97.4l-2.05-.88-9.85-4.23a63,63,0,0,0-4.76,5.8l7.41,10.5a51.41,51.41,0,0,0-3,5.65l-13,.17a63.47,63.47,0,0,0-2,7.08l11,6.57a50.83,50.83,0,0,0-.45,6.67l-11.77,5.43a62.33,62.33,0,0,0,1,7.1l12.72,1.51a51.27,51.27,0,0,0,2.41,6.6l-8.54,9.74A60.49,60.49,0,0,0,460,171l12.24-3.79a51.07,51.07,0,0,0,5.13,5.27l-3.83,12.34a61.33,61.33,0,0,0,5.68,3.76l9.63-8.44a50.83,50.83,0,0,0,7.08,2.8l1.52,12.81a60.54,60.54,0,0,0,6.6,1.09l5.38-11.66a50.55,50.55,0,0,0,7.75-.38l6.58,11.05c1.08-.23,2.16-.49,3.23-.78s2.14-.6,3.19-.94l.18-12.86a49.8,49.8,0,0,0,6.9-3.54l10.49,7.41a62.33,62.33,0,0,0,5.17-4.24l-5.08-11.86a51.13,51.13,0,0,0,4.73-6l12.56,2.5a60.79,60.79,0,0,0,3-6.1l-9.48-8.78a50.65,50.65,0,0,0,1.81-7.13l12.5-2.83a61.92,61.92,0,0,0,.27-7L561,129.61a50.52,50.52,0,0,0-1.21-6.91L570,115a63.85,63.85,0,0,0-2.65-6.67l-12.91,1.18a51.76,51.76,0,0,0-3.72-5.56L557,92.79a62.19,62.19,0,0,0-5.26-5.14L540.43,94A51.44,51.44,0,0,0,535,90.57l.62-6.72a36.36,36.36,0,0,1-4.85,3.81C525.59,91.17,520.13,93.21,518.91,95.36Zm-46.17,54.18a2.62,2.62,0,1,1,1.86-3.21A2.62,2.62,0,0,1,472.74,149.54Zm5.64-31.89a2.62,2.62,0,1,1-1-3.58A2.62,2.62,0,0,1,478.38,117.65Zm14.78,55.22a2.62,2.62,0,1,1-1-3.58A2.62,2.62,0,0,1,493.16,172.87Zm29.09,5.26a2.62,2.62,0,1,1,1.85-3.21A2.61,2.61,0,0,1,522.25,178.13Zm27.23-54.56a2.62,2.62,0,1,1-1.85,3.21A2.61,2.61,0,0,1,549.48,123.57Zm-5.63,31.89a2.62,2.62,0,1,1,1,3.58A2.63,2.63,0,0,1,543.85,155.46ZM532.64,99.28a2.62,2.62,0,1,1-3.58,1A2.63,2.63,0,0,1,532.64,99.28Z" transform="translate(0 0)"/><path class="d" d="M517.34,65.6l-5.08,10L502.15,95.37l-1.81,3.54L499.8,100l-5.93,11.61-2.7,5.29c12.4,5,17.77-7.74,17.77-7.74l.27-.36,2-2.71c2.68-3.6,6.85-9.27,7.67-10.71,1.22-2.15,6.68-4.19,11.9-7.7a36.36,36.36,0,0,0,4.85-3.81c4.6-4.36,5-7.95,6.43-12.33a83.22,83.22,0,0,1,4.69-9.92Z" transform="translate(0 0)"/><polygon class="f" points="552.93 0 533.27 30.9 536.34 33.47 556.61 50.42 560.36 53.55 617.61 0 552.93 0"/><path class="c" d="M292.89,97.72c-.08,1.25-.14,2.52-.17,3.79l6.27,2.21C296.81,101.7,294.74,99.63,292.89,97.72Z" transform="translate(0 0)"/><path class="c" d="M350.82,52.45l-10.76-.07a10.92,10.92,0,0,0-6.36,2.41l.72-.31c-1.33,3.88,8.55,11.08,17.06,16.43a25.62,25.62,0,0,1,2.6.32,35.72,35.72,0,1,1-19.53,39.57,13,13,0,0,1-3.47.56l-3.68-.71c-3.53,1.8-6.62,3.29-8.4,3.94-2.78,1-6.76-.65-11-3.54.19,1.44.42,2.87.7,4.27l-12.88,9.39a75.82,75.82,0,0,0,2.87,8.08l15.71-1.24a63.59,63.59,0,0,0,4.74,7.7L311.21,153a75.21,75.21,0,0,0,5.79,6.05l13.85-7.53a60.28,60.28,0,0,0,7.74,5.27L337,172.61a75.53,75.53,0,0,0,7.63,3.08l9.6-12.53a62.37,62.37,0,0,0,9.4,1.62l4.92,15c1.35,0,2.72,0,4.09-.06s2.73-.14,4.08-.27l3.68-15.38a62.6,62.6,0,0,0,9.24-2.39l10.59,11.72a75.29,75.29,0,0,0,7.35-3.69l-2.9-15.6a63.46,63.46,0,0,0,7.29-5.87l14.4,6.38a74.86,74.86,0,0,0,5.29-6.49l-9-13.1a63.67,63.67,0,0,0,4.1-8.07l15.76,0a74.31,74.31,0,0,0,2.21-8.29l-13.6-8.32a60,60,0,0,0,.41-8.62l14.39-6.44a75.25,75.25,0,0,0-1.37-8.71l-15.82-2.07a59.66,59.66,0,0,0-3-7.67l10.55-11.75a79.49,79.49,0,0,0-4.93-7.59L416,62.07a61.74,61.74,0,0,0-5.54-5.55l4.86-15.05a74.84,74.84,0,0,0-7.72-5.06L395.54,46.75A62.74,62.74,0,0,0,388.45,44l-1.68-15.76a75.77,75.77,0,0,0-9.2-1.53l-6.83,14.36c-1.25,0-2.5,0-3.76,0s-2.51.14-3.75.27l-8-13.76a77.59,77.59,0,0,0-9,2.27L346,39.35l18.24,3.09S365.22,51.58,350.82,52.45ZM338,144a3.22,3.22,0,1,1-.18-4.55A3.22,3.22,0,0,1,338,144Zm33.48,14.17a3.22,3.22,0,1,1,3.09-3.35A3.23,3.23,0,0,1,371.5,158.15ZM418.92,100a3.22,3.22,0,1,1-3.09,3.35A3.23,3.23,0,0,1,418.92,100ZM408.1,136.59a3.22,3.22,0,1,1-4.55.18A3.21,3.21,0,0,1,408.1,136.59Zm-7.39-70.08a3.22,3.22,0,1,1,.18,4.55A3.21,3.21,0,0,1,400.71,66.51ZM367.22,52.34a3.22,3.22,0,1,1-3.08,3.35A3.22,3.22,0,0,1,367.22,52.34Z" transform="translate(0 0)"/><path class="d" d="M299.24,42.61l-1.49-.54-.67,1.24Z" transform="translate(0 0)"/><path class="d" d="M337.3,85.79l3-7.94C336.19,73.73,332,69.41,328.73,66L294.09,48.86l-.75,1.39a12.11,12.11,0,0,1-.22,10l.11.07a1.7,1.7,0,0,1,.48,2.39,1.79,1.79,0,0,1-2.42.58l-.12-.07a12.73,12.73,0,0,1-9.27,4.44l-7.13,8.19a125.68,125.68,0,0,0,10.9,13.61Z" transform="translate(0 0)"/><path class="d" d="M294.09,48.86,328.73,66c-3.62-3.76-6.12-6.4-6.12-6.4l11.09-4.81a10.92,10.92,0,0,1,6.36-2.41l10.76.07c14.4-.87,13.4-10,13.4-10L346,39.35l-2.4-.41s-24-.94-31.93.27a106.8,106.8,0,0,0-12.41,3.4l-2.16.7Z" transform="translate(0 0)"/><path class="e" d="M291.17,63.26l.12.07a1.79,1.79,0,0,0,2.42-.58,1.7,1.7,0,0,0-.48-2.39l-.11-.07a13.28,13.28,0,0,1-.86,1.56A12.59,12.59,0,0,1,291.17,63.26Z" transform="translate(0 0)"/><path class="f" d="M275.68,66.06l-5.29,7.63,4,2.65.4-.45,7.13-8.19A11.32,11.32,0,0,1,275.68,66.06Z" transform="translate(0 0)"/><path class="f" d="M289.72,45.78a10.93,10.93,0,0,1,3.62,4.47l.75-1.39,3-5.55.67-1.24.94-1.75-3.62-2.25Z" transform="translate(0 0)"/><path class="k" d="M289.35,60A8.36,8.36,0,0,0,287.7,48.7l-10,14.43C281.55,65.41,286.73,64,289.35,60Z" transform="translate(0 0)"/><path class="e" d="M281.9,67.7a12.73,12.73,0,0,0,9.27-4.44,12.59,12.59,0,0,0,1.09-1.41,13.28,13.28,0,0,0,.86-1.56,12.11,12.11,0,0,0,.22-10,10.93,10.93,0,0,0-3.62-4.47l-2,2.92A8.36,8.36,0,0,1,289.35,60c-2.62,4-7.8,5.37-11.64,3.09l-2,2.93A11.32,11.32,0,0,0,281.9,67.7Z" transform="translate(0 0)"/><path class="e" d="M265.59,64a37.84,37.84,0,0,0,8.7,4.1l-6.38,9.22,2.48-3.59,5.29-7.63,2-2.93,10-14.43,2-2.92,5.35-7.71.4-.58-7.88-5.62Z" transform="translate(0 0)"/><path class="e" d="M274.29,68.06a37.84,37.84,0,0,1-8.7-4.1l-5.68,8.3,8,5Z" transform="translate(0 0)"/><polygon class="l" points="259.91 72.26 265.6 63.96 287.59 31.87 289.26 29.43 246.34 0 139.45 0 259.12 73.42 259.91 72.26"/><path class="d" d="M319,114.59c1.78-.65,4.87-2.14,8.4-3.94l-9.59-1.83L329.57,87l7.14.44.59-1.6L285.67,89.5h-.22s3.07,3.67,7.44,8.21c1.85,1.91,3.92,4,6.1,6a79.11,79.11,0,0,0,9,7.33C312.24,113.94,316.22,115.61,319,114.59Z" transform="translate(0 0)"/><path class="d" d="M340.93,106.7a27.54,27.54,0,0,0,2.73-4.28l-12.06-1.29,5.11-13.74L329.57,87l-11.76,21.87,9.59,1.83,3.68.71a13.63,13.63,0,0,0,9.85-4.66Z" transform="translate(0 0)"/><path class="d" d="M331.6,101.13l12.06,1.29,1,.1s4,.58,7.29-4.67a12.65,12.65,0,0,0,1.81-7.06c-2.35-1.81-7.8-7.16-13.51-12.94l-3,7.94-.59,1.6Z" transform="translate(0 0)"/><path class="d" d="M340.26,77.85C346,83.63,351.42,89,353.77,90.79a3.36,3.36,0,0,0,1.08.67c2.1.25,9.78-2,8.61-11.45l-18.09-7.94a10.56,10.56,0,0,1,6.11-1.16c-8.51-5.35-18.39-12.55-17.06-16.43l-.72.31L322.61,59.6s2.5,2.64,6.12,6.4C332,69.41,336.19,73.73,340.26,77.85Z" transform="translate(0 0)"/><path class="d" d="M345.37,72.07,363.46,80l0,0-.65-6a40.15,40.15,0,0,0-8.77-2.75,25.62,25.62,0,0,0-2.6-.32A10.56,10.56,0,0,0,345.37,72.07Z" transform="translate(0 0)"/><path class="d" d="M523.27,249.35l-1.35,1.09.8.6.43-.94Z" transform="translate(0 0)"/><path class="d" d="M506.75,264.73a23.87,23.87,0,0,0,6.16-5.91l-.58-.63-6.69,5.41A6.66,6.66,0,0,0,506.75,264.73Z" transform="translate(0 0)"/><path class="d" d="M509.79,266.28a8.83,8.83,0,0,0,5-.19,31.22,31.22,0,0,0,2.68-3.06l-1.83-1.91-.43-.3A27.23,27.23,0,0,1,509.79,266.28Z" transform="translate(0 0)"/><path class="j" d="M533.51,259l10.57,7.84a15.42,15.42,0,0,0,.93-3.08l-1.13-16.44-8.21,3.12A42.94,42.94,0,0,1,533.51,259Z" transform="translate(0 0)"/><path class="j" d="M522.72,251l.21.15c.08-.36.15-.72.22-1.09Z" transform="translate(0 0)"/><path class="d" d="M575.83,292.3,561.1,247.92s-2.52-9.94-10.94-12.62c-6.34-2-10.59-3.53-13.07-4.44a9,9,0,0,1,3,4.62l-1.13.91,5,1.84a50.66,50.66,0,0,1,.3,9l-.37.14L545,263.8a15.42,15.42,0,0,1-.93,3.08l13.11,9.72-.92,29.7,2.19,1.49,6.74,9.29,19-16.9Z" transform="translate(0 0)"/><path class="d" d="M520.42,243.08l3.13-.25a29.75,29.75,0,0,0-2.88-10.94l-3.2.61A26.84,26.84,0,0,1,520.42,243.08Z" transform="translate(0 0)"/><path class="d" d="M514.36,233.1,504.28,235s.75,6.67,6.07,8.32c.18-.34.38-.69.6-1l1.88,1.4,4.56-.38A23.69,23.69,0,0,0,514.36,233.1Z" transform="translate(0 0)"/><path class="d" d="M535.05,235l3.89,1.43,1.13-.91a9,9,0,0,0-3-4.62,6.29,6.29,0,0,0-3.66-1.26A42.5,42.5,0,0,1,535.05,235Z" transform="translate(0 0)"/><polygon class="l" points="584.16 300.19 565.2 317.08 563.83 318.31 573.81 333.33 624.5 333.33 586.83 297.81 584.16 300.19"/><path class="h" d="M520.42,243.08a27,27,0,1,0-10.63,23.2,27.23,27.23,0,0,0,5.42-5.46,18.31,18.31,0,0,1-2.3-2,23.89,23.89,0,1,1,4.48-15.49,23,23,0,0,1-.06,3.71l2.79,2.07c0-.2.08-.41.1-.61A26,26,0,0,0,520.42,243.08Z" transform="translate(0 0)"/><path class="c" d="M517.47,263a31.22,31.22,0,0,1-2.68,3.06,30.07,30.07,0,1,1,5.88-34.2,30,30,0,0,1,2.67,17c0,.15-.05.29-.07.43l-.12.75c-.07.37-.14.73-.22,1.09L533.51,259a42.94,42.94,0,0,0,2.16-8.56l8.21-3.12.37-.14a50.66,50.66,0,0,0-.3-9l-5-1.84L535.05,235a42.5,42.5,0,0,0-1.62-5.36c-.28-.76-.58-1.51-.91-2.26l5.49-7.43a51.33,51.33,0,0,0-5.37-7.87l-9.25,2.07a41.74,41.74,0,0,0-5.56-4.61l.61-9.31a51.18,51.18,0,0,0-9-4l-6.62,6.71c-1.12-.25-2.26-.46-3.41-.62s-2.31-.26-3.45-.33l-4.57-8.24a50,50,0,0,0-9.74,1.38l-1.93,9.13a42.39,42.39,0,0,0-6.6,2.94l-8.34-4.49a50.88,50.88,0,0,0-7.3,6.13l3.28,8.63a42.68,42.68,0,0,0-4.49,6.66l-9.46.74a50.73,50.73,0,0,0-2.71,8.58l7.39,5.46a41.84,41.84,0,0,0-.22,9.07l-7.53,5.7a51.66,51.66,0,0,0,2.22,8.11l9.14.6a42.91,42.91,0,0,0,5.3,8.54l-3.21,8.78a51.62,51.62,0,0,0,6,5.27l8-4.45a42,42,0,0,0,9.66,4.43l2,9c1.26.27,2.54.5,3.84.68s2.59.3,3.88.38L495,286.9a42,42,0,0,0,10.5-1.66l6.54,6.45a49.2,49.2,0,0,0,7.16-3.46l-.72-9.32a42.54,42.54,0,0,0,7.4-6.79l.68.14C524.3,270.14,519.94,265.61,517.47,263Z" transform="translate(0 0)"/><path class="d" d="M557.19,276.6l-13.11-9.72L533.51,259l-10.58-7.85-.21-.15-.8-.6-1.8-1.33L517.33,247l-4.5-3.33-1.88-1.4c-.22.35-.42.7-.6,1-3.49,6.64-.7,11.83,2,14.84l.58.63a18.31,18.31,0,0,0,2.3,2l.43.3,1.83,1.91c2.47,2.58,6.83,7.11,9,9.23.45.44.82.77,1.06,1,1.92,1.56,3,7.27,5.63,13,4.63,10.24,8.85,12.1,14,14.8,3.14,1.63,9,5.27,9,5.27Z" transform="translate(0 0)"/></svg>