<svg xmlns="http://www.w3.org/2000/svg" xmlns:xlink="http://www.w3.org/1999/xlink" viewBox="0 0 764.23 616.21"><defs><style>.a{fill:none;}.b{clip-path:url(#a);}.c{fill:#c5e9ec;}.d{fill:#71cad0;}.e{fill:#fed7ab;}.f{fill:#fff;}.g{fill:#5a5962;}.h{fill:#a9a9ae;}.i{fill:#0fa0a8;}.j{fill:#f7ab44;}.k{fill:#edb989;}.l{fill:#f0c8a2;}.m{fill:#e5ae51;}.n{fill:#f8b75d;}.o{fill:#008ea5;}</style><clipPath id="a" transform="translate(62.07 102.4)"><rect class="a" x="-1.31" y="-1.34" width="794.46" height="333.33"/></clipPath></defs><title>collaborate</title><g class="b"><path class="c" d="M588,171.3a22.51,22.51,0,1,0,26.19,18.1A22.54,22.54,0,0,0,588,171.3Zm7.63,41.79a20,20,0,1,1,16.06-23.23A20,20,0,0,1,595.6,213.09Z" transform="translate(62.07 102.4)"/><path class="c" d="M627,187l6-4.83a42.25,42.25,0,0,0-2.58-7.07l-7.93-.27a35.28,35.28,0,0,0-4-5.39l2.43-7.34a43.71,43.71,0,0,0-6.33-4.85l-6.8,4.06a34.93,34.93,0,0,0-5.62-2.22l-2-7.55a42,42,0,0,0-8.19-.8l-3.51,7.06c-1,.09-1.91.23-2.87.4s-1.9.39-2.83.64L577,153.43a42.05,42.05,0,0,0-7.37,3.63l.84,7.76a35.92,35.92,0,0,0-4.47,4.06l-7.8-1.39a42.2,42.2,0,0,0-4.2,6.77l4.85,6a35.35,35.35,0,0,0-1.82,6.46l-7.32,3.05a42,42,0,0,0,.08,7.52l7.29,2.41a35.6,35.6,0,0,0,2.19,7.27l-4.49,6.49a42.59,42.59,0,0,0,3.88,5.87l7.42-1.91a36,36,0,0,0,6.43,5.4l-.26,7.81a41.82,41.82,0,0,0,6.11,2.63l5.23-5.63a35,35,0,0,0,8.83,1l4,6.65c1.07-.11,2.15-.27,3.23-.46s2.14-.44,3.18-.71l1.36-7.62a35.17,35.17,0,0,0,7.91-4.06l6.87,3.43a43.6,43.6,0,0,0,4.79-4.62l-3-7.22a35.4,35.4,0,0,0,4.11-7.33l7.62-.83A42.9,42.9,0,0,0,634,199l-6.5-4.49A36,36,0,0,0,627,187Zm-30.42,31.23a25.14,25.14,0,1,1,20.21-29.25A25.18,25.18,0,0,1,596.53,218.18Z" transform="translate(62.07 102.4)"/><path class="c" d="M175.21,154.81a12.28,12.28,0,1,0,10.47,13.84A12.29,12.29,0,0,0,175.21,154.81ZM181.28,168a7.83,7.83,0,1,1-6.68-8.83A7.82,7.82,0,0,1,181.28,168Z" transform="translate(62.07 102.4)"/><path class="c" d="M197.46,166.66l7-6a29.21,29.21,0,0,0-.74-2.93l-9.13-1.81a23.91,23.91,0,0,0-4.56-6l.76-9.44c-.8-.52-1.63-1-2.48-1.46l-7.88,5.27a23.39,23.39,0,0,0-3.7-.82,25.38,25.38,0,0,0-3.78-.22L166.85,136c-.94.21-1.86.46-2.78.74L162.23,146a24.3,24.3,0,0,0-6,4.55l-9.28-.74c-.54.85-1.05,1.72-1.51,2.62l5.15,7.71a25.1,25.1,0,0,0-.82,3.72,23.14,23.14,0,0,0-.22,3.79l-6.9,5.88a29.68,29.68,0,0,0,.84,3.11l8.86,1.76a23.73,23.73,0,0,0,4.58,6.05l-.71,8.86a32.39,32.39,0,0,0,2.91,1.69l7.37-4.92a25.1,25.1,0,0,0,3.72.82,23.45,23.45,0,0,0,3.81.22l5.75,6.74a31.74,31.74,0,0,0,3.26-.83l1.73-8.72a24,24,0,0,0,6.05-4.58l9,.72a30.65,30.65,0,0,0,1.65-2.77l-5-7.53a25.12,25.12,0,0,0,.82-3.7A25.94,25.94,0,0,0,197.46,166.66Zm-23.24-18.09a2.18,2.18,0,0,1,2.46-1.85,2.18,2.18,0,0,1-.6,4.31A2.19,2.19,0,0,1,174.22,148.57Zm-12.9,2.15a2.18,2.18,0,1,1-.42,3.05A2.19,2.19,0,0,1,161.32,150.72Zm-6.17,16.14A2.18,2.18,0,1,1,157.6,165,2.18,2.18,0,0,1,155.15,166.86Zm5.19,13.33a2.17,2.17,0,1,1,.43-3.05A2.17,2.17,0,0,1,160.34,180.19Zm13.1,5.75a2.18,2.18,0,1,1-1.86-2.46A2.18,2.18,0,0,1,173.44,185.94Zm12.9-2.15a2.17,2.17,0,1,1,.42-3A2.19,2.19,0,0,1,186.34,183.79Zm1.06-14.9a14,14,0,1,1-12-15.8A14,14,0,0,1,187.4,168.89Zm-.5-11.52a2.17,2.17,0,1,1,3,.42A2.17,2.17,0,0,1,186.9,157.37Zm7.47,12.73a2.18,2.18,0,1,1-4.31-.6,2.18,2.18,0,0,1,4.31.6Z" transform="translate(62.07 102.4)"/><path class="c" d="M593.67,111.11a12.28,12.28,0,1,0,17,3.45A12.29,12.29,0,0,0,593.67,111.11Zm11.11,16.76A7.83,7.83,0,1,1,607,117,7.83,7.83,0,0,1,604.78,127.87Z" transform="translate(62.07 102.4)"/><path class="c" d="M631.74,117.07a31.49,31.49,0,0,0-.58-3.17l-8.77-2.31a24,24,0,0,0-1.84-3.32,23.21,23.21,0,0,0-2.35-3l1.31-9.18c-.81-.61-1.64-1.18-2.5-1.71l-8,4.69a24,24,0,0,0-7.4-1.5L595.89,90c-.95.13-1.89.31-2.83.53l-2.42,9.17a23.4,23.4,0,0,0-3.31,1.83,23.84,23.84,0,0,0-3,2.34L575,102.53c-.57.77-1.1,1.57-1.59,2.39l4.76,8.18a24,24,0,0,0-1.5,7.4l-7.45,5.59c.15,1,.35,2,.6,3l9,2.37a24.92,24.92,0,0,0,1.85,3.34,23.64,23.64,0,0,0,2.34,3l-1.29,9a31.15,31.15,0,0,0,2.69,1.77l7.81-4.54a24.22,24.22,0,0,0,7.44,1.51l5.33,7.11a31.58,31.58,0,0,0,3.3-.66l2.27-8.57a23.75,23.75,0,0,0,3.33-1.85,23.21,23.21,0,0,0,3-2.35l8.78,1.25a32.37,32.37,0,0,0,1.89-2.78L623,129.93a24.28,24.28,0,0,0,1.51-7.44Zm-29.31-14.34a2.18,2.18,0,1,1,1.7,2.57A2.18,2.18,0,0,1,602.43,102.73Zm-13,1.34a2.18,2.18,0,1,1-.61,3A2.19,2.19,0,0,1,589.42,104.07Zm-7.16,15.72a2.17,2.17,0,1,1,2.56-1.7A2.17,2.17,0,0,1,582.26,119.79Zm4.35,13.63a2.18,2.18,0,1,1,.61-3A2.18,2.18,0,0,1,586.61,133.42ZM599.32,140a2.17,2.17,0,1,1-1.7-2.56A2.18,2.18,0,0,1,599.32,140Zm13-1.34a2.17,2.17,0,1,1,.61-3A2.16,2.16,0,0,1,612.33,138.63ZM608.2,133a14,14,0,1,1,3.94-19.42A14,14,0,0,1,608.2,133Zm6.33-20.72a2.18,2.18,0,1,1,3,.61A2.17,2.17,0,0,1,614.53,112.3Zm6.66,13.17a2.17,2.17,0,1,1-1.69-2.56A2.16,2.16,0,0,1,621.19,125.47Z" transform="translate(62.07 102.4)"/><path class="c" d="M645.53,136.81a10.53,10.53,0,1,0,14.17,4.59A10.54,10.54,0,0,0,645.53,136.81Zm7.84,15.36a6.71,6.71,0,1,1,2.93-9A6.7,6.7,0,0,1,653.37,152.17Z" transform="translate(62.07 102.4)"/><path class="c" d="M677.4,145.58c0-.92-.09-1.84-.2-2.75L670,140a22.14,22.14,0,0,0-1.25-3,20.49,20.49,0,0,0-1.71-2.78l2-7.7c-.63-.6-1.28-1.16-2-1.7L659.73,128a20.6,20.6,0,0,0-6.16-2l-4.11-7c-.81,0-1.64.08-2.45.18l-3,7.58a21.35,21.35,0,0,0-3,1.24,20.2,20.2,0,0,0-2.76,1.7l-7.87-2.05q-.84.92-1.59,1.89l3.26,7.43a20.49,20.49,0,0,0-2,6.16l-6.89,4c0,.86.11,1.72.22,2.58l7.41,2.89a22.38,22.38,0,0,0,1.25,3,22.12,22.12,0,0,0,1.71,2.77l-2,7.52c.68.63,1.39,1.22,2.12,1.78l7.1-3.12a20.7,20.7,0,0,0,6.19,2l3.85,6.57A28,28,0,0,0,654,173l2.76-7.08a21.16,21.16,0,0,0,3-1.25,20.65,20.65,0,0,0,2.79-1.72l7.35,1.92a25.88,25.88,0,0,0,1.88-2.19l-3.06-7a20.41,20.41,0,0,0,2-6.19Zm-23.59-15.05a1.87,1.87,0,1,1,1.2,2.34A1.87,1.87,0,0,1,653.81,130.53Zm-11.22-.12a1.86,1.86,0,1,1-.81,2.5A1.86,1.86,0,0,1,642.59,130.41Zm-8.83,10.35a1.87,1.87,0,1,1,1.2,2.35A1.87,1.87,0,0,1,633.76,140.76Zm3.59,14.38a1.86,1.86,0,1,1,.82-2.51A1.87,1.87,0,0,1,637.35,155.14Zm10.2,6.82a1.87,1.87,0,1,1-1.2-2.35A1.87,1.87,0,0,1,647.55,162Zm11.21.12a1.87,1.87,0,1,1,.82-2.51A1.88,1.88,0,0,1,658.76,162.08Zm-3-5.19A12,12,0,1,1,661,140.72,12,12,0,0,1,655.79,156.89Zm7.4-17a1.86,1.86,0,1,1,3.32-1.69,1.86,1.86,0,0,1-3.32,1.69Zm4.4,11.87a1.87,1.87,0,1,1-1.2-2.35A1.86,1.86,0,0,1,667.59,151.72Z" transform="translate(62.07 102.4)"/><path class="c" d="M232.76,99.62a17.76,17.76,0,1,0,10.92,22.61A17.78,17.78,0,0,0,232.76,99.62Zm4.85,20.5a11.33,11.33,0,1,1-7-14.43A11.33,11.33,0,0,1,237.61,120.12Z" transform="translate(62.07 102.4)"/><path class="c" d="M261,122.75l11.72-6.52c0-1.47-.07-2.93-.21-4.37L260,106.69a34.81,34.81,0,0,0-4.76-9.83L259,83.69c-1-1-2-1.91-3.09-2.79l-12.67,5.24a34.68,34.68,0,0,0-10.32-3.6l-6.67-12c-1.39,0-2.78.11-4.15.26l-5.25,12.65A34.68,34.68,0,0,0,207,88.21l-13-3.69c-1,1-2,2.15-2.89,3.29l5.12,12.4a34.55,34.55,0,0,0-3.62,10.35l-11.46,6.38c0,1.56.13,3.11.31,4.65l12.07,5a35,35,0,0,0,4.77,9.88l-3.52,12.36a44.8,44.8,0,0,0,3.65,3.23l11.85-4.89a34.28,34.28,0,0,0,10.39,3.62L227,162a43.75,43.75,0,0,0,4.87-.26l4.93-11.87a34.67,34.67,0,0,0,9.89-4.78l12.56,3.58a44.77,44.77,0,0,0,3.14-3.45l-5-12.12a34.85,34.85,0,0,0,2.21-5A35.58,35.58,0,0,0,261,122.75ZM232.2,90.17a3.15,3.15,0,1,1,1.93,4A3.13,3.13,0,0,1,232.2,90.17Zm-18.91-.62a3.14,3.14,0,1,1-1.47,4.2A3.15,3.15,0,0,1,213.29,89.55ZM198,106.68a3.15,3.15,0,1,1,1.94,4A3.14,3.14,0,0,1,198,106.68Zm5.51,24.38a3.14,3.14,0,1,1,1.47-4.2A3.15,3.15,0,0,1,203.52,131.06Zm16.94,11.88a3.15,3.15,0,1,1-1.93-4A3.13,3.13,0,0,1,220.46,142.94Zm18.91.62a3.14,3.14,0,1,1,1.47-4.2A3.15,3.15,0,0,1,239.37,143.56Zm6.69-20.5a20.28,20.28,0,1,1-12.47-25.81A20.29,20.29,0,0,1,246.06,123.06Zm1.61-16.81a3.15,3.15,0,1,1,4.2,1.46A3.14,3.14,0,0,1,247.67,106.25Zm7,20.18a3.15,3.15,0,1,1-1.94-4A3.14,3.14,0,0,1,254.65,126.43Z" transform="translate(62.07 102.4)"/><path class="d" d="M401.52,195.58a17.76,17.76,0,1,0,15.2,20A17.78,17.78,0,0,0,401.52,195.58Zm8.83,19.12a11.32,11.32,0,1,1-9.7-12.75A11.32,11.32,0,0,1,410.35,214.7Z" transform="translate(62.07 102.4)"/><path class="d" d="M442.83,199.39l-13.44-2.63a35.06,35.06,0,0,0-6.61-8.7l1-13.43c-1.23-.78-2.49-1.5-3.8-2.17L408.88,180A34.24,34.24,0,0,0,398,178.47l-8.53-10a42.66,42.66,0,0,0-4.5,1.23l-2.51,12.82a34.76,34.76,0,0,0-8.74,6.65l-12.81-1a45.32,45.32,0,0,0-2.44,4.22l7.16,10.64a33.73,33.73,0,0,0-1.18,5.39,35.32,35.32,0,0,0-.31,5.51l-9.73,8.34a46.69,46.69,0,0,0,1.23,4.72l12.61,2.47a34.94,34.94,0,0,0,6.65,8.73l-1,13a44.54,44.54,0,0,0,4,2.38l10.88-7.32a34.71,34.71,0,0,0,5.36,1.16,35.26,35.26,0,0,0,5.5.31L408.4,258c1.44-.29,2.85-.66,4.24-1.08l2.59-13.22a35,35,0,0,0,8.69-6.62l13.65,1.05c.75-1.16,1.46-2.35,2.11-3.58L432,223.15a34.94,34.94,0,0,0,1.47-10.82l10.41-8.93C443.61,202,443.25,200.7,442.83,199.39Zm-43.49-13.78a3.15,3.15,0,1,1,2.7,3.54A3.16,3.16,0,0,1,399.34,185.61Zm-18.65,3.16a3.14,3.14,0,1,1-.6,4.4A3.14,3.14,0,0,1,380.69,188.77Zm-8.87,23.37a3.15,3.15,0,1,1,3.55-2.7A3.15,3.15,0,0,1,371.82,212.14Zm7.57,19.25A3.14,3.14,0,1,1,380,227,3.14,3.14,0,0,1,379.39,231.39Zm19,8.27a3.14,3.14,0,1,1-2.69-3.54A3.14,3.14,0,0,1,398.35,239.66ZM417,236.5a3.15,3.15,0,1,1,.6-4.41A3.15,3.15,0,0,1,417,236.5Zm2.21-20.6a20.27,20.27,0,1,1-17.36-22.82A20.29,20.29,0,0,1,419.22,215.9Zm-1.51-17.62a3.15,3.15,0,1,1,4.41.6A3.14,3.14,0,0,1,417.71,198.28Zm10.86,18.39a3.15,3.15,0,1,1-2.7-3.54A3.14,3.14,0,0,1,428.57,216.67Z" transform="translate(62.07 102.4)"/><path class="e" d="M387.91,211.65a22.18,22.18,0,0,0,1.12,7.72l3.74,6.24,16.59-5.34-18.08-15.14A10.08,10.08,0,0,0,387.91,211.65Z" transform="translate(62.07 102.4)"/><path class="e" d="M390.73,230.75l-65.82,66.79,43.18,8.12,30.81-29.87,18.56-25.21s3.08-2.94-3.52-9.26Z" transform="translate(62.07 102.4)"/><path class="e" d="M415,232.9c-2.46-1.62-6.9-5.44-6.9-5.44l-17.28,30.87,10.73,7.83,15.34-27.89S417.49,234.52,415,232.9Z" transform="translate(62.07 102.4)"/><path class="e" d="M393.34,239l-48.92,31.34-12.05,20.29L363,311.15s22.55-16.83,29.5-23.13c6.79-6.15,25.35-26.48,25.35-26.48s3.37-2.62-2.54-9.59Z" transform="translate(62.07 102.4)"/><path class="e" d="M355.33,205,339,249.81a20.66,20.66,0,0,0-1.13,16.46c.11-.16,2.49,2.92,2.61,2.76,5.33-7.92,13.7-11,20.28-17.74-.48-6.5,3.48-26.17,3.48-26.17S369.68,212,355.33,205Z" transform="translate(62.07 102.4)"/><path class="e" d="M405.07,218.4c-1.81-.31-7.27,1.21-7.27,1.21s-33.21,28.62-37.05,29.07a10.85,10.85,0,0,1-8.51-3.85c-8.12,4.74-8,9.29-15.23,15.53l-.46.39A65.25,65.25,0,0,0,342,277.13L394,253.27s16.41-19,18.08-26.93C412.58,223.76,410.8,219.4,405.07,218.4Z" transform="translate(62.07 102.4)"/><polygon class="f" points="396.88 383.88 437.65 408.06 441.05 403.15 400.45 378.81 396.88 383.88"/><polygon class="g" points="393.99 382.19 279.96 544.67 323.74 616.21 440.3 409.26 396.88 383.88 393.99 382.19"/><polygon class="h" points="283.17 559.09 284 559.64 401.29 386.45 400.42 385.95 283.17 559.09"/><polygon class="h" points="308.71 605.65 299.36 593.5 422.46 398.84 421.65 398.34 298.33 593.26 298.14 593.56 308.8 607.41 433.56 405.32 432.73 404.82 308.71 605.65"/><polygon class="h" points="286 585.93 286.84 586.47 411 392.12 410.15 391.66 286 585.93"/><circle class="a" cx="280.05" cy="195.14" r="25.85" transform="translate(26.24 168.19) rotate(-12.6)"/><path class="f" d="M284.49,166.34a29.14,29.14,0,1,0,24.36,33.24A29.19,29.19,0,0,0,284.49,166.34Zm21.11,32.74A25.85,25.85,0,1,1,284,169.59,25.84,25.84,0,0,1,305.6,199.08Z" transform="translate(62.07 102.4)"/><path class="i" d="M325.13,185.19a46.14,46.14,0,0,0-2.6-8.29L328.6,169a54.86,54.86,0,0,0-5.68-8.62l-10,2.08a46.54,46.54,0,0,0-5.93-5.09l.81-10.06a53.38,53.38,0,0,0-9.67-4.44L290.8,150c-1.21-.29-2.43-.53-3.68-.72s-2.49-.33-3.72-.42l-4.8-9A53.72,53.72,0,0,0,268,141.15L265.78,151a46.13,46.13,0,0,0-7.19,3.07l-8.95-5a55.52,55.52,0,0,0-8,6.5L245,165a46.12,46.12,0,0,0-5,7.13l-10.25.63a54.75,54.75,0,0,0-3.08,9.24l7.89,6a46.31,46.31,0,0,0-.4,9.81l-8.24,6a54.58,54.58,0,0,0,2.26,8.82l9.88.81a46.42,46.42,0,0,0,5.59,9.33l-3.63,9.45a54.71,54.71,0,0,0,6.36,5.8l8.77-4.68a45.55,45.55,0,0,0,10.38,5l2,9.81c1.36.32,2.74.58,4.14.8s2.8.38,4.19.48l4.89-8.74a46,46,0,0,0,11.4-1.61l6.95,7.09a53.86,53.86,0,0,0,7.82-3.62l-.62-10.1a45.7,45.7,0,0,0,8.13-7.22l9.67,2.21a56.16,56.16,0,0,0,4.81-7.73l-6-8.24a46.14,46.14,0,0,0,2.57-9.48l9.34-3.38a54.48,54.48,0,0,0-.16-9.74ZM312.21,200.1A32.54,32.54,0,1,1,285,163,32.56,32.56,0,0,1,312.21,200.1Z" transform="translate(62.07 102.4)"/><path class="e" d="M264.15,213.06l5.15,5.61a31.63,31.63,0,0,0,6.44,2,24,24,0,0,0,8.54-.07L274.44,198Z" transform="translate(62.07 102.4)"/><path class="e" d="M246.39,180.83,215.54,192l-39.16,22.09,10,40,72-40.47-3.73-26.46C250.26,178.61,246.39,180.83,246.39,180.83Z" transform="translate(62.07 102.4)"/><path class="e" d="M258.59,185,226,192.17l4.67,13.1,36.16-8.18s-2.53-5.6-3.42-8.56S258.59,185,258.59,185Z" transform="translate(62.07 102.4)"/><path class="e" d="M235.5,177.18,206,191.51l-36.64,26.05,18.9,36.65,62.6-45.71-6.48-25.92C239.12,174.57,235.5,177.18,235.5,177.18Z" transform="translate(62.07 102.4)"/><path class="e" d="M249.09,242.82s-13.42.78-19.8-1.64c-8.69,4.62-14.77,8.56-24.32,11.57-.2.06,2.19,3.37,2,3.44a21.65,21.65,0,0,0,16.87,3.75l42.69-2.6.13.36C263.9,241.2,249.09,242.82,249.09,242.82Z" transform="translate(62.07 102.4)"/><path class="e" d="M269.13,193.48c-8.47-.67-32.42,10.17-32.42,10.17l-42.8,43.7s10,7.66,18.23,11.76l.52-.34c8.42-5.42,13-3.94,20.13-10.69a11.41,11.41,0,0,1-1.34-9.7c1.59-3.73,40.22-28.59,40.22-28.59s3.15-5,3.37-7C275.74,196.79,271.89,193.71,269.13,193.48Z" transform="translate(62.07 102.4)"/><polygon class="f" points="243.28 307.98 255.53 354.31 259.68 353.03 246.59 306.56 243.28 307.98"/><polygon class="j" points="0 360.5 58.88 425.75 256.62 356.94 242.57 304.85 0 360.5"/><path class="e" d="M504.06,94.32l-7.21,6.6L517.31,113s3.66-5.47-2.33-11Z" transform="translate(62.07 102.4)"/><path class="e" d="M514.56,89.44l-13,.75,3.26,10.2,18.78-3.58S522.63,90.14,514.56,89.44Z" transform="translate(62.07 102.4)"/><path class="k" d="M483.7,99.11l15.57,4.1,18.05-15.75L532.21,61.7s-44.83,12.51-48.7,13.19Z" transform="translate(62.07 102.4)"/><path class="e" d="M600.84-64.47,527,43.92,487.1,65.15S477.71,69.28,476.46,78c-1.65,11.47-2.8,16.47-2.8,16.47l11.18-.81,3.85-11.3,16.73-4a16,16,0,0,1,5.7,1.2l34.35-19.34,1.11-2.41c9-9.08,87.34-87.32,87.88-91.77C635-38.61,600.84-64.47,600.84-64.47Z" transform="translate(62.07 102.4)"/><path class="e" d="M502,98.76l-17.79-7.05L473.78,94s-1.5,6.37,4.17,8.61l27.71,7.68S508.58,102.22,502,98.76Z" transform="translate(62.07 102.4)"/><path class="i" d="M558.45,121.36l10.26-7.67a62.5,62.5,0,0,0-2.64-6.67l-12.91,1.18a50.26,50.26,0,0,0-3.73-5.55l6.27-11.2a65.37,65.37,0,0,0-5.26-5.14l-11.32,6.34a53.23,53.23,0,0,0-5.39-3.42l1.17-12.8a62.39,62.39,0,0,0-7-2.64l-7.75,10.37a49.93,49.93,0,0,0-6.12-.94L509.87,71a62.18,62.18,0,0,0-7.57.42l-2.86,12.61c-1,.2-2,.43-3,.7s-2,.56-2.93.88l-8.77-9.49A62.09,62.09,0,0,0,478,79.55l2.51,12.64a51.92,51.92,0,0,0-4.84,3.87L463.78,91a64.33,64.33,0,0,0-4.76,5.8l7.41,10.5a52.32,52.32,0,0,0-3,5.65l-13,.17a61.4,61.4,0,0,0-2,7.08l11,6.57a49.27,49.27,0,0,0-.45,6.67l-11.77,5.43a62.33,62.33,0,0,0,1,7.1l12.72,1.51a50.73,50.73,0,0,0,2.41,6.6l-8.54,9.74a58.64,58.64,0,0,0,3.72,5.9l12.23-3.79a50.2,50.2,0,0,0,5.14,5.27l-3.83,12.34a62.65,62.65,0,0,0,5.67,3.77l9.64-8.44a50.79,50.79,0,0,0,7.08,2.79l1.52,12.81a60.54,60.54,0,0,0,6.6,1.09l5.38-11.65a50.57,50.57,0,0,0,7.75-.39l6.58,11.05c1.07-.23,2.15-.49,3.23-.77s2.14-.61,3.19-.95l.18-12.86a50.37,50.37,0,0,0,6.9-3.54l10.49,7.41a62,62,0,0,0,5.17-4.24l-5.09-11.85a50.28,50.28,0,0,0,4.74-6l12.56,2.5a62.83,62.83,0,0,0,3-6.09l-9.49-8.78a49.67,49.67,0,0,0,1.82-7.13l12.49-2.83a59.82,59.82,0,0,0,.28-7l-12.27-4.17A50.93,50.93,0,0,0,558.45,121.36Zm-87,26.84a2.62,2.62,0,1,1,1.85-3.21A2.61,2.61,0,0,1,471.43,148.2Zm5.63-31.89a2.62,2.62,0,1,1-.95-3.58A2.62,2.62,0,0,1,477.06,116.31ZM527.75,98.9a2.62,2.62,0,1,1,1,3.58A2.63,2.63,0,0,1,527.75,98.9Zm-29.08-5.26a2.62,2.62,0,1,1-1.85,3.21A2.61,2.61,0,0,1,498.67,93.64Zm-6.82,77.89a2.62,2.62,0,1,1-1-3.58A2.62,2.62,0,0,1,491.85,171.53Zm29.08,5.26a2.62,2.62,0,1,1,1.86-3.2A2.6,2.6,0,0,1,520.93,176.79Zm-3.83-15a29,29,0,1,1,20.54-35.56A29,29,0,0,1,517.1,161.82Zm30-5.08a2.62,2.62,0,1,1-1-3.57A2.6,2.6,0,0,1,547.07,156.74Zm2.46-29.45a2.62,2.62,0,1,1,1.85-3.21A2.63,2.63,0,0,1,549.53,127.29Z" transform="translate(62.07 102.4)"/><path class="e" d="M489.86,115.54c12.4,5,17.77-7.74,17.77-7.74s8.75-11.62,10-13.77,6.67-4.2,11.9-7.7c9.33-6.27,9.48-10.57,11.28-16.14a82,82,0,0,1,4.69-9.93l-29.44,4Z" transform="translate(62.07 102.4)"/><polygon class="g" points="594.02 131.96 621.11 154.61 702.48 78.51 678 0 594.02 131.96"/><path class="d" d="M443.18,85.26l-15.81-2.07a61.16,61.16,0,0,0-3-7.67l10.54-11.75A74.54,74.54,0,0,0,430,56.19l-15.29,4.54a61.85,61.85,0,0,0-5.55-5.55l4.87-15a77.66,77.66,0,0,0-7.72-5.06L394.23,45.42a62.22,62.22,0,0,0-7.1-2.78l-1.68-15.76a77.26,77.26,0,0,0-9.19-1.53l-6.84,14.36q-1.86,0-3.75,0c-1.26,0-2.51.15-3.75.27l-8-13.76a77.09,77.09,0,0,0-9,2.27l-.4,15.85a61.88,61.88,0,0,0-6.85,3.33l-12.89-9.33A75.5,75.5,0,0,0,317.49,44l6.06,14.6a62.92,62.92,0,0,0-5.08,6l-15.61-3.29a76.22,76.22,0,0,0-4.3,8L310,80.14A61.79,61.79,0,0,0,307.67,88l-15.59,3.34a77.36,77.36,0,0,0-.67,8.8l14.86,5.25a63,63,0,0,0,1.11,8.56l-12.88,9.39a76.79,76.79,0,0,0,2.87,8.09l15.71-1.25a62.47,62.47,0,0,0,4.74,7.71l-7.93,13.78a78.91,78.91,0,0,0,5.8,6.05l13.84-7.53a62.72,62.72,0,0,0,7.74,5.26l-1.63,15.79a77.82,77.82,0,0,0,7.62,3.09l9.61-12.54a63.22,63.22,0,0,0,9.4,1.63l4.91,15c1.36,0,2.72,0,4.1,0s2.73-.15,4.08-.28L379,162.77a61.67,61.67,0,0,0,9.24-2.38l10.59,11.72a80.06,80.06,0,0,0,7.35-3.69l-2.91-15.61a61.59,61.59,0,0,0,7.29-5.87L425,153.32a74.86,74.86,0,0,0,5.29-6.49l-9-13.1a62.31,62.31,0,0,0,4.11-8.06l15.76,0a78.92,78.92,0,0,0,2.21-8.29L429.76,109a63.25,63.25,0,0,0,.41-8.63L444.56,94A77.84,77.84,0,0,0,443.18,85.26ZM318.5,109.14a3.22,3.22,0,1,1,3.09-3.35A3.22,3.22,0,0,1,318.5,109.14Zm80.89-44a3.22,3.22,0,1,1,.19,4.55A3.23,3.23,0,0,1,399.39,65.17ZM365.91,51a3.22,3.22,0,1,1-3.09,3.34A3.21,3.21,0,0,1,365.91,51ZM329.32,72.56a3.22,3.22,0,1,1,4.55-.18A3.22,3.22,0,0,1,329.32,72.56Zm7.39,70.08a3.22,3.22,0,1,1-.19-4.55A3.22,3.22,0,0,1,336.71,142.64Zm33.48,14.17a3.22,3.22,0,1,1,3.09-3.35A3.22,3.22,0,0,1,370.19,156.81Zm-.56-19a35.71,35.71,0,1,1,34.25-37.13A35.71,35.71,0,0,1,369.63,137.8Zm37.34,2a3.22,3.22,0,1,1-.18-4.55A3.22,3.22,0,0,1,407,139.8Zm10.9-34.68a3.22,3.22,0,1,1,3.08-3.35A3.22,3.22,0,0,1,417.87,105.12Z" transform="translate(62.07 102.4)"/><path class="e" d="M292.32,39.39,271.21,71.15s11.8,19.44,29.38,31.13l4.85,3.23a69.16,69.16,0,0,1,9.66-6.41,127.35,127.35,0,0,1,14.3-6.45c3-1.17,6.07-2.23,9.14-3.27l4-6.26c-1.21-1.21-.64-1.9-.41-2.29.69-1.16,2.23-.45,2.23-.45l-.63-13.11C315,45.49,292.32,39.39,292.32,39.39Z" transform="translate(62.07 102.4)"/><path class="e" d="M342.27,37.6s-24-.94-31.93.28c-5.9.9-23,6.95-23,6.95l40.36,20c.48-13.87,11-13.75,11-13.75l10.76.07c14.4-.88,13.4-10,13.4-10Z" transform="translate(62.07 102.4)"/><path class="l" d="M86.05-38.89s162.51,98,185.16,110l21.11-31.76S128.91-80.09,115.94-83.86Z" transform="translate(62.07 102.4)"/><line class="m" x1="350.49" y1="161.34" x2="353.01" y2="162.91"/><path class="f" d="M291.92,59l-2.52-1.57A1.79,1.79,0,0,0,287,58a1.7,1.7,0,0,0,.49,2.39L290,62a1.78,1.78,0,0,0,2.43-.58A1.7,1.7,0,0,0,291.92,59Z" transform="translate(62.07 102.4)"/><polygon class="g" points="327.08 172.05 335.13 177.4 346.62 164.2 334.74 156.81 327.08 172.05"/><polygon class="g" points="337.81 152.1 349.69 159.49 359.44 141.38 349.89 135.44 337.81 152.1"/><path class="n" d="M286.83,45.51c-4.65-2.89-11-1.28-14.2,3.6s-2,11.19,2.65,14.09,11,1.29,14.21-3.6S291.49,48.41,286.83,45.51Z" transform="translate(62.07 102.4)"/><path class="f" d="M287.81,44c-5.46-3.4-12.92-1.52-16.64,4.18s-2.31,13.08,3.14,16.48S287.23,66.2,291,60.51,293.26,47.42,287.81,44ZM288,58.7c-2.65,4-7.93,5.41-11.78,3A8.3,8.3,0,0,1,274.08,50c2.65-4,7.93-5.4,11.78-3A8.3,8.3,0,0,1,288,58.7Z" transform="translate(62.07 102.4)"/><polygon class="f" points="312.55 168.23 328.66 178.34 356.22 138.55 340.74 127.5 312.55 168.23"/><path class="f" d="M256.9,56.56l-6.42,9.27L266.6,75.94,273,66.72a38.67,38.67,0,0,1-15.73-9.79Z" transform="translate(62.07 102.4)"/><polygon class="o" points="137.63 62.67 319.87 174.48 350.01 130.49 173.33 9.35 137.63 62.67"/><path class="e" d="M284.14,88.17s23.93,28.62,33.55,25.08c6.27-2.3,29.09-15.06,29.09-15.06l-8.5-13.9Z" transform="translate(62.07 102.4)"/><path class="e" d="M316.5,107.48,329.76,110a13.6,13.6,0,0,0,9.86-4.66c3.94-4.75,8.92-18.49,8.92-18.49l-20.28-1.26Z" transform="translate(62.07 102.4)"/><path class="e" d="M339,76.51l-8.66,23.28,13.07,1.4s4,.57,7.29-4.67,1.14-11.18,1.14-11.18Z" transform="translate(62.07 102.4)"/><path class="e" d="M333.11,53.14,321.3,58.26s30,31.59,32.24,31.86,11-2.33,8.17-13.79C361.71,76.33,330.83,59.82,333.11,53.14Z" transform="translate(62.07 102.4)"/><path class="e" d="M344.06,70.73l18.13,8-.65-6S349.85,67.2,344.06,70.73Z" transform="translate(62.07 102.4)"/><path class="e" d="M504.33,262.26s3.85,5.35,11.17,1.69l11-7.56-3.67-9.06Z" transform="translate(62.07 102.4)"/><path class="e" d="M511.32,270.34s5.69,3.61,11.47-2.07l7.88-10.4-9.88-4.14Z" transform="translate(62.07 102.4)"/><path class="k" d="M526.86,237.62l-6.62,14.67,12.55,20.41,22.94,18.94s-4.92-46.28-5-50.21Z" transform="translate(62.07 102.4)"/><path class="e" d="M559.79,246.58s-2.52-9.94-10.94-12.62c-11-3.52-15.78-5.48-15.78-5.48L528,238.91l14.54,6.39,1.17,17.16a15.92,15.92,0,0,1-2.12,5.42L555,305l2.19,1.49c7.48,10.34,77.06,106.39,81.36,107.66,4.53,1.35,30.32-33.93,30.32-33.93L574.52,291Z" transform="translate(62.07 102.4)"/><path class="e" d="M531.2,228.28,503,233.69s1,8.5,8.35,8.7l19.07-1.57,8.38-6.68S537.28,227.78,531.2,228.28Z" transform="translate(62.07 102.4)"/><polygon class="o" points="624.59 419.37 687.8 514.62 764.23 508.89 647.59 398.87 624.59 419.37"/><circle class="a" cx="492.24" cy="243.49" r="23.88" transform="translate(110.25 669) rotate(-62.36)"/><path class="i" d="M495.91,216.82a26.92,26.92,0,1,0,23,30.34A27,27,0,0,0,495.91,216.82Zm20,29.92a23.88,23.88,0,1,1-20.41-26.91A23.87,23.87,0,0,1,515.9,246.74Z" transform="translate(62.07 102.4)"/><path class="d" d="M533.73,233.63a41.26,41.26,0,0,0-2.52-7.62l5.49-7.43a50.3,50.3,0,0,0-5.38-7.88l-9.24,2.07a42.52,42.52,0,0,0-5.56-4.61l.61-9.31a51.18,51.18,0,0,0-9-4l-6.63,6.71c-1.12-.25-2.25-.45-3.41-.61s-2.3-.27-3.44-.33l-4.57-8.25a49.82,49.82,0,0,0-9.74,1.38l-1.93,9.13a42,42,0,0,0-6.6,2.94l-8.34-4.49a50.34,50.34,0,0,0-7.3,6.13l3.27,8.64a42.54,42.54,0,0,0-4.48,6.65l-9.46.74a51,51,0,0,0-2.71,8.58l7.38,5.46a43.16,43.16,0,0,0-.22,9.07l-7.52,5.71a50.19,50.19,0,0,0,2.22,8.1l9.14.6a42.91,42.91,0,0,0,5.3,8.54l-3.21,8.78a49.8,49.8,0,0,0,6,5.27l8-4.45a42.26,42.26,0,0,0,9.67,4.43l2,9c1.26.28,2.54.5,3.84.68s2.59.31,3.87.38l4.39-8.15a42.1,42.1,0,0,0,10.5-1.66l6.54,6.46a51.34,51.34,0,0,0,7.16-3.46l-.72-9.33a42.54,42.54,0,0,0,7.4-6.79l9,1.89a51.13,51.13,0,0,0,4.32-7.21l-5.7-7.52a43,43,0,0,0,2.24-8.8l8.58-3.26a50.69,50.69,0,0,0-.3-9Zm-11.7,14a30.07,30.07,0,1,1-25.69-33.88A30.11,30.11,0,0,1,522,247.59Z" transform="translate(62.07 102.4)"/><path class="e" d="M514.33,259.78s10,10.55,11.94,12.11,3,7.28,5.63,13c4.63,10.23,8.84,12.1,14.05,14.79,3.14,1.63,9,5.27,9,5.27l.92-29.7L509.63,241C502.64,252.37,514.33,259.78,514.33,259.78Z" transform="translate(62.07 102.4)"/><path class="j" d="M576.19,291.22,557,308.31a2,2,0,0,0-.16,2.82,2,2,0,0,0,2.82.16l19.17-17.08a2,2,0,0,0-2.66-3Z" transform="translate(62.07 102.4)"/></g></svg>