<svg xmlns="http://www.w3.org/2000/svg" viewBox="0 0 204.18 111.64"><defs><style>.a{fill:#71cad0;}.b{fill:#c5e9ec;}.c{fill:#0fa0a8;}.d{fill:#95d5d8;}</style></defs><title>complex</title><path class="a" d="M182.88,50.87l.76,3.81a26.34,26.34,0,0,1,3.43,1.53l3.34-2,3.28,2.39-.86,3.81a26,26,0,0,1,2.47,2.77l3.9-.45,2,3.51-2.35,3.16A25.44,25.44,0,0,1,200,72.9l3.78,1.18.42,4-3.48,2a25.61,25.61,0,0,1-.4,3.59l3,2.66-1.2,3.87-4,.37a26.14,26.14,0,0,1-1.79,3.07l1.69,3.7-2.71,3L191.4,99a25.47,25.47,0,0,1-2.84,2l.05,4.12-3.71,1.64-3-2.8a24.63,24.63,0,0,1-3.39.72l-1.64,3.79h-4.05l-1.73-3.76c-.57-.08-1.13-.18-1.7-.3s-1.12-.26-1.67-.42l-3.05,2.81L161,105.12,161,101a25.11,25.11,0,0,1-2.81-2l-3.91,1.32-2.71-3,1.72-3.74a26.45,26.45,0,0,1-1.76-3l-4.08-.38-1.25-3.86,3.05-2.68a28,28,0,0,1-.38-3.53l-3.52-2,.42-4,3.84-1.2a27.53,27.53,0,0,1,1.1-3.44l-2.39-3.2,2-3.51,3.93.46a27.58,27.58,0,0,1,2.45-2.73l-.86-3.85,3.28-2.38,3.37,2a26.38,26.38,0,0,1,3.39-1.52l.77-3.83,4-.84,2.24,3.17a23.47,23.47,0,0,1,3.75,0l2.25-3.18,4,.85ZM170.54,99.06A20.46,20.46,0,1,0,154.8,74.78a20.46,20.46,0,0,0,15.74,24.28Z" transform="translate(0.01 -0.02)"/><path class="a" d="M29.39,37l.82,3a21.37,21.37,0,0,1,4.19,1.83l2.73-1.41,3.14,2.51-.77,3a21.22,21.22,0,0,1,2.71,3.67l3.07.14,1.47,3.74L44.6,55.63a21.73,21.73,0,0,1,.51,4.55l2.59,1.65-.6,4-3,.82a21.37,21.37,0,0,1-1.83,4.19l1.41,2.73-2.5,3.14-3-.77a21.68,21.68,0,0,1-3.68,2.71l-.14,3.08-3.74,1.46L28.43,81a20.39,20.39,0,0,1-4.54.51l-1.66,2.59-4-.6-.82-3a21.37,21.37,0,0,1-4.19-1.83l-2.73,1.41-3.14-2.5.77-3a21.68,21.68,0,0,1-2.71-3.68L2.34,70.8.87,67.06l2.22-2.19a21.64,21.64,0,0,1-.51-4.54L0,58.67l.6-4,3-.82a21.37,21.37,0,0,1,1.83-4.19L4,46.93l2.5-3.14,3,.77a21.68,21.68,0,0,1,3.68-2.71l.14-3.07,3.74-1.47,2.19,2.15A21.64,21.64,0,0,1,23.8,39l1.66-2.59,4,.6ZM21.31,77A17,17,0,1,0,7,57.67,17,17,0,0,0,21.31,77Z" transform="translate(0.01 -0.02)"/><path class="b" d="M135.76,51.87v3a20.92,20.92,0,0,1,3.5,2.79L142.2,57l2.34,3.17-1.45,2.69A21,21,0,0,1,144.72,67l2.87.91.5,3.92-2.6,1.53a20.71,20.71,0,0,1-.66,4.43l2,2.22-1.58,3.61h-3a20,20,0,0,1-2.79,3.5l.65,2.94-3.17,2.34L134.31,91a20.66,20.66,0,0,1-4.16,1.63l-.91,2.88-3.91.44-1.53-2.59a20.72,20.72,0,0,1-4.43-.67l-2.22,2-3.61-1.57v-3A20.93,20.93,0,0,1,110,87.3l-2.93.64-2.34-3.17,1.48-2.62A21.55,21.55,0,0,1,104.6,78l-2.87-.92-.44-3.91,2.59-1.53a20.72,20.72,0,0,1,.67-4.43l-2-2.22,1.57-3.61h3a21.33,21.33,0,0,1,2.79-3.5l-.72-3,3.17-2.34L115,54a20.66,20.66,0,0,1,4.16-1.63l.92-2.87,3.91-.45,1.53,2.59a21.38,21.38,0,0,1,4.42.67l2.23-2,3.61,1.58ZM118,87.75a16.67,16.67,0,1,0-8.59-22l0,.08A16.68,16.68,0,0,0,118,87.79Z" transform="translate(0.01 -0.02)"/><path class="c" d="M102.85,84.82l.59,2.94a11.22,11.22,0,0,1,3.37,2.67l3.07-.17,1.51,3-2.09,2.47a11.11,11.11,0,0,1,0,3.9l2.26,2.51-1.5,3.09-3.59-.11a11.06,11.06,0,0,1-2.66,2.1l-.61,3.64-3.29.8-2.27-3a12.1,12.1,0,0,1-1.57-.22,10.5,10.5,0,0,1-1.52-.44l-3.32,1.84-2.68-2.07.93-3.58a11.3,11.3,0,0,1-1.57-3l-3.32-1.36,0-3.38,3.08-1.38a11.38,11.38,0,0,1,1.56-3.57l-.9-3.11,2.61-2.15,2.73,1.42a10.84,10.84,0,0,1,4.17-1.06l1.73-2.46,3.3.71Zm-6.19,21a8.36,8.36,0,1,0-6.43-9.92h0a8.37,8.37,0,0,0,6.43,9.88Z" transform="translate(0.01 -0.02)"/><path class="b" d="M62.35.76,63,4a15.68,15.68,0,0,1,3.2,1.85L69.3,4.78,71.75,7.5l-1.44,3a15.89,15.89,0,0,1,1.5,3.37l3.2,1,.38,3.63-2.94,1.6a16.17,16.17,0,0,1-.28,1.83,15.62,15.62,0,0,1-.49,1.78l2,2.65-1.83,3.16-3.32-.43a15.26,15.26,0,0,1-2.74,2.46l.08,3.35-3.34,1.48-2.42-2.3a16.18,16.18,0,0,1-3.67.39l-1.9,2.75L51,36.46l-.61-3.29a15.68,15.68,0,0,1-3.2-1.85L44.09,32.4l-2.44-2.71,1.44-3a15.89,15.89,0,0,1-1.5-3.37l-3.21-.95L38,18.73l2.94-1.59a15.91,15.91,0,0,1,.77-3.61l-2-2.66,1.83-3.16,3.31.44A15.73,15.73,0,0,1,47.6,5.68l-.09-3.35L50.85.85l2.42,2.3A15.7,15.7,0,0,1,57,2.77L58.84,0l3.58.76ZM54.09,31a12.67,12.67,0,1,0-9.75-15v0A12.66,12.66,0,0,0,54.09,31Z" transform="translate(0.01 -0.02)"/><path class="c" d="M126.51,10.08l1.26,2.25a17.82,17.82,0,0,1,3.77.65l2-1.69,3,1.42v2.58a18,18,0,0,1,2.93,2.45l2.53-.49L143.94,20l-1.32,2.21a17.87,17.87,0,0,1,1.32,3.6l2.44.84.3,3.35-2.25,1.26a17.22,17.22,0,0,1-.66,3.77L145.46,37,144.05,40h-2.58A17.76,17.76,0,0,1,139,43l.5,2.53-2.76,1.94-2.21-1.32A17.56,17.56,0,0,1,131,47.44l-.86,2.43-3.36.3-1.26-2.3a17.31,17.31,0,0,1-3.78-.66l-1.94,1.69-3.06-1.41V44.91a18.18,18.18,0,0,1-2.94-2.46l-2.53.5-1.94-2.76L110.6,38a17.25,17.25,0,0,1-1.31-3.6l-2.44-.83-.3-3.36,2.25-1.25a17.91,17.91,0,0,1,.65-3.78l-1.69-1.94,1.42-3.06h2.58a18.12,18.12,0,0,1,2.45-2.94l-.49-2.53,2.75-1.94,2.21,1.32a18.46,18.46,0,0,1,3.6-1.31l.84-2.44,3.35-.3Zm1.38,34.23a14.26,14.26,0,1,0-15.48-12.93,14.28,14.28,0,0,0,15.48,12.93Z" transform="translate(0.01 -0.02)"/><path class="b" d="M192.69,8.71l.25,3.33a16.13,16.13,0,0,1,3,2.19l3.25-.76,2.13,3-1.76,2.85a16,16,0,0,1,1.13,3.51l3.08,1.3v3.65l-3.1,1.27a15.54,15.54,0,0,1-.47,1.78,18.07,18.07,0,0,1-.68,1.72l1.73,2.86-2.16,2.91-3.25-.8a16,16,0,0,1-3,2.16L192.56,43l-3.47,1.11-2.16-2.55a15.19,15.19,0,0,1-3.69,0l-2.19,2.53L177.59,43l-.25-3.33a16.08,16.08,0,0,1-3-2.18l-3.25.76-2.14-3,1.76-2.84a16.77,16.77,0,0,1-1.12-3.52l-3.08-1.29V23.89l3.09-1.26a15.3,15.3,0,0,1,.49-1.76,15,15,0,0,1,.68-1.72L169,16.29l2.16-2.94,3.25.79a15.93,15.93,0,0,1,3-2.15l.29-3.33,3.47-1.11,2.16,2.55a16.35,16.35,0,0,1,3.7,0l2.18-2.52,3.47,1.14ZM181.14,37.87a12.67,12.67,0,1,0-8-16h0a12.66,12.66,0,0,0,8,16Z" transform="translate(0.01 -0.02)"/><path class="d" d="M158.61,27.41l1.3,2.79a11.19,11.19,0,0,1,4,1.83l3-.93,2.25,2.63-1.48,3a11.14,11.14,0,0,1,.93,3.89l2.86,1.94L170.81,46l-3.6.78a11.65,11.65,0,0,1-2.12,2.72l.28,3.78-3.07,1.6-3-2.46a12.72,12.72,0,0,1-1.62.17,11,11,0,0,1-1.62-.07l-2.85,2.66L150,53.75V50a11.64,11.64,0,0,1-2.3-2.6l-3.65-.55-.88-3.35,2.73-2.13a11.49,11.49,0,0,1,.67-3.94L145,34.52,147,31.74l3.06.74A11.55,11.55,0,0,1,154,30.39l1.12-2.87,3.47-.11Zm-1,22.39a8.57,8.57,0,1,0-8.84-8.29h0a8.56,8.56,0,0,0,8.82,8.29h0Z" transform="translate(0.01 -0.02)"/><path class="d" d="M83.32,31.8l.76,3.82a26.77,26.77,0,0,1,3.42,1.52l3.34-2,3.28,2.39-.86,3.81a26.08,26.08,0,0,1,2.48,2.77l3.89-.46,2,3.52-2.36,3.16a25.44,25.44,0,0,1,1.12,3.5L104.17,55l.42,4-3.48,2a25.61,25.61,0,0,1-.4,3.59l3,2.65-1.26,3.86-4,.37a26.14,26.14,0,0,1-1.79,3.07l1.69,3.69-2.71,3-3.88-1.31a26.85,26.85,0,0,1-2.84,2V86l-3.7,1.65-3-2.8a28,28,0,0,1-3.39.72l-1.64,3.79h-4L71.5,85.54c-.56-.09-1.13-.19-1.7-.31s-1.12-.26-1.67-.41l-3,2.91-3.7-1.65,0-4.13a25.11,25.11,0,0,1-2.81-2l-3.91,1.32-2.71-3,1.72-3.74a26.38,26.38,0,0,1-1.75-3l-4.09-.38-1.25-3.86,3.06-2.68a26.29,26.29,0,0,1-.39-3.53l-3.52-2,.42-4,3.84-1.19a26,26,0,0,1,1.1-3.44l-2.39-3.21,2-3.5,3.93.46a27.8,27.8,0,0,1,2.46-2.74l-.87-3.85,3.28-2.38,3.37,2a24.65,24.65,0,0,1,3.4-1.52l.76-3.83,4-.84,2.25,3.17a25.94,25.94,0,0,1,3.74,0L79.33,31l4,.84ZM71,80A20.45,20.45,0,1,0,55.23,55.72,20.45,20.45,0,0,0,71,80Z" transform="translate(0.01 -0.02)"/></svg>