<svg xmlns="http://www.w3.org/2000/svg" xmlns:xlink="http://www.w3.org/1999/xlink" viewBox="0 0 286.74 286.74"><defs><style>.a{fill:none;}.b{fill:#1c8786;}.c{clip-path:url(#a);}.d{fill:#fff;}</style><clipPath id="a" transform="translate(-460 -253.26)"><rect class="a" x="513.76" y="307.03" width="179.21" height="179.21"/></clipPath></defs><title>connect</title><path class="b" d="M603.37,253.26A143.37,143.37,0,1,0,746.74,396.63,143.37,143.37,0,0,0,603.37,253.26Z" transform="translate(-460 -253.26)"/><g class="c"><path class="d" d="M569.93,425.63l4.44,4.43a9.4,9.4,0,0,0,13.31,0l49.12-49.12a9.39,9.39,0,0,0,0-13.3l-4.44-4.44a9.39,9.39,0,0,0-13.3,0l-49.13,49.12A9.42,9.42,0,0,0,569.93,425.63Z" transform="translate(-460 -253.26)"/><path class="d" d="M620.46,321.27l-23.19,23.19A30.28,30.28,0,0,0,593.1,382l15.55-15.55a10.06,10.06,0,0,1,2.9-7.75l23.18-23.18a10.09,10.09,0,0,1,14.27,0L664.46,351a10.09,10.09,0,0,1,0,14.27l-23.18,23.18a10.06,10.06,0,0,1-7.75,2.9L618,406.9a30.28,30.28,0,0,0,37.56-4.17l23.19-23.19a30.27,30.27,0,0,0,0-42.81l-15.46-15.46A30.27,30.27,0,0,0,620.46,321.27Z" transform="translate(-460 -253.26)"/><path class="d" d="M595.19,434.54,572,457.72a10.09,10.09,0,0,1-14.27,0l-15.46-15.45a10.11,10.11,0,0,1,0-14.27l23.19-23.19a10,10,0,0,1,7.75-2.89l15.55-15.56a30.28,30.28,0,0,0-37.57,4.18L528,413.73a30.24,30.24,0,0,0,0,42.8L543.46,472a30.27,30.27,0,0,0,42.81,0l23.19-23.18a30.28,30.28,0,0,0,4.18-37.57l-15.55,15.55A10.06,10.06,0,0,1,595.19,434.54Z" transform="translate(-460 -253.26)"/></g></svg>