<svg xmlns="http://www.w3.org/2000/svg" viewBox="0 0 65.84 34.42"><defs><style>.a,.b{fill:#f59223;}.b,.c,.d,.e,.f,.g,.h{fill-rule:evenodd;}.c{fill:#f3d1b3;}.d{fill:#e1f2f3;}.e{fill:#fdc930;}.f{fill:#c3e671;}.g{fill:#fbe9d7;}.h{fill:#244f73;}</style></defs><title>distrib</title><path class="a" d="M32.32,41.23l-2.56-2.3v0L29.44,30,17.08,31.68l0-.18,12.09-1.8.59-1.94,8.34-8.33,4,4.51,3.77-2.35,2.7-7.25L33.34,16.73l-11.17,2L16,28.15a.08.08,0,0,1-.12,0,.09.09,0,0,1,0-.13l6.22-9.49,11.25-2,15.52-2.44L46,21.72h0L42,24.18l-4-4.48-8.19,8.18-.57,1.93.31,0v.1l.32,9L32.36,41l5.74-2.48,4.07-4.07,1.68-2.11,4.88-1.06,0,.06,4.83,7.32,3.89,1.62,1.75-6.88L56.59,29,51.41,27.9l-2.09-3.58,9.57-5.72,4.74-.54h0l11.75,5.09v.17L62.62,28.14,62.23,31l6.33,3.35,1.43.61a.11.11,0,0,1,0,.13.08.08,0,0,1-.12,0l-1.43-.61L62,31.06,62.45,28l12.67-4.76-11.51-5-4.68.53-9.36,5.61,2,3.35,5.18,1.11,0,0,2.71,4.49v0l-1.82,7.12-4.13-1.72,0,0L48.65,31.5l-4.7,1-1.64,2.06-4.12,4.11Z" transform="translate(-11.92 -10.72)"/><path class="b" d="M37.63,12.33a4.31,4.31,0,1,1-4.3,4.31,4.31,4.31,0,0,1,4.3-4.31" transform="translate(-11.92 -10.72)"/><path class="c" d="M37.63,12.8a3.84,3.84,0,1,1-3.84,3.84,3.84,3.84,0,0,1,3.84-3.84" transform="translate(-11.92 -10.72)"/><path class="b" d="M61.81,13.58A3.38,3.38,0,1,1,58.43,17a3.38,3.38,0,0,1,3.38-3.38" transform="translate(-11.92 -10.72)"/><path class="d" d="M61.81,14a3,3,0,1,1-3,3,3,3,0,0,1,3-3" transform="translate(-11.92 -10.72)"/><path class="b" d="M40.19,33.21a3.36,3.36,0,1,1-3.36,3.36,3.35,3.35,0,0,1,3.36-3.36" transform="translate(-11.92 -10.72)"/><path class="e" d="M40.19,33.68a2.89,2.89,0,1,1-2.88,2.89,2.89,2.89,0,0,1,2.88-2.89" transform="translate(-11.92 -10.72)"/><path class="b" d="M55.46,37.77a3.65,3.65,0,1,1-3.65,3.65,3.64,3.64,0,0,1,3.65-3.65" transform="translate(-11.92 -10.72)"/><path class="d" d="M55.46,38.34a3.08,3.08,0,1,1-3.08,3.08,3.08,3.08,0,0,1,3.08-3.08" transform="translate(-11.92 -10.72)"/><path class="b" d="M29.85,38.89A3.13,3.13,0,1,1,26.72,42a3.13,3.13,0,0,1,3.13-3.13" transform="translate(-11.92 -10.72)"/><path class="d" d="M29.85,39.38A2.64,2.64,0,1,1,27.21,42a2.64,2.64,0,0,1,2.64-2.64" transform="translate(-11.92 -10.72)"/><path class="b" d="M15.36,26.63a3.45,3.45,0,1,1-3.44,3.45,3.44,3.44,0,0,1,3.44-3.45" transform="translate(-11.92 -10.72)"/><path class="f" d="M15.36,27.06a3,3,0,1,1-3,3,3,3,0,0,1,3-3" transform="translate(-11.92 -10.72)"/><path class="b" d="M50,10.72a2.8,2.8,0,1,1-2.8,2.8,2.81,2.81,0,0,1,2.8-2.8" transform="translate(-11.92 -10.72)"/><path class="g" d="M50,11.08a2.45,2.45,0,1,1-2.44,2.44A2.45,2.45,0,0,1,50,11.08" transform="translate(-11.92 -10.72)"/><path class="b" d="M29.14,25.77a3.07,3.07,0,1,1-3.07,3.07,3.06,3.06,0,0,1,3.07-3.07" transform="translate(-11.92 -10.72)"/><path class="d" d="M29.14,26.19a2.65,2.65,0,1,1-2.65,2.65,2.65,2.65,0,0,1,2.65-2.65" transform="translate(-11.92 -10.72)"/><path class="b" d="M24.36,14a2.87,2.87,0,1,1-2.87,2.87A2.86,2.86,0,0,1,24.36,14" transform="translate(-11.92 -10.72)"/><path class="d" d="M24.36,14.42a2.44,2.44,0,1,1-2.44,2.44,2.44,2.44,0,0,1,2.44-2.44" transform="translate(-11.92 -10.72)"/><path class="b" d="M75,20.45a2.8,2.8,0,1,1-2.8,2.8,2.8,2.8,0,0,1,2.8-2.8" transform="translate(-11.92 -10.72)"/><path class="g" d="M75,20.81a2.44,2.44,0,1,1-2.44,2.44A2.45,2.45,0,0,1,75,20.81" transform="translate(-11.92 -10.72)"/><path class="b" d="M71.68,32.17a3.36,3.36,0,1,1-3.36,3.36,3.35,3.35,0,0,1,3.36-3.36" transform="translate(-11.92 -10.72)"/><path class="d" d="M71.68,32.59a2.94,2.94,0,1,1-2.93,2.94,2.94,2.94,0,0,1,2.93-2.94" transform="translate(-11.92 -10.72)"/><path class="b" d="M59.76,26A3.73,3.73,0,1,1,56,29.69,3.73,3.73,0,0,1,59.76,26" transform="translate(-11.92 -10.72)"/><path class="c" d="M59.76,26.48a3.21,3.21,0,1,1-3.2,3.21,3.21,3.21,0,0,1,3.2-3.21" transform="translate(-11.92 -10.72)"/><path class="b" d="M45.92,21.65a5.58,5.58,0,1,1-5.57,5.58,5.58,5.58,0,0,1,5.57-5.58" transform="translate(-11.92 -10.72)"/><path class="h" d="M45.92,22.23a5,5,0,1,1-5,5,5,5,0,0,1,5-5" transform="translate(-11.92 -10.72)"/><path class="f" d="M45.92,22.2a5,5,0,1,1-5,5,5,5,0,0,1,5-5" transform="translate(-11.92 -10.72)"/></svg>