<svg xmlns="http://www.w3.org/2000/svg" xmlns:xlink="http://www.w3.org/1999/xlink" viewBox="0 0 480.03 480.03"><defs><style>.a{fill:none;}.b{fill:#ffcb05;}.c{clip-path:url(#a);}.d{fill:#fff;}</style><clipPath id="a" transform="translate(-290.77 -111.45)"><rect class="a" x="369.58" y="190.26" width="322.41" height="322.41"/></clipPath></defs><title>download</title><path class="b" d="M530.78,111.45c-132.56,0-240,107.46-240,240s107.45,240,240,240,240-107.45,240-240S663.33,111.45,530.78,111.45Z" transform="translate(-290.77 -111.45)"/><g class="c"><path class="d" d="M513.23,422.7h0c.3.3.64.5,1,.77a26.35,26.35,0,0,0,2.89,2.31c.39.25.8.41,1.19.63a26.78,26.78,0,0,0,3.1,1.6c.51.2,1,.3,1.56.47a23.52,23.52,0,0,0,3,.86,20.83,20.83,0,0,0,2.09.21,25.64,25.64,0,0,0,2.6.24,25.12,25.12,0,0,0,2.6-.24,20.83,20.83,0,0,0,2.09-.21,22.84,22.84,0,0,0,2.93-.85c.55-.17,1.11-.27,1.63-.48a23.79,23.79,0,0,0,3-1.56,14.39,14.39,0,0,0,1.29-.67,26.93,26.93,0,0,0,2.8-2.24c.34-.3.71-.52,1-.84h0L630.72,340a24.85,24.85,0,0,0-35.15-35.15l-40.09,40.08V226.63h-.08a24.83,24.83,0,0,0-49.58,0h-.07V344.91l-40.09-40.08A24.86,24.86,0,0,0,430.5,340Z" transform="translate(-290.77 -111.45)"/><path class="d" d="M662.34,425.11c0-17.53-27.19-17.53-27.19,0,0,11.32,2.78,26.7-5.12,35.9-5.43,6.33-15.11,5.12-22.55,5.12H453.74c-8.24,0-15.65.8-22.54-5.12-8.41-7.21-5.13-26.1-5.13-35.9,0-17.53-27.19-17.53-27.19,0,0,15.71-.91,29.93,5.33,44.68,6.55,15.5,25.34,23.53,41.08,23.53H615.93c17.72,0,31.86-8.66,41.09-23.53C664.85,457.18,662.34,439.25,662.34,425.11Z" transform="translate(-290.77 -111.45)"/></g></svg>