<svg xmlns="http://www.w3.org/2000/svg" viewBox="0 0 214.41 84.6"><defs><style>.a,.c,.d,.e,.f,.h{fill:none;}.a{stroke:#f59122;}.a,.b,.c,.d,.e,.f,.g,.h,.i{stroke-linecap:round;stroke-width:2.5px;}.a,.d,.e,.f,.h{stroke-miterlimit:10;}.b,.g,.i{fill:#fff;}.b,.c{stroke:#6ac9d0;}.b,.c,.g,.i{stroke-linejoin:round;}.d{stroke:#96d805;}.e{stroke:#ef5034;}.f{stroke:#f59685;}.g{stroke:#91d5d9;}.h{stroke:#c0e869;}.i{stroke:#c3e9ec;}</style></defs><title>duplicates</title><path class="a" d="M333,114.75h42.2" transform="translate(-171.58 -53.5)"/><path class="b" d="M323.44,54.75h61.3v82.1h-61.3Z" transform="translate(-171.58 -53.5)"/><path class="c" d="M333,68.35h42.2" transform="translate(-171.58 -53.5)"/><path class="d" d="M340.34,68.35h20.3" transform="translate(-171.58 -53.5)"/><path class="c" d="M333,80h42.2" transform="translate(-171.58 -53.5)"/><path class="d" d="M351.64,80h9" transform="translate(-171.58 -53.5)"/><path class="e" d="M358.54,80H369" transform="translate(-171.58 -53.5)"/><path class="c" d="M333,91.55h42.2M333,103.05h42.2" transform="translate(-171.58 -53.5)"/><path class="d" d="M355.74,103.05h13.8" transform="translate(-171.58 -53.5)"/><path class="c" d="M333,114.75h27.6" transform="translate(-171.58 -53.5)"/><path class="e" d="M341.16,103.05H355" transform="translate(-171.58 -53.5)"/><path class="d" d="M333.44,126.15h13.8m12.8-11.4h15.6" transform="translate(-171.58 -53.5)"/><path class="f" d="M336,91.55h13.8" transform="translate(-171.58 -53.5)"/><path class="g" d="M248.13,54.75h61.3v82.1h-61.3Zm9.5,13.6h42.2M257.63,80h42.2" transform="translate(-171.58 -53.5)"/><path class="e" d="M283.13,80h10.5" transform="translate(-171.58 -53.5)"/><path class="g" d="M257.63,91.55h42.2m-42.2,11.5h42.2m-42.2,11.7h27.6" transform="translate(-171.58 -53.5)"/><path class="f" d="M266.61,91.55h13.8" transform="translate(-171.58 -53.5)"/><path class="h" d="M261.43,114.75h7.5" transform="translate(-171.58 -53.5)"/><line class="d" x1="99.86" y1="49.55" x2="115.46" y2="49.55"/><path class="i" d="M172.83,54.75h61.3v82.1h-61.3Zm9.5,13.6h42.2M182.33,80h42.2m-42.2,11.6h42.2m-42.2,11.6h42.2m-42.2,11.6h27.6" transform="translate(-171.58 -53.5)"/><path class="e" d="M186.07,103.15h13.8" transform="translate(-171.58 -53.5)"/><path class="e" d="M199.87,80h13.8" transform="translate(-171.58 -53.5)"/><path class="f" d="M204.11,91.55h13.8" transform="translate(-171.58 -53.5)"/><path class="h" d="M186.07,80h7.5" transform="translate(-171.58 -53.5)"/><line class="d" x1="28.29" y1="49.65" x2="42.09" y2="49.65"/></svg>