<svg xmlns="http://www.w3.org/2000/svg" viewBox="0 0 437.92 588.7"><defs><style>.a{fill:#34495e;}</style></defs><title>fingerprint</title><path class="a" d="M538.34,359.53c-2.14-34.77-9.41-67.75-21.73-98.31A6.39,6.39,0,1,0,504.76,266c12.67,31.46,19.78,65.65,21.19,101.8A81.37,81.37,0,0,0,538.34,359.53ZM516.72,489.44a6.38,6.38,0,0,0,7.86-4.47A392.53,392.53,0,0,0,539,387.11c-4.49-2.15-8.78-3.89-12.74-5.34a378.19,378.19,0,0,1-14,99.81A6.4,6.4,0,0,0,516.72,489.44ZM495.07,244.7a6.39,6.39,0,0,0,11.39-5.81C470,167.24,407.71,123.11,338.4,119q-12.67,3.7-25.38,8.38C352.79,129.28,445.87,144.76,495.07,244.7Zm51.56,67.95a6.4,6.4,0,0,0,6.26,5.17,6.73,6.73,0,0,0,1.24-.12,6.39,6.39,0,0,0,5-7.51c-12.4-63-40.85-117.29-82.29-156.88-21.82-20.86-46.13-36.56-72.13-46.81-9.94.82-20.06,2.15-30.3,4C458.25,131,526.13,208.4,546.63,312.65Zm-15,270.94a6.39,6.39,0,1,0,11.47,5.64,481.88,481.88,0,0,0,21.77-51.72,489.53,489.53,0,0,0,25.26-108.23,129,129,0,0,0-8.41-10.42,6.37,6.37,0,0,0-3.87,5.2,474.64,474.64,0,0,1-25,109.18A469.22,469.22,0,0,1,531.63,583.58Zm17.6-408.06a6.39,6.39,0,1,0,10.69-7,319.64,319.64,0,0,0-26.18-34.59,145,145,0,0,0-35.36-17.6A296.28,296.28,0,0,1,549.23,175.53Zm-236.7,5.77a6.39,6.39,0,1,0-.89-12.75C253.56,172.62,209.5,198.36,181,244c0,.24,0,.46,0,.7v25.8C206.27,215.62,250.27,185.67,312.54,181.3ZM561.4,195.63a341.46,341.46,0,0,1,21.32,46.25c.09-3.22.15-6.5.15-9.86A139.39,139.39,0,0,0,580,203.63c-2.39-4.81-4.87-9.56-7.47-14.22a6.39,6.39,0,1,0-11.17,6.21Zm18,82.37a349.66,349.66,0,0,0-15.36-44.16,6.39,6.39,0,0,0-11.76,5,340.75,340.75,0,0,1,20.55,66.82A190.7,190.7,0,0,0,579.42,278ZM365.17,443.52a6,6,0,0,0,1.37.15,6.4,6.4,0,0,0,6.24-5,239.32,239.32,0,0,0,5.23-51c0-5.23-.15-10.62-.45-16-4.47-82.06-39.85-99.28-68.75-99.28-16.69,0-31.52,7.86-41.77,22.11s-15.79,34.75-15.79,58.93c0,.88,0,1.78,0,2.67.16,9.9.91,19.26,1.58,27.52.6,7.42,1.12,13.83,1.12,19.2,0,12.75-2.79,12.75-5.25,12.75-4.63,0-12.91-15.38-12.91-46,0-.83,0-1.67,0-2.51a6.39,6.39,0,0,0-6.29-6.49h-.1a6.4,6.4,0,0,0-6.39,6.3c0,.9,0,1.8,0,2.7,0,27.13,6.73,58.82,25.7,58.82,18,0,18-19.22,18-25.54,0-5.89-.56-12.86-1.16-20.24-.65-8.07-1.39-17.21-1.54-26.7q0-1.24,0-2.46c0-41.46,17.58-68.24,44.77-68.24,34,0,52.82,29.33,56,87.19.28,5.17.42,10.33.42,15.32a226.74,226.74,0,0,1-4.93,48.28A6.38,6.38,0,0,0,365.17,443.52Zm152.3,64.72a6.39,6.39,0,0,0-12.12-4.08c-2.63,7.83-5.56,15.77-8.68,23.57C479,571.92,450.48,629.95,386.89,687c-1.36,1.22-3.26,2.83-6.41,5.48q9.07.69,18.12,1.14c63.31-57.9,92-116.43,109.93-161.16C511.75,524.47,514.75,516.31,517.47,508.24ZM446.79,407.18h.41a6.39,6.39,0,0,0,6.37-6c.47-7.5.71-15,.71-22.41,0-113-53.08-186-135.22-186A136.39,136.39,0,0,0,264,203.82a6.39,6.39,0,1,0,5.13,11.71,123.71,123.71,0,0,1,50-10c38.25,0,69.86,17.38,91.41,50.26,20,30.51,31,74.2,31,123,0,7.1-.23,14.37-.69,21.61A6.4,6.4,0,0,0,446.79,407.18Zm-245.6-66a209.58,209.58,0,0,0-2.06,29.22c0,53.46,19.75,90.81,48,90.81,31,0,46.79-21.4,46.79-63.61,0-12.88-1.36-26.49-2.69-38.09a6.39,6.39,0,1,0-12.7,1.45c1.29,11.25,2.6,24.4,2.6,36.64,0,45-18.16,50.83-34,50.83-20.08,0-35.23-33.54-35.23-78A198,198,0,0,1,213.84,343a6.39,6.39,0,0,0-12.66-1.79ZM393.72,607a6.39,6.39,0,1,0,10.12,7.81c3.92-5.08,7.64-10.31,11-15.51,42.75-65.37,66.3-141.95,66.3-215.61,0-1.67,0-3.33,0-5a6.39,6.39,0,1,0-12.78.18q0,2.4,0,4.81c0,71.21-22.8,145.29-64.21,208.61C401,597.28,397.44,602.22,393.72,607Zm-113-16.9a6.39,6.39,0,0,0-7.76-3.35c-32.58,10.62-67.17,0-90.45-10.77l-1.44-.7V589.4c17,7.45,38.82,14.32,61.86,14.57A615.17,615.17,0,0,1,182,631.64,46.51,46.51,0,0,0,185.45,644c36-14.14,67.34-29.52,92.88-45.73A6.4,6.4,0,0,0,280.69,590.15ZM232.51,489.86A94.54,94.54,0,0,0,252,492h.08a6.3,6.3,0,0,0,6.28-6.4,6.49,6.49,0,0,0-6.51-6.39,81.38,81.38,0,0,1-16.75-1.89c-30.65-6.47-51.24-48.05-51.24-103.47,0-48.88,17.13-113.17,65.21-147.07a6.39,6.39,0,1,0-7.37-10.45c-31.19,22-50.35,55.47-60.7,90V436.89C191.43,465.7,209.44,485,232.51,489.86Zm310.2-271.47a6.39,6.39,0,1,0,11.37-5.84c-22.32-43.49-52.87-79-89.4-104.37a237.24,237.24,0,0,0-28.38-2.53C480.48,129.8,517.16,168.62,542.71,218.39ZM467.24,356.12A6.39,6.39,0,0,0,473.6,362l.55,0A6.39,6.39,0,0,0,480,355c-9.1-107.48-67.07-182.58-144.27-186.88a6.4,6.4,0,0,0-.71,12.77C405.56,184.85,458.7,255.26,467.24,356.12Zm-60.7,291.74a6.37,6.37,0,0,0,4.76-2.13,342.31,342.31,0,0,0,44.82-63.13c35.35-63.43,54-132.55,54-199.87,0-1.93,0-3.84-.08-5.76-4.75-1.08-7.56-1.41-7.56-1.41a43.94,43.94,0,0,0,7.52-1.4c-1.21-50.74-13.14-97.68-34.71-136.2a6.39,6.39,0,1,0-11.15,6.25c21.71,38.79,33.19,86.68,33.19,138.52,0,65.15-18.12,132.11-52.41,193.65a329.62,329.62,0,0,1-43.18,60.83,6.39,6.39,0,0,0,4.77,10.65ZM555.7,327.29a6.4,6.4,0,0,0-5.51,7.17c.51,3.94,1,7.91,1.34,11.89a107.68,107.68,0,0,0,10.62-15.73A6.41,6.41,0,0,0,555.7,327.29ZM327.05,157.57c49.66,0,94.12,24.07,125.2,67.79a6.39,6.39,0,0,0,10.42-7.4c-33.55-47.18-81.71-73.16-135.62-73.16-29.07,0-54.06,4.35-75.56,11.79-9.7,5.67-19.27,11.8-28.63,18.42-18.38,13-29.23,25.17-35.25,37.79C216.93,180.66,261,157.57,327.05,157.57Zm-74.6,419.59c32.09,0,59.45-10.85,81.31-32.26a6.39,6.39,0,1,0-8.94-9.14c-19.67,19.25-43.34,28.6-72.37,28.6a180.48,180.48,0,0,1-28.5-2.56,114.7,114.7,0,0,1-42.92-16v14.83A127.16,127.16,0,0,0,222,574.44,192.69,192.69,0,0,0,252.46,577.16Zm100.38,54.5c55.41-57.41,88.52-126.67,98.42-205.88a6.39,6.39,0,1,0-12.69-1.58c-9.55,76.4-41.5,143.21-94.94,198.57-18.76,19.43-44,38.07-75.1,55.38q9.84,1.56,20.06,3.14C314.53,665.64,336.1,649,352.84,631.65ZM617.72,505.93a582.16,582.16,0,0,1-17.29,55.75,6.39,6.39,0,1,0,12,4.38c2.05-5.61,4-11.23,5.85-16.85q.65-9.14.66-19A232,232,0,0,0,617.72,505.93ZM388.48,633.07a6.39,6.39,0,1,0-9.42-8.64Q349.6,656.52,307,684q9.42,1.37,19,2.65Q362.17,661.68,388.48,633.07Zm6.75,20.57a6.39,6.39,0,0,0-9-.06,419.07,419.07,0,0,1-41.09,35.5q9.08,1.05,18.23,2a424.86,424.86,0,0,0,31.84-28.34A6.39,6.39,0,0,0,395.23,653.63Zm205.53-74.72a6.39,6.39,0,0,0-8.33,3.51l-.74,1.81c-7.09,17.3-22.44,49.77-50.49,89a139.87,139.87,0,0,0,26.54-16.45c18.81-29.53,30-53.55,35.78-67.72l.75-1.84A6.4,6.4,0,0,0,600.75,578.91ZM366.28,461.52a6.39,6.39,0,1,0-12-4.28c-18,50.61-58.21,82-105,82-23.53,0-47.79-8.26-68.21-25.39v16a116.39,116.39,0,0,0,68.21,22.16C301.59,552.07,346.44,517.38,366.28,461.52Zm2,64.93a6.39,6.39,0,1,0-11.4-5.8c-20.21,39.69-58.84,90.84-162.87,135.07a51.31,51.31,0,0,0,12.65,8.15,481,481,0,0,0,57.57-30C312.66,604,346.69,568.9,368.32,526.45Zm5.25,38.16c1.71-2.68,3.41-5.43,5-8.17a6.39,6.39,0,1,0-11-6.56c-1.58,2.64-3.21,5.29-4.86,7.86-19.41,30.41-54.14,73-136.87,112.76,6,1.53,12.73,2.91,20.34,4.13C321.36,635.6,354.49,594.48,373.57,564.61ZM565.29,403.44a137,137,0,0,0-12.4-8.72c-1.63,45.78-11.44,92.46-29.26,139C500,595.22,465,647.91,416.88,694.27q9.16.16,18.19,0a446,446,0,0,0,100.5-156C552.84,493.22,562.78,448,565.29,403.44ZM369.72,508.54a6.31,6.31,0,0,0,2.38.46,6.39,6.39,0,0,0,5.94-4c5.18-12.89,9-25.09,12.44-35.86l.08-.25a275.72,275.72,0,0,0,13-83.09c0-37.61-8.32-72.37-23.43-97.88-16-27-38.66-41.91-63.75-41.91C268.18,246,234,282.27,225,343a6.39,6.39,0,0,0,12.64,1.88c3-20.2,17.53-86.1,78.74-86.1,42.41,0,74.4,54.6,74.4,127A263,263,0,0,1,378.36,465l-.08.25c-3.33,10.55-7.11,22.5-12.11,34.94A6.4,6.4,0,0,0,369.72,508.54ZM194.2,608.72a6.38,6.38,0,0,0-6.12-5.54,50.73,50.73,0,0,1-7-.79v14.84c0,.46,0,.92,0,1.37,3.21-1.14,6.07-2.12,8.7-2.93A6.39,6.39,0,0,0,194.2,608.72Zm410.08-110.3a6.3,6.3,0,0,0-4.91-7.59,6.5,6.5,0,0,0-7.59,4.92c-8.78,34.67-17.24,61.82-35.44,100.91-10.37,22.26-28.58,54.55-59.11,91.12,7.13-1.52,14.08-3.31,20.8-5.44,24.9-32,40.5-60.11,49.89-80.27C586.53,562.09,594.69,535.86,604.28,498.42Zm-1.22-15a5.9,5.9,0,0,0,1,.08,6.67,6.67,0,0,0,6.3-5.36c.37-1.47.73-3,1.08-4.6a151.65,151.65,0,0,0-9.34-24.28c-1.24,9.48-2.69,18.62-4.35,26.81A6.3,6.3,0,0,0,603.06,483.44ZM529.78,601.26a6.39,6.39,0,0,0-8.69,2.49,476,476,0,0,1-64.53,89.55c6.33-.46,12.57-1.06,18.72-1.85a486.07,486.07,0,0,0,57-81.51A6.39,6.39,0,0,0,529.78,601.26ZM275.72,487.09a6.38,6.38,0,0,0,2.7-.6c58.3-27.23,40.21-140.69,38-153.54a6.39,6.39,0,1,0-12.59,2.21c7.55,43,9.57,120.9-30.77,139.74a6.39,6.39,0,0,0,2.71,12.19Zm-24.64,35.86a81.14,81.14,0,0,0,43.57-12.8,6.39,6.39,0,0,0-6.86-10.79,68.39,68.39,0,0,1-36.72,10.81c-25.47,0-51.85-14.46-70-42.18v21C200.84,511.32,226.33,522.95,251.08,522.95ZM210.47,325.43a6.39,6.39,0,0,0,7.82-4.54c7.15-27,31.49-89.81,102.9-89.81,35.56,0,57,23.47,68.71,43.15a6.39,6.39,0,0,0,11-6.53c-19.24-32.32-46.8-49.4-79.7-49.4-56.54,0-98.55,36.2-115.26,99.31A6.39,6.39,0,0,0,210.47,325.43Zm98.44,170.68a6.37,6.37,0,0,0,4.74-2.11c16.35-18.1,27.59-44,32.5-74.92a270.52,270.52,0,0,0,3.38-41.71c0-47.83-14.61-75.25-40.07-75.25a39.69,39.69,0,0,0-7.14.68c-16,3-24.27,14.09-25.18,33.93a6.39,6.39,0,1,0,12.77.59c.74-16.07,6.44-20.4,14.76-22a26.14,26.14,0,0,1,4.79-.47c24.62,0,27.28,43.69,27.28,62.47a257.55,257.55,0,0,1-3.22,39.7c-4.52,28.46-14.66,52.1-29.36,68.36a6.39,6.39,0,0,0,4.74,10.68Zm72.57,42.34a6.39,6.39,0,0,0,8.59-2.83c24.08-47.74,37.34-102.91,37.35-155.33,0-33.62-5.48-65-15.83-90.82a6.39,6.39,0,0,0-11.87,4.77c9.76,24.29,14.91,54,14.91,86,0,50.46-12.78,103.58-36,149.57A6.4,6.4,0,0,0,381.48,538.45Z" transform="translate(-181.04 -105.65)"/></svg>