<svg xmlns="http://www.w3.org/2000/svg" viewBox="0 0 1115.61 495.28"><defs><style>.a{fill:#2e3643;}.b,.c{fill:none;stroke-miterlimit:10;stroke-width:7px;}.b{stroke:#04a9b5;}.c{stroke:#ff5a30;}</style></defs><title>hosting</title><path class="a" d="M775.25,261.13a8.86,8.86,0,0,0,8.83-8.83V211.08a8.86,8.86,0,0,0-8.83-8.83H586.84a8.86,8.86,0,0,0-8.83,8.83v41.21a8.86,8.86,0,0,0,8.83,8.83h88.32V267H586.84a8.86,8.86,0,0,0-8.83,8.83v41.21a8.86,8.86,0,0,0,8.83,8.83h88.32v5.89H586.84a8.86,8.86,0,0,0-8.83,8.83v41.22a8.86,8.86,0,0,0,8.83,8.83h88.32v17.67H657.49v5.89h-47.1V426h47.1v5.89h47.1V426h47.1V414.21H704.6v-5.89H686.93V390.65h88.32a8.86,8.86,0,0,0,8.83-8.83V340.61a8.86,8.86,0,0,0-8.83-8.83H686.93v-5.89h88.32a8.86,8.86,0,0,0,8.83-8.83V275.84a8.86,8.86,0,0,0-8.83-8.83H686.93v-5.88ZM762,224.33a7.36,7.36,0,1,1-7.36,7.36A7.36,7.36,0,0,1,762,224.33Zm-23.55,0a7.36,7.36,0,1,1-7.36,7.36A7.36,7.36,0,0,1,738.45,224.33Zm-23.55,0a7.36,7.36,0,1,1-7.36,7.36A7.36,7.36,0,0,1,714.9,224.33ZM607.45,246.4a14.72,14.72,0,1,1,14.72-14.72A14.72,14.72,0,0,1,607.45,246.4Zm0,64.77a14.72,14.72,0,1,1,14.72-14.72A14.72,14.72,0,0,1,607.45,311.17Zm0,64.77a14.72,14.72,0,1,1,14.72-14.72A14.72,14.72,0,0,1,607.45,375.94ZM762,353.86a7.36,7.36,0,1,1-7.36,7.36A7.36,7.36,0,0,1,762,353.86Zm-23.55,0a7.36,7.36,0,1,1-7.36,7.36A7.36,7.36,0,0,1,738.45,353.86Zm-23.55,0a7.36,7.36,0,1,1-7.36,7.36A7.36,7.36,0,0,1,714.9,353.86ZM762,289.09a7.36,7.36,0,1,1-7.36,7.36A7.36,7.36,0,0,1,762,289.09Zm-23.55,0a7.36,7.36,0,1,1-7.36,7.36A7.36,7.36,0,0,1,738.45,289.09Zm-23.55,0a7.36,7.36,0,1,1-7.36,7.36A7.36,7.36,0,0,1,714.9,289.09Z" transform="translate(-484.17 -120.18)"/><path class="a" d="M1299.85,337.85a41.27,41.27,0,0,1,37.57-41A46.81,46.81,0,0,1,1426,281.24a46.63,46.63,0,0,1,36.68,17.82h.28c46.69.33,43,42.14,42.88,43.2.08.94.53,36.7-42.88,36.8l-120.74,0-1.1,0a40.94,40.94,0,0,1-32.34-15.66,37.87,37.87,0,0,1-8.92-24.35c0-.11,0-.35,0-.57S1299.85,338,1299.85,337.85Z" transform="translate(-484.17 -120.18)"/><rect class="b" x="725.34" y="3.5" width="386.76" height="386.76" rx="12" ry="12"/><rect class="c" x="3.5" y="3.5" width="386.76" height="386.76" rx="12" ry="12"/><path class="a" d="M623.22,600A13.65,13.65,0,0,1,618,611.34q-5.23,4.12-14.44,4.12t-15.07-2.86v-8.39a40.92,40.92,0,0,0,7.89,2.75,33.43,33.43,0,0,0,7.77,1q5.27,0,7.77-2a6.53,6.53,0,0,0,2.5-5.38,6.74,6.74,0,0,0-2.3-5.16q-2.3-2.12-9.5-5-7.42-3-10.46-6.87a14.53,14.53,0,0,1-3-9.28,13,13,0,0,1,4.82-10.69q4.82-3.9,13-3.9a38.06,38.06,0,0,1,15.51,3.41l-2.82,7.24a33.9,33.9,0,0,0-12.91-3q-4.31,0-6.53,1.87a6.16,6.16,0,0,0-2.23,5,7,7,0,0,0,.89,3.62,9.1,9.1,0,0,0,2.93,2.84,49.59,49.59,0,0,0,7.35,3.53,40.21,40.21,0,0,1,8.76,4.64,13.65,13.65,0,0,1,4.08,4.86A14.62,14.62,0,0,1,623.22,600Z" transform="translate(-484.17 -120.18)"/><path class="a" d="M658.48,614.71,656.73,609h-.3a16.82,16.82,0,0,1-6,5.1,18.91,18.91,0,0,1-7.72,1.35q-6,0-9.44-3.27t-3.4-9.24q0-6.35,4.71-9.57T649,589.85l7.09-.22v-2.19q0-3.93-1.84-5.88t-5.7-1.95a19.71,19.71,0,0,0-6,.93,45.65,45.65,0,0,0-5.57,2.19l-2.82-6.23a30.37,30.37,0,0,1,7.31-2.65,33.65,33.65,0,0,1,7.5-.91q7.83,0,11.82,3.41t4,10.73v27.65Zm-13-5.94a10.8,10.8,0,0,0,7.63-2.65,9.62,9.62,0,0,0,2.88-7.44v-3.56l-5.27.22q-6.16.22-9,2.06A6.26,6.26,0,0,0,639,603a5.48,5.48,0,0,0,1.63,4.25A7,7,0,0,0,645.49,608.78Z" transform="translate(-484.17 -120.18)"/><path class="a" d="M702.56,614.71,700.82,609h-.3a16.82,16.82,0,0,1-6,5.1,18.91,18.91,0,0,1-7.72,1.35q-6,0-9.44-3.27t-3.4-9.24q0-6.35,4.71-9.57t14.36-3.53l7.09-.22v-2.19q0-3.93-1.84-5.88t-5.7-1.95a19.7,19.7,0,0,0-6,.93,45.65,45.65,0,0,0-5.57,2.19l-2.82-6.23a30.37,30.37,0,0,1,7.31-2.65,33.65,33.65,0,0,1,7.5-.91q7.83,0,11.82,3.41t4,10.73v27.65Zm-13-5.94a10.81,10.81,0,0,0,7.63-2.65,9.62,9.62,0,0,0,2.88-7.44v-3.56l-5.27.22q-6.16.22-9,2.06A6.26,6.26,0,0,0,683,603a5.48,5.48,0,0,0,1.63,4.25A7,7,0,0,0,689.58,608.78Z" transform="translate(-484.17 -120.18)"/><path class="a" d="M757.82,576.86q0,8.5-5.57,13t-15.85,4.53h-5.64v20.3H721.9V560.46h15.62q10.17,0,15.23,4.16T757.82,576.86ZM730.77,587h4.71q6.83,0,10-2.37t3.19-7.42q0-4.68-2.86-7t-8.91-2.3h-6.16Z" transform="translate(-484.17 -120.18)"/><path class="a" d="M1355.46,600a13.65,13.65,0,0,1-5.23,11.36q-5.23,4.12-14.44,4.12t-15.07-2.86v-8.39a40.92,40.92,0,0,0,7.89,2.75,33.43,33.43,0,0,0,7.77,1q5.27,0,7.77-2a6.53,6.53,0,0,0,2.5-5.38,6.75,6.75,0,0,0-2.3-5.16q-2.3-2.12-9.5-5-7.42-3-10.46-6.87a14.52,14.52,0,0,1-3-9.28,13,13,0,0,1,4.82-10.69q4.82-3.9,13-3.9a38.06,38.06,0,0,1,15.51,3.41l-2.82,7.24a33.9,33.9,0,0,0-12.91-3q-4.31,0-6.53,1.87a6.16,6.16,0,0,0-2.23,5,7,7,0,0,0,.89,3.62,9.09,9.09,0,0,0,2.93,2.84,49.59,49.59,0,0,0,7.35,3.53,40.22,40.22,0,0,1,8.76,4.64,13.65,13.65,0,0,1,4.08,4.86A14.63,14.63,0,0,1,1355.46,600Z" transform="translate(-484.17 -120.18)"/><path class="a" d="M1390.72,614.71,1389,609h-.3a16.82,16.82,0,0,1-6,5.1,18.91,18.91,0,0,1-7.72,1.35q-6,0-9.44-3.27t-3.4-9.24q0-6.35,4.71-9.57t14.36-3.53l7.09-.22v-2.19q0-3.93-1.84-5.88t-5.7-1.95a19.7,19.7,0,0,0-6,.93,45.65,45.65,0,0,0-5.57,2.19l-2.82-6.23a30.37,30.37,0,0,1,7.31-2.65,33.65,33.65,0,0,1,7.5-.91q7.83,0,11.82,3.41t4,10.73v27.65Zm-13-5.94a10.81,10.81,0,0,0,7.63-2.65,9.62,9.62,0,0,0,2.88-7.44v-3.56l-5.27.22q-6.16.22-9,2.06a6.26,6.26,0,0,0-2.8,5.62,5.48,5.48,0,0,0,1.63,4.25A7,7,0,0,0,1377.73,608.78Z" transform="translate(-484.17 -120.18)"/><path class="a" d="M1434.8,614.71l-1.74-5.71h-.3a16.82,16.82,0,0,1-6,5.1,18.91,18.91,0,0,1-7.72,1.35q-6,0-9.44-3.27t-3.4-9.24q0-6.35,4.71-9.57t14.36-3.53l7.09-.22v-2.19q0-3.93-1.84-5.88t-5.7-1.95a19.7,19.7,0,0,0-6,.93,45.65,45.65,0,0,0-5.57,2.19l-2.82-6.23a30.37,30.37,0,0,1,7.31-2.65,33.65,33.65,0,0,1,7.5-.91q7.83,0,11.82,3.41t4,10.73v27.65Zm-13-5.94a10.81,10.81,0,0,0,7.63-2.65,9.62,9.62,0,0,0,2.88-7.44v-3.56l-5.27.22q-6.16.22-9,2.06a6.26,6.26,0,0,0-2.8,5.62,5.48,5.48,0,0,0,1.63,4.25A7,7,0,0,0,1421.82,608.78Z" transform="translate(-484.17 -120.18)"/><path class="a" d="M1485.42,600a13.65,13.65,0,0,1-5.23,11.36q-5.23,4.12-14.44,4.12t-15.07-2.86v-8.39a40.92,40.92,0,0,0,7.89,2.75,33.43,33.43,0,0,0,7.77,1q5.27,0,7.77-2a6.53,6.53,0,0,0,2.5-5.38,6.75,6.75,0,0,0-2.3-5.16q-2.3-2.12-9.5-5-7.42-3-10.46-6.87a14.52,14.52,0,0,1-3-9.28,13,13,0,0,1,4.82-10.69q4.82-3.9,13-3.9a38.06,38.06,0,0,1,15.51,3.41l-2.82,7.24a33.9,33.9,0,0,0-12.91-3q-4.31,0-6.53,1.87a6.16,6.16,0,0,0-2.23,5,7,7,0,0,0,.89,3.62,9.09,9.09,0,0,0,2.93,2.84,49.59,49.59,0,0,0,7.35,3.53,40.22,40.22,0,0,1,8.76,4.64,13.65,13.65,0,0,1,4.08,4.86A14.63,14.63,0,0,1,1485.42,600Z" transform="translate(-484.17 -120.18)"/></svg>