<svg xmlns="http://www.w3.org/2000/svg" viewBox="0 0 211.7 66.87"><defs><style>.a,.c,.d,.e,.f,.g,.h,.i,.j,.k,.n{fill:none;stroke-width:2.5px;}.a,.d{stroke:#6ac9d0;}.a,.c,.e,.f,.h,.j,.k,.n{stroke-miterlimit:10;}.b{fill:#d3d4db;}.c{stroke:#f59122;}.c,.d,.e,.f,.g,.h,.i,.j,.k{stroke-linecap:round;}.d,.g,.i{stroke-linejoin:round;}.e{stroke:#96d805;}.f{stroke:#ffecb4;}.g,.j{stroke:#d8d8d8;}.h{stroke:#ef5034;}.i{stroke:#f7bcd0;}.k{stroke:#f59685;}.l{fill:#e1f2f3;}.m{fill:#72cacf;}.n{stroke:#0d3c53;}</style></defs><title>independence2</title><rect class="a" x="128.8" y="2.25" width="63.06" height="13.95" rx="1.58" ry="1.58"/><rect class="a" x="128.8" y="20.87" width="63.06" height="13.95" rx="1.58" ry="1.58"/><rect class="a" x="128.8" y="39.49" width="63.06" height="13.95" rx="1.58" ry="1.58"/><circle class="b" cx="135.48" cy="9.23" r="1.75"/><circle class="b" cx="140.25" cy="9.23" r="1.75"/><circle class="b" cx="135.48" cy="27.85" r="1.75"/><circle class="b" cx="140.25" cy="27.85" r="1.75"/><circle class="b" cx="135.48" cy="46.47" r="1.75"/><circle class="b" cx="140.25" cy="46.47" r="1.75"/><path class="c" d="M86,131.88h37.76" transform="translate(-32 -113.12)"/><path class="d" d="M57,114.37H94.73" transform="translate(-32 -113.12)"/><path class="e" d="M33.26,114.37H51.43" transform="translate(-32 -113.12)"/><path class="f" d="M33.26,131.88H51.43" transform="translate(-32 -113.12)"/><path class="f" d="M62.83,149.38h45.34" transform="translate(-32 -113.12)"/><path class="g" d="M33.26,120.21H71" transform="translate(-32 -113.12)"/><path class="g" d="M50.24,143.55H88" transform="translate(-32 -113.12)"/><path class="d" d="M33.26,137.71H71" transform="translate(-32 -113.12)"/><path class="e" d="M90.26,120.21h8" transform="translate(-32 -113.12)"/><path class="h" d="M76.14,120.21h9.35" transform="translate(-32 -113.12)"/><path class="d" d="M50.76,126H88.51" transform="translate(-32 -113.12)"/><path class="i" d="M56.22,131.88H80.91" transform="translate(-32 -113.12)"/><path class="i" d="M33.26,149.38H58" transform="translate(-32 -113.12)"/><path class="h" d="M93.84,126h12.38" transform="translate(-32 -113.12)"/><path class="j" d="M33.25,143.55H45.63" transform="translate(-32 -113.12)"/><path class="e" d="M76,137.71H90" transform="translate(-32 -113.12)"/><path class="k" d="M95.18,137.71h12.35" transform="translate(-32 -113.12)"/><path class="f" d="M51.42,166.89H33.25" transform="translate(-32 -113.12)"/><path class="g" d="M71,178.56H33.25" transform="translate(-32 -113.12)"/><path class="g" d="M88,155.22H50.23" transform="translate(-32 -113.12)"/><path class="d" d="M71,161.06H33.25" transform="translate(-32 -113.12)"/><path class="e" d="M98.3,178.56h-8" transform="translate(-32 -113.12)"/><path class="h" d="M85.48,178.56H76.13" transform="translate(-32 -113.12)"/><path class="d" d="M88.5,172.73H50.75" transform="translate(-32 -113.12)"/><path class="i" d="M80.9,166.89H56.21" transform="translate(-32 -113.12)"/><path class="e" d="M90,161.06H76" transform="translate(-32 -113.12)"/><path class="l" d="M236.65,161.93c.3-4.07-1.15-7.82-4.33-10a11.09,11.09,0,0,0-7.39-1.79,12.6,12.6,0,0,0-24.59,0,11.09,11.09,0,0,0-7.39,1.79c-3.17,2.2-4.63,6-4.33,10-4.2,1.56-7.05,4.56-7.05,8v.89c0,5.06,6.13,9.16,13.68,9.16H230c7.56,0,13.68-4.1,13.68-9.16v-.89C243.7,166.49,240.85,163.49,236.65,161.93Z" transform="translate(-32 -113.12)"/><rect class="m" x="175.01" y="45.06" width="11.81" height="11.81" rx="0.63" ry="0.63"/><rect class="n" x="171.44" y="41.49" width="18.95" height="18.95" rx="0.83" ry="0.83"/><line class="n" x1="175.32" y1="41.02" x2="175.32" y2="37.37"/><line class="n" x1="180.92" y1="41.02" x2="180.92" y2="37.37"/><line class="n" x1="186.46" y1="41.02" x2="186.46" y2="37.43"/><line class="n" x1="175.32" y1="63.58" x2="175.32" y2="59.97"/><line class="n" x1="180.92" y1="63.58" x2="180.92" y2="59.97"/><line class="n" x1="186.46" y1="63.58" x2="186.46" y2="59.97"/><line class="n" x1="194.02" y1="56.06" x2="190.41" y2="56.06"/><line class="n" x1="194.02" y1="50.46" x2="190.41" y2="50.46"/><line class="n" x1="194.1" y1="44.92" x2="190.41" y2="44.92"/><line class="n" x1="171.43" y1="56.04" x2="167.81" y2="56.04"/><line class="n" x1="171.43" y1="50.44" x2="167.81" y2="50.44"/><line class="n" x1="171.43" y1="44.89" x2="167.81" y2="44.89"/></svg>