<svg xmlns="http://www.w3.org/2000/svg" viewBox="0 0 365.81 104.59"><defs><style>.a{fill:#fce9d6;stroke:#f2c7a0;stroke-miterlimit:10;stroke-width:0.5px;fill-rule:evenodd;}</style></defs><title>independence3</title><path class="a" d="M198.54,58.35a14.3,14.3,0,0,1,10.1,4.16L219.28,55a8,8,0,1,1,1.24,1.72L210,64.11a14.32,14.32,0,0,1,2.85,8.6,14.17,14.17,0,0,1-.7,4.43l14,5.11A9.44,9.44,0,0,1,241.31,80l7.41-5.25A6.18,6.18,0,0,1,256.16,66a5.92,5.92,0,0,1,.77.32l3-5a3.7,3.7,0,1,1,2.61.76,3.61,3.61,0,0,1-1.77-.27l-3,5a6.17,6.17,0,0,1,2.25,7,6.71,6.71,0,0,1-.49,1.09l4.84,2.81A3.75,3.75,0,0,1,267,76.3a3.7,3.7,0,1,1-3.32,4.06,3.77,3.77,0,0,1,.26-1.77L259,75.74a6.17,6.17,0,0,1-6.79,2,6,6,0,0,1-2.5-1.6l-7.33,5.18A9.33,9.33,0,0,1,244,86.63a9.44,9.44,0,1,1-18.88,0,9.64,9.64,0,0,1,.22-2l-14.14-5.16A14.41,14.41,0,0,1,201,86.85l.47,5.82a6.91,6.91,0,0,1,.91,0,5.64,5.64,0,1,1-2.06.22L199.84,87c-.43,0-.86.06-1.3.06a14.36,14.36,0,0,1-12-22.23L172.23,51.3a12.27,12.27,0,0,1-18.08-2.66l-12.43,4.23a8,8,0,1,1-.7-2l12.11-4.13a12.11,12.11,0,0,1-1-4.86,12.25,12.25,0,1,1,22.15,7.21l14.17,13.4a14.32,14.32,0,0,1,10.09-4.15Zm63.38-2.8a2.84,2.84,0,1,1-2.57,3.08,2.84,2.84,0,0,1,2.57-3.08Zm8.22,24.16a2.83,2.83,0,1,1-3.1-2.54,2.84,2.84,0,0,1,3.1,2.54ZM255.7,67.37a4.73,4.73,0,1,1-6,2.95,4.73,4.73,0,0,1,6-2.95ZM228.3,45.43a6.11,6.11,0,1,1-7.76,3.81,6.11,6.11,0,0,1,7.76-3.81Zm-22,53.21a4.33,4.33,0,1,1-4-4.65,4.33,4.33,0,0,1,4,4.65ZM234.58,79.4a7.23,7.23,0,1,1-7.23,7.23,7.23,7.23,0,0,1,7.23-7.23ZM130.37,59.48A6.12,6.12,0,1,1,138.89,58a6.12,6.12,0,0,1-8.52,1.46Zm34-27A9.38,9.38,0,1,1,155,41.89a9.38,9.38,0,0,1,9.38-9.38Zm34.16,29.21a11,11,0,1,1-11,11,11,11,0,0,1,11-11Z" transform="translate(-22.92 -8.31)"/><path class="a" d="M71.7,62.4a15,15,0,0,1,6.58,1.52L87.64,51a9.83,9.83,0,1,1,2.13,1.52L80.52,65.27a15,15,0,0,1,5.6,7.94l5.82-.92a5.9,5.9,0,1,1,.32,1.19l-5.85.92A15.17,15.17,0,0,1,86,82.05l14.67,5.34a9.82,9.82,0,1,1-.9,2.46L85,84.46a15,15,0,1,1-25.8-15.29L44.19,55a12.82,12.82,0,1,1,2.15-2.3l14.81,14A15,15,0,0,1,71.7,62.4Zm26.08,4.41a4.53,4.53,0,1,1-4.53,4.53,4.53,4.53,0,0,1,4.53-4.53Zm11.62,17.6A7.56,7.56,0,1,1,101.84,92a7.56,7.56,0,0,1,7.56-7.56Zm-15-48.2a7.56,7.56,0,1,1-7.56,7.56,7.57,7.57,0,0,1,7.56-7.56ZM36,35.38a9.81,9.81,0,1,1-9.81,9.81A9.81,9.81,0,0,1,36,35.38ZM71.7,65.92A11.49,11.49,0,1,1,60.21,77.41,11.5,11.5,0,0,1,71.7,65.92Z" transform="translate(-22.92 -8.31)"/><path class="a" d="M287.66,92.09a8,8,0,0,1,7.85,6.74h33a12.39,12.39,0,0,1,18.1-9.51L361.48,62a10.57,10.57,0,0,1,5.6-19.54,10.42,10.42,0,0,1,3.18.49l8.61-25.34a4.84,4.84,0,1,1,2.25.55h-.32l-8.68,25.58A10.58,10.58,0,0,1,370.79,63l7.52,25.73a8,8,0,1,1-2.44,1.21c.19-.14.39-.27.58-.39l-7.6-26a10.23,10.23,0,0,1-1.77.15,10.35,10.35,0,0,1-3.44-.58L348.59,90.64a12.38,12.38,0,1,1-20.14,10.58H295.51a7.94,7.94,0,1,1-7.85-9.13ZM381.12,9.53a3.85,3.85,0,1,1-3.85,3.85,3.85,3.85,0,0,1,3.85-3.85Zm-5.7,90.53a6.34,6.34,0,1,1,8.85,1.39,6.34,6.34,0,0,1-8.85-1.39Zm-8.34-55.43a8.44,8.44,0,1,1-8.44,8.44,8.44,8.44,0,0,1,8.44-8.44ZM340.8,90.37a9.89,9.89,0,1,1-9.9,9.89,9.89,9.89,0,0,1,9.9-9.89Zm-53.14,3.31a6.35,6.35,0,1,1-6.34,6.34,6.34,6.34,0,0,1,6.34-6.34Z" transform="translate(-22.92 -8.31)"/></svg>