<svg xmlns="http://www.w3.org/2000/svg" viewBox="0 0 1205.65 363.74"><defs><style>.a{fill:#2e3643;}.b,.d,.f{fill:none;stroke-miterlimit:10;stroke-width:7px;}.b{stroke:#ff5a30;}.c{fill:#ff5a30;}.d{stroke:#20af5d;}.e{fill:#20af5d;}.f{stroke:#04a9b5;}.g{fill:#04a9b5;}</style></defs><title>integration</title><path class="a" d="M292.82,412.59a7.79,7.79,0,0,0-6.68,3.24q-2.37,3.24-2.37,9,0,12.06,9,12.06A28.61,28.61,0,0,0,302,435v6.41a25.53,25.53,0,0,1-9.91,1.85q-7.87,0-12-4.77t-4.17-13.7a22.37,22.37,0,0,1,2-9.85,14.79,14.79,0,0,1,5.88-6.48,17.4,17.4,0,0,1,9-2.26,24.27,24.27,0,0,1,10.55,2.54L300.9,415a41.15,41.15,0,0,0-4.07-1.68A12.14,12.14,0,0,0,292.82,412.59Z" transform="translate(-275.9 -375.16)"/><path class="a" d="M330.1,429q0,6.73-3.55,10.53t-9.89,3.8a13.83,13.83,0,0,1-7-1.74,11.57,11.57,0,0,1-4.66-5,16.78,16.78,0,0,1-1.63-7.59q0-6.76,3.53-10.5t9.91-3.75a13.91,13.91,0,0,1,7,1.73,11.52,11.52,0,0,1,4.66,5A16.62,16.62,0,0,1,330.1,429ZM311,429a11.57,11.57,0,0,0,1.34,6.19,4.81,4.81,0,0,0,4.38,2.1,4.73,4.73,0,0,0,4.33-2.08,11.74,11.74,0,0,0,1.32-6.2,11.39,11.39,0,0,0-1.33-6.14,5.66,5.66,0,0,0-8.7,0Q311,424.84,311,429Z" transform="translate(-275.9 -375.16)"/><path class="a" d="M358.73,442.79h-7.52v-16.1a7.74,7.74,0,0,0-1.06-4.48,3.86,3.86,0,0,0-3.38-1.49,5.08,5.08,0,0,0-4.56,2.11q-1.41,2.11-1.41,7v13h-7.52V415.23H339l1,3.53h.42a8,8,0,0,1,3.46-3,11.8,11.8,0,0,1,5-1q4.81,0,7.3,2.6t2.49,7.51Z" transform="translate(-275.9 -375.16)"/><path class="a" d="M378.68,420.87h-6.51v21.92h-7.52V420.87h-4.14v-3.62l4.14-2v-2q0-4.71,2.32-6.88t7.42-2.17a19.31,19.31,0,0,1,6.93,1.16l-1.92,5.52a14,14,0,0,0-4.19-.71,2.71,2.71,0,0,0-2.32.95,3.92,3.92,0,0,0-.72,2.43v1.73h6.51Zm4-12.77q0-3.67,4.09-3.67t4.09,3.67a3.58,3.58,0,0,1-1,2.72,4.3,4.3,0,0,1-3.07,1Q382.68,411.8,382.68,408.1Zm7.84,34.69H383V415.23h7.52Z" transform="translate(-275.9 -375.16)"/><path class="a" d="M422.37,415.23V419l-4.31,1.11a7.53,7.53,0,0,1,1.18,4.14,8.36,8.36,0,0,1-3.09,6.92q-3.09,2.48-8.59,2.48l-1.36-.07-1.11-.12a2.5,2.5,0,0,0-1.16,2q0,1.63,4.14,1.63h4.68q4.54,0,6.92,1.95a7,7,0,0,1,2.38,5.72,8.48,8.48,0,0,1-4,7.5q-4,2.66-11.58,2.66-5.77,0-8.81-2a6.38,6.38,0,0,1-3-5.63,5.9,5.9,0,0,1,1.55-4.17,8.83,8.83,0,0,1,4.56-2.39,5,5,0,0,1-2-1.62,4,4,0,0,1,0-5,10.55,10.55,0,0,1,2.64-2.06,7.4,7.4,0,0,1-3.44-3,9.15,9.15,0,0,1-1.27-4.88,8.61,8.61,0,0,1,2.93-7q2.93-2.47,8.38-2.47a21.47,21.47,0,0,1,2.75.21q1.59.21,2,.31Zm-21.28,31.46a2.73,2.73,0,0,0,1.49,2.44,8.21,8.21,0,0,0,4.18.89,14.81,14.81,0,0,0,6.34-1.11q2.29-1.11,2.29-3a2.15,2.15,0,0,0-1.36-2.15,11.11,11.11,0,0,0-4.19-.59H406a5.9,5.9,0,0,0-3.46,1A3,3,0,0,0,401.09,446.69Zm2.74-22.44a5.61,5.61,0,0,0,1,3.55,3.72,3.72,0,0,0,3.12,1.31,3.64,3.64,0,0,0,3.11-1.31,5.76,5.76,0,0,0,1-3.55q0-5-4.09-5T403.83,424.25Z" transform="translate(-275.9 -375.16)"/><path class="a" d="M455,442.79H447.4V427.23H433.12v15.56h-7.64v-36h7.64v14.13H447.4V406.74H455Z" transform="translate(-275.9 -375.16)"/><path class="a" d="M479,442.79l-1-3.53h-.39a7.94,7.94,0,0,1-3.43,3,11.71,11.71,0,0,1-5.05,1q-4.86,0-7.32-2.6t-2.47-7.48v-18h7.52v16.1a7.73,7.73,0,0,0,1.06,4.47,3.86,3.86,0,0,0,3.38,1.49,5.08,5.08,0,0,0,4.56-2.11q1.41-2.11,1.41-7v-13h7.52v27.57Z" transform="translate(-275.9 -375.16)"/><path class="a" d="M504,414.71a8.92,8.92,0,0,1,7.64,3.81q2.76,3.81,2.76,10.44,0,6.83-2.85,10.58a9.94,9.94,0,0,1-15.37.22h-.52l-1.26,3h-5.75V404.43h7.52v8.93q0,1.7-.3,5.45h.3A8.7,8.7,0,0,1,504,414.71Zm-2.42,6a4.75,4.75,0,0,0-4.07,1.71q-1.28,1.71-1.33,5.66v.81q0,4.44,1.32,6.36a4.71,4.71,0,0,0,4.18,1.92,4.19,4.19,0,0,0,3.69-2.13,11.55,11.55,0,0,0,1.37-6.2q0-4.07-1.38-6.1A4.33,4.33,0,0,0,501.55,420.72Z" transform="translate(-275.9 -375.16)"/><path class="a" d="M929.25,380a6.63,6.63,0,0,0-5.45,2.46,10.5,10.5,0,0,0-2,6.78q0,4.53,1.91,6.85a6.74,6.74,0,0,0,5.53,2.32,14.5,14.5,0,0,0,3-.31q1.46-.31,3-.8v3.45a18.46,18.46,0,0,1-6.56,1.09q-5.4,0-8.3-3.27t-2.89-9.36a15.13,15.13,0,0,1,1.4-6.71A10,10,0,0,1,923,378.1a12.29,12.29,0,0,1,6.24-1.53,15.5,15.5,0,0,1,7,1.58l-1.45,3.35a21.67,21.67,0,0,0-2.63-1A9.49,9.49,0,0,0,929.25,380Z" transform="translate(-275.9 -375.16)"/><path class="a" d="M956.71,392.19a10.16,10.16,0,0,1-2.34,7.12,8.38,8.38,0,0,1-6.51,2.56,8.92,8.92,0,0,1-4.61-1.18,7.77,7.77,0,0,1-3.08-3.38,11.51,11.51,0,0,1-1.08-5.12,10.09,10.09,0,0,1,2.32-7.07,8.42,8.42,0,0,1,6.55-2.54,8.2,8.2,0,0,1,6.39,2.6A10,10,0,0,1,956.71,392.19Zm-13.55,0q0,6.44,4.76,6.44t4.71-6.44q0-6.38-4.75-6.38a4,4,0,0,0-3.61,1.65A8.39,8.39,0,0,0,943.17,392.19Z" transform="translate(-275.9 -375.16)"/><path class="a" d="M977.63,401.53h-4V390.08a5,5,0,0,0-.87-3.21,3.35,3.35,0,0,0-2.75-1.06,4.38,4.38,0,0,0-3.67,1.48q-1.16,1.48-1.16,5v9.27h-4V382.92h3.1l.56,2.44h.2a5.51,5.51,0,0,1,2.39-2.05,8,8,0,0,1,3.43-.72q6.7,0,6.7,6.81Z" transform="translate(-275.9 -375.16)"/><path class="a" d="M990.06,398.67a9.62,9.62,0,0,0,2.89-.45v3a8,8,0,0,1-1.69.48,11.66,11.66,0,0,1-2.15.19q-5.62,0-5.62-5.92v-10H981v-1.75l2.73-1.45,1.35-3.94h2.44v4.14h5.3v3h-5.3v10a2.8,2.8,0,0,0,.71,2.11A2.61,2.61,0,0,0,990.06,398.67Z" transform="translate(-275.9 -375.16)"/><path class="a" d="M996.44,378a2.19,2.19,0,0,1,.58-1.63,2.26,2.26,0,0,1,1.66-.57,2.21,2.21,0,0,1,1.62.57,2.19,2.19,0,0,1,.58,1.63,2.15,2.15,0,0,1-.58,1.59,2.19,2.19,0,0,1-1.62.58,2.24,2.24,0,0,1-1.66-.58A2.15,2.15,0,0,1,996.44,378Zm4.19,23.54h-4V382.92h4Z" transform="translate(-275.9 -375.16)"/><path class="a" d="M1022.66,401.53h-4V390.08a5,5,0,0,0-.87-3.21,3.35,3.35,0,0,0-2.75-1.06,4.38,4.38,0,0,0-3.67,1.48q-1.16,1.48-1.16,5v9.27h-4V382.92h3.1l.56,2.44h.2a5.51,5.51,0,0,1,2.39-2.05,8,8,0,0,1,3.43-.72q6.7,0,6.7,6.81Z" transform="translate(-275.9 -375.16)"/><path class="a" d="M1041.28,401.53l-.56-2.44h-.2a5.62,5.62,0,0,1-2.35,2,7.85,7.85,0,0,1-3.47.74,6.82,6.82,0,0,1-5-1.68,7,7,0,0,1-1.67-5.1V382.92h4v11.48a5,5,0,0,0,.88,3.21,3.34,3.34,0,0,0,2.74,1.07,4.37,4.37,0,0,0,3.66-1.49q1.17-1.49,1.17-5v-9.27h4v18.61Z" transform="translate(-275.9 -375.16)"/><path class="a" d="M1066.54,392.19a10.16,10.16,0,0,1-2.34,7.12,8.38,8.38,0,0,1-6.51,2.56,8.92,8.92,0,0,1-4.61-1.18,7.77,7.77,0,0,1-3.08-3.38,11.52,11.52,0,0,1-1.08-5.12,10.09,10.09,0,0,1,2.32-7.07,8.42,8.42,0,0,1,6.55-2.54,8.2,8.2,0,0,1,6.39,2.6A10,10,0,0,1,1066.54,392.19Zm-13.55,0q0,6.44,4.76,6.44t4.71-6.44q0-6.38-4.75-6.38a4,4,0,0,0-3.61,1.65A8.39,8.39,0,0,0,1053,392.19Z" transform="translate(-275.9 -375.16)"/><path class="a" d="M1084.21,401.53l-.56-2.44h-.2a5.62,5.62,0,0,1-2.35,2,7.85,7.85,0,0,1-3.47.74,6.82,6.82,0,0,1-5-1.68,7,7,0,0,1-1.67-5.1V382.92h4v11.48a5,5,0,0,0,.88,3.21,3.34,3.34,0,0,0,2.74,1.07,4.37,4.37,0,0,0,3.66-1.49q1.17-1.49,1.17-5v-9.27h4v18.61Z" transform="translate(-275.9 -375.16)"/><path class="a" d="M1105.46,396.23a4.87,4.87,0,0,1-2,4.18,9.5,9.5,0,0,1-5.69,1.46,13.43,13.43,0,0,1-6-1.13v-3.42a14.67,14.67,0,0,0,6.11,1.51q3.65,0,3.65-2.2a1.75,1.75,0,0,0-.4-1.18,4.8,4.8,0,0,0-1.33-1,22.89,22.89,0,0,0-2.57-1.14,11.91,11.91,0,0,1-4.35-2.49,4.61,4.61,0,0,1-1.14-3.23,4.24,4.24,0,0,1,1.93-3.71,9.14,9.14,0,0,1,5.24-1.32,14.85,14.85,0,0,1,6.21,1.33l-1.28,3a13.81,13.81,0,0,0-5.07-1.25q-3.13,0-3.13,1.78a1.8,1.8,0,0,0,.82,1.48,18,18,0,0,0,3.56,1.67,16.26,16.26,0,0,1,3.35,1.63,4.87,4.87,0,0,1,1.55,1.71A4.94,4.94,0,0,1,1105.46,396.23Z" transform="translate(-275.9 -375.16)"/><path class="a" d="M921.53,442.88v-24.6h4v24.6Z" transform="translate(-275.9 -375.16)"/><path class="a" d="M948,442.88h-4V431.44a5,5,0,0,0-.87-3.21,3.35,3.35,0,0,0-2.75-1.06,4.38,4.38,0,0,0-3.67,1.48q-1.16,1.48-1.16,5v9.27h-4V424.27h3.1l.56,2.44h.2a5.51,5.51,0,0,1,2.39-2.05,8,8,0,0,1,3.43-.72q6.7,0,6.7,6.81Z" transform="translate(-275.9 -375.16)"/><path class="a" d="M960.43,440a9.62,9.62,0,0,0,2.89-.45v3a8,8,0,0,1-1.69.48,11.66,11.66,0,0,1-2.15.19q-5.62,0-5.62-5.92v-10h-2.54v-1.75l2.73-1.45,1.35-3.94h2.44v4.14h5.3v3h-5.3v10a2.8,2.8,0,0,0,.71,2.11A2.61,2.61,0,0,0,960.43,440Z" transform="translate(-275.9 -375.16)"/><path class="a" d="M975.17,443.22a9,9,0,0,1-6.79-2.53,9.62,9.62,0,0,1-2.45-7,10.55,10.55,0,0,1,2.27-7.17,7.85,7.85,0,0,1,6.24-2.61,7.67,7.67,0,0,1,5.82,2.24,8.55,8.55,0,0,1,2.14,6.16v2.14H970a6.11,6.11,0,0,0,1.46,4.16,5.1,5.1,0,0,0,3.89,1.46,14.35,14.35,0,0,0,3.07-.31,16.11,16.11,0,0,0,3.05-1V442a12.13,12.13,0,0,1-2.93,1A17.94,17.94,0,0,1,975.17,443.22Zm-.72-16.29a4,4,0,0,0-3,1.19,5.69,5.69,0,0,0-1.35,3.48h8.45a5.15,5.15,0,0,0-1.11-3.49A3.8,3.8,0,0,0,974.45,426.93Z" transform="translate(-275.9 -375.16)"/><path class="a" d="M1002.62,424.27v2.17l-3.18.59a5.14,5.14,0,0,1,.72,1.45,5.71,5.71,0,0,1,.29,1.82,5.57,5.57,0,0,1-2,4.53,8.31,8.31,0,0,1-5.47,1.65,8.86,8.86,0,0,1-1.62-.13,2.23,2.23,0,0,0-1.28,1.85,1,1,0,0,0,.6,1,5.16,5.16,0,0,0,2.2.32h3.25a7.22,7.22,0,0,1,4.68,1.31,4.62,4.62,0,0,1,1.6,3.79,5.51,5.51,0,0,1-2.61,4.88q-2.61,1.72-7.54,1.72a10.4,10.4,0,0,1-5.81-1.35,4.35,4.35,0,0,1-2-3.84,4.08,4.08,0,0,1,1.08-2.89,5.82,5.82,0,0,1,3-1.62,3,3,0,0,1-1.3-1.09,2.74,2.74,0,0,1-.51-1.57,2.71,2.71,0,0,1,.59-1.77,6.8,6.8,0,0,1,1.75-1.43,5.18,5.18,0,0,1-2.35-2,6,6,0,0,1-.9-3.29,5.9,5.9,0,0,1,1.91-4.69,8,8,0,0,1,5.44-1.67,13.28,13.28,0,0,1,1.66.11,10.59,10.59,0,0,1,1.3.23ZM988,445.78a2.17,2.17,0,0,0,1.15,2,6.34,6.34,0,0,0,3.24.69,9.79,9.79,0,0,0,4.81-.93,2.77,2.77,0,0,0,1.58-2.46,1.84,1.84,0,0,0-.87-1.73,7,7,0,0,0-3.22-.51h-3a4.21,4.21,0,0,0-2.7.8A2.62,2.62,0,0,0,988,445.78Zm1.7-15.48a3.74,3.74,0,0,0,.9,2.69,3.4,3.4,0,0,0,2.58.94q3.43,0,3.43-3.67a4.16,4.16,0,0,0-.85-2.8,3.23,3.23,0,0,0-2.58-1,3.33,3.33,0,0,0-2.6,1A4.1,4.1,0,0,0,989.69,430.29Z" transform="translate(-275.9 -375.16)"/><path class="a" d="M1015.51,423.93a9.55,9.55,0,0,1,2,.17l-.39,3.69a7.47,7.47,0,0,0-1.75-.2,5.06,5.06,0,0,0-3.84,1.55,5.59,5.59,0,0,0-1.47,4v9.73h-4V424.27h3.1l.52,3.28h.2a7.37,7.37,0,0,1,2.42-2.64A5.74,5.74,0,0,1,1015.51,423.93Z" transform="translate(-275.9 -375.16)"/><path class="a" d="M1032.57,442.88l-.79-2.59h-.13a7.62,7.62,0,0,1-2.71,2.31,8.57,8.57,0,0,1-3.5.61,5.93,5.93,0,0,1-4.28-1.48,5.54,5.54,0,0,1-1.54-4.19,4.92,4.92,0,0,1,2.14-4.34q2.14-1.46,6.51-1.6l3.21-.1v-1a3.77,3.77,0,0,0-.83-2.67,3.4,3.4,0,0,0-2.58-.88,8.94,8.94,0,0,0-2.74.42,20.74,20.74,0,0,0-2.52,1l-1.28-2.83a13.78,13.78,0,0,1,3.31-1.2,15.26,15.26,0,0,1,3.4-.41,8.05,8.05,0,0,1,5.36,1.55,6.06,6.06,0,0,1,1.81,4.86v12.54Zm-5.89-2.69a4.9,4.9,0,0,0,3.46-1.2,4.36,4.36,0,0,0,1.3-3.37V434l-2.39.1a8.17,8.17,0,0,0-4.06.93,2.84,2.84,0,0,0-1.27,2.55,2.49,2.49,0,0,0,.74,1.93A3.18,3.18,0,0,0,1026.68,440.19Z" transform="translate(-275.9 -375.16)"/><path class="a" d="M1047.85,440a9.62,9.62,0,0,0,2.89-.45v3a8,8,0,0,1-1.69.48,11.66,11.66,0,0,1-2.15.19q-5.62,0-5.62-5.92v-10h-2.54v-1.75l2.73-1.45,1.35-3.94h2.44v4.14h5.3v3h-5.3v10a2.79,2.79,0,0,0,.72,2.11A2.61,2.61,0,0,0,1047.85,440Z" transform="translate(-275.9 -375.16)"/><path class="a" d="M1054.22,419.34a2.19,2.19,0,0,1,.58-1.63,2.26,2.26,0,0,1,1.66-.57,2.21,2.21,0,0,1,1.62.57,2.19,2.19,0,0,1,.58,1.63,2.15,2.15,0,0,1-.58,1.59,2.19,2.19,0,0,1-1.62.58,2.24,2.24,0,0,1-1.66-.58A2.15,2.15,0,0,1,1054.22,419.34Zm4.19,23.54h-4V424.27h4Z" transform="translate(-275.9 -375.16)"/><path class="a" d="M1080.58,433.54a10.16,10.16,0,0,1-2.34,7.12,8.38,8.38,0,0,1-6.51,2.56,8.92,8.92,0,0,1-4.61-1.18,7.77,7.77,0,0,1-3.08-3.38,11.52,11.52,0,0,1-1.08-5.12,10.09,10.09,0,0,1,2.32-7.07,8.42,8.42,0,0,1,6.55-2.54,8.2,8.2,0,0,1,6.39,2.6A10,10,0,0,1,1080.58,433.54Zm-13.55,0q0,6.44,4.76,6.44t4.71-6.44q0-6.38-4.75-6.38a4,4,0,0,0-3.61,1.65A8.39,8.39,0,0,0,1067,433.54Z" transform="translate(-275.9 -375.16)"/><path class="a" d="M1101.49,442.88h-4V431.44a5,5,0,0,0-.87-3.21,3.35,3.35,0,0,0-2.75-1.06,4.38,4.38,0,0,0-3.67,1.48q-1.16,1.48-1.16,5v9.27h-4V424.27h3.1l.56,2.44h.2a5.5,5.5,0,0,1,2.39-2.05,8,8,0,0,1,3.43-.72q6.7,0,6.7,6.81Z" transform="translate(-275.9 -375.16)"/><path class="a" d="M1094.77,697.54l-2.46-6.83h-9.41l-2.41,6.83h-4.24l9.2-24.7h4.38l9.21,24.7Zm-3.52-10.3-2.31-6.7q-.25-.67-.7-2.12t-.61-2.12a37.73,37.73,0,0,1-1.33,4.53l-2.22,6.41Z" transform="translate(-275.9 -375.16)"/><path class="a" d="M1111.32,697.88a6.52,6.52,0,0,1-5.49-2.54h-.24q.24,2.36.24,2.86v7.62h-4V678.93h3.2q.13.52.55,2.49h.2a6.2,6.2,0,0,1,5.55-2.83,6.46,6.46,0,0,1,5.43,2.52q1.94,2.52,1.94,7.08a11.39,11.39,0,0,1-2,7.12A6.52,6.52,0,0,1,1111.32,697.88Zm-1-16.05a4.11,4.11,0,0,0-3.44,1.38,7.16,7.16,0,0,0-1.08,4.41v.59a8.71,8.71,0,0,0,1.08,4.92,4,4,0,0,0,3.52,1.52,3.57,3.57,0,0,0,3.16-1.68,8.69,8.69,0,0,0,1.11-4.8,8.39,8.39,0,0,0-1.1-4.74A3.68,3.68,0,0,0,1110.36,681.83Z" transform="translate(-275.9 -375.16)"/><path class="a" d="M1132.79,697.88a6.52,6.52,0,0,1-5.49-2.54h-.24q.24,2.36.24,2.86v7.62h-4V678.93h3.2q.13.52.55,2.49h.2a6.2,6.2,0,0,1,5.55-2.83,6.46,6.46,0,0,1,5.43,2.52q1.94,2.52,1.94,7.08a11.39,11.39,0,0,1-2,7.12A6.52,6.52,0,0,1,1132.79,697.88Zm-1-16.05a4.11,4.11,0,0,0-3.44,1.38,7.16,7.16,0,0,0-1.08,4.41v.59a8.71,8.71,0,0,0,1.08,4.92,4,4,0,0,0,3.52,1.52,3.57,3.57,0,0,0,3.16-1.68,8.69,8.69,0,0,0,1.11-4.8,8.39,8.39,0,0,0-1.1-4.74A3.68,3.68,0,0,0,1131.83,681.83Z" transform="translate(-275.9 -375.16)"/><path class="a" d="M1148.77,697.54h-4V671.36h4Z" transform="translate(-275.9 -375.16)"/><path class="a" d="M1154.19,674a2.19,2.19,0,0,1,.58-1.63,2.26,2.26,0,0,1,1.66-.57,2.22,2.22,0,0,1,1.62.57,2.19,2.19,0,0,1,.58,1.63,2.15,2.15,0,0,1-.58,1.59,2.2,2.2,0,0,1-1.62.58,2.24,2.24,0,0,1-1.66-.58A2.15,2.15,0,0,1,1154.19,674Zm4.19,23.54h-4V678.93h4Z" transform="translate(-275.9 -375.16)"/><path class="a" d="M1171.54,697.88q-4.22,0-6.42-2.46t-2.2-7.08q0-4.69,2.3-7.22a8.52,8.52,0,0,1,6.64-2.52,12.44,12.44,0,0,1,5.3,1.09l-1.19,3.18a12,12,0,0,0-4.14-1q-4.83,0-4.83,6.41a7.68,7.68,0,0,0,1.2,4.7,4.17,4.17,0,0,0,3.53,1.57,10.11,10.11,0,0,0,5-1.31v3.45a7.79,7.79,0,0,1-2.26.89A13.63,13.63,0,0,1,1171.54,697.88Z" transform="translate(-275.9 -375.16)"/><path class="a" d="M1192.74,697.54,1192,695h-.13a7.62,7.62,0,0,1-2.71,2.31,8.56,8.56,0,0,1-3.5.61,5.93,5.93,0,0,1-4.28-1.48,5.54,5.54,0,0,1-1.54-4.19,4.92,4.92,0,0,1,2.14-4.34q2.14-1.46,6.51-1.6l3.21-.1v-1a3.77,3.77,0,0,0-.83-2.67,3.4,3.4,0,0,0-2.58-.88,8.94,8.94,0,0,0-2.74.42,20.67,20.67,0,0,0-2.52,1l-1.28-2.83A13.74,13.74,0,0,1,1185,679a15.23,15.23,0,0,1,3.4-.41,8,8,0,0,1,5.36,1.55,6.06,6.06,0,0,1,1.81,4.86v12.54Zm-5.89-2.69a4.9,4.9,0,0,0,3.46-1.2,4.36,4.36,0,0,0,1.3-3.37v-1.62l-2.39.1a8.17,8.17,0,0,0-4.06.93,2.84,2.84,0,0,0-1.27,2.55,2.49,2.49,0,0,0,.74,1.93A3.18,3.18,0,0,0,1186.85,694.85Z" transform="translate(-275.9 -375.16)"/><path class="a" d="M1208,694.68a9.62,9.62,0,0,0,2.89-.45v3a8,8,0,0,1-1.69.48,11.66,11.66,0,0,1-2.15.19q-5.62,0-5.62-5.92v-10h-2.54v-1.75l2.73-1.45,1.35-3.94h2.44v4.14h5.3v3h-5.3v10a2.79,2.79,0,0,0,.72,2.11A2.61,2.61,0,0,0,1208,694.68Z" transform="translate(-275.9 -375.16)"/><path class="a" d="M1214.4,674a2.19,2.19,0,0,1,.58-1.63,2.26,2.26,0,0,1,1.66-.57,2.22,2.22,0,0,1,1.62.57,2.19,2.19,0,0,1,.58,1.63,2.15,2.15,0,0,1-.58,1.59,2.2,2.2,0,0,1-1.62.58,2.24,2.24,0,0,1-1.66-.58A2.15,2.15,0,0,1,1214.4,674Zm4.19,23.54h-4V678.93h4Z" transform="translate(-275.9 -375.16)"/><path class="a" d="M1240.75,688.2a10.15,10.15,0,0,1-2.34,7.12,8.38,8.38,0,0,1-6.51,2.56,8.92,8.92,0,0,1-4.61-1.18,7.77,7.77,0,0,1-3.08-3.38,11.52,11.52,0,0,1-1.08-5.12,10.09,10.09,0,0,1,2.32-7.07,8.42,8.42,0,0,1,6.55-2.54,8.2,8.2,0,0,1,6.39,2.6A10,10,0,0,1,1240.75,688.2Zm-13.55,0q0,6.44,4.76,6.44t4.71-6.44q0-6.38-4.75-6.38a4,4,0,0,0-3.61,1.65A8.39,8.39,0,0,0,1227.2,688.2Z" transform="translate(-275.9 -375.16)"/><path class="a" d="M1261.67,697.54h-4V686.1a5,5,0,0,0-.87-3.21,3.35,3.35,0,0,0-2.75-1.06,4.38,4.38,0,0,0-3.67,1.48q-1.16,1.48-1.16,5v9.27h-4V678.93h3.1l.56,2.44h.2a5.5,5.5,0,0,1,2.39-2.05,8,8,0,0,1,3.43-.72q6.7,0,6.7,6.81Z" transform="translate(-275.9 -375.16)"/><path class="a" d="M1161.56,738.9l-2.46-6.83h-9.41l-2.41,6.83h-4.24l9.2-24.7h4.38l9.21,24.7ZM1158,728.6l-2.31-6.7q-.25-.67-.7-2.12t-.61-2.12a37.73,37.73,0,0,1-1.33,4.53l-2.22,6.41Z" transform="translate(-275.9 -375.16)"/><path class="a" d="M1185.37,721.73a7.17,7.17,0,0,1-2.52,5.91q-2.53,2.05-7.19,2.05h-2.56v9.21h-4v-24.6h7.08q4.61,0,6.91,1.88A6.77,6.77,0,0,1,1185.37,721.73Zm-12.27,4.58h2.14a7.66,7.66,0,0,0,4.54-1.08,3.92,3.92,0,0,0,1.45-3.37,3.82,3.82,0,0,0-1.29-3.16,6.4,6.4,0,0,0-4-1h-2.79Z" transform="translate(-275.9 -375.16)"/><path class="a" d="M1190.29,738.9v-24.6h4v24.6Z" transform="translate(-275.9 -375.16)"/><path class="a" d="M1252.46,401.53v-24.6h4v24.6Z" transform="translate(-275.9 -375.16)"/><path class="a" d="M1278.93,401.53h-4V390.08a5,5,0,0,0-.87-3.21,3.35,3.35,0,0,0-2.75-1.06,4.38,4.38,0,0,0-3.67,1.48q-1.16,1.48-1.16,5v9.27h-4V382.92h3.1l.56,2.44h.2a5.5,5.5,0,0,1,2.39-2.05,8,8,0,0,1,3.43-.72q6.7,0,6.7,6.81Z" transform="translate(-275.9 -375.16)"/><path class="a" d="M1293.78,385.91h-4.54v15.62h-4V385.91h-3.06v-1.85l3.06-1.21v-1.21a6.77,6.77,0,0,1,1.55-4.89,6.33,6.33,0,0,1,4.73-1.59,12.62,12.62,0,0,1,4.11.69l-1,3a9.12,9.12,0,0,0-2.79-.47,2.27,2.27,0,0,0-2,.83,4.19,4.19,0,0,0-.61,2.5v1.21h4.54Z" transform="translate(-275.9 -375.16)"/><path class="a" d="M1306.38,382.58a9.54,9.54,0,0,1,2,.17l-.39,3.69a7.47,7.47,0,0,0-1.75-.2,5.06,5.06,0,0,0-3.84,1.55,5.59,5.59,0,0,0-1.47,4v9.73h-4V382.92h3.1l.52,3.28h.2a7.37,7.37,0,0,1,2.42-2.64A5.74,5.74,0,0,1,1306.38,382.58Z" transform="translate(-275.9 -375.16)"/><path class="a" d="M1323.44,401.53l-.79-2.59h-.13a7.62,7.62,0,0,1-2.71,2.31,8.57,8.57,0,0,1-3.5.61,5.93,5.93,0,0,1-4.28-1.48,5.54,5.54,0,0,1-1.54-4.19,4.92,4.92,0,0,1,2.14-4.34q2.14-1.46,6.51-1.6l3.21-.1v-1a3.77,3.77,0,0,0-.83-2.67,3.4,3.4,0,0,0-2.58-.88,8.94,8.94,0,0,0-2.74.42,20.74,20.74,0,0,0-2.52,1l-1.28-2.83a13.78,13.78,0,0,1,3.31-1.2,15.26,15.26,0,0,1,3.4-.41,8.05,8.05,0,0,1,5.36,1.55,6.06,6.06,0,0,1,1.81,4.86v12.54Zm-5.89-2.69a4.9,4.9,0,0,0,3.46-1.2,4.36,4.36,0,0,0,1.3-3.37v-1.62l-2.39.1a8.17,8.17,0,0,0-4.06.93,2.84,2.84,0,0,0-1.27,2.55,2.49,2.49,0,0,0,.74,1.93A3.18,3.18,0,0,0,1317.55,398.83Z" transform="translate(-275.9 -375.16)"/><path class="a" d="M1344.29,396.23a4.87,4.87,0,0,1-2,4.18,9.5,9.5,0,0,1-5.69,1.46,13.43,13.43,0,0,1-6-1.13v-3.42a14.67,14.67,0,0,0,6.11,1.51q3.65,0,3.65-2.2a1.75,1.75,0,0,0-.4-1.18,4.8,4.8,0,0,0-1.33-1,22.89,22.89,0,0,0-2.57-1.14,11.91,11.91,0,0,1-4.35-2.49,4.61,4.61,0,0,1-1.14-3.23,4.24,4.24,0,0,1,1.93-3.71,9.14,9.14,0,0,1,5.24-1.32,14.85,14.85,0,0,1,6.21,1.33l-1.28,3a13.81,13.81,0,0,0-5.07-1.25q-3.13,0-3.13,1.78a1.8,1.8,0,0,0,.82,1.48,18,18,0,0,0,3.56,1.67,16.26,16.26,0,0,1,3.35,1.63,4.87,4.87,0,0,1,1.55,1.71A4.94,4.94,0,0,1,1344.29,396.23Z" transform="translate(-275.9 -375.16)"/><path class="a" d="M1355.5,398.67a9.62,9.62,0,0,0,2.89-.45v3a8,8,0,0,1-1.69.48,11.66,11.66,0,0,1-2.15.19q-5.62,0-5.62-5.92v-10h-2.54v-1.75l2.73-1.45,1.35-3.94h2.44v4.14h5.3v3h-5.3v10a2.79,2.79,0,0,0,.72,2.11A2.61,2.61,0,0,0,1355.5,398.67Z" transform="translate(-275.9 -375.16)"/><path class="a" d="M1371.55,382.58a9.54,9.54,0,0,1,2,.17l-.39,3.69a7.47,7.47,0,0,0-1.75-.2,5.06,5.06,0,0,0-3.84,1.55,5.59,5.59,0,0,0-1.47,4v9.73h-4V382.92h3.1l.52,3.28h.2a7.37,7.37,0,0,1,2.42-2.64A5.74,5.74,0,0,1,1371.55,382.58Z" transform="translate(-275.9 -375.16)"/><path class="a" d="M1390.09,401.53l-.56-2.44h-.2a5.62,5.62,0,0,1-2.35,2,7.85,7.85,0,0,1-3.47.74,6.82,6.82,0,0,1-5-1.68,7,7,0,0,1-1.67-5.1V382.92h4v11.48a5,5,0,0,0,.88,3.21,3.34,3.34,0,0,0,2.74,1.07,4.37,4.37,0,0,0,3.66-1.49q1.17-1.49,1.17-5v-9.27h4v18.61Z" transform="translate(-275.9 -375.16)"/><path class="a" d="M1406.35,401.86q-4.22,0-6.42-2.46t-2.2-7.08q0-4.69,2.3-7.22a8.52,8.52,0,0,1,6.64-2.52,12.44,12.44,0,0,1,5.3,1.09l-1.19,3.18a12,12,0,0,0-4.14-1q-4.83,0-4.83,6.41a7.68,7.68,0,0,0,1.2,4.7,4.17,4.17,0,0,0,3.53,1.57,10.11,10.11,0,0,0,5-1.31v3.45a7.79,7.79,0,0,1-2.26.89A13.59,13.59,0,0,1,1406.35,401.86Z" transform="translate(-275.9 -375.16)"/><path class="a" d="M1422.84,398.67a9.62,9.62,0,0,0,2.89-.45v3a8,8,0,0,1-1.69.48,11.66,11.66,0,0,1-2.15.19q-5.62,0-5.62-5.92v-10h-2.54v-1.75l2.73-1.45,1.35-3.94h2.44v4.14h5.3v3h-5.3v10A2.79,2.79,0,0,0,1421,398,2.61,2.61,0,0,0,1422.84,398.67Z" transform="translate(-275.9 -375.16)"/><path class="a" d="M1442.58,401.53l-.56-2.44h-.2a5.62,5.62,0,0,1-2.35,2,7.85,7.85,0,0,1-3.47.74,6.82,6.82,0,0,1-5-1.68,7,7,0,0,1-1.67-5.1V382.92h4v11.48a5,5,0,0,0,.88,3.21,3.34,3.34,0,0,0,2.74,1.07,4.37,4.37,0,0,0,3.66-1.49q1.17-1.49,1.17-5v-9.27h4v18.61Z" transform="translate(-275.9 -375.16)"/><path class="a" d="M1460.77,382.58a9.54,9.54,0,0,1,2,.17l-.39,3.69a7.47,7.47,0,0,0-1.75-.2,5.06,5.06,0,0,0-3.84,1.55,5.59,5.59,0,0,0-1.47,4v9.73h-4V382.92h3.1l.52,3.28h.2a7.37,7.37,0,0,1,2.42-2.64A5.74,5.74,0,0,1,1460.77,382.58Z" transform="translate(-275.9 -375.16)"/><path class="a" d="M1474.31,401.86a9,9,0,0,1-6.79-2.53,9.61,9.61,0,0,1-2.45-7,10.55,10.55,0,0,1,2.27-7.17,7.85,7.85,0,0,1,6.24-2.61,7.67,7.67,0,0,1,5.82,2.24,8.55,8.55,0,0,1,2.14,6.16v2.14h-12.4a6.11,6.11,0,0,0,1.46,4.16,5.1,5.1,0,0,0,3.89,1.46,14.35,14.35,0,0,0,3.07-.31,16.1,16.1,0,0,0,3.05-1v3.21a12.14,12.14,0,0,1-2.93,1A17.94,17.94,0,0,1,1474.31,401.86Zm-.72-16.29a4,4,0,0,0-3,1.19,5.7,5.7,0,0,0-1.35,3.48h8.45a5.15,5.15,0,0,0-1.11-3.49A3.8,3.8,0,0,0,1473.59,385.57Z" transform="translate(-275.9 -375.16)"/><path class="a" d="M1285.59,442.88l-2.46-6.83h-9.41l-2.41,6.83h-4.24l9.2-24.7h4.38l9.21,24.7Zm-3.52-10.3-2.31-6.7q-.25-.67-.7-2.12t-.61-2.12a37.73,37.73,0,0,1-1.33,4.53l-2.22,6.41Z" transform="translate(-275.9 -375.16)"/><path class="a" d="M1305.82,442.88l-.56-2.44h-.2a5.62,5.62,0,0,1-2.35,2,7.85,7.85,0,0,1-3.47.74,6.82,6.82,0,0,1-5-1.68,7,7,0,0,1-1.67-5.1V424.27h4v11.48a5,5,0,0,0,.88,3.21,3.34,3.34,0,0,0,2.74,1.07,4.37,4.37,0,0,0,3.66-1.49q1.17-1.49,1.17-5v-9.27h4v18.61Z" transform="translate(-275.9 -375.16)"/><path class="a" d="M1321.5,440a9.62,9.62,0,0,0,2.89-.45v3a8,8,0,0,1-1.69.48,11.66,11.66,0,0,1-2.15.19q-5.62,0-5.62-5.92v-10h-2.54v-1.75l2.73-1.45,1.35-3.94h2.44v4.14h5.3v3h-5.3v10a2.79,2.79,0,0,0,.72,2.11A2.61,2.61,0,0,0,1321.5,440Z" transform="translate(-275.9 -375.16)"/><path class="a" d="M1344.62,433.54a10.16,10.16,0,0,1-2.34,7.12,8.38,8.38,0,0,1-6.51,2.56,8.92,8.92,0,0,1-4.61-1.18,7.77,7.77,0,0,1-3.08-3.38,11.52,11.52,0,0,1-1.08-5.12,10.09,10.09,0,0,1,2.32-7.07,8.42,8.42,0,0,1,6.55-2.54,8.2,8.2,0,0,1,6.39,2.6A10,10,0,0,1,1344.62,433.54Zm-13.55,0q0,6.44,4.76,6.44t4.71-6.44q0-6.38-4.75-6.38a4,4,0,0,0-3.61,1.65A8.39,8.39,0,0,0,1331.07,433.54Z" transform="translate(-275.9 -375.16)"/><path class="a" d="M1364.84,442.88h-4V431.41a5.2,5.2,0,0,0-.81-3.19,3,3,0,0,0-2.52-1.05,3.85,3.85,0,0,0-3.36,1.49q-1.07,1.49-1.07,5v9.27h-4V424.27h3.1l.56,2.44h.2a5.15,5.15,0,0,1,2.25-2.05,7.24,7.24,0,0,1,3.24-.72q4.29,0,5.69,2.93h.27a5.67,5.67,0,0,1,2.32-2.15,7.37,7.37,0,0,1,3.43-.77q3.33,0,4.85,1.68a7.46,7.46,0,0,1,1.52,5.13v12.13h-4V431.41a5.17,5.17,0,0,0-.82-3.19,3,3,0,0,0-2.53-1.05,3.93,3.93,0,0,0-3.37,1.44,7.42,7.42,0,0,0-1.07,4.42Z" transform="translate(-275.9 -375.16)"/><path class="a" d="M1393.75,442.88l-.79-2.59h-.13a7.62,7.62,0,0,1-2.71,2.31,8.57,8.57,0,0,1-3.5.61,5.93,5.93,0,0,1-4.28-1.48,5.54,5.54,0,0,1-1.54-4.19,4.92,4.92,0,0,1,2.14-4.34q2.14-1.46,6.51-1.6l3.21-.1v-1a3.77,3.77,0,0,0-.83-2.67,3.4,3.4,0,0,0-2.58-.88,8.94,8.94,0,0,0-2.74.42,20.74,20.74,0,0,0-2.52,1l-1.28-2.83a13.78,13.78,0,0,1,3.31-1.2,15.26,15.26,0,0,1,3.4-.41,8.05,8.05,0,0,1,5.36,1.55,6.06,6.06,0,0,1,1.81,4.86v12.54Zm-5.89-2.69a4.9,4.9,0,0,0,3.46-1.2,4.36,4.36,0,0,0,1.3-3.37V434l-2.39.1a8.17,8.17,0,0,0-4.06.93,2.84,2.84,0,0,0-1.27,2.55,2.49,2.49,0,0,0,.74,1.93A3.18,3.18,0,0,0,1387.86,440.19Z" transform="translate(-275.9 -375.16)"/><path class="a" d="M1409,440a9.62,9.62,0,0,0,2.89-.45v3a8,8,0,0,1-1.69.48,11.66,11.66,0,0,1-2.15.19q-5.62,0-5.62-5.92v-10h-2.54v-1.75l2.73-1.45,1.35-3.94h2.44v4.14h5.3v3h-5.3v10a2.79,2.79,0,0,0,.72,2.11A2.61,2.61,0,0,0,1409,440Z" transform="translate(-275.9 -375.16)"/><path class="a" d="M1415.41,419.34a2.19,2.19,0,0,1,.58-1.63,2.26,2.26,0,0,1,1.66-.57,2.21,2.21,0,0,1,1.62.57,2.19,2.19,0,0,1,.58,1.63,2.15,2.15,0,0,1-.58,1.59,2.19,2.19,0,0,1-1.62.58,2.24,2.24,0,0,1-1.66-.58A2.15,2.15,0,0,1,1415.41,419.34Zm4.19,23.54h-4V424.27h4Z" transform="translate(-275.9 -375.16)"/><path class="a" d="M1441.76,433.54a10.16,10.16,0,0,1-2.34,7.12,8.38,8.38,0,0,1-6.51,2.56,8.92,8.92,0,0,1-4.61-1.18,7.77,7.77,0,0,1-3.08-3.38,11.52,11.52,0,0,1-1.08-5.12,10.09,10.09,0,0,1,2.32-7.07,8.42,8.42,0,0,1,6.55-2.54,8.2,8.2,0,0,1,6.39,2.6A10,10,0,0,1,1441.76,433.54Zm-13.55,0q0,6.44,4.76,6.44t4.71-6.44q0-6.38-4.75-6.38a4,4,0,0,0-3.61,1.65A8.39,8.39,0,0,0,1428.21,433.54Z" transform="translate(-275.9 -375.16)"/><path class="a" d="M1462.68,442.88h-4V431.44a5,5,0,0,0-.87-3.21,3.35,3.35,0,0,0-2.75-1.06,4.38,4.38,0,0,0-3.67,1.48q-1.16,1.48-1.16,5v9.27h-4V424.27h3.1l.56,2.44h.2a5.5,5.5,0,0,1,2.39-2.05,8,8,0,0,1,3.43-.72q6.7,0,6.7,6.81Z" transform="translate(-275.9 -375.16)"/><path class="b" d="M415.55,466.23v64.1a12,12,0,0,0,12,12H999.22a12,12,0,0,0,12-12V496.25" transform="translate(-275.9 -375.16)"/><polygon class="c" points="752.77 126.2 735.32 95.98 717.87 126.2 752.77 126.2"/><path class="d" d="M396.55,466.23V540c0,11.24,8.3,20.35,18.54,20.35h941.86c5.12,0,9.27-4.56,9.27-10.18V495.51" transform="translate(-275.9 -375.16)"/><polygon class="e" points="1107.76 125.46 1090.31 95.23 1072.86 125.46 1107.76 125.46"/><path class="f" d="M1170.3,624V590.94a11.9,11.9,0,0,0-12-11.8H402.54a23.81,23.81,0,0,1-24-23.61V466.23" transform="translate(-275.9 -375.16)"/><polygon class="g" points="911.85 243.77 894.4 274 876.95 243.77 911.85 243.77"/></svg>