<svg xmlns="http://www.w3.org/2000/svg" viewBox="0 0 133.23 101.4"><defs><style>.a,.b{fill:#e0f2f3;}.b,.c{stroke:#6acad1;stroke-miterlimit:10;stroke-width:2.5px;}.c{fill:#fff;}.d{fill:#d3d5db;}.e{fill:#f29134;}.e,.f{fill-rule:evenodd;}.f{fill:#0d3c53;}</style></defs><title>learning</title><circle class="a" cx="66.45" cy="50.7" r="50.7"/><path class="b" d="M552.05,477.44a1.23,1.23,0,0,0-1.3-1H446.85c-.7,0-1.3.4-1.3,1l-11.27,44.2a1.23,1.23,0,0,0,1.3,1l56.1-1.3v1a1.32,1.32,0,0,0,1.3,1.3h13.3a1.32,1.32,0,0,0,1.3-1.3v-1l56.1,1.3c.7,0,1.3-.4,1.3-1Z" transform="translate(-433 -449.04)"/><path class="c" d="M498.45,517.84s-9.1-.5-18.7-.5-30.4,1.8-30.4,1.8a1.23,1.23,0,0,1-1-1.3l12.5-36.2c0-.7.4-1.3,1-1.3,0,0,11.7-5.7,23.2-5.7s14.4,6.3,14.4,7v35A1.12,1.12,0,0,1,498.45,517.84Z" transform="translate(-433 -449.04)"/><path class="c" d="M498.15,517.24a49.84,49.84,0,0,0-21.3-4.5c-12.7,0-35.8,5.7-35.8,5.7a1.32,1.32,0,0,1-1.3-1.3l9.1-36.2a1.32,1.32,0,0,1,1.3-1.3s15.3-7.4,30.4-7.4,18.9,8,18.9,8.7v35A1.32,1.32,0,0,1,498.15,517.24Zm2.3.6,49.2,1.3a1.23,1.23,0,0,0,1-1.3l-12.5-36.2c0-.7-.4-1.3-1-1.3,0,0-11.7-5.7-23.2-5.7s-14.4,6.3-14.4,7v35a1,1,0,0,0,.78,1.18Z" transform="translate(-433 -449.04)"/><path class="c" d="M500.75,517.24a57.62,57.62,0,0,1,21.3-3.8c12.7,0,35.8,5.1,35.8,5.1a1.32,1.32,0,0,0,1.3-1.3l-9.1-36.2a1.32,1.32,0,0,0-1.3-1.3s-15.3-7.4-30.4-7.4-18.9,8-18.9,8.7v35A1.31,1.31,0,0,0,500.75,517.24Z" transform="translate(-433 -449.04)"/><ellipse class="d" cx="37.85" cy="48.35" rx="15.66" ry="3.5"/><ellipse class="d" cx="94.68" cy="48.35" rx="15.66" ry="3.5"/><path class="e" d="M463.46,484.2a3.39,3.39,0,1,1,3.65-3.1,3.38,3.38,0,0,1-3.65,3.1m7.76,10.18a2.27,2.27,0,1,1,2.45-2.08A2.28,2.28,0,0,1,471.22,494.38Zm8-8.64a2.52,2.52,0,1,1,2.72-2.31A2.52,2.52,0,0,1,479.27,485.74Zm-.89,2.79-.68.81a6.64,6.64,0,0,1-1.23-.51l.11-1a5.64,5.64,0,0,1-1.15-1l-.9.29-.8-1.27.72-.59a5.62,5.62,0,0,1-.38-1.58l-.95-.29h0l.12-1.41h0l1-.16a5.32,5.32,0,0,1,.62-1.42l-.55-.88h0l.61-.73.33-.31.91.47a6,6,0,0,1,1.2-.71l0-1a6.38,6.38,0,0,1,1.39-.31l.47.91a4.85,4.85,0,0,1,.66,0,5,5,0,0,1,.69.11l.64-.82a6.88,6.88,0,0,1,1.42.6l-.2,1a6,6,0,0,1,1,.87l1-.3a6.37,6.37,0,0,1,.78,1.27l-.74.65a5.46,5.46,0,0,1,.37,1.52l1,.3a5.53,5.53,0,0,1-.12,1.47l-1,.1a5.39,5.39,0,0,1-.55,1.36l.57.86c-.07.11-.15.21-.22.31l-.73.79h0l-.87-.49a5.54,5.54,0,0,1-1.25.77l0,1a6.43,6.43,0,0,1-1.31.32l-.51-.9a5,5,0,0,1-.77,0A4.77,4.77,0,0,1,478.38,488.53ZM462.27,488l-.92,1.07a7.93,7.93,0,0,1-1.65-.67l.15-1.37a7.27,7.27,0,0,1-1.55-1.32l-1.21.39-1.07-1.7,1-.8a7.09,7.09,0,0,1-.51-2.11l-1.28-.39h0l.16-1.89h0l1.35-.21a7.27,7.27,0,0,1,.82-1.92l-.73-1.17h0l.82-1,.44-.42,1.22.63a7.38,7.38,0,0,1,1.61-.94l0-1.37a8.2,8.2,0,0,1,1.87-.42l.62,1.22a6.76,6.76,0,0,1,.9,0,7,7,0,0,1,.92.13l.85-1.09a8.78,8.78,0,0,1,1.91.81l-.27,1.32a7.7,7.7,0,0,1,1.37,1.17l1.32-.4a8.75,8.75,0,0,1,1.05,1.7l-1,.87a7.35,7.35,0,0,1,.5,2l1.29.4c0,.33,0,.65,0,1s-.08.68-.14,1l-1.33.13a6.78,6.78,0,0,1-.75,1.82l.77,1.16c-.1.14-.19.28-.3.41l-.48.53a6.53,6.53,0,0,1,.77-.14l.42.82c.2,0,.39,0,.6,0a6.17,6.17,0,0,1,.62.09l.57-.73a5.82,5.82,0,0,1,1.28.55l-.18.88a4.62,4.62,0,0,1,.91.79l.89-.27a5.14,5.14,0,0,1,.7,1.14l-.67.58a4.83,4.83,0,0,1,.34,1.37l.87.27c0,.22,0,.43,0,.66a5.16,5.16,0,0,1-.1.67l-.88.08a4.74,4.74,0,0,1-.5,1.23l.51.77a2.83,2.83,0,0,1-.2.28l-.65.71h0l-.79-.44a4.76,4.76,0,0,1-1.12.69l0,.93a5.09,5.09,0,0,1-1.18.29l-.45-.81a5.45,5.45,0,0,1-.7,0,5.58,5.58,0,0,1-.59-.09l-.61.72a5.38,5.38,0,0,1-1.11-.45l.1-.92a5.11,5.11,0,0,1-1-.88l-.81.26-.72-1.14.65-.54a4.76,4.76,0,0,1-.33-1.41l-.87-.26h0l.11-1.27h0l.9-.14a5.14,5.14,0,0,1,.56-1.29l-.49-.79h0l.55-.65.29-.29.82.43a5.12,5.12,0,0,1,1.08-.64l0-.52h0l-1.17-.66a7.37,7.37,0,0,1-1.67,1l-.05,1.39a8.8,8.8,0,0,1-1.77.43l-.68-1.21a7.23,7.23,0,0,1-1,0A6.08,6.08,0,0,1,462.27,488Z" transform="translate(-433 -449.04)"/><path class="f" d="M538.43,483.26v10a21.7,21.7,0,0,1-20.65,0v-10L528.2,490Zm1.26,10.32h1.76v-3.25h-.54v-8.21l-.68.37v7.84h-.54ZM514.6,480l13.89-7.71,13.11,7.57-13.4,8.87Z" transform="translate(-433 -449.04)"/></svg>