<svg xmlns="http://www.w3.org/2000/svg" viewBox="0 0 633.5 292.14"><defs><style>.a{fill:#d8d8d8;}</style></defs><title>logic</title><path class="a" d="M604,439.5H387.1a17.05,17.05,0,0,1-11.75-4.6c-8.35-7.86-20-12.9-32.69-14.19l-2.55-.26V238.84H483.68a3.88,3.88,0,0,0,3.1-1.56l18.15-24.46a3.57,3.57,0,0,0,0-4.28l-18.15-24.47a3.88,3.88,0,0,0-3.1-1.56H340.12V157.29a4.15,4.15,0,0,0-3.85-4.26,4,4,0,0,0-4.1,4V273.17H188.61a3.88,3.88,0,0,0-3.1,1.56L167.36,299.2a3.57,3.57,0,0,0,0,4.28l18.15,24.46a3.88,3.88,0,0,0,3.1,1.56H332.17v91l-2.55.26c-12.73,1.29-24.34,6.33-32.69,14.19a17,17,0,0,1-11.75,4.6H-29.5v-5.67H285.19a11.4,11.4,0,0,0,7.86-3.05c8.69-8.18,20.49-13.59,33.45-15.39V335.17H188.61a9.57,9.57,0,0,1-7.66-3.85L162.8,306.86a9.21,9.21,0,0,1,0-11L181,271.36a9.57,9.57,0,0,1,7.66-3.85H326.5V157a9.64,9.64,0,0,1,9.94-9.64,9.86,9.86,0,0,1,9.35,9.92v19.55H483.68a9.57,9.57,0,0,1,7.66,3.85l18.15,24.47a9.21,9.21,0,0,1,0,11l-18.15,24.46a9.57,9.57,0,0,1-7.66,3.85H345.79V415.39c13,1.8,24.77,7.21,33.45,15.39a11.4,11.4,0,0,0,7.86,3.05H604Z" transform="translate(29.5 -147.36)"/></svg>