<svg xmlns="http://www.w3.org/2000/svg" viewBox="0 0 204.95 92.8"><defs><style>.a{fill:#c3e9ec;}.b{fill:#66727b;}.c{fill:#333;}.d{fill:#d91800;}.e{fill:#fed336;}.f{fill:#fff;stroke:#c3e9ec;stroke-linecap:round;stroke-linejoin:round;stroke-width:2.5px;}.g{fill:#f05234;}.h{fill:none;stroke:#f05234;stroke-miterlimit:10;stroke-width:3px;}</style></defs><title>monitoring</title><rect class="a" x="183.04" y="47.43" width="10.57" height="5.34"/><rect class="a" x="179.53" y="33.25" width="5.34" height="18.62"/><path class="b" d="M480.45,335.44a10.38,10.38,0,0,1,10.38-10.38v20.76A10.38,10.38,0,0,1,480.45,335.44Z" transform="translate(-287.96 -285.34)"/><path class="b" d="M465.89,317.9a4.5,4.5,0,1,0,5-3.9A4.5,4.5,0,0,0,465.89,317.9Z" transform="translate(-287.96 -285.34)"/><rect class="c" x="201.58" y="38.84" width="3.37" height="22.53" rx="0.86" ry="0.86"/><path class="b" d="M471.46,308.1a6.59,6.59,0,1,0,4.76-8A6.59,6.59,0,0,0,471.46,308.1Z" transform="translate(-287.96 -285.34)"/><path class="b" d="M435.12,317.52c.88,3.43,2.95,5.86,4.63,5.44s2.34-3.56,1.46-7-2.94-5.86-4.62-5.44S434.25,314.09,435.12,317.52Z" transform="translate(-287.96 -285.34)"/><rect class="c" x="439.51" y="307.87" width="16.76" height="12.82" transform="translate(-351.57 -165.36) rotate(-14.26)"/><path class="a" d="M451.25,322.63a2.1,2.1,0,0,0,2,.7L482,316.05a1.3,1.3,0,0,0,.93-1.56l-4.59-18.06a1.28,1.28,0,0,0-1.56-.93L439.32,305a.79.79,0,0,0-.46,1.34Z" transform="translate(-287.96 -285.34)"/><path class="a" d="M438.15,323.36a1.21,1.21,0,0,0,1.46.87l2.32-.59a1.21,1.21,0,0,0,.86-1.46l-3.15-12.42a1.2,1.2,0,0,0-1.46-.86l-2.32.58a1.2,1.2,0,0,0-.86,1.46Z" transform="translate(-287.96 -285.34)"/><path class="d" d="M442.63,307.22a1.37,1.37,0,1,0,1-1.66A1.36,1.36,0,0,0,442.63,307.22Z" transform="translate(-287.96 -285.34)"/><path class="b" d="M466.26,315a1.38,1.38,0,0,0,1.67,1,1.37,1.37,0,1,0-1.67-1Z" transform="translate(-287.96 -285.34)"/><path class="b" d="M462.86,315.85a1.36,1.36,0,0,0,1.66,1,1.37,1.37,0,1,0-1.66-1Z" transform="translate(-287.96 -285.34)"/><path class="e" d="M472.29,311.08h5.37a1.29,1.29,0,0,1,1.29,1.29v.79a1.29,1.29,0,0,1-1.29,1.29h-5.37a1.29,1.29,0,0,1-1.29-1.29v-.8A1.28,1.28,0,0,1,472.29,311.08Z" transform="translate(-350.36 -158.73) rotate(-14.26)"/><path class="b" d="M465.66,335.3a4.5,4.5,0,1,0,4.5-4.5A4.51,4.51,0,0,0,465.66,335.3Z" transform="translate(-287.96 -285.34)"/><path class="f" d="M292.53,295.14l60.71-8.55,11.44,81.26L304,376.4Zm11.32,12.14,41.79-5.88m-40.19,17.37,41.79-5.92m-40.17,17.41,41.78-5.89m-40.16,17.37,41.79-5.89m-40.17,17.37,27.33-3.85" transform="translate(-287.96 -285.34)"/><path class="f" d="M337.77,286.6l60.71,8.53-11.43,81.3-60.7-8.53Zm7.52,14.79,41.79,5.87m-43.41,5.59,41.79,5.87m-43.4,5.61,41.79,5.91m-43.4,5.61,41.78,5.87m-43.38,5.62,27.33,3.84" transform="translate(-287.96 -285.34)"/><path class="f" d="M314.66,294.79H376v82.1h-61.3Zm9.49,13.61h42.2M324.14,320h42.2m-42.2,11.58h42.2M324.13,343.2h42.2m-42.2,11.65h27.6" transform="translate(-287.96 -285.34)"/><path class="g" d="M304.71,345.85l-3.4,1-.63-2.15,9.37-2.73.62,2.16-3.4,1,2.68,9.19-2.57.74Z" transform="translate(-287.96 -285.34)"/><path class="g" d="M310.47,349.46a4.59,4.59,0,1,1,5.72,3.24,4.53,4.53,0,0,1-5.66-3Zm6.19-1.8c-.43-1.5-1.32-2.29-2.5-2s-1.5,1.48-1.06,3,1.31,2.28,2.49,1.94S317.09,349.15,316.66,347.66Z" transform="translate(-287.96 -285.34)"/><path class="g" d="M319.21,342.23l2.09-.61.44.82h.11a4.14,4.14,0,0,1,2.25-1.84c2.16-.63,4,.72,4.74,3.39.86,3-.45,5.18-2.39,5.75a3.21,3.21,0,0,1-2.39-.32H324l.52,1.36.74,2.53-2.56.75Zm7,2.53c-.45-1.55-1.19-2.17-2.27-1.85a2.2,2.2,0,0,0-1.36,1.26l1,3.48a2.35,2.35,0,0,0,1.65.15c.93-.28,1.48-1.25,1-3Z" transform="translate(-287.96 -285.34)"/><path class="g" d="M340.05,344l1-2.19a5.11,5.11,0,0,0,3.36.31c1.09-.32,1.47-.89,1.31-1.44-.24-.82-1-.82-2.17-1l-1.66-.2a3.44,3.44,0,0,1-3.31-2.39c-.54-1.88.71-3.87,3.18-4.59a5.72,5.72,0,0,1,4.2.39l-.83,2a4.29,4.29,0,0,0-2.87-.12c-.84.24-1.31.76-1.12,1.43s1,.7,2.23.8l1.56.18c1.65.13,2.86.78,3.32,2.38.55,1.89-.55,4-3.36,4.8A6.8,6.8,0,0,1,340.05,344Z" transform="translate(-287.96 -285.34)"/><path class="g" d="M348.85,338.29a4.59,4.59,0,0,1,3-5.77l.21-.06a4,4,0,0,1,5.11,2.42,3.83,3.83,0,0,1,.16.58,9.46,9.46,0,0,1,.23,1.18l-6.56,1.9-.49-1.71,4.81-1.4-.26.6c-.4-1.38-1.21-1.94-2.35-1.61s-1.83,1.43-1.35,3.14a2.45,2.45,0,0,0,3.41,1.81,5.1,5.1,0,0,0,2.05-1.24l1.29,1.29a6.92,6.92,0,0,1-3.12,2C352.26,342.21,349.69,341.16,348.85,338.29Z" transform="translate(-287.96 -285.34)"/><path class="g" d="M358.62,335.46c-.83-2.88,1-5.21,3.68-6a4.9,4.9,0,0,1,3.57.24l-.71,1.93a3.28,3.28,0,0,0-2.12-.14,2.46,2.46,0,0,0-1.88,2.93,2,2,0,0,0,.08.26,2.4,2.4,0,0,0,2.88,1.82l.26-.07a4.16,4.16,0,0,0,2-1.48l1.5,1.32a5.9,5.9,0,0,1-3.18,2.3C362,339.37,359.46,338.32,358.62,335.46Z" transform="translate(-287.96 -285.34)"/><path class="g" d="M366.72,328.41l2.13-.56.75,1.83h.06a4.15,4.15,0,0,1,2.89-3.11,3.88,3.88,0,0,1,1.76-.14l.11,2.31a4.59,4.59,0,0,0-1.61.19,3.34,3.34,0,0,0-2.3,2.95l1.34,4.42-2.57.75Z" transform="translate(-287.96 -285.34)"/><path class="g" d="M375.44,330.56a4.59,4.59,0,0,1,3-5.77l.21-.06a4,4,0,0,1,5.11,2.42,3.83,3.83,0,0,1,.16.58,9.46,9.46,0,0,1,.23,1.18l-6.56,1.9-.49-1.71,4.81-1.4-.26.6c-.4-1.39-1.21-1.94-2.35-1.61s-1.85,1.47-1.35,3.18a2.46,2.46,0,0,0,3.41,1.81,5.14,5.14,0,0,0,2-1.24l1.29,1.29a6.92,6.92,0,0,1-3.12,2C378.85,334.48,376.28,333.43,375.44,330.56Z" transform="translate(-287.96 -285.34)"/><path class="g" d="M386.6,328.12l-.89-3-2.18.63-.55-1.9,2.26-.77-.39-2.79,2.12-.61.77,2.64,3.64-1.06.58,2-3.64,1.06.88,3a1.6,1.6,0,0,0,1.73,1.46,1.65,1.65,0,0,0,.61-.18,5.22,5.22,0,0,0,1.62-.8l1,1.72a10.08,10.08,0,0,1-2.74,1.33C388.67,331.62,387.25,330.39,386.6,328.12Z" transform="translate(-287.96 -285.34)"/><rect class="h" x="289.21" y="326" width="116.06" height="23.59" rx="5.18" ry="5.18" transform="translate(-368.46 -174.98) rotate(-16.21)"/></svg>