<svg xmlns="http://www.w3.org/2000/svg" viewBox="0 0 405 405"><defs><style>.a{fill:#6cbdc4;}.Icon{fill:#fff;}</style></defs><title>newrepo</title><circle class="a" cx="202.5" cy="202.5" r="202.5"/><path class="Icon" d="M580.36,477.32,619.5,455.6l-8.67-4.68L539.42,412l-39.37,21.47-40.47-22L379.5,455l8.52,4.84,31.24,17.36-.38.14h-.08v.08l-38.6,21,38.6,20.78v52.19l80.7,40.16,80.62-40.16v-52l39-20.94Zm-40.94-53.05,57.66,31.41-28,15.56L510.83,439.9ZM401.84,455.13l57.74-31.4,28.6,15.54-58.45,31.41Zm1,43.21,28.6-15.54,58.2,31.47-28.44,15.41Zm26.8,66.34V525l31.64,17,32.8-18.19v72.95Zm139.68,0-64.45,32.09V523.65L537.94,542l31.4-16.88Zm27-66.34L538,529.68l-28-15.41,57.73-31.47Zm0,0" transform="translate(-297 -297)"/></svg>