<svg xmlns="http://www.w3.org/2000/svg" viewBox="0 0 375.12 392.23"><defs><style>.a{fill:#9b9b9b;}.a,.b,.c,.d{fill-rule:evenodd;}.b{fill:#35ad60;}.c{fill:#fa5c3a;}.d{fill:#25a9b4;}.e{fill:#194a68;}.f{fill:#fff;}.g{fill:none;stroke:#c9c2e1;stroke-miterlimit:10;}.h{fill:#c9c2e1;}</style></defs><title>onebuild</title><path class="a" d="M432.22,647.55H501a6.45,6.45,0,0,1,6.43,6.43v68.82a6.45,6.45,0,0,1-6.43,6.42H432.22a6.44,6.44,0,0,1-6.42-6.42V654A6.44,6.44,0,0,1,432.22,647.55Z" transform="translate(-280.58 -352.1)"/><path class="b" d="M432.22,368.57H501a6.45,6.45,0,0,1,6.43,6.43v68.82a6.45,6.45,0,0,1-6.43,6.42H432.22a6.44,6.44,0,0,1-6.42-6.42V375A6.44,6.44,0,0,1,432.22,368.57Z" transform="translate(-280.58 -352.1)"/><path class="c" d="M287,368.57h68.83a6.45,6.45,0,0,1,6.43,6.43v68.82a6.45,6.45,0,0,1-6.43,6.42H287a6.44,6.44,0,0,1-6.42-6.42V375A6.44,6.44,0,0,1,287,368.57Z" transform="translate(-280.58 -352.1)"/><path class="d" d="M577.45,368.57h68.83A6.45,6.45,0,0,1,652.7,375v68.82a6.45,6.45,0,0,1-6.43,6.42H577.45a6.44,6.44,0,0,1-6.42-6.42V375A6.44,6.44,0,0,1,577.45,368.57Z" transform="translate(-280.58 -352.1)"/><rect class="e" x="108.28" y="172.72" width="155.57" height="59" rx="10.85" ry="10.85"/><path class="f" d="M413,547.89a4,4,0,0,0-3.46,1.68,7.8,7.8,0,0,0-1.22,4.67q0,6.24,4.68,6.24a14.8,14.8,0,0,0,4.76-1v3.32a13.2,13.2,0,0,1-5.13,1,7.82,7.82,0,0,1-6.22-2.47q-2.16-2.47-2.16-7.08a11.56,11.56,0,0,1,1.06-5.09,7.65,7.65,0,0,1,3-3.35A9,9,0,0,1,413,544.6a12.56,12.56,0,0,1,5.46,1.31l-1.28,3.21a20.87,20.87,0,0,0-2.1-.87A6.27,6.27,0,0,0,413,547.89Z" transform="translate(-280.58 -352.1)"/><path class="f" d="M432.76,556.36a7.66,7.66,0,0,1-1.84,5.44,6.66,6.66,0,0,1-5.11,2,7.15,7.15,0,0,1-3.62-.9,6,6,0,0,1-2.41-2.58,8.69,8.69,0,0,1-.84-3.93,7.62,7.62,0,0,1,1.82-5.43,6.7,6.7,0,0,1,5.13-1.94,7.2,7.2,0,0,1,3.62.89,6,6,0,0,1,2.41,2.56A8.59,8.59,0,0,1,432.76,556.36Zm-9.86,0a6,6,0,0,0,.7,3.2,2.49,2.49,0,0,0,2.26,1.08,2.45,2.45,0,0,0,2.24-1.08,6.08,6.08,0,0,0,.68-3.21,5.89,5.89,0,0,0-.69-3.18,2.93,2.93,0,0,0-4.5,0A5.87,5.87,0,0,0,422.9,556.36Z" transform="translate(-280.58 -352.1)"/><path class="f" d="M447.57,563.51h-3.89v-8.33a4,4,0,0,0-.55-2.31,2,2,0,0,0-1.75-.77,2.63,2.63,0,0,0-2.36,1.09,6.76,6.76,0,0,0-.73,3.62v6.71h-3.89V549.26h3l.52,1.82h.22a4.11,4.11,0,0,1,1.79-1.56,6.1,6.1,0,0,1,2.59-.53,5,5,0,0,1,3.77,1.35,5.4,5.4,0,0,1,1.29,3.88Z" transform="translate(-280.58 -352.1)"/><path class="f" d="M457.88,552.18h-3.37v11.34h-3.89V552.18h-2.14V550.3l2.14-1v-1a4.67,4.67,0,0,1,1.2-3.56,5.49,5.49,0,0,1,3.84-1.12,10,10,0,0,1,3.58.6l-1,2.86a7.27,7.27,0,0,0-2.17-.37,1.4,1.4,0,0,0-1.2.49,2,2,0,0,0-.37,1.26v.89h3.37Zm2.07-6.61q0-1.9,2.12-1.9t2.12,1.9a1.85,1.85,0,0,1-.53,1.41,2.22,2.22,0,0,1-1.59.5Q459.95,547.49,460,545.57ZM464,563.51h-3.89V549.26H464Z" transform="translate(-280.58 -352.1)"/><path class="f" d="M479.44,549.26v2l-2.23.57a3.9,3.9,0,0,1,.61,2.14,4.33,4.33,0,0,1-1.6,3.58,6.94,6.94,0,0,1-4.44,1.28l-.7,0-.57-.06a1.3,1.3,0,0,0-.6,1q0,.84,2.14.84h2.42a5.53,5.53,0,0,1,3.58,1,3.6,3.6,0,0,1,1.23,3,4.39,4.39,0,0,1-2.08,3.88,10.86,10.86,0,0,1-6,1.38,8.29,8.29,0,0,1-4.56-1,3.3,3.3,0,0,1-1.58-2.91,3.05,3.05,0,0,1,.8-2.16,4.57,4.57,0,0,1,2.36-1.24,2.6,2.6,0,0,1-1-.83,2.05,2.05,0,0,1,0-2.59,5.46,5.46,0,0,1,1.36-1.06,3.83,3.83,0,0,1-1.78-1.56,4.73,4.73,0,0,1-.66-2.53,4.45,4.45,0,0,1,1.52-3.61A6.57,6.57,0,0,1,472,549a11.1,11.1,0,0,1,1.42.11q.82.11,1.05.16Zm-11,16.27a1.41,1.41,0,0,0,.77,1.26,4.24,4.24,0,0,0,2.16.46,7.67,7.67,0,0,0,3.28-.57,1.75,1.75,0,0,0,1.19-1.57,1.11,1.11,0,0,0-.7-1.11,5.77,5.77,0,0,0-2.17-.31h-2a3.05,3.05,0,0,0-1.79.5A1.55,1.55,0,0,0,468.43,565.53Zm1.42-11.6a2.9,2.9,0,0,0,.53,1.84,1.92,1.92,0,0,0,1.61.68,1.88,1.88,0,0,0,1.61-.68,3,3,0,0,0,.51-1.84q0-2.58-2.12-2.58T469.85,553.93Z" transform="translate(-280.58 -352.1)"/><path class="f" d="M496.32,563.51h-3.94v-8H485v8h-4V544.87h4v7.31h7.38v-7.31h3.94Z" transform="translate(-280.58 -352.1)"/><path class="f" d="M508.73,563.51l-.52-1.82H508a4.1,4.1,0,0,1-1.77,1.54,6.05,6.05,0,0,1-2.61.54,5,5,0,0,1-3.79-1.34,5.41,5.41,0,0,1-1.28-3.87v-9.3h3.89v8.33a4,4,0,0,0,.55,2.31,2,2,0,0,0,1.75.77,2.63,2.63,0,0,0,2.36-1.09,6.76,6.76,0,0,0,.73-3.62v-6.71h3.89v14.26Z" transform="translate(-280.58 -352.1)"/><path class="f" d="M521.64,549a4.61,4.61,0,0,1,4,2,9,9,0,0,1,1.43,5.4,8.89,8.89,0,0,1-1.47,5.47,5.14,5.14,0,0,1-8,.11h-.27l-.65,1.57h-3V543.67h3.89v4.62q0,.88-.15,2.82h.15A4.5,4.5,0,0,1,521.64,549Zm-1.25,3.11a2.46,2.46,0,0,0-2.1.89,5.08,5.08,0,0,0-.69,2.93v.42a6,6,0,0,0,.68,3.29,2.43,2.43,0,0,0,2.16,1,2.17,2.17,0,0,0,1.91-1.1,6,6,0,0,0,.71-3.21,5.66,5.66,0,0,0-.71-3.16A2.24,2.24,0,0,0,520.39,552.1Z" transform="translate(-280.58 -352.1)"/><line class="g" x1="186.06" y1="172.72" x2="186.06" y2="105.33"/><polygon class="h" points="191.05 106.79 186.06 98.15 181.07 106.79 191.05 106.79"/><polyline class="g" points="331.29 105.33 331.29 202.22 263.85 202.22"/><polygon class="h" points="326.3 106.79 331.29 98.15 336.27 106.79 326.3 106.79"/><polyline class="g" points="40.84 105.33 40.84 202.22 108.28 202.22"/><polygon class="h" points="35.85 106.79 40.84 98.15 45.82 106.79 35.85 106.79"/><path d="M450.08,744.2l-1-2.78h-3.82l-1,2.78h-1.72l3.74-10h1.78l3.74,10ZM448.65,740l-.94-2.72q-.1-.27-.28-.86t-.25-.86a15.33,15.33,0,0,1-.54,1.84l-.9,2.6Z" transform="translate(-280.58 -352.1)"/><path d="M460.46,736.5a2.62,2.62,0,0,1,2.2,1,5.64,5.64,0,0,1,0,5.77,2.91,2.91,0,0,1-4.45,0h-.11l-.29.9h-1.2V733.56h1.61v2.53q0,.28,0,.83t0,.7h.07A2.55,2.55,0,0,1,460.46,736.5Zm-.42,1.31a1.63,1.63,0,0,0-1.4.57,3.33,3.33,0,0,0-.44,1.91v.11a3.53,3.53,0,0,0,.44,2,1.63,1.63,0,0,0,1.43.62,1.45,1.45,0,0,0,1.3-.68,3.59,3.59,0,0,0,.44-2Q461.81,737.81,460,737.81Z" transform="translate(-280.58 -352.1)"/><path d="M470.65,744.2l-.23-1h-.08a2.28,2.28,0,0,1-1,.83,3.19,3.19,0,0,1-1.41.3,2.77,2.77,0,0,1-2.05-.68,2.83,2.83,0,0,1-.68-2.07v-4.94h1.62v4.66a2,2,0,0,0,.36,1.3,1.36,1.36,0,0,0,1.11.43,1.77,1.77,0,0,0,1.49-.61,3.33,3.33,0,0,0,.48-2v-3.77h1.61v7.56Z" transform="translate(-280.58 -352.1)"/><path d="M474.11,734.63a.89.89,0,0,1,.24-.66.92.92,0,0,1,.67-.23.81.81,0,0,1,.9.9.87.87,0,0,1-.24.65.89.89,0,0,1-.66.24.91.91,0,0,1-.67-.24A.87.87,0,0,1,474.11,734.63Zm1.7,9.56h-1.61v-7.56h1.61Z" transform="translate(-280.58 -352.1)"/><path d="M479.72,744.2h-1.61V733.56h1.61Z" transform="translate(-280.58 -352.1)"/><path d="M484.56,744.33a2.63,2.63,0,0,1-2.21-1,5.62,5.62,0,0,1,0-5.77,2.66,2.66,0,0,1,2.23-1,2.61,2.61,0,0,1,2.27,1.1h.08a9.6,9.6,0,0,1-.12-1.29v-2.75h1.61V744.2h-1.26l-.28-1h-.08A2.57,2.57,0,0,1,484.56,744.33ZM485,743a1.75,1.75,0,0,0,1.44-.56,2.94,2.94,0,0,0,.46-1.81v-.23a3.39,3.39,0,0,0-.46-2,1.72,1.72,0,0,0-1.46-.6,1.48,1.48,0,0,0-1.31.69,3.52,3.52,0,0,0-.46,2,3.43,3.43,0,0,0,.44,1.92A1.5,1.5,0,0,0,485,743Z" transform="translate(-280.58 -352.1)"/><path d="M291.5,355.77a2.91,2.91,0,0,1-1,2.4,4.52,4.52,0,0,1-2.92.83h-1v3.74h-1.63v-10h2.88a4.35,4.35,0,0,1,2.81.77A2.75,2.75,0,0,1,291.5,355.77Zm-5,1.86h.87a3.11,3.11,0,0,0,1.85-.44,1.59,1.59,0,0,0,.59-1.37,1.55,1.55,0,0,0-.53-1.29,2.6,2.6,0,0,0-1.64-.42h-1.13Z" transform="translate(-280.58 -352.1)"/><path d="M297.16,355a3.84,3.84,0,0,1,.8.07l-.16,1.5a3,3,0,0,0-.71-.08,2.06,2.06,0,0,0-1.56.63,2.27,2.27,0,0,0-.6,1.63v4h-1.61v-7.56h1.26l.21,1.33h.08a3,3,0,0,1,1-1.07A2.33,2.33,0,0,1,297.16,355Z" transform="translate(-280.58 -352.1)"/><path d="M306.07,358.94a4.13,4.13,0,0,1-1,2.89,3.41,3.41,0,0,1-2.65,1,3.62,3.62,0,0,1-1.87-.48,3.16,3.16,0,0,1-1.25-1.37,4.68,4.68,0,0,1-.44-2.08,4.1,4.1,0,0,1,.94-2.87,3.42,3.42,0,0,1,2.66-1,3.33,3.33,0,0,1,2.6,1.06A4.08,4.08,0,0,1,306.07,358.94Zm-5.5,0q0,2.62,1.93,2.62t1.91-2.62q0-2.59-1.93-2.59A1.64,1.64,0,0,0,301,357,3.41,3.41,0,0,0,300.56,358.94Z" transform="translate(-280.58 -352.1)"/><path d="M310.46,362.87a2.63,2.63,0,0,1-2.21-1,5.62,5.62,0,0,1,0-5.77,2.66,2.66,0,0,1,2.23-1,2.61,2.61,0,0,1,2.27,1.1h.08a9.6,9.6,0,0,1-.12-1.29V352.1h1.61v10.64h-1.26l-.28-1h-.08A2.57,2.57,0,0,1,310.46,362.87Zm.43-1.3a1.75,1.75,0,0,0,1.44-.56,2.94,2.94,0,0,0,.46-1.81V359a3.39,3.39,0,0,0-.46-2,1.72,1.72,0,0,0-1.46-.6,1.48,1.48,0,0,0-1.31.69,3.52,3.52,0,0,0-.46,2,3.43,3.43,0,0,0,.44,1.92A1.5,1.5,0,0,0,310.89,361.58Z" transform="translate(-280.58 -352.1)"/><path d="M322,362.74l-.23-1h-.08a2.28,2.28,0,0,1-1,.83,3.19,3.19,0,0,1-1.41.3,2.77,2.77,0,0,1-2.05-.68,2.83,2.83,0,0,1-.68-2.07v-4.94h1.62v4.66a2,2,0,0,0,.36,1.3,1.36,1.36,0,0,0,1.11.43,1.77,1.77,0,0,0,1.49-.61,3.33,3.33,0,0,0,.48-2v-3.77h1.61v7.56Z" transform="translate(-280.58 -352.1)"/><path d="M328.57,362.87a3.31,3.31,0,0,1-2.61-1,5.08,5.08,0,0,1,0-5.81,3.46,3.46,0,0,1,2.7-1,5.06,5.06,0,0,1,2.15.44l-.49,1.29a4.86,4.86,0,0,0-1.68-.4q-2,0-2,2.6a3.12,3.12,0,0,0,.49,1.91,1.69,1.69,0,0,0,1.43.64,4.11,4.11,0,0,0,2-.53v1.4a3.17,3.17,0,0,1-.92.36A5.5,5.5,0,0,1,328.57,362.87Z" transform="translate(-280.58 -352.1)"/><path d="M335.27,361.58a3.91,3.91,0,0,0,1.18-.18v1.21a3.28,3.28,0,0,1-.69.2,4.79,4.79,0,0,1-.87.08q-2.28,0-2.28-2.41v-4.07h-1v-.71l1.11-.59.55-1.6h1v1.68h2.15v1.22h-2.15v4a1.13,1.13,0,0,0,.29.86A1.06,1.06,0,0,0,335.27,361.58Z" transform="translate(-280.58 -352.1)"/><path d="M337.86,353.17a.89.89,0,0,1,.24-.66.92.92,0,0,1,.67-.23.81.81,0,0,1,.9.9.87.87,0,0,1-.24.65.89.89,0,0,1-.66.24.91.91,0,0,1-.67-.24A.87.87,0,0,1,337.86,353.17Zm1.7,9.56H338v-7.56h1.61Z" transform="translate(-280.58 -352.1)"/><path d="M348.56,358.94a4.13,4.13,0,0,1-1,2.89,3.41,3.41,0,0,1-2.65,1,3.62,3.62,0,0,1-1.87-.48,3.16,3.16,0,0,1-1.25-1.37,4.68,4.68,0,0,1-.44-2.08,4.1,4.1,0,0,1,.94-2.87,3.42,3.42,0,0,1,2.66-1,3.33,3.33,0,0,1,2.6,1.06A4.08,4.08,0,0,1,348.56,358.94Zm-5.5,0q0,2.62,1.93,2.62t1.91-2.62q0-2.59-1.93-2.59a1.64,1.64,0,0,0-1.47.67A3.41,3.41,0,0,0,343.06,358.94Z" transform="translate(-280.58 -352.1)"/><path d="M357.06,362.74h-1.61v-4.65a2,2,0,0,0-.35-1.31,1.36,1.36,0,0,0-1.12-.43,1.78,1.78,0,0,0-1.49.6,3.32,3.32,0,0,0-.47,2v3.77h-1.61v-7.56h1.26l.23,1H352a2.24,2.24,0,0,1,1-.83,3.25,3.25,0,0,1,1.39-.29q2.72,0,2.72,2.77Z" transform="translate(-280.58 -352.1)"/><path d="M458.33,362.74h-1.63v-8.59h-2.94v-1.4h7.51v1.4h-2.94Z" transform="translate(-280.58 -352.1)"/><path d="M465.93,362.87a3.66,3.66,0,0,1-2.76-1,3.9,3.9,0,0,1-1-2.83,4.28,4.28,0,0,1,.92-2.91,3.19,3.19,0,0,1,2.54-1.06,3.11,3.11,0,0,1,2.37.91,3.48,3.48,0,0,1,.87,2.5v.87h-5a2.48,2.48,0,0,0,.59,1.69,2.07,2.07,0,0,0,1.58.59,5.79,5.79,0,0,0,1.25-.13,6.48,6.48,0,0,0,1.24-.42v1.31a4.94,4.94,0,0,1-1.19.4A7.32,7.32,0,0,1,465.93,362.87Zm-.29-6.62a1.62,1.62,0,0,0-1.23.49,2.31,2.31,0,0,0-.55,1.42h3.43a2.09,2.09,0,0,0-.45-1.42A1.54,1.54,0,0,0,465.64,356.26Z" transform="translate(-280.58 -352.1)"/><path d="M475.77,360.58a2,2,0,0,1-.81,1.7,3.86,3.86,0,0,1-2.31.59,5.45,5.45,0,0,1-2.43-.46V361a6,6,0,0,0,2.48.62q1.48,0,1.48-.9a.71.71,0,0,0-.16-.48,1.94,1.94,0,0,0-.54-.4,9.21,9.21,0,0,0-1-.46,4.84,4.84,0,0,1-1.77-1,1.87,1.87,0,0,1-.46-1.31,1.72,1.72,0,0,1,.78-1.51,3.71,3.71,0,0,1,2.13-.54,6,6,0,0,1,2.52.54l-.52,1.21a5.62,5.62,0,0,0-2.06-.51q-1.27,0-1.27.72a.73.73,0,0,0,.33.6,7.3,7.3,0,0,0,1.45.68,6.61,6.61,0,0,1,1.36.66,2,2,0,0,1,.63.69A2,2,0,0,1,475.77,360.58Z" transform="translate(-280.58 -352.1)"/><path d="M480.33,361.58a3.91,3.91,0,0,0,1.18-.18v1.21a3.28,3.28,0,0,1-.69.2,4.79,4.79,0,0,1-.87.08q-2.28,0-2.28-2.41v-4.07h-1v-.71l1.11-.59.55-1.6h1v1.68h2.15v1.22h-2.15v4a1.13,1.13,0,0,0,.29.86A1.06,1.06,0,0,0,480.33,361.58Z" transform="translate(-280.58 -352.1)"/><path d="M574.59,357.65a5,5,0,0,1-1.37,3.78,5.52,5.52,0,0,1-4,1.31h-2.8v-10h3.09a5.12,5.12,0,0,1,3.71,1.29A4.8,4.8,0,0,1,574.59,357.65Zm-1.72.05q0-3.59-3.36-3.59H568.1v7.25h1.16Q572.87,361.36,572.87,357.7Z" transform="translate(-280.58 -352.1)"/><path d="M579.87,362.87a3.66,3.66,0,0,1-2.76-1,3.9,3.9,0,0,1-1-2.83,4.28,4.28,0,0,1,.92-2.91,3.19,3.19,0,0,1,2.54-1.06,3.11,3.11,0,0,1,2.37.91,3.48,3.48,0,0,1,.87,2.5v.87h-5a2.48,2.48,0,0,0,.59,1.69,2.07,2.07,0,0,0,1.58.59,5.78,5.78,0,0,0,1.25-.13,6.49,6.49,0,0,0,1.24-.42v1.31a5,5,0,0,1-1.19.4A7.33,7.33,0,0,1,579.87,362.87Zm-.29-6.62a1.62,1.62,0,0,0-1.23.49,2.31,2.31,0,0,0-.55,1.42h3.43a2.1,2.1,0,0,0-.45-1.42A1.54,1.54,0,0,0,579.58,356.26Z" transform="translate(-280.58 -352.1)"/><path d="M586.36,362.74l-2.87-7.56h1.7l1.54,4.4a8.75,8.75,0,0,1,.48,1.79h.05a12,12,0,0,1,.48-1.79l1.54-4.4H591l-2.88,7.56Z" transform="translate(-280.58 -352.1)"/><path d="M595.43,362.87a3.66,3.66,0,0,1-2.76-1,3.9,3.9,0,0,1-1-2.83,4.28,4.28,0,0,1,.92-2.91,3.19,3.19,0,0,1,2.54-1.06,3.11,3.11,0,0,1,2.37.91,3.48,3.48,0,0,1,.87,2.5v.87h-5a2.48,2.48,0,0,0,.59,1.69,2.07,2.07,0,0,0,1.58.59,5.78,5.78,0,0,0,1.25-.13,6.49,6.49,0,0,0,1.24-.42v1.31a5,5,0,0,1-1.19.4A7.33,7.33,0,0,1,595.43,362.87Zm-.29-6.62a1.62,1.62,0,0,0-1.23.49,2.31,2.31,0,0,0-.55,1.42h3.43a2.1,2.1,0,0,0-.45-1.42A1.54,1.54,0,0,0,595.13,356.26Z" transform="translate(-280.58 -352.1)"/><path d="M601.8,362.74h-1.61V352.1h1.61Z" transform="translate(-280.58 -352.1)"/><path d="M610.8,358.94a4.13,4.13,0,0,1-1,2.89,3.41,3.41,0,0,1-2.65,1,3.62,3.62,0,0,1-1.87-.48,3.15,3.15,0,0,1-1.25-1.37,4.68,4.68,0,0,1-.44-2.08,4.1,4.1,0,0,1,.94-2.87,3.42,3.42,0,0,1,2.66-1,3.33,3.33,0,0,1,2.6,1.06A4.08,4.08,0,0,1,610.8,358.94Zm-5.5,0q0,2.62,1.93,2.62t1.91-2.62q0-2.59-1.93-2.59a1.65,1.65,0,0,0-1.47.67A3.41,3.41,0,0,0,605.3,358.94Z" transform="translate(-280.58 -352.1)"/><path d="M616.48,362.87a2.65,2.65,0,0,1-2.23-1h-.1q.1,1,.1,1.16v3.1h-1.61V355.18h1.3q.05.21.23,1h.08a2.52,2.52,0,0,1,2.26-1.15,2.62,2.62,0,0,1,2.2,1,5.62,5.62,0,0,1,0,5.77A2.65,2.65,0,0,1,616.48,362.87Zm-.39-6.52a1.67,1.67,0,0,0-1.4.56,2.91,2.91,0,0,0-.44,1.79v.24a3.53,3.53,0,0,0,.44,2,1.62,1.62,0,0,0,1.43.62,1.45,1.45,0,0,0,1.29-.68,3.53,3.53,0,0,0,.45-1.95,3.41,3.41,0,0,0-.45-1.92A1.49,1.49,0,0,0,616.09,356.35Z" transform="translate(-280.58 -352.1)"/><path d="M627.74,362.74h-1.61v-4.66a2.11,2.11,0,0,0-.33-1.29,1.21,1.21,0,0,0-1-.43,1.56,1.56,0,0,0-1.36.61,3.55,3.55,0,0,0-.43,2v3.77h-1.61v-7.56h1.26l.23,1h.08a2.09,2.09,0,0,1,.91-.83,2.94,2.94,0,0,1,1.32-.29,2.3,2.3,0,0,1,2.31,1.19h.11a2.3,2.3,0,0,1,.94-.87,3,3,0,0,1,1.39-.31,2.54,2.54,0,0,1,2,.68,3,3,0,0,1,.62,2.08v4.93h-1.61v-4.66a2.09,2.09,0,0,0-.33-1.29,1.22,1.22,0,0,0-1-.43,1.6,1.6,0,0,0-1.37.58,3,3,0,0,0-.43,1.79Z" transform="translate(-280.58 -352.1)"/><path d="M638.06,362.87a3.66,3.66,0,0,1-2.76-1,3.9,3.9,0,0,1-1-2.83,4.28,4.28,0,0,1,.92-2.91,3.19,3.19,0,0,1,2.54-1.06,3.11,3.11,0,0,1,2.37.91,3.48,3.48,0,0,1,.87,2.5v.87h-5a2.48,2.48,0,0,0,.59,1.69,2.07,2.07,0,0,0,1.58.59,5.78,5.78,0,0,0,1.25-.13,6.49,6.49,0,0,0,1.24-.42v1.31a5,5,0,0,1-1.19.4A7.33,7.33,0,0,1,638.06,362.87Zm-.29-6.62a1.62,1.62,0,0,0-1.23.49,2.31,2.31,0,0,0-.55,1.42h3.43a2.1,2.1,0,0,0-.45-1.42A1.54,1.54,0,0,0,637.76,356.26Z" transform="translate(-280.58 -352.1)"/><path d="M649.47,362.74h-1.61v-4.65a2,2,0,0,0-.35-1.31,1.36,1.36,0,0,0-1.12-.43,1.78,1.78,0,0,0-1.49.6,3.32,3.32,0,0,0-.47,2v3.77h-1.61v-7.56h1.26l.23,1h.08a2.24,2.24,0,0,1,1-.83,3.25,3.25,0,0,1,1.39-.29q2.72,0,2.72,2.77Z" transform="translate(-280.58 -352.1)"/><path d="M654.53,361.58a3.91,3.91,0,0,0,1.18-.18v1.21a3.27,3.27,0,0,1-.69.2,4.78,4.78,0,0,1-.87.08q-2.28,0-2.28-2.41v-4.07h-1v-.71l1.11-.59.55-1.6h1v1.68h2.15v1.22h-2.15v4a1.13,1.13,0,0,0,.29.86A1.05,1.05,0,0,0,654.53,361.58Z" transform="translate(-280.58 -352.1)"/><path class="f" d="M297.39,407.9l11.45,5.28a3.31,3.31,0,0,1,1,.65,1,1,0,0,1,.3.73,1,1,0,0,1-.27.75,1,1,0,0,1-.76.28,1.72,1.72,0,0,1-.48-.08,5.3,5.3,0,0,1-.75-.31l-12.42-5.8-.16-.06q-1.44-.66-1.44-1.44t1.41-1.41l.19-.09,12.42-5.7a4.83,4.83,0,0,1,.72-.29,1.9,1.9,0,0,1,.52-.09,1,1,0,0,1,.76.27,1,1,0,0,1,.27.72,1.06,1.06,0,0,1-.3.74,3.11,3.11,0,0,1-1,.63Z" transform="translate(-280.58 -352.1)"/><path class="f" d="M318.06,418.21a3.34,3.34,0,0,1-.65,1.06,1,1,0,0,1-.73.28,1.06,1.06,0,0,1-.77-.32,1,1,0,0,1-.33-.77,1.07,1.07,0,0,1,0-.29,3.19,3.19,0,0,1,.13-.35l9.75-21a4.13,4.13,0,0,1,.69-1.1,1,1,0,0,1,.72-.29,1.11,1.11,0,0,1,.8.31,1,1,0,0,1,.33.75,1.18,1.18,0,0,1,0,.28,1.24,1.24,0,0,1-.12.3Z" transform="translate(-280.58 -352.1)"/><path class="f" d="M344.95,407.9l-11.42-5.22a3.24,3.24,0,0,1-1-.65,1,1,0,0,1-.3-.73,1,1,0,0,1,.27-.72,1,1,0,0,1,.74-.27,1.86,1.86,0,0,1,.52.09,5.7,5.7,0,0,1,.73.29l12.42,5.7.19.09q1.41.63,1.41,1.41t-1.37,1.41l-.22.09-12.42,5.8-.06,0a3.41,3.41,0,0,1-1.19.36,1,1,0,0,1-.74-.28,1,1,0,0,1-.27-.75,1,1,0,0,1,.3-.73,3.25,3.25,0,0,1,1-.65Z" transform="translate(-280.58 -352.1)"/><path class="f" d="M443.8,407.9l11.45,5.28a3.31,3.31,0,0,1,1,.65,1,1,0,0,1,.3.73,1,1,0,0,1-.27.75,1,1,0,0,1-.76.28,1.72,1.72,0,0,1-.48-.08,5.3,5.3,0,0,1-.75-.31l-12.42-5.8-.16-.06q-1.44-.66-1.44-1.44t1.41-1.41l.19-.09,12.42-5.7a4.83,4.83,0,0,1,.72-.29,1.9,1.9,0,0,1,.52-.09,1,1,0,0,1,.76.27,1,1,0,0,1,.27.72,1.06,1.06,0,0,1-.3.74,3.11,3.11,0,0,1-1,.63Z" transform="translate(-280.58 -352.1)"/><path class="f" d="M464.47,418.21a3.34,3.34,0,0,1-.65,1.06,1,1,0,0,1-.73.28,1.06,1.06,0,0,1-.77-.32,1,1,0,0,1-.33-.77,1.07,1.07,0,0,1,0-.29,3.19,3.19,0,0,1,.13-.35l9.75-21a4.13,4.13,0,0,1,.69-1.1,1,1,0,0,1,.72-.29,1.11,1.11,0,0,1,.8.31,1,1,0,0,1,.33.75,1.18,1.18,0,0,1,0,.28,1.24,1.24,0,0,1-.12.3Z" transform="translate(-280.58 -352.1)"/><path class="f" d="M491.36,407.9l-11.42-5.22a3.24,3.24,0,0,1-1-.65,1,1,0,0,1-.3-.73,1,1,0,0,1,.27-.72,1,1,0,0,1,.74-.27,1.86,1.86,0,0,1,.52.09,5.7,5.7,0,0,1,.73.29l12.42,5.7.19.09q1.41.63,1.41,1.41t-1.37,1.41l-.22.09-12.42,5.8-.06,0a3.41,3.41,0,0,1-1.19.36,1,1,0,0,1-.74-.28,1,1,0,0,1-.27-.75,1,1,0,0,1,.3-.73,3.25,3.25,0,0,1,1-.65Z" transform="translate(-280.58 -352.1)"/><path class="f" d="M588.67,407.9l11.45,5.28a3.31,3.31,0,0,1,1,.65,1,1,0,0,1,.3.73,1,1,0,0,1-.27.75,1,1,0,0,1-.76.28,1.72,1.72,0,0,1-.48-.08,5.35,5.35,0,0,1-.75-.31l-12.42-5.8-.16-.06q-1.44-.66-1.44-1.44t1.41-1.41l.19-.09,12.42-5.7a4.83,4.83,0,0,1,.72-.29,1.9,1.9,0,0,1,.52-.09,1,1,0,0,1,.76.27,1,1,0,0,1,.27.72,1.06,1.06,0,0,1-.3.74,3.11,3.11,0,0,1-1,.63Z" transform="translate(-280.58 -352.1)"/><path class="f" d="M609.34,418.21a3.34,3.34,0,0,1-.65,1.06,1,1,0,0,1-.73.28,1.06,1.06,0,0,1-.77-.32,1,1,0,0,1-.33-.77,1.07,1.07,0,0,1,0-.29,3.29,3.29,0,0,1,.13-.35l9.75-21a4.14,4.14,0,0,1,.69-1.1,1,1,0,0,1,.72-.29,1.11,1.11,0,0,1,.8.31,1,1,0,0,1,.33.75,1.15,1.15,0,0,1,0,.28,1.24,1.24,0,0,1-.12.3Z" transform="translate(-280.58 -352.1)"/><path class="f" d="M636.23,407.9l-11.42-5.22a3.24,3.24,0,0,1-1-.65,1,1,0,0,1-.3-.73,1,1,0,0,1,.27-.72,1,1,0,0,1,.74-.27,1.86,1.86,0,0,1,.52.09,5.7,5.7,0,0,1,.73.29l12.42,5.7.19.09q1.41.63,1.41,1.41t-1.37,1.41l-.22.09-12.42,5.8-.06,0a3.41,3.41,0,0,1-1.19.36,1,1,0,0,1-.74-.28,1,1,0,0,1-.27-.75,1,1,0,0,1,.3-.73,3.25,3.25,0,0,1,1-.65Z" transform="translate(-280.58 -352.1)"/><path class="f" d="M443.8,689.46l11.45,5.28a3.32,3.32,0,0,1,1,.65,1,1,0,0,1,.3.73,1,1,0,0,1-.27.75,1,1,0,0,1-.76.28,1.7,1.7,0,0,1-.48-.08,5.3,5.3,0,0,1-.75-.31L441.84,691l-.16-.06q-1.44-.66-1.44-1.44t1.41-1.41l.19-.09,12.42-5.7A4.88,4.88,0,0,1,455,682a1.92,1.92,0,0,1,.52-.09,1,1,0,0,1,.76.27,1,1,0,0,1,.27.72,1.06,1.06,0,0,1-.3.74,3.11,3.11,0,0,1-1,.63Z" transform="translate(-280.58 -352.1)"/><path class="f" d="M464.47,699.77a3.34,3.34,0,0,1-.65,1.06,1,1,0,0,1-.73.28,1.06,1.06,0,0,1-.77-.32A1,1,0,0,1,462,700a1.07,1.07,0,0,1,0-.29,3.19,3.19,0,0,1,.13-.35l9.75-21a4.15,4.15,0,0,1,.69-1.1,1,1,0,0,1,.72-.29,1.11,1.11,0,0,1,.8.31,1,1,0,0,1,.33.75,1.17,1.17,0,0,1,0,.28,1.24,1.24,0,0,1-.12.3Z" transform="translate(-280.58 -352.1)"/><path class="f" d="M491.36,689.46l-11.42-5.22a3.24,3.24,0,0,1-1-.65,1,1,0,0,1-.3-.73,1,1,0,0,1,.27-.72,1,1,0,0,1,.74-.27,1.88,1.88,0,0,1,.52.09,5.77,5.77,0,0,1,.73.29l12.42,5.7.19.09q1.41.63,1.41,1.41t-1.37,1.41l-.22.09-12.42,5.8-.06,0a3.4,3.4,0,0,1-1.19.36,1,1,0,0,1-.74-.28,1,1,0,0,1-.27-.75,1,1,0,0,1,.3-.73,3.25,3.25,0,0,1,1-.65Z" transform="translate(-280.58 -352.1)"/></svg>