<svg xmlns="http://www.w3.org/2000/svg" viewBox="0 0 325.95 130.29"><defs><style>.a,.d{fill:#e0f2f3;}.b{fill:#d3d5db;}.c,.g{fill:#fff;}.c,.d{stroke:#6acad1;}.c,.d,.h{stroke-miterlimit:10;}.c,.d,.g{stroke-width:2.5px;}.e{fill:#6bcad0;}.f{fill:#f05234;}.g{stroke:#c3e9ec;stroke-linecap:round;stroke-linejoin:round;}.h{fill:none;stroke:#f05234;stroke-width:3px;}</style></defs><title>security</title><circle class="a" cx="66.45" cy="52.74" r="50.7"/><path class="b" d="M91,115.13v5.3a1.23,1.23,0,0,0,1.3,1l54.1-.3a1.32,1.32,0,0,0,1.3,1.3H165a1.32,1.32,0,0,0,1.3-1.3l54.1.3c.7,0,1.3-.4,1.3-1v-5.3" transform="translate(-89.72 -36.49)"/><path class="c" d="M91,111.13v5.3a1.23,1.23,0,0,0,1.3,1l56.1-1.3v1a1.32,1.32,0,0,0,1.3,1.3H163a1.32,1.32,0,0,0,1.3-1.3v-1l56.1,1.3c.7,0,1.3-.4,1.3-1v-5.3" transform="translate(-89.72 -36.49)"/><path class="d" d="M208.77,66.93a1.23,1.23,0,0,0-1.3-1H103.57c-.7,0-1.3.4-1.3,1L91,111.13a1.23,1.23,0,0,0,1.3,1l56.1-1.3v1a1.32,1.32,0,0,0,1.3,1.3H163a1.32,1.32,0,0,0,1.3-1.3v-1l56.1,1.3c.7,0,1.3-.4,1.3-1Z" transform="translate(-89.72 -36.49)"/><path class="c" d="M155.17,107.33s-9.1-.5-18.7-.5-30.4,1.8-30.4,1.8a1.23,1.23,0,0,1-1-1.3l12.5-36.2c0-.7.4-1.3,1-1.3,0,0,11.7-5.7,23.2-5.7s14.4,6.3,14.4,7v35A1.12,1.12,0,0,1,155.17,107.33Z" transform="translate(-89.72 -36.49)"/><path class="c" d="M154.87,106.73a49.86,49.86,0,0,0-21.3-4.5c-12.7,0-35.8,5.7-35.8,5.7a1.32,1.32,0,0,1-1.3-1.3l9.1-36.2a1.32,1.32,0,0,1,1.3-1.3s15.3-7.4,30.4-7.4,18.9,8,18.9,8.7v35A1.32,1.32,0,0,1,154.87,106.73Zm2.3.6,49.2,1.3a1.23,1.23,0,0,0,1-1.3l-12.5-36.2c0-.7-.4-1.3-1-1.3,0,0-11.7-5.7-23.2-5.7s-14.4,6.3-14.4,7v35A1,1,0,0,0,157.17,107.33Z" transform="translate(-89.72 -36.49)"/><path class="c" d="M157.47,106.73a57.43,57.43,0,0,1,21.3-3.8c12.7,0,35.8,5.1,35.8,5.1a1.32,1.32,0,0,0,1.3-1.3l-9.1-36.2a1.32,1.32,0,0,0-1.3-1.3s-15.3-7.4-30.4-7.4-18.9,8-18.9,8.7v35A1.31,1.31,0,0,0,157.47,106.73Z" transform="translate(-89.72 -36.49)"/><path class="e" d="M351,166.78h.1a2.13,2.13,0,0,0,1.5-.7l8-10a2,2,0,0,0-3.1-2.5l-6.6,8.3-2.4-2.4a2,2,0,0,0-2.8,2.8l4,4a1.9,1.9,0,0,0,1.3.5Z" transform="translate(-89.72 -36.49)"/><path class="f" d="M157.21,159.78l4-4a1.77,1.77,0,0,0-2.5-2.5l-4,4-4-4a1.77,1.77,0,0,0-2.5,2.5l4,4-4,4a1.75,1.75,0,0,0,0,2.5,1.69,1.69,0,0,0,2.4,0l4-4,4,4a1.69,1.69,0,0,0,2.4,0,1.75,1.75,0,0,0,0-2.5l-3.8-4Z" transform="translate(-89.72 -36.49)"/><path class="g" d="M301.68,46.29l60.71-8.55L373.83,119l-60.7,8.55ZM313,58.43l41.79-5.88M314.6,69.92,356.39,64M316.22,81.41,358,75.52M317.84,92.89,359.63,87m-40.17,17.37,27.33-3.85" transform="translate(-89.72 -36.49)"/><path class="g" d="M346.92,37.75l60.71,8.53-11.43,81.3-60.7-8.53Zm7.52,14.79,41.79,5.87M352.82,64l41.79,5.87m-43.4,5.61L393,81.39M349.6,87l41.78,5.87M348,98.49l27.33,3.84" transform="translate(-89.72 -36.49)"/><path class="g" d="M323.81,45.94l61.3,0,0,82.1-61.3,0Zm9.49,13.61,42.2,0M333.29,71.15l42.2,0m-42.2,11.58,42.2,0M333.28,94.35l42.2,0M333.28,106h27.6" transform="translate(-89.72 -36.49)"/><path class="f" d="M313.86,97l-3.4,1-.63-2.15,9.37-2.73.62,2.16-3.4,1,2.68,9.19-2.57.74Z" transform="translate(-89.72 -36.49)"/><path class="f" d="M319.62,100.61a4.59,4.59,0,1,1,5.72,3.24A4.53,4.53,0,0,1,319.62,100.61Zm6.19-1.8c-.43-1.5-1.32-2.29-2.5-2s-1.5,1.48-1.06,3,1.31,2.28,2.49,1.94S326.24,100.3,325.81,98.81Z" transform="translate(-89.72 -36.49)"/><path class="f" d="M328.36,93.38l2.09-.61.44.82H331a4.15,4.15,0,0,1,2.25-1.84c2.16-.63,4,.72,4.74,3.39.86,3-.45,5.18-2.39,5.75a3.19,3.19,0,0,1-2.39-.32l-.06,0,.52,1.36.74,2.53-2.56.75Zm7,2.53c-.45-1.55-1.19-2.17-2.27-1.85a2.23,2.23,0,0,0-1.36,1.26l1,3.48a2.32,2.32,0,0,0,1.65.15C335.31,98.67,335.86,97.7,335.34,95.91Z" transform="translate(-89.72 -36.49)"/><path class="f" d="M349.2,95.13l1-2.19a5.07,5.07,0,0,0,3.36.31c1.09-.32,1.47-.89,1.31-1.44-.24-.82-1-.82-2.17-1l-1.66-.2a3.44,3.44,0,0,1-3.31-2.39c-.54-1.88.71-3.87,3.18-4.59a5.69,5.69,0,0,1,4.2.39l-.83,2a4.25,4.25,0,0,0-2.87-.12c-.84.24-1.31.76-1.12,1.43s1,.7,2.23.8l1.56.18c1.65.13,2.86.78,3.32,2.38.55,1.89-.55,4-3.36,4.8A6.84,6.84,0,0,1,349.2,95.13Z" transform="translate(-89.72 -36.49)"/><path class="f" d="M358,89.44a4.59,4.59,0,0,1,3.18-5.83,4,4,0,0,1,5.27,3,7.8,7.8,0,0,1,.23,1.18l-6.56,1.9-.49-1.71,4.81-1.4-.26.6c-.4-1.38-1.21-1.94-2.35-1.61S360,87,360.48,88.71s1.73,2.3,3.41,1.81a5,5,0,0,0,2.05-1.24l1.29,1.29a6.91,6.91,0,0,1-3.12,2C361.41,93.36,358.84,92.31,358,89.44Z" transform="translate(-89.72 -36.49)"/><path class="f" d="M367.77,86.61c-.83-2.88,1-5.21,3.68-6a4.89,4.89,0,0,1,3.57.24l-.71,1.93a3.28,3.28,0,0,0-2.12-.14,2.46,2.46,0,0,0-1.8,3.19,2.41,2.41,0,0,0,3.14,1.75,4.13,4.13,0,0,0,2-1.48l1.5,1.32a5.86,5.86,0,0,1-3.18,2.3C371.17,90.52,368.61,89.47,367.77,86.61Z" transform="translate(-89.72 -36.49)"/><path class="f" d="M375.87,79.56,378,79l.75,1.83.06,0a4.17,4.17,0,0,1,2.89-3.11,3.81,3.81,0,0,1,1.76-.14l.11,2.31a4.58,4.58,0,0,0-1.61.19,3.36,3.36,0,0,0-2.3,2.95L381,87.45l-2.57.75Z" transform="translate(-89.72 -36.49)"/><path class="f" d="M384.59,81.71a4.59,4.59,0,0,1,3.18-5.83,4,4,0,0,1,5.27,3,7.8,7.8,0,0,1,.23,1.18l-6.56,1.9-.49-1.71,4.81-1.4-.26.6c-.4-1.39-1.21-1.94-2.35-1.61s-1.85,1.47-1.35,3.18,1.73,2.3,3.41,1.81a5.12,5.12,0,0,0,2-1.24l1.29,1.29a6.91,6.91,0,0,1-3.12,2C388,85.63,385.43,84.58,384.59,81.71Z" transform="translate(-89.72 -36.49)"/><path class="f" d="M395.75,79.27l-.89-3-2.18.63-.55-1.9,2.26-.77L394,71.44l2.12-.61.77,2.64,3.64-1.06.58,2-3.64,1.06.88,3a1.6,1.6,0,0,0,2.34,1.28,5.33,5.33,0,0,0,1.62-.8l1,1.72A10.07,10.07,0,0,1,400.57,82C397.82,82.77,396.4,81.54,395.75,79.27Z" transform="translate(-89.72 -36.49)"/><rect class="h" x="298.36" y="77.15" width="116.06" height="23.59" rx="5.18" ry="5.18" transform="translate(-100.38 66.54) rotate(-16.21)"/></svg>