<svg xmlns="http://www.w3.org/2000/svg" viewBox="0 0 268.32 86.49"><defs><style>.a{fill:#27a0a7;}.b{opacity:0.4;}</style></defs><title>shapes</title><path class="a" d="M459.51,468.91a.68.68,0,0,1-.47-.19h0a.67.67,0,0,1-.2-.48h0v-55a.67.67,0,0,1,.67-.67h0a.67.67,0,0,1,.67.67h0v54.33h54.34a.67.67,0,0,1,.67.67h0a.67.67,0,0,1-.67.67h-55Z" transform="translate(-458.84 -391.35)"/><path class="a" d="M459.51,413.91a.67.67,0,0,1-.63-.45h0a.66.66,0,0,1,.22-.74h0l15.81-12.49a.66.66,0,0,1,.42-.15h55v0a.66.66,0,0,1,.63.45h0a.67.67,0,0,1-.21.75h0l-15.82,12.49a.68.68,0,0,1-.41.14h-55Zm1.93-1.34h52.84l14.12-11.15H475.56l-14.12,11.15Z" transform="translate(-458.84 -391.35)"/><path class="a" d="M514,468.66a.67.67,0,0,1,.11-.94h0l15.56-12.29V400.75a.67.67,0,0,1,.67-.67h0a.67.67,0,0,1,.67.67h0v55a.65.65,0,0,1-.26.53h0l-15.81,12.49h0a.64.64,0,0,1-.41.14h0a.66.66,0,0,1-.53-.25Z" transform="translate(-458.84 -391.35)"/><g class="b"><path class="a" d="M459,468.66a.67.67,0,0,1,.11-.94h0l1.23-1a.67.67,0,0,1,.94.11h0a.67.67,0,0,1-.11.94h0l-1.23,1a.65.65,0,0,1-.42.14h0a.65.65,0,0,1-.52-.25Zm3.19-2.52a.68.68,0,0,1,.11-.95h0l1.23-1a.68.68,0,0,1,.94.11h0a.68.68,0,0,1-.11.95h0l-1.23,1a.7.7,0,0,1-.41.14h0a.69.69,0,0,1-.53-.25Zm3.2-2.53a.67.67,0,0,1,.11-.94h0l1.23-1a.67.67,0,0,1,.94.11h0a.67.67,0,0,1-.11.94h0l-1.23,1a.68.68,0,0,1-.42.15h0a.65.65,0,0,1-.52-.26Zm3.19-2.52a.67.67,0,0,1,.11-.94h0l1.23-1a.67.67,0,0,1,.94.11h0a.67.67,0,0,1-.11.94h0l-1.23,1a.64.64,0,0,1-.41.14h0a.66.66,0,0,1-.53-.25Zm3.2-2.52a.67.67,0,0,1,.11-.94h0l1.22-1a.68.68,0,0,1,.95.11h0a.68.68,0,0,1-.11.94h0l-1.23,1a.73.73,0,0,1-.42.14h0a.67.67,0,0,1-.52-.25Z" transform="translate(-458.84 -391.35)"/><path class="a" d="M528.76,456.42a.67.67,0,0,1-.67-.67h0a.67.67,0,0,1,.67-.67h1.57a.67.67,0,0,1,.67.67h0a.67.67,0,0,1-.67.67h-1.57Zm-4.07,0a.67.67,0,0,1-.67-.67h0a.67.67,0,0,1,.67-.67h1.57a.67.67,0,0,1,.67.67h0a.67.67,0,0,1-.67.67h-1.57Zm-4.07,0a.67.67,0,0,1-.67-.67h0a.67.67,0,0,1,.67-.67h1.57a.67.67,0,0,1,.67.67h0a.67.67,0,0,1-.67.67h-1.57Zm-4.07,0a.67.67,0,0,1-.67-.67h0a.67.67,0,0,1,.67-.67h1.57a.67.67,0,0,1,.67.67h0a.67.67,0,0,1-.67.67h-1.57Zm-4.07,0a.67.67,0,0,1-.67-.67h0a.67.67,0,0,1,.67-.67h1.57a.67.67,0,0,1,.67.67h0a.67.67,0,0,1-.67.67h-1.57Zm-4.07,0a.67.67,0,0,1-.67-.67h0a.67.67,0,0,1,.67-.67H510a.67.67,0,0,1,.67.67h0a.67.67,0,0,1-.67.67h-1.57Zm-4.07,0a.67.67,0,0,1-.67-.67h0a.67.67,0,0,1,.67-.67h1.57a.68.68,0,0,1,.67.67h0a.68.68,0,0,1-.67.67h-1.57Zm-4.07,0a.67.67,0,0,1-.67-.67h0a.67.67,0,0,1,.67-.67h1.56a.67.67,0,0,1,.67.67h0a.67.67,0,0,1-.67.67h-1.56Zm-4.07,0a.67.67,0,0,1-.67-.67h0a.67.67,0,0,1,.67-.67h1.56a.67.67,0,0,1,.67.67h0a.67.67,0,0,1-.67.67H496.2Zm-4.07,0a.67.67,0,0,1-.67-.67h0a.67.67,0,0,1,.67-.67h1.56a.67.67,0,0,1,.67.67h0a.67.67,0,0,1-.67.67h-1.56Zm-4.07,0a.67.67,0,0,1-.67-.67h0a.67.67,0,0,1,.67-.67h1.56a.67.67,0,0,1,.67.67h0a.67.67,0,0,1-.67.67h-1.56Zm-4.07,0a.67.67,0,0,1-.67-.67h0a.67.67,0,0,1,.67-.67h1.56a.67.67,0,0,1,.67.67h0a.67.67,0,0,1-.67.67H484Zm-4.08,0a.68.68,0,0,1-.67-.67h0a.68.68,0,0,1,.67-.67h1.57a.67.67,0,0,1,.67.67h0a.67.67,0,0,1-.67.67h-1.57Zm-4.07,0a.67.67,0,0,1-.67-.67h0a.67.67,0,0,1,.67-.67h1.57a.67.67,0,0,1,.67.67h0a.67.67,0,0,1-.67.67h-1.57Z" transform="translate(-458.84 -391.35)"/><path class="a" d="M474.66,455.24v-1.57a.67.67,0,0,1,.67-.67h0a.67.67,0,0,1,.67.67h0v1.57a.67.67,0,0,1-.67.67h0a.67.67,0,0,1-.67-.67Zm0-4.07V449.6a.67.67,0,0,1,.67-.67h0a.67.67,0,0,1,.67.67h0v1.57a.67.67,0,0,1-.67.67h0a.67.67,0,0,1-.67-.67Zm0-4.08v-1.56a.67.67,0,0,1,.67-.67h0a.67.67,0,0,1,.67.67h0v1.56a.66.66,0,0,1-.67.67h0a.66.66,0,0,1-.67-.67Zm0-4.07v-1.56a.67.67,0,0,1,.67-.67h0a.67.67,0,0,1,.67.67h0V443a.67.67,0,0,1-.67.67h0a.67.67,0,0,1-.67-.67Zm0-4.07v-1.56a.67.67,0,0,1,.67-.67h0a.67.67,0,0,1,.67.67h0V439a.67.67,0,0,1-.67.67h0a.67.67,0,0,1-.67-.67Zm0-4.07v-1.56a.67.67,0,0,1,.67-.67h0a.67.67,0,0,1,.67.67h0v1.56a.67.67,0,0,1-.67.67h0a.67.67,0,0,1-.67-.67Zm0-4.07v-1.56a.67.67,0,0,1,.67-.67h0a.67.67,0,0,1,.67.67h0v1.56a.67.67,0,0,1-.67.67h0a.67.67,0,0,1-.67-.67Zm0-4.07v-1.56a.67.67,0,0,1,.67-.67h0a.67.67,0,0,1,.67.67h0v1.56a.67.67,0,0,1-.67.67h0a.67.67,0,0,1-.67-.67Zm0-4.07V421.1a.67.67,0,0,1,.67-.67h0a.67.67,0,0,1,.67.67h0v1.57a.67.67,0,0,1-.67.67h0a.67.67,0,0,1-.67-.67Zm0-4.07V417a.67.67,0,0,1,.67-.67h0a.67.67,0,0,1,.67.67h0v1.57a.67.67,0,0,1-.67.67h0a.67.67,0,0,1-.67-.67Zm0-4.07V413a.67.67,0,0,1,.67-.67h0a.67.67,0,0,1,.67.67h0v1.57a.67.67,0,0,1-.67.67h0a.67.67,0,0,1-.67-.67Zm0-4.07v-1.57a.67.67,0,0,1,.67-.67h0a.67.67,0,0,1,.67.67h0v1.57a.67.67,0,0,1-.67.67h0a.67.67,0,0,1-.67-.67Zm0-4.07v-1.57a.67.67,0,0,1,.67-.67h0a.67.67,0,0,1,.67.67h0v1.57a.67.67,0,0,1-.67.67h0a.67.67,0,0,1-.67-.67Zm0-4.07v-1.57a.67.67,0,0,1,.67-.67h0a.67.67,0,0,1,.67.67h0v1.57a.67.67,0,0,1-.67.67h0a.67.67,0,0,1-.67-.67Z" transform="translate(-458.84 -391.35)"/></g><path class="a" d="M513.85,468.24v-55a.67.67,0,0,1,.67-.67h0a.67.67,0,0,1,.67.67h0v55a.67.67,0,0,1-.67.67h0a.67.67,0,0,1-.67-.67Z" transform="translate(-458.84 -391.35)"/><path class="a" d="M695.74,477.58,665.5,438.15a.67.67,0,0,1,.13-.94h0a.67.67,0,0,1,.94.12h0l30.24,39.43a.67.67,0,0,1-.13.94h0a.67.67,0,0,1-.4.14h0a.67.67,0,0,1-.54-.26Z" transform="translate(-458.84 -391.35)"/><path class="a" d="M665.66,438.27a.67.67,0,0,1-.18-.93h0l30.24-45.69a.66.66,0,0,1,.92-.19h0a.67.67,0,0,1,.19.93h0l-30.24,45.69a.66.66,0,0,1-.56.3h0a.66.66,0,0,1-.37-.11Z" transform="translate(-458.84 -391.35)"/><path class="a" d="M665.66,438.27a.67.67,0,0,1-.18-.93h0l30.24-45.69a.66.66,0,0,1,.92-.19h0a.67.67,0,0,1,.19.93h0l-30.24,45.69a.66.66,0,0,1-.56.3h0a.66.66,0,0,1-.37-.11Z" transform="translate(-458.84 -391.35)"/><path class="a" d="M708,438.31a.67.67,0,0,1-.34-.43h0l-12-45.69a.67.67,0,0,1,.35-.77h0a.67.67,0,0,1,.82.19h0l30.22,39-.53.41.53-.41a.66.66,0,0,1,.12.59h0a.71.71,0,0,1-.41.45h0l-18.2,6.68a.59.59,0,0,1-.23,0h0a.67.67,0,0,1-.31-.07Zm.77-1.48,16.64-6.11L697.76,395l11,41.8Z" transform="translate(-458.84 -391.35)"/><path class="a" d="M695.74,477.58,665.5,438.15a.7.7,0,0,1-.07-.71h0a.7.7,0,0,1,.6-.37H708.3a.68.68,0,0,1,.54.27h0a.67.67,0,0,1,.1.6h0l-12,39.42a.7.7,0,0,1-.53.47h-.11a.7.7,0,0,1-.54-.26Zm.27-1.85,11.39-37.32h-40L696,475.73Zm-30-37.32v0Z" transform="translate(-458.84 -391.35)"/><path class="a" d="M695.91,477.73a.68.68,0,0,1-.2-.93h0l30.22-46.21a.68.68,0,0,1,.93-.19h0a.66.66,0,0,1,.19.93h0l-30.21,46.21a.7.7,0,0,1-.57.3h0a.69.69,0,0,1-.36-.11Z" transform="translate(-458.84 -391.35)"/><g class="b"><path class="a" d="M695.62,477.29l-.3-1.53a.67.67,0,0,1,.54-.79h0a.67.67,0,0,1,.78.54h0l.29,1.53a.67.67,0,0,1-.53.79h-.13a.66.66,0,0,1-.65-.55Zm-.76-4-.3-1.53a.67.67,0,0,1,.53-.79h0a.68.68,0,0,1,.79.54h0l.29,1.54a.67.67,0,0,1-.53.78h-.13a.66.66,0,0,1-.65-.55Zm-.77-4-.29-1.54a.68.68,0,0,1,.53-.79h0a.68.68,0,0,1,.79.54h0l.29,1.54a.67.67,0,0,1-.53.78h-.13a.67.67,0,0,1-.66-.54Zm-.76-4-.29-1.54a.67.67,0,0,1,.53-.78h0a.66.66,0,0,1,.78.53h0l.3,1.54a.67.67,0,0,1-.53.78H694a.67.67,0,0,1-.66-.54Zm-.76-4-.29-1.54a.67.67,0,0,1,.53-.78h0a.67.67,0,0,1,.78.53h0l.3,1.54a.67.67,0,0,1-.54.78h-.12a.67.67,0,0,1-.66-.54Zm-.76-4-.29-1.54a.67.67,0,0,1,.53-.78h0a.67.67,0,0,1,.78.53h0l.3,1.54a.68.68,0,0,1-.54.78h-.12a.67.67,0,0,1-.66-.54Zm-.76-4-.3-1.54a.68.68,0,0,1,.54-.78h0a.67.67,0,0,1,.78.53h0l.29,1.54a.67.67,0,0,1-.53.78h0l-.13,0h0a.67.67,0,0,1-.65-.55Zm-.76-4-.3-1.54a.67.67,0,0,1,.54-.78h0a.67.67,0,0,1,.78.53h0l.29,1.54a.66.66,0,0,1-.53.78h0l-.13,0h0a.67.67,0,0,1-.65-.55Zm-.77-4-.29-1.54a.67.67,0,0,1,.53-.78h0a.67.67,0,0,1,.79.53h0l.29,1.54a.67.67,0,0,1-.53.79h-.13a.69.69,0,0,1-.66-.55Zm-.76-4-.29-1.53A.67.67,0,0,1,689,439h0a.67.67,0,0,1,.79.54h0l.29,1.53a.67.67,0,0,1-.53.79h-.13a.67.67,0,0,1-.66-.55Zm-.76-4-.29-1.53a.67.67,0,0,1,.53-.79h0a.68.68,0,0,1,.79.54h0l.29,1.53a.67.67,0,0,1-.53.79h-.13a.66.66,0,0,1-.66-.55Zm-.76-4-.29-1.54a.67.67,0,0,1,.53-.79h0a.68.68,0,0,1,.78.54h0l.3,1.54a.67.67,0,0,1-.54.78h-.12a.67.67,0,0,1-.66-.54Z" transform="translate(-458.84 -391.35)"/><path class="a" d="M687.73,430a.68.68,0,0,1-.5-.81h0l.34-1.52a.67.67,0,0,1,.8-.51h0a.67.67,0,0,1,.51.8h0l-.35,1.53a.66.66,0,0,1-.65.52h-.15Zm.9-4a.67.67,0,0,1-.51-.8h0l.34-1.52a.68.68,0,0,1,.81-.51h0a.67.67,0,0,1,.5.8h0l-.34,1.53a.67.67,0,0,1-.66.52h0l-.14,0Zm.89-4a.66.66,0,0,1-.5-.8h0l.34-1.53a.67.67,0,0,1,.8-.5h0a.67.67,0,0,1,.51.8h0l-.35,1.53a.66.66,0,0,1-.65.52h0l-.15,0Zm.9-4a.67.67,0,0,1-.51-.8h0l.34-1.53a.67.67,0,0,1,.8-.5h0a.67.67,0,0,1,.51.8h0l-.34,1.53a.67.67,0,0,1-.66.52h0l-.14,0Zm.89-4a.67.67,0,0,1-.51-.8h0l.35-1.53a.66.66,0,0,1,.8-.5h0a.67.67,0,0,1,.51.8h0l-.35,1.52a.67.67,0,0,1-.65.53h0l-.15,0Zm.89-4a.67.67,0,0,1-.5-.8h0l.34-1.53a.67.67,0,0,1,.8-.51h0a.68.68,0,0,1,.51.8h0l-.34,1.53a.68.68,0,0,1-.66.53h0l-.15,0Zm.9-4a.67.67,0,0,1-.51-.8h0l.35-1.53a.67.67,0,0,1,.8-.51h0a.67.67,0,0,1,.5.8h0l-.34,1.53a.67.67,0,0,1-.65.52h-.15Zm.89-4a.67.67,0,0,1-.5-.8h0l.34-1.53a.67.67,0,0,1,.8-.51h0a.67.67,0,0,1,.51.8h0l-.35,1.53a.66.66,0,0,1-.65.52H694Zm.9-4a.68.68,0,0,1-.51-.81h0l.35-1.52a.67.67,0,0,1,.8-.51h0a.67.67,0,0,1,.5.8h0l-.34,1.53a.67.67,0,0,1-.65.52h-.15Zm.89-4a.67.67,0,0,1-.5-.8h0l.34-1.52a.67.67,0,0,1,.8-.51h0a.67.67,0,0,1,.51.8h0l-.35,1.53a.66.66,0,0,1-.65.52h0l-.15,0Z" transform="translate(-458.84 -391.35)"/><path class="a" d="M665.42,437.91a.67.67,0,0,1,.44-.84h0l1.5-.46a.67.67,0,0,1,.84.44h0a.67.67,0,0,1-.44.84h0l-1.5.46a.69.69,0,0,1-.2,0h0a.67.67,0,0,1-.64-.47Zm3.89-1.21a.67.67,0,0,1,.44-.84h0l1.49-.47a.68.68,0,0,1,.84.44h0a.67.67,0,0,1-.44.84h0l-1.49.47-.2,0h0a.66.66,0,0,1-.64-.47Zm3.88-1.21a.67.67,0,0,1,.44-.84h0l1.5-.47a.67.67,0,0,1,.84.44h0a.67.67,0,0,1-.44.84h0l-1.5.47a.64.64,0,0,1-.2,0h0a.68.68,0,0,1-.64-.47Zm3.89-1.21a.67.67,0,0,1,.44-.84h0L679,433a.67.67,0,0,1,.84.44h0a.67.67,0,0,1-.44.84h0l-1.49.47a.69.69,0,0,1-.2,0h0a.68.68,0,0,1-.64-.47Zm3.89-1.22a.67.67,0,0,1,.44-.84h0l1.49-.46a.67.67,0,0,1,.84.44h0a.67.67,0,0,1-.44.84h0l-1.5.46a.63.63,0,0,1-.19,0h0a.66.66,0,0,1-.64-.47Zm3.88-1.21a.67.67,0,0,1,.44-.84h0l1.5-.46a.67.67,0,0,1,.84.44h0a.66.66,0,0,1-.44.83h0l-1.5.47a.69.69,0,0,1-.2,0h0a.67.67,0,0,1-.64-.47Z" transform="translate(-458.84 -391.35)"/><path class="a" d="M724.13,431.7a.67.67,0,0,1-.67-.67h0a.67.67,0,0,1,.67-.67h1.56a.67.67,0,0,1,.67.67h0a.67.67,0,0,1-.67.67h-1.56Zm-4.08,0a.66.66,0,0,1-.66-.67h0a.66.66,0,0,1,.66-.67h1.57a.67.67,0,0,1,.67.67h0a.67.67,0,0,1-.67.67h-1.57Zm-4.07,0a.67.67,0,0,1-.67-.67h0a.67.67,0,0,1,.67-.67h1.57a.67.67,0,0,1,.67.67h0a.67.67,0,0,1-.67.67H716Zm-4.07,0a.67.67,0,0,1-.67-.67h0a.67.67,0,0,1,.67-.67h1.57a.67.67,0,0,1,.67.67h0a.67.67,0,0,1-.67.67h-1.57Zm-4.07,0a.67.67,0,0,1-.67-.67h0a.67.67,0,0,1,.67-.67h1.57a.67.67,0,0,1,.67.67h0a.67.67,0,0,1-.67.67h-1.57Zm-4.07,0a.67.67,0,0,1-.67-.67h0a.67.67,0,0,1,.67-.67h1.57a.67.67,0,0,1,.67.67h0a.67.67,0,0,1-.67.67h-1.57Zm-4.07,0A.67.67,0,0,1,699,431h0a.67.67,0,0,1,.67-.67h1.57a.67.67,0,0,1,.67.67h0a.67.67,0,0,1-.67.67H699.7Zm-4.07,0A.67.67,0,0,1,695,431h0a.67.67,0,0,1,.67-.67h1.57a.67.67,0,0,1,.67.67h0a.67.67,0,0,1-.67.67h-1.57Zm-4.07,0a.67.67,0,0,1-.67-.67h0a.67.67,0,0,1,.67-.67h1.57a.67.67,0,0,1,.67.67h0a.67.67,0,0,1-.67.67h-1.57Zm-4.07,0a.67.67,0,0,1-.67-.67h0a.67.67,0,0,1,.67-.67h1.56a.67.67,0,0,1,.67.67h0a.67.67,0,0,1-.67.67h-1.56Z" transform="translate(-458.84 -391.35)"/></g><g class="b"><path class="a" d="M597.93,456.15l-.81-1.27a.66.66,0,0,1,.21-.92h0a.66.66,0,0,1,.92.2h0l.65,1a.67.67,0,0,1,.19.92h0l0,0a.68.68,0,0,1-.56.31h0a.68.68,0,0,1-.57-.31Zm1.59-2a.66.66,0,0,1-.21-.92h0l.84-1.32a.67.67,0,0,1,.93-.21h0a.67.67,0,0,1,.2.93h0l-.84,1.32a.67.67,0,0,1-.56.31h0a.66.66,0,0,1-.36-.11Zm-3.75-1.42-.84-1.32a.66.66,0,0,1,.21-.92h0a.66.66,0,0,1,.92.2h0l.84,1.32a.68.68,0,0,1-.2.93h0a.68.68,0,0,1-.36.1h0a.68.68,0,0,1-.57-.31Zm5.94-2a.66.66,0,0,1-.21-.92h0l.85-1.33a.66.66,0,0,1,.92-.2h0a.67.67,0,0,1,.2.93h0l-.84,1.32a.67.67,0,0,1-.56.31h0a.66.66,0,0,1-.36-.11Zm-8.13-1.42-.84-1.32a.66.66,0,0,1,.2-.92h0a.67.67,0,0,1,.93.2h0l.84,1.32a.68.68,0,0,1-.2.93h0a.68.68,0,0,1-.36.1h0a.68.68,0,0,1-.57-.31Zm10.32-2a.68.68,0,0,1-.21-.93h0l.85-1.32a.66.66,0,0,1,.92-.2h0a.67.67,0,0,1,.2.93h0l-.84,1.31a.65.65,0,0,1-.56.31h0a.65.65,0,0,1-.36-.1Zm-12.51-1.42-.84-1.32a.68.68,0,0,1,.2-.93h0a.69.69,0,0,1,.93.21h0l.84,1.32a.66.66,0,0,1-.2.92h0a.61.61,0,0,1-.36.11h0a.68.68,0,0,1-.57-.31Zm14.7-2a.68.68,0,0,1-.21-.93h0l.85-1.32a.66.66,0,0,1,.92-.2h0a.68.68,0,0,1,.21.92h0l-.85,1.32a.65.65,0,0,1-.56.31h0a.65.65,0,0,1-.36-.1Zm-16.89-1.42-.84-1.32a.68.68,0,0,1,.2-.93h0a.68.68,0,0,1,.93.21h0l.84,1.32a.66.66,0,0,1-.2.92h0a.69.69,0,0,1-.36.11h0a.68.68,0,0,1-.57-.31Zm19.08-2a.68.68,0,0,1-.21-.93h0l.85-1.32a.66.66,0,0,1,.92-.2h0a.67.67,0,0,1,.21.92h0l-.85,1.32a.65.65,0,0,1-.56.31h0a.68.68,0,0,1-.36-.1ZM587,439.05l-.84-1.32a.68.68,0,0,1,.2-.93h0a.67.67,0,0,1,.93.21h0l.84,1.32a.66.66,0,0,1-.2.92h0a.72.72,0,0,1-.36.11h0a.68.68,0,0,1-.57-.31Zm23.46-2a.67.67,0,0,1-.21-.92h0l.85-1.32a.66.66,0,0,1,.92-.2h0a.66.66,0,0,1,.21.92h0l-.85,1.32a.65.65,0,0,1-.56.31h0a.61.61,0,0,1-.36-.11Zm-25.65-1.41L584,434.3a.67.67,0,0,1,.2-.93h0a.67.67,0,0,1,.93.21h0l.84,1.32a.66.66,0,0,1-.2.92h0a.72.72,0,0,1-.36.11h0a.68.68,0,0,1-.57-.31Zm27.84-2a.66.66,0,0,1-.2-.92h0l.84-1.32a.66.66,0,0,1,.92-.2h0a.66.66,0,0,1,.21.92h0l-.85,1.32a.65.65,0,0,1-.56.31h0a.61.61,0,0,1-.36-.11Zm-30-1.42-.84-1.31a.67.67,0,0,1,.2-.93h0a.68.68,0,0,1,.93.2h0l.84,1.32a.67.67,0,0,1-.2.93h0a.7.7,0,0,1-.36.1h0a.67.67,0,0,1-.57-.31Zm32.22-2a.66.66,0,0,1-.2-.92h0l.84-1.32a.67.67,0,0,1,.92-.21h0a.67.67,0,0,1,.21.93h0l-.84,1.32a.68.68,0,0,1-.57.31h0a.69.69,0,0,1-.36-.11Zm-34.41-1.42-.84-1.32a.66.66,0,0,1,.2-.92h0a.68.68,0,0,1,.93.2h0l.84,1.32a.68.68,0,0,1-.2.93h0a.7.7,0,0,1-.36.1h0a.67.67,0,0,1-.57-.31Zm36.6-2a.66.66,0,0,1-.2-.92h0l.84-1.32a.67.67,0,0,1,.92-.21h0a.67.67,0,0,1,.21.93h0l-.84,1.32a.68.68,0,0,1-.57.31h0a.69.69,0,0,1-.36-.11Zm-38.79-1.42-.84-1.32a.66.66,0,0,1,.2-.92h0a.68.68,0,0,1,.93.2h0l.84,1.32a.67.67,0,0,1-.21.93h0a.65.65,0,0,1-.36.1h0a.67.67,0,0,1-.56-.31Zm41-2a.66.66,0,0,1-.2-.92h0l.84-1.32a.66.66,0,0,1,.92-.21h0a.67.67,0,0,1,.21.93h0l-.84,1.32a.68.68,0,0,1-.57.31h0a.69.69,0,0,1-.36-.11Zm-43.17-1.42-.07-.1a.68.68,0,0,1,0-.69h0a.67.67,0,0,1,.59-.34H578a.67.67,0,0,1,.67.67h0a.67.67,0,0,1-.67.67h-1a.65.65,0,0,1-.36.1h0a.67.67,0,0,1-.56-.31Zm41.08.21a.67.67,0,0,1-.67-.67h0a.67.67,0,0,1,.67-.67h1.57a.67.67,0,0,1,.67.67h0a.67.67,0,0,1-.67.67h-1.57Zm-4.07,0a.67.67,0,0,1-.67-.67h0a.67.67,0,0,1,.67-.67h1.57a.67.67,0,0,1,.67.67h0a.67.67,0,0,1-.67.67h-1.57Zm-4.07,0a.67.67,0,0,1-.67-.67h0a.67.67,0,0,1,.67-.67h1.56a.67.67,0,0,1,.68.67h0a.67.67,0,0,1-.68.67H609Zm-4.07,0a.67.67,0,0,1-.67-.67h0a.67.67,0,0,1,.67-.67h1.56a.67.67,0,0,1,.67.67h0a.67.67,0,0,1-.67.67h-1.56Zm-4.07,0a.67.67,0,0,1-.67-.67h0a.67.67,0,0,1,.67-.67h1.56a.67.67,0,0,1,.67.67h0a.67.67,0,0,1-.67.67h-1.56Zm-4.07,0a.67.67,0,0,1-.67-.67h0a.67.67,0,0,1,.67-.67h1.56a.67.67,0,0,1,.67.67h0a.67.67,0,0,1-.67.67h-1.56Zm-4.07,0a.67.67,0,0,1-.67-.67h0a.67.67,0,0,1,.67-.67h1.56a.67.67,0,0,1,.67.67h0a.67.67,0,0,1-.67.67h-1.56Zm-4.08,0a.66.66,0,0,1-.66-.67h0a.66.66,0,0,1,.66-.67h1.57a.67.67,0,0,1,.67.67h0a.67.67,0,0,1-.67.67h-1.57Zm-4.07,0a.67.67,0,0,1-.67-.67h0a.67.67,0,0,1,.67-.67h1.57a.67.67,0,0,1,.67.67h0a.67.67,0,0,1-.67.67h-1.57Zm-4.07,0a.67.67,0,0,1-.67-.67h0a.67.67,0,0,1,.67-.67h1.57a.67.67,0,0,1,.67.67h0a.67.67,0,0,1-.67.67H580.5Z" transform="translate(-458.84 -391.35)"/><path class="a" d="M598.42,456.46l-.34,0a.67.67,0,0,1-.6-.74h0a1,1,0,0,1,0-.17h0l-.24-.39a.66.66,0,0,1,.2-.92h0a.66.66,0,0,1,.92.2h0l.66,1a.67.67,0,0,1,0,.71h0a.68.68,0,0,1-.57.32h-.08Zm-2.83-.3L594,456a.67.67,0,0,1-.6-.73h0a.67.67,0,0,1,.74-.6h0l1.56.17a.67.67,0,0,1,.6.73h0a.67.67,0,0,1-.67.6h-.07Zm-4.05-.43-1.56-.16a.67.67,0,0,1-.59-.74h0a.66.66,0,0,1,.73-.59h0l1.56.16a.68.68,0,0,1,.6.74h0a.68.68,0,0,1-.67.6h-.07Zm-4-.42-1.56-.17a.67.67,0,0,1-.59-.73h0a.67.67,0,0,1,.73-.6h0l1.56.16a.67.67,0,0,1,.6.74h0a.68.68,0,0,1-.67.6h-.07Zm-4-.43-1.55-.16a.67.67,0,0,1-.6-.74h0a.68.68,0,0,1,.74-.6h0l1.55.17a.67.67,0,0,1,.6.73h0a.67.67,0,0,1-.67.6h-.07Zm-4.05-.43-1.55-.16a.67.67,0,0,1-.6-.74h0A.67.67,0,0,1,578,453h0l1.55.16a.67.67,0,0,1,.6.74h0a.68.68,0,0,1-.66.6h-.08Zm-4-.42-1.56-.16a.67.67,0,0,1-.6-.74h0a.67.67,0,0,1,.74-.6h0l1.56.17a.66.66,0,0,1,.59.73h0a.65.65,0,0,1-.66.6h-.07Zm-4.05-.43-1.56-.16a.68.68,0,0,1-.6-.74h0a.67.67,0,0,1,.74-.59h0l1.56.16a.67.67,0,0,1,.59.74h0a.66.66,0,0,1-.66.6h-.07Zm24.63-.59-.85-1.32a.67.67,0,0,1,.21-.92h0a.66.66,0,0,1,.92.2h0l.85,1.32a.68.68,0,0,1-.21.93h0a.65.65,0,0,1-.36.1h0a.67.67,0,0,1-.56-.31Zm-28.68.17-1.56-.17a.66.66,0,0,1-.59-.73h0a.66.66,0,0,1,.73-.6h0l1.56.16a.68.68,0,0,1,.6.74h0a.68.68,0,0,1-.67.6h-.07Zm-4-.43-1.56-.16a.67.67,0,0,1-.59-.74h0a.6.6,0,0,1,.11-.3h0a.3.3,0,0,1,0-.1h0l.68-1.4a.67.67,0,0,1,.9-.31h0a.66.66,0,0,1,.3.89h0l-.35.72.61.07a.67.67,0,0,1,.6.73h0a.67.67,0,0,1-.67.6h-.07Zm30.54-3.17-.85-1.32a.68.68,0,0,1,.21-.92h0a.66.66,0,0,1,.92.2h0l.85,1.32a.68.68,0,0,1-.21.93h0a.65.65,0,0,1-.36.1h0a.65.65,0,0,1-.56-.31Zm-30.45-.89a.67.67,0,0,1-.31-.9h0l.68-1.4a.67.67,0,0,1,.9-.31h0a.67.67,0,0,1,.31.89h0l-.69,1.41a.66.66,0,0,1-.6.38h0a.59.59,0,0,1-.29-.07Zm28.26-2.54-.85-1.32a.66.66,0,0,1,.21-.92h0a.66.66,0,0,1,.92.2h0l.85,1.32a.67.67,0,0,1-.21.92h0a.59.59,0,0,1-.36.11h0a.65.65,0,0,1-.56-.31ZM565.07,445a.68.68,0,0,1-.31-.9h0l.68-1.4a.67.67,0,0,1,.9-.31h0a.67.67,0,0,1,.31.89h0l-.69,1.41a.66.66,0,0,1-.6.38h0a.59.59,0,0,1-.29-.07Zm24.29-2.31-.85-1.32a.68.68,0,0,1,.21-.93h0a.68.68,0,0,1,.92.21h0l.84,1.32a.66.66,0,0,1-.2.92h0a.69.69,0,0,1-.36.11h0a.65.65,0,0,1-.56-.31Zm-22.51-1.35a.68.68,0,0,1-.31-.9h0l.69-1.4a.65.65,0,0,1,.89-.31h0a.67.67,0,0,1,.31.89h0l-.68,1.41a.68.68,0,0,1-.61.38h0a.73.73,0,0,1-.29-.07Zm20.32-2.08-.85-1.32a.68.68,0,0,1,.21-.93h0a.67.67,0,0,1,.92.21h0l.85,1.32a.68.68,0,0,1-.21.92h0a.69.69,0,0,1-.36.11h0a.65.65,0,0,1-.56-.31Zm-18.54-1.58a.68.68,0,0,1-.31-.9h0l.69-1.4a.65.65,0,0,1,.89-.31h0a.66.66,0,0,1,.31.89h0l-.68,1.41a.68.68,0,0,1-.61.38h0a.82.82,0,0,1-.29-.07ZM585,435.86l-.85-1.32a.67.67,0,0,1,.21-.93h0a.66.66,0,0,1,.92.21h0l.84,1.32a.66.66,0,0,1-.2.92h0a.69.69,0,0,1-.36.11h0a.65.65,0,0,1-.56-.31Zm-14.57-1.81a.68.68,0,0,1-.31-.9h0l.69-1.4a.66.66,0,0,1,.9-.31h0a.66.66,0,0,1,.3.89h0l-.68,1.41a.68.68,0,0,1-.6.38h0a.82.82,0,0,1-.3-.07Zm12.37-1.62-.84-1.32a.67.67,0,0,1,.21-.93h0a.66.66,0,0,1,.92.2h0l.84,1.33a.66.66,0,0,1-.2.92h0a.69.69,0,0,1-.36.11h0a.68.68,0,0,1-.57-.31Zm-10.59-2a.66.66,0,0,1-.3-.9h0l.68-1.41a.66.66,0,0,1,.9-.3h0a.67.67,0,0,1,.31.89h0l-.69,1.41a.68.68,0,0,1-.6.38h0a.82.82,0,0,1-.3-.07Zm8.4-1.4-.84-1.32a.66.66,0,0,1,.21-.92h0a.66.66,0,0,1,.92.2h0l.84,1.32a.67.67,0,0,1-.2.93h0a.68.68,0,0,1-.36.1h0a.68.68,0,0,1-.57-.31ZM574,426.73a.67.67,0,0,1-.31-.9h0l.68-1.41a.67.67,0,0,1,.9-.3h0a.67.67,0,0,1,.31.89h0l-.69,1.41a.66.66,0,0,1-.6.38h0a.73.73,0,0,1-.29-.07Zm4.42-1.17-.84-1.32a.66.66,0,0,1,.2-.92h0a.67.67,0,0,1,.93.2h0l.84,1.32a.68.68,0,0,1-.2.93h0a.68.68,0,0,1-.36.1h0a.68.68,0,0,1-.57-.31Zm-2.64-2.49a.67.67,0,0,1-.31-.9h0l.5-1a.69.69,0,0,1,.57-.37h0a.64.64,0,0,1,.6.31h0l.22.34h0a.68.68,0,0,1-.2.93h0a.67.67,0,0,1-.33.1h0l-.16.32a.66.66,0,0,1-.6.38h0a.73.73,0,0,1-.29-.07Z" transform="translate(-458.84 -391.35)"/><path class="a" d="M576.27,422l-1.41-.68a.66.66,0,0,1-.32-.89h0a.67.67,0,0,1,.9-.32h0l1.41.68a.68.68,0,0,1,.31.9h0a.66.66,0,0,1-.6.38h0a.59.59,0,0,1-.29-.07Zm-3.67-1.77-1.41-.68a.67.67,0,0,1-.31-.89h0a.66.66,0,0,1,.89-.31h0l1.41.68a.67.67,0,0,1,.31.89h0a.66.66,0,0,1-.6.38h0a.59.59,0,0,1-.29-.07Zm-3.67-1.77-1.41-.68a.67.67,0,0,1-.31-.89h0a.67.67,0,0,1,.89-.31h0l1.41.68a.66.66,0,0,1,.32.89h0a.68.68,0,0,1-.61.38h0a.62.62,0,0,1-.29-.07Zm-3.66-1.76-1.41-.68a.67.67,0,0,1-.32-.9h0a.68.68,0,0,1,.9-.31h0l1.41.68a.67.67,0,0,1,.31.89h0a.68.68,0,0,1-.6.38h0a.72.72,0,0,1-.29-.06ZM561.6,415l-.35-.17a.67.67,0,0,1-.31-.89h0a.68.68,0,0,1,.9-.31h0l.34.16a.68.68,0,0,1,.31.9h0a.66.66,0,0,1-.6.38h0a.73.73,0,0,1-.29-.07Z" transform="translate(-458.84 -391.35)"/><path class="a" d="M576.14,422a.66.66,0,0,1-.1-.94h0l1-1.22a.66.66,0,0,1,.94-.1h0a.67.67,0,0,1,.1.94h0l-1,1.22a.68.68,0,0,1-.52.25h0a.66.66,0,0,1-.42-.15Zm2.55-3.17a.67.67,0,0,1-.1-.94h0l1-1.22a.66.66,0,0,1,.94-.1h0a.67.67,0,0,1,.11.94h0l-1,1.22a.67.67,0,0,1-.52.25h0a.66.66,0,0,1-.42-.15Zm2.55-3.17a.68.68,0,0,1-.1-.94h0l1-1.22a.66.66,0,0,1,.94-.1h0a.67.67,0,0,1,.1.94h0l-1,1.22a.7.7,0,0,1-.53.25h0a.7.7,0,0,1-.42-.15Zm2.56-3.17a.67.67,0,0,1-.1-.94h0l1-1.22a.66.66,0,0,1,.94-.1h0a.66.66,0,0,1,.1.94h0l-1,1.22a.67.67,0,0,1-.52.25h0a.66.66,0,0,1-.42-.15Zm2.55-3.17a.68.68,0,0,1-.1-.94h0l1-1.22a.67.67,0,0,1,.95-.1h0a.67.67,0,0,1,.1.94h0l-1,1.22a.7.7,0,0,1-.53.25h0a.7.7,0,0,1-.42-.15Zm2.56-3.17a.66.66,0,0,1-.1-.94h0l1-1.22a.66.66,0,0,1,.94-.1h0a.67.67,0,0,1,.1.94h0l-1,1.22a.68.68,0,0,1-.52.25h0a.66.66,0,0,1-.42-.15Zm2.55-3.17a.67.67,0,0,1-.1-.94h0l1-1.22a.68.68,0,0,1,.95-.1h0a.68.68,0,0,1,.1.94h0l-1,1.22a.67.67,0,0,1-.52.25h0a.68.68,0,0,1-.42-.15Zm2.56-3.17a.66.66,0,0,1-.1-.94h0l1-1.22a.67.67,0,0,1,.94-.1h0a.67.67,0,0,1,.1.94h0l-1,1.22a.68.68,0,0,1-.52.25h0a.66.66,0,0,1-.42-.15Zm2.55-3.17a.67.67,0,0,1-.1-.94h0l.6-.75a.67.67,0,0,1,.94-.1h0a.66.66,0,0,1,.1.94h0l-.6.75a.67.67,0,0,1-.52.25h0a.66.66,0,0,1-.42-.15Z" transform="translate(-458.84 -391.35)"/><path class="a" d="M619.93,421.87l-1-1.18a.68.68,0,0,1,.06-.95h0a.68.68,0,0,1,.95.07h0l1,1.18a.67.67,0,0,1-.06.94h0a.7.7,0,0,1-.45.17h0a.67.67,0,0,1-.5-.23Zm-2.68-3.07-1-1.17a.67.67,0,0,1,.06-.95h0a.69.69,0,0,1,1,.06h0l1,1.18a.68.68,0,0,1-.07.95h0a.65.65,0,0,1-.44.16h0a.64.64,0,0,1-.5-.23Zm-2.68-3.06-1-1.18a.66.66,0,0,1,.06-.94h0a.67.67,0,0,1,.95.06h0l1,1.18a.67.67,0,0,1-.07.94h0a.66.66,0,0,1-.44.17h0a.67.67,0,0,1-.5-.23Zm-2.68-3.06-1-1.18a.67.67,0,0,1,.06-.95h0a.68.68,0,0,1,1,.07h0l1,1.18a.67.67,0,0,1-.07.94h0a.66.66,0,0,1-.44.17h0a.67.67,0,0,1-.5-.23Zm-2.68-3.07-1-1.17a.67.67,0,0,1,.06-.95h0a.67.67,0,0,1,.94.06h0l1,1.18a.67.67,0,0,1-.06.95h0a.66.66,0,0,1-.44.16h0a.67.67,0,0,1-.5-.23Zm-2.68-3.06-1-1.18a.66.66,0,0,1,.06-.94h0a.66.66,0,0,1,.94.06h0l1,1.18a.66.66,0,0,1-.06.94h0a.67.67,0,0,1-.44.17h0a.66.66,0,0,1-.5-.23Zm-2.68-3.06-1-1.18a.68.68,0,0,1,.07-.95h0a.67.67,0,0,1,.94.07h0l1,1.18a.66.66,0,0,1-.06.94h0a.67.67,0,0,1-.44.17h0a.66.66,0,0,1-.5-.23Zm-2.69-3.07-1-1.17a.68.68,0,0,1,.07-.95h0a.67.67,0,0,1,.94.06h0l1,1.18a.67.67,0,0,1-.06.95h0a.66.66,0,0,1-.44.16h0a.69.69,0,0,1-.51-.23Zm-2.68-3.06-1-1.18a.67.67,0,0,1,.07-.94h0a.66.66,0,0,1,.94.06h0l1,1.18a.66.66,0,0,1-.06.94h0a.7.7,0,0,1-.44.17h0a.69.69,0,0,1-.51-.23Z" transform="translate(-458.84 -391.35)"/><path class="a" d="M619.84,421.73a.67.67,0,0,1,.29-.9h0l1.4-.71a.67.67,0,0,1,.9.29h0a.68.68,0,0,1-.3.9h0l-1.39.71a.67.67,0,0,1-.3.08h0a.68.68,0,0,1-.6-.37Zm3.63-1.85a.67.67,0,0,1,.29-.9h0l1.39-.71a.67.67,0,0,1,.9.3h0a.67.67,0,0,1-.29.9h0l-1.39.71a.67.67,0,0,1-.31.07h0a.64.64,0,0,1-.59-.37Zm3.62-1.84a.68.68,0,0,1,.3-.9h0l1.39-.71a.67.67,0,0,1,.9.29h0a.67.67,0,0,1-.29.9h0l-1.4.71a.63.63,0,0,1-.3.07h0a.68.68,0,0,1-.6-.36Zm3.63-1.85a.67.67,0,0,1,.29-.9h0l1.4-.71a.67.67,0,0,1,.9.29h0a.67.67,0,0,1-.29.9h0l-1.4.71a.67.67,0,0,1-.3.08h0a.68.68,0,0,1-.6-.37Z" transform="translate(-458.84 -391.35)"/><path class="a" d="M634.21,452.21l-.49-1a.68.68,0,0,1,.32-.9h0a.67.67,0,0,1,.89.32h0l.5,1a.68.68,0,0,1-.33.9h0a.67.67,0,0,1-.28.06h0a.68.68,0,0,1-.61-.38Zm-1.56-3.31-.67-1.42a.68.68,0,0,1,.33-.89h0a.67.67,0,0,1,.89.32h0l.66,1.42a.67.67,0,0,1-.31.89h0a.75.75,0,0,1-.29.06h0a.68.68,0,0,1-.61-.38Zm-1.73-3.68-.67-1.42a.66.66,0,0,1,.32-.89h0a.67.67,0,0,1,.89.32h0l.67,1.42a.67.67,0,0,1-.32.89h0a.72.72,0,0,1-.29.06h0a.66.66,0,0,1-.6-.38Zm-1.74-3.68-.67-1.42a.67.67,0,0,1,.32-.89h0a.66.66,0,0,1,.89.32h0l.67,1.42a.66.66,0,0,1-.32.89h0a.71.71,0,0,1-.28.06h0a.67.67,0,0,1-.61-.38Zm-1.74-3.68-.66-1.42a.67.67,0,0,1,.31-.89h0a.67.67,0,0,1,.9.32h0l.67,1.41a.67.67,0,0,1-.33.89h0a.55.55,0,0,1-.28.07h0a.68.68,0,0,1-.61-.38Zm-1.73-3.69-.67-1.41a.66.66,0,0,1,.32-.89h0a.66.66,0,0,1,.89.32h0l.67,1.41a.67.67,0,0,1-.32.89h0a.59.59,0,0,1-.29.07h0a.65.65,0,0,1-.6-.39ZM624,430.49l-.67-1.41a.68.68,0,0,1,.32-.9h0a.67.67,0,0,1,.89.32h0l.67,1.42a.66.66,0,0,1-.32.89h0a.58.58,0,0,1-.28.07h0a.67.67,0,0,1-.61-.39Zm-1.74-3.68-.66-1.42a.66.66,0,0,1,.32-.89h0a.67.67,0,0,1,.89.32h0l.66,1.42a.66.66,0,0,1-.32.89h0a.67.67,0,0,1-.28.06h0a.68.68,0,0,1-.61-.38Zm-1.73-3.68-.67-1.42a.66.66,0,0,1,.32-.89h0a.67.67,0,0,1,.89.32h0l.67,1.42a.67.67,0,0,1-.32.89h0a.72.72,0,0,1-.29.06h0a.66.66,0,0,1-.6-.38Z" transform="translate(-458.84 -391.35)"/><path class="a" d="M597.83,455.86a.67.67,0,0,1,.59-.74h0L600,455a.67.67,0,0,1,.74.59h0a.67.67,0,0,1-.6.74h0l-1.55.17h-.08a.68.68,0,0,1-.66-.6Zm4-.43a.67.67,0,0,1,.59-.74h0l1.56-.16a.67.67,0,0,1,.74.59h0a.67.67,0,0,1-.6.74h0l-1.56.16h-.07a.66.66,0,0,1-.66-.6Zm4-.43a.67.67,0,0,1,.59-.74h0l1.56-.16a.66.66,0,0,1,.73.59h0a.67.67,0,0,1-.59.74h0l-1.56.16h-.07a.66.66,0,0,1-.66-.6Zm4-.43a.67.67,0,0,1,.6-.74h0l1.55-.17a.67.67,0,0,1,.74.6h0a.67.67,0,0,1-.59.74h0l-1.56.16h-.07a.68.68,0,0,1-.67-.6Zm4-.43a.67.67,0,0,1,.6-.74h0l1.55-.17a.67.67,0,0,1,.74.6h0a.67.67,0,0,1-.6.74h0l-1.55.16h-.07a.67.67,0,0,1-.67-.59Zm4.05-.44a.66.66,0,0,1,.59-.73h0l1.56-.17a.67.67,0,0,1,.74.6h0a.66.66,0,0,1-.6.73h0l-1.55.17h-.08a.66.66,0,0,1-.66-.6Zm4-.43a.66.66,0,0,1,.59-.73h0l1.56-.17a.67.67,0,0,1,.74.6h0a.68.68,0,0,1-.6.73h0l-1.56.17h-.07a.65.65,0,0,1-.66-.6Zm4-.43a.67.67,0,0,1,.6-.73h0l1.56-.17a.67.67,0,0,1,.73.59h0a.67.67,0,0,1-.59.74h0l-1.56.17h-.07a.67.67,0,0,1-.67-.6Zm4.05-.43a.67.67,0,0,1,.6-.74h0l1.55-.16a.67.67,0,0,1,.74.59h0a.67.67,0,0,1-.59.74h0L631,453h-.07a.67.67,0,0,1-.67-.6Z" transform="translate(-458.84 -391.35)"/><path class="a" d="M598.27,470.24a.66.66,0,0,1-.65-.68h0l0-1.57a.67.67,0,0,1,.68-.66h0a.68.68,0,0,1,.66.68h0l0,1.57a.67.67,0,0,1-.66.66h0Zm.07-4.07a.67.67,0,0,1-.66-.68h0l0-1.57a.67.67,0,0,1,.68-.66h0a.67.67,0,0,1,.66.68h0l0,1.57a.68.68,0,0,1-.67.66h0Zm.06-4.07a.67.67,0,0,1-.66-.68h0l0-1.57a.67.67,0,0,1,.68-.66h0a.67.67,0,0,1,.66.68h0l0,1.57a.68.68,0,0,1-.67.66h0Zm.06-4.08a.66.66,0,0,1-.66-.68h0l0-1.56a.66.66,0,0,1,.68-.66h0a.68.68,0,0,1,.66.68h0l0,1.57a.66.66,0,0,1-.67.65h0Z" transform="translate(-458.84 -391.35)"/></g><path class="a" d="M575.93,445.35v-.67l.56.36-.56-.36v.67a.68.68,0,0,1-.59-.34h0a.71.71,0,0,1,0-.69h0L597.3,410a.69.69,0,0,1,.57-.31h0a.66.66,0,0,1,.56.31h0l21.94,34.36a.68.68,0,0,1,0,.69h0a.66.66,0,0,1-.58.34H575.93ZM618.58,444l-20.71-32.44L577.15,444Z" transform="translate(-458.84 -391.35)"/><path class="a" d="M561.54,452.66a.65.65,0,0,1-.33-.56h0l-.33-37.9a.66.66,0,0,1,.52-.66h0a.67.67,0,0,1,.75.36h0l14.39,30.5-.61.28.61-.28a.68.68,0,0,1-.3.88h0l-14,7.4a.65.65,0,0,1-.31.08h0a.59.59,0,0,1-.34-.1Zm1-1.67,12.51-6.6-12.81-27.15.3,33.75Z" transform="translate(-458.84 -391.35)"/><path class="a" d="M634.51,453l-15-7.74a.69.69,0,0,1-.3-.89h0l14.85-30.49a.67.67,0,0,1,.75-.36h0a.67.67,0,0,1,.52.65h0l.17,38.23a.68.68,0,0,1-.32.58h0a.74.74,0,0,1-.35.1h0a.68.68,0,0,1-.31-.08Zm-13.81-8.63,13.44,6.93L634,417.07,620.7,444.39Z" transform="translate(-458.84 -391.35)"/><path class="a" d="M598,471.38l-36.38-18.69a.68.68,0,0,1-.29-.91h0a.68.68,0,0,1,.9-.29h0l36.38,18.7a.67.67,0,0,1,.29.9h0a.67.67,0,0,1-.59.37h0a.68.68,0,0,1-.31-.08Z" transform="translate(-458.84 -391.35)"/><path class="a" d="M597.74,471.21a.68.68,0,0,1,0-.85h0l21.54-26.1a.66.66,0,0,1,.94-.09h0a.66.66,0,0,1,.09.94h0l-19.51,23.65,33.71-16.93h0a.67.67,0,0,1,.9.3h0a.66.66,0,0,1-.3.89h0l-36.55,18.37a.82.82,0,0,1-.3.07h0a.69.69,0,0,1-.53-.25Z" transform="translate(-458.84 -391.35)"/><path class="a" d="M560.9,414.38a.67.67,0,0,1,.33-.78h0l36-18.87a.66.66,0,0,1,.65,0h0a.66.66,0,0,1,.33.56h0l.28,15a.68.68,0,0,1-.6.68h0l-36.32,3.87h-.08a.67.67,0,0,1-.64-.48Zm4.08-1.23,32.21-3.43-.25-13.3-32,16.73Z" transform="translate(-458.84 -391.35)"/><path class="a" d="M634.58,414.86,597.8,411a.67.67,0,0,1-.6-.74h0a.68.68,0,0,1,.74-.6h0l33.18,3.5-33.83-17.23h0a.68.68,0,0,1-.3-.9h0a.68.68,0,0,1,.91-.29h0L635,413.59a.68.68,0,0,1,.34.79h0a.66.66,0,0,1-.64.48h-.07Z" transform="translate(-458.84 -391.35)"/><path class="a" d="M597.76,471.22l-22.34-26.1a.68.68,0,0,1,.07-.95h0a.69.69,0,0,1,1,.08h0l22.34,26.1a.68.68,0,0,1-.08.95h0a.72.72,0,0,1-.43.16h0a.65.65,0,0,1-.51-.24Z" transform="translate(-458.84 -391.35)"/></svg>